<?xml version="1.0" standalone="no"?>
<!DOCTYPE svg PUBLIC "-//W3C//DTD SVG 1.1//EN" "http://www.w3.org/Graphics/SVG/1.1/DTD/svg11.dtd">
<svg xmlns="http://www.w3.org/2000/svg"><metadata>This SVG WebFont was generated by YouWorkForThem.
Â© 2017 Connary Fagen</metadata><defs><font horiz-adv-x="1292" id="ywftsvg"><font-face ascent="1638" bbox="-389 -512 2228 1956" cap-height="1454" descent="-410" font-family="" font-stretch="normal" font-weight="400" panose-1="0 0 5 0 0 0 0 0 0 0" underline-position="0" underline-thickness="0" unicode-range="U+0020-FB01" units-per-em="2048" x-height="1065"/><missing-glyph d="M883 1638v-2150h-682v2150h682zM717 1495h-357v-72h142v-80h-144v-69h359v69h-144v80h144v72zM573 1217h-215v-224h359v74h-144v150zM502 1145v-78h-72v78h72zM717 936h-359v-72h144v-80h-144v-69h215v149h144v72zM717 807h-72v-143h-287v-72h359v215zM717 545h-215v-121 h71v49h72v-100h-215v172h-72v-244h359v244zM717 172h-359v-244h359v244zM645 100v-100h-215v100h215zM717 -121h-359v-72h152l-152 -100v-72h359v72h-219l149 100h70v72z" horiz-adv-x="1075"/><glyph d="M885 1065v-1065h-125v961h-461v-961h-125v961h-117v104h117v137q0 158 81 224.5t189 66.5q90 0 158 -41v-100q-59 33 -135 32q-168 0 -168 -196v-123h586zM760 1454h125v-121h-125v121z" glyph-name="uniFB01" horiz-adv-x="1013" unicode="fi"/><glyph d="M1053 1384q-168 0 -168 -196v-123h303v-104h-303v-961h-125v961h-461v-961h-125v961h-117v104h117v139q0 158 81 223.5t191 65.5q88 0 156 -41v-100q-59 33 -135 32q-168 0 -168 -196v-123h461v139q0 158 81 223.5t191 65.5q88 0 156 -41v-100q-59 32 -135 32z" glyph-name="f_f.liga" horiz-adv-x="1286" unicode="ff"/><glyph d="M883 1638v-2150h-682v2150h682zM717 1495h-357v-72h142v-80h-144v-69h359v69h-144v80h144v72zM573 1217h-215v-224h359v74h-144v150zM502 1145v-78h-72v78h72zM717 936h-359v-72h144v-80h-144v-69h215v149h144v72zM717 807h-72v-143h-287v-72h359v215zM717 545h-215v-121 h71v49h72v-100h-215v172h-72v-244h359v244zM717 172h-359v-244h359v244zM645 100v-100h-215v100h215zM717 -121h-359v-72h152l-152 -100v-72h359v72h-219l149 100h70v72z" glyph-name=".notdef" horiz-adv-x="1075"/><glyph glyph-name="glyph1" horiz-adv-x="0"/><glyph glyph-name="glyph2" horiz-adv-x="681"/><glyph glyph-name="space" horiz-adv-x="446" unicode=" "/><glyph d="M135 381v1073h127v-1073h-127zM207 -20q-35 0 -56.5 22.5t-21.5 55t21.5 55t56.5 22.5t56.5 -22.5t21.5 -55t-21.5 -55t-56.5 -22.5z" glyph-name="exclam" horiz-adv-x="413" unicode="!"/><glyph d="M80 1028v426h117v-426h-117zM289 1028v426h117v-426h-117z" glyph-name="quotedbl" horiz-adv-x="485" unicode="&quot;"/><glyph d="M1034 952h-180l-33 -471h213v-112h-221l-27 -369h-127l27 369h-307l-27 -369h-127l27 369h-160v112h168l33 471h-201v113h209l27 369h127l-27 -369h307l27 369h127l-27 -369h172v-113zM694 481l33 471h-307l-33 -471h307z" glyph-name="numbersign" horiz-adv-x="1126" unicode="#"/><glyph d="M797 473q0 -133 -88 -208t-217 -89v-176h-97v176q-127 12 -211 86t-106 195l108 30q25 -98 92.5 -151t163.5 -53q94 0 162 48t68 142q0 76 -49.5 122t-163.5 95l-82 33q-248 100 -248 291q0 106 75 179t191 85v176h97v-178q98 -12 168.5 -70.5t95.5 -148.5l-101 -33 q-57 150 -213 150q-82 0 -136 -42t-54 -118q0 -121 174 -193l72 -28q156 -63 227.5 -131t71.5 -189z" glyph-name="dollar" horiz-adv-x="874" unicode="$"/><glyph d="M325.5 961q-104.5 0 -179 73.5t-74.5 178t74.5 178t179 73.5t179.5 -73.5t75 -178t-75 -178t-179.5 -73.5zM299 0l-96 63l919 1393l95 -63zM325.5 1055q67.5 0 112.5 44t45 113.5t-45 113.5t-112.5 44t-112.5 -44t-45 -113.5t45 -113.5t112.5 -44zM1103.5 -10 q-104.5 0 -179 73.5t-74.5 178t74.5 178.5t179 74t179.5 -74t75 -178.5t-75 -178t-179.5 -73.5zM1103.5 84q67.5 0 113 44t45.5 113.5t-45.5 113.5t-113 44t-112.5 -44t-45 -113.5t45 -113.5t112.5 -44z" glyph-name="percent" horiz-adv-x="1429" unicode="%"/><glyph d="M1200 100q43 0 84 21v-103q-39 -31 -110 -30q-164 0 -164 186v62q-53 -115 -165 -185.5t-263 -70.5q-203 0 -338 130t-135 339q0 195 118.5 316.5t286.5 135.5l-287 553h731v-106h-563l273 -537h-64q-156 0 -262 -96.5t-106 -257.5q0 -166 107.5 -265.5t258.5 -99.5 q166 0 275.5 110.5t109.5 252.5v387h270v-105h-155l4 -530q0 -107 94 -107z" glyph-name="ampersand" horiz-adv-x="1372" unicode="&amp;"/><glyph d="M80 1028v426h117v-426h-117z" glyph-name="quotesingle" horiz-adv-x="276" unicode="'"/><glyph d="M309 -266q-217 387 -217 921q0 508 217 871h119q-207 -375 -207 -871q0 -524 207 -921h-119z" glyph-name="parenleft" horiz-adv-x="503" unicode="("/><glyph d="M211 -266h-119q207 397 207 921q0 496 -207 871h119q217 -362 217 -871q0 -534 -217 -921z" glyph-name="parenright" horiz-adv-x="503" unicode=")"/><glyph d="M774 1167l-231 -61l149 -199l-92 -61l-135 196l-135 -196l-94 61l149 199l-231 61l26 107l234 -70l-6 242h110l-4 -242l234 70zM516 1116l-16 62h-72l-16 -62l53 -43z" glyph-name="asterisk" horiz-adv-x="927" unicode="*"/><glyph d="M791 629v-103h-299v-299h-103v299h-297v103h297v297h103v-297h299z" glyph-name="plus" horiz-adv-x="882" unicode="+"/><glyph d="M59 -287l150 426h117l-152 -426h-115z" glyph-name="comma" horiz-adv-x="395" unicode=","/><glyph d="M92 524v103h635v-103h-635z" glyph-name="hyphen" horiz-adv-x="819" unicode="-"/><glyph d="M158 -20q-35 0 -56.5 22.5t-21.5 55t21.5 55t56.5 22.5t56.5 -22.5t21.5 -55t-21.5 -55t-56.5 -22.5z" glyph-name="period" horiz-adv-x="315" unicode="."/><glyph d="M119 0l590 1536h133l-590 -1536h-133z" glyph-name="slash" horiz-adv-x="919" unicode="/"/><glyph d="M838 -20q-303 0 -516 209.5t-213 537.5t213 538t516 210t516 -210t213 -538t-213 -537.5t-516 -209.5zM837.5 98q247.5 0 426 176.5t178.5 453t-178.5 452.5t-426 176t-426 -176t-178.5 -452.5t178.5 -453t426 -176.5z" glyph-name="zero" horiz-adv-x="1675" unicode="0"/><glyph d="M313 0v1335h-192v119h317v-1454h-125z" glyph-name="one" horiz-adv-x="600" unicode="1"/><glyph d="M88 0l477 590q14 18 62.5 76.5t61.5 76t47 63.5t45.5 68.5t28.5 60.5t22.5 70.5t5.5 69.5q0 131 -81 206t-214 75q-137 0 -227.5 -82t-90.5 -236v-34h-125v45q0 188 122 307t321 119q193 0 307.5 -110t114.5 -278q0 -45 -7.5 -85.5t-26 -82.5t-31.5 -71t-45 -72 t-45 -60.5t-51 -63.5t-46 -54l-400 -485h658v-113h-883z" glyph-name="two" horiz-adv-x="1079" unicode="2"/><glyph d="M563 -20q-172 0 -296 86t-169 225l97 53q43 -115 139 -183.5t229 -68.5q156 0 261.5 93.5t105.5 260.5q0 193 -139.5 289t-333.5 49l354 557h-627v113h820l-369 -569q170 -2 296 -121t126 -320q0 -209 -141.5 -336.5t-352.5 -127.5z" glyph-name="three" horiz-adv-x="1155" unicode="3"/><glyph d="M1018 506v-113h-154v-393h-127v393h-639v113l639 948h127v-948h154zM229 506h508v764z" glyph-name="four" horiz-adv-x="1105" unicode="4"/><glyph d="M551 -20q-168 0 -289 82.5t-174 209.5l100 56q37 -96 135.5 -165t229.5 -69q162 0 272.5 105.5t110.5 275.5q0 168 -107.5 275.5t-267.5 107.5q-213 0 -330 -168l-104 37l98 727h688v-113h-589l-72 -512q115 137 326 138q201 0 340 -136.5t139 -355.5t-144.5 -357 t-361.5 -138z" glyph-name="five" horiz-adv-x="1155" unicode="5"/><glyph d="M582 879q190 0 319 -123t129 -320q0 -203 -135 -329.5t-332 -126.5q-199 0 -332 128t-133 334q0 41 7.5 84t15.5 77t27.5 75t30.5 64.5t37 63.5t35 53t37.5 52t30.5 43l355 500h141l-457 -641q99 66 224 66zM563.5 94q143.5 0 244.5 92.5t101 245.5q0 152 -101 244 t-244.5 92t-244 -92t-100.5 -244q0 -154 100.5 -246t244 -92z" glyph-name="six" horiz-adv-x="1128" unicode="6"/><glyph d="M217 0l520 1341h-676v113h842l-559 -1454h-127z" glyph-name="seven" horiz-adv-x="964" unicode="7"/><glyph d="M559.5 -20q-190.5 0 -326 119.5t-135.5 312.5q0 137 72 238.5t188 150.5q-84 51 -130 134t-46 181q0 147 104.5 253t272.5 106t272.5 -105.5t104.5 -253.5q0 -98 -46 -181t-130 -134q117 -49 188.5 -150.5t71.5 -238.5q0 -193 -135 -312.5t-325.5 -119.5zM559 846 q111 0 186.5 75.5t75.5 186.5q0 106 -71.5 180t-190.5 74q-117 0 -188.5 -74t-71.5 -180q0 -111 75.5 -186.5t184.5 -75.5zM559 96q139 0 236.5 88t97.5 232q0 141 -96.5 230t-237.5 89t-236.5 -89t-95.5 -230.5t97.5 -230.5t234.5 -89z" glyph-name="eight" horiz-adv-x="1118" unicode="8"/><glyph d="M565 1475q199 0 332 -128t133 -335q0 -41 -7 -84t-15.5 -77t-27.5 -75t-30.5 -64.5t-37 -63.5t-35 -53l-38 -52t-30.5 -43l-354 -500h-144l459 641q-94 -66 -223 -66q-190 0 -319.5 123t-129.5 320q0 203 135 330t332 127zM219 1022q0 -152 101.5 -244t245 -92t243.5 92 t100 244q0 154 -100 246t-243.5 92t-245 -92t-101.5 -246z" glyph-name="nine" horiz-adv-x="1128" unicode="9"/><glyph d="M188.5 874q-34.5 0 -56 23t-21.5 55.5t21.5 55t56 22.5t56 -22.5t21.5 -55t-21.5 -55.5t-56 -23zM188.5 -20q-34.5 0 -56 22.5t-21.5 55t21.5 55t56 22.5t56 -22.5t21.5 -55t-21.5 -55t-56 -22.5z" glyph-name="colon" horiz-adv-x="360" unicode=":"/><glyph d="M264 874q-35 0 -56.5 23t-21.5 55.5t21.5 55t56.5 22.5t56.5 -22.5t21.5 -55t-21.5 -55.5t-56.5 -23zM59 -287l150 426h117l-152 -426h-115z" glyph-name="semicolon" horiz-adv-x="421" unicode=";"/><glyph d="M946 0l-854 444v97l854 444v-125l-708 -368l708 -365v-127z" glyph-name="less" horiz-adv-x="1017" unicode="&lt;"/><glyph d="M92 690v103h686v-103h-686zM92 358v103h686v-103h-686z" glyph-name="equal" horiz-adv-x="870" unicode="="/><glyph d="M72 0v127l708 365l-708 368v125l854 -444v-97z" glyph-name="greater" horiz-adv-x="1017" unicode=">"/><glyph d="M424 379v78q0 94 39 165.5t93 117.5t109.5 91.5t94.5 109t39 144.5q0 125 -81 200t-212 75q-137 0 -224 -82t-87 -223v-33h-125v33q0 195 118.5 307.5t317.5 112.5q195 0 307.5 -104.5t112.5 -276.5q0 -96 -38 -171t-93.5 -123t-110.5 -93t-93 -105.5t-38 -134.5v-88 h-129zM487.5 -20q-34.5 0 -56 22.5t-21.5 55t21.5 55t56 22.5t56 -22.5t21.5 -55t-21.5 -55t-56 -22.5z" glyph-name="question" horiz-adv-x="995" unicode="?"/><glyph d="M1182 68q-145 -88 -342 -88q-303 0 -517 207.5t-214 537.5q0 328 215 539t514 211q293 0 498.5 -208t205.5 -550q0 -201 -69.5 -302.5t-184.5 -101.5q-84 0 -139 58.5t-62 156.5q-35 -100 -118.5 -157.5t-184.5 -57.5q-137 0 -237.5 107.5t-100.5 302.5t98.5 295 t239.5 100q96 0 173 -48t106 -130l16 160h78v-477q0 -211 129 -211q143 0 144 286q0 313 -169 491.5t-421 178.5q-256 0 -437.5 -179t-181.5 -464q0 -289 181.5 -464t445.5 -175q195 0 334 98v-116zM805 414q98 0 171 80.5t73 228.5q0 145 -72 220t-172 75q-106 0 -179 -75 t-73 -220t74 -227t178 -82z" glyph-name="at" horiz-adv-x="1650" unicode="@"/><glyph d="M1200 0l-147 371h-721l-148 -371h-137l584 1454h123l583 -1454h-137zM379 489h627l-314 795z" glyph-name="A" horiz-adv-x="1384" unicode="A"/><glyph d="M772 805q145 -33 226 -137.5t81 -257.5q0 -184 -124 -297t-365 -113h-461v1454h479q190 0 289.5 -97t99.5 -243q0 -106 -56 -189t-169 -120zM588 1339h-332v-495h326q139 0 215.5 70.5t76.5 185.5q0 111 -72.5 175t-213.5 64zM582 115q184 0 278 78.5t94 224.5 q0 150 -95 236.5t-277 86.5h-326v-626h326z" glyph-name="B" horiz-adv-x="1167" unicode="B"/><glyph d="M846 -20q-309 0 -523 210.5t-214 536.5t213 537t522 211q358 0 559 -271l-94 -71q-166 219 -461 219q-258 0 -434 -174t-176 -450.5t177 -451t435 -174.5q293 0 459 220l94 -72q-201 -270 -557 -270z" glyph-name="C" horiz-adv-x="1490" unicode="C"/><glyph d="M129 0v1454h393q330 0 525.5 -199.5t195.5 -527.5t-195.5 -527.5t-525.5 -199.5h-393zM256 121h262q283 0 438.5 164t155.5 442.5t-155.5 442t-438.5 163.5h-262v-1212z" glyph-name="D" horiz-adv-x="1331" unicode="D"/><glyph d="M256 121h651v-121h-778v1454h760v-121h-633v-545h541v-116h-541v-551z" glyph-name="E" horiz-adv-x="1005" unicode="E"/><glyph d="M895 1339h-639v-553h575v-108h-575v-678h-127v1454h766v-115z" glyph-name="F" horiz-adv-x="993" unicode="F"/><glyph d="M1513 721q16 -336 -180 -538.5t-493 -202.5q-305 0 -518 210.5t-213 536.5t213 537t522 211q358 0 559 -271l-94 -71q-166 219 -461 219q-258 0 -434 -174t-176 -451q0 -274 178 -450.5t432 -176.5q215 0 366.5 131t174.5 377h-443v113h567z" glyph-name="G" horiz-adv-x="1622" unicode="G"/><glyph d="M1034 1454h127v-1454h-127v653h-778v-653h-127v1454h127v-682h778v682z" glyph-name="H" horiz-adv-x="1290" unicode="H"/><glyph d="M129 0v1454h127v-1454h-127z" glyph-name="I" horiz-adv-x="385" unicode="I"/><glyph d="M418 -20q-119 0 -210 48t-140 136l84 82q96 -143 262 -144q131 0 209.5 83t78.5 247v1022h127v-1034q0 -219 -117.5 -329.5t-293.5 -110.5z" glyph-name="J" horiz-adv-x="958" unicode="J"/><glyph d="M1053 0l-572 692l-225 -256v-436h-127v1454h127v-850l741 850h152l-590 -672l643 -782h-149z" glyph-name="K" horiz-adv-x="1259" unicode="K"/><glyph d="M256 121h668v-121h-795v1454h127v-1333z" glyph-name="L" horiz-adv-x="1011" unicode="L"/><glyph d="M129 0v1454h143l607 -1288l606 1288h143v-1454h-127v1194h-10l-563 -1194h-99l-563 1194h-10v-1194h-127z" glyph-name="M" horiz-adv-x="1757" unicode="M"/><glyph d="M129 0v1454h131l883 -1239h10v1239h127v-1454h-131l-883 1239h-10v-1239h-127z" glyph-name="N" horiz-adv-x="1409" unicode="N"/><glyph d="M842 -20q-299 0 -516 209.5t-217 537.5t217 538t516 210q301 0 517 -210t216 -538t-216 -537.5t-517 -209.5zM841.5 102q245.5 0 425 175.5t179.5 449.5t-179.5 449.5t-425 175.5t-424.5 -175.5t-179 -449.5t179 -449.5t424.5 -175.5z" glyph-name="O" horiz-adv-x="1683" unicode="O"/><glyph d="M584 1454q227 0 359 -130t132 -333q0 -207 -131 -337t-360 -130h-328v-524h-127v1454h455zM573 645q174 0 272.5 91t98.5 255t-98 253t-273 89h-317v-688h317z" glyph-name="P" horiz-adv-x="1163" unicode="P"/><glyph d="M1575 727q0 -344 -240 -559l140 -168h-150l-80 98q-182 -119 -403 -118q-299 0 -516 209.5t-217 537.5t217 538t516 210q301 0 517 -210t216 -538zM842 102q176 0 321 93l-327 395h149l270 -324q190 180 191 461q0 274 -179.5 449.5t-425 175.5t-424.5 -175.5 t-179 -449.5t179 -449.5t425 -175.5z" glyph-name="Q" horiz-adv-x="1683" unicode="Q"/><glyph d="M1110 0h-141l-359 530h-30h-324v-530h-127v1454h451q223 0 354 -130t131 -333q0 -166 -86 -283.5t-242 -158.5zM256 1333v-686h307q174 0 272.5 90t98.5 254t-98.5 253t-272.5 89h-307z" glyph-name="R" horiz-adv-x="1198" unicode="R"/><glyph d="M555 -20q-182 0 -312 97t-165 255l106 47q31 -127 131.5 -203t239.5 -76q137 0 228 74t91 205q0 119 -74.5 187.5t-230.5 129.5l-98 39q-332 131 -332 383q0 160 114 258.5t288 98.5q166 0 274.5 -85t151.5 -216l-101 -50q-92 231 -321 232q-121 0 -200 -64.5t-79 -173.5 q0 -180 250 -276l98 -39q195 -78 293.5 -171t98.5 -253q0 -186 -130.5 -292.5t-320.5 -106.5z" glyph-name="S" horiz-adv-x="1083" unicode="S"/><glyph d="M1008 1454v-121h-402v-1333h-127v1333h-401v121h930z" glyph-name="T" horiz-adv-x="1085" unicode="T"/><glyph d="M637 -20q-221 0 -364.5 141t-143.5 389v944h127v-942q0 -197 106.5 -303.5t274.5 -106.5t274.5 106.5t106.5 303.5v942h127v-944q0 -248 -142.5 -389t-365.5 -141z" glyph-name="U" horiz-adv-x="1273" unicode="U"/><glyph d="M641 0l-584 1454h138l507 -1284l508 1284h138l-584 -1454h-123z" glyph-name="V" horiz-adv-x="1404" unicode="V"/><glyph d="M504 0l-436 1454h135l362 -1223l391 1223h105l393 -1223l363 1223h135l-439 -1454h-104l-399 1229l-402 -1229h-104z" glyph-name="W" horiz-adv-x="2019" unicode="W"/><glyph d="M1251 0h-149l-447 641l-446 -641h-152l523 750l-490 704h150l415 -596l414 596h152l-490 -704z" glyph-name="X" horiz-adv-x="1308" unicode="X"/><glyph d="M582 0v649l-514 805h145l432 -686l432 686h146l-514 -805v-649h-127z" glyph-name="Y" horiz-adv-x="1290" unicode="Y"/><glyph d="M57 0l846 1333h-801v121h1012l-846 -1333h832v-121h-1043z" glyph-name="Z" horiz-adv-x="1181" unicode="Z"/><glyph d="M92 -266v1792h307v-113h-180v-1567h180v-112h-307z" glyph-name="bracketleft" horiz-adv-x="491" unicode="["/><glyph d="M801 0h-133l-590 1536h133z" glyph-name="backslash" horiz-adv-x="919" unicode="\"/><glyph d="M399 -266h-307v112h180v1567h-180v113h307v-1792z" glyph-name="bracketright" horiz-adv-x="491" unicode="]"/><glyph d="M92 973l342 461h101l342 -461h-138l-254 344l-256 -344h-137z" glyph-name="asciicircum" horiz-adv-x="968" unicode="^"/><glyph d="M92 -113v113h1024v-113h-1024z" glyph-name="underscore" horiz-adv-x="1208" unicode="_"/><glyph d="M266 1200h-114l-132 316h121z" glyph-name="grave" horiz-adv-x="286" unicode="`"/><glyph d="M606 -20q-215 0 -371.5 147t-156.5 405.5t156.5 405.5t371.5 147q145 0 262 -70.5t164 -176.5h6v227h125v-1065h-125v227h-6q-47 -106 -164 -176.5t-262 -70.5zM623 94q170 0 294.5 116t124.5 322.5t-124.5 322.5t-294.5 116t-295 -115t-125 -323.5t125 -323.5t295 -115z " glyph-name="a" unicode="a"/><glyph d="M686 1085q215 0 371.5 -147t156.5 -405.5t-156.5 -405.5t-371.5 -147q-145 0 -262 70.5t-164 176.5h-6v-227h-125v1454h125v-616h6q47 106 164 176.5t262 70.5zM670 94q170 0 293.5 115t123.5 323.5t-123.5 323.5t-293.5 115t-295 -116t-125 -322.5t125 -322.5t295 -116z " glyph-name="b" unicode="b"/><glyph d="M625 -20q-219 0 -383 149.5t-164 400.5q0 254 164 404.5t383 150.5q141 0 264 -68.5t190 -193.5l-98 -55q-53 96 -147.5 149.5t-204.5 53.5q-170 0 -298 -119t-128 -322q0 -201 128 -318.5t298 -117.5q111 0 205 53.5t147 149.5l98 -55q-68 -125 -190.5 -193.5 t-263.5 -68.5z" glyph-name="c" horiz-adv-x="1157" unicode="c"/><glyph d="M1038 1454h125v-1454h-125v227h-6q-47 -106 -163.5 -176.5t-262.5 -70.5q-215 0 -371.5 147t-156.5 405.5t156.5 405.5t371.5 147q145 0 262 -70.5t164 -176.5h6v616zM623 94q170 0 294.5 116t124.5 322.5t-124.5 322.5t-294.5 116t-295 -115t-125 -323.5t125 -323.5 t295 -115z" glyph-name="d" unicode="d"/><glyph d="M604 1085q104 0 198.5 -37.5t169.5 -109.5t113.5 -188.5t26.5 -262.5h-915q14 -186 138 -291.5t298 -105.5q217 0 338 143l65 -67q-72 -88 -182.5 -137t-235.5 -49q-223 0 -381.5 148t-158.5 407q0 254 156.5 402t369.5 148zM604 975q-156 0 -273.5 -102.5t-133.5 -284.5 h802q-4 180 -119.5 283.5t-275.5 103.5z" glyph-name="e" horiz-adv-x="1191" unicode="e"/><glyph d="M467 1384q-168 0 -168 -196v-123h303v-104h-303v-961h-125v961h-117v104h117v139q0 158 81 223.5t191 65.5q88 0 156 -41v-100q-59 32 -135 32z" glyph-name="f" horiz-adv-x="700" unicode="f"/><glyph d="M1038 1065h125v-1016q0 -129 -46 -225t-125 -148.5t-168 -77t-189 -24.5q-205 0 -313 76v110q117 -78 299 -77q180 0 298.5 89t118.5 283v172h-8q-47 -106 -163.5 -176.5t-262.5 -70.5q-213 0 -369.5 147t-156.5 405.5t156.5 405.5t369.5 147q145 0 262 -70.5t164 -176.5 h8v227zM621 94q170 0 295.5 116t125.5 322.5t-125.5 322.5t-295.5 116t-294 -115t-124 -323.5t124 -323.5t294 -115z" glyph-name="g" unicode="g"/><glyph d="M623 1085q182 0 301.5 -116.5t119.5 -341.5v-627h-124v612q0 176 -92.5 267.5t-238 91.5t-240.5 -92.5t-95 -266.5v-612h-125v1454h125v-575q45 88 138.5 147t230.5 59z" glyph-name="h" horiz-adv-x="1173" unicode="h"/><glyph d="M129 1333v121h125v-121h-125zM129 0v1065h125v-1065h-125z" glyph-name="i" horiz-adv-x="382" unicode="i"/><glyph d="M131 1333v121h125v-121h-125zM-184 -395v116h41q135 0 204.5 61.5t69.5 227.5v1055h125v-1063q0 -221 -103.5 -309t-295.5 -88h-41z" glyph-name="j" horiz-adv-x="385" unicode="j"/><glyph d="M874 0l-440 483l-180 -194v-289h-125v1454h125v-1005l565 616h154l-461 -498l512 -567h-150z" glyph-name="k" horiz-adv-x="1081" unicode="k"/><glyph d="M129 0v1454h125v-1454h-125z" glyph-name="l" horiz-adv-x="382" unicode="l"/><glyph d="M1303 1085q174 0 279.5 -113.5t105.5 -340.5v-631h-125v618q0 164 -73 258.5t-216.5 94.5t-223 -95.5t-79.5 -257.5v-618h-125v618q0 164 -73 258.5t-216 94.5t-223 -95.5t-80 -257.5v-618h-125v1065h125v-174q96 195 334 194q123 0 214 -58t134 -175q39 98 131.5 165.5 t235.5 67.5z" glyph-name="m" horiz-adv-x="1816" unicode="m"/><glyph d="M623 1085q182 0 301.5 -116.5t119.5 -341.5v-627h-124v612q0 176 -92.5 267.5t-238 91.5t-240.5 -92.5t-95 -266.5v-612h-125v1065h125v-186q45 88 138.5 147t230.5 59z" glyph-name="n" horiz-adv-x="1173" unicode="n"/><glyph d="M627 -20q-219 0 -384 150.5t-165 402t165 402t384 150.5t384 -150.5t165 -402t-165 -402t-384 -150.5zM627 94q172 0 298 118t126 320.5t-126 320.5t-298 118t-298 -118t-126 -320.5t126 -320.5t298 -118z" glyph-name="o" horiz-adv-x="1253" unicode="o"/><glyph d="M686 1085q215 0 371.5 -147t156.5 -405.5t-156.5 -405.5t-371.5 -147q-145 0 -262 70.5t-164 176.5h-6v-616h-125v1454h125v-227h6q47 106 164 176.5t262 70.5zM670 94q170 0 293.5 115t123.5 323.5t-123.5 323.5t-293.5 115t-295 -116t-125 -322.5t125 -322.5t295 -116z " glyph-name="p" unicode="p"/><glyph d="M1038 1065h125v-1454h-125v616h-6q-47 -106 -163.5 -176.5t-262.5 -70.5q-215 0 -371.5 147t-156.5 405.5t156.5 405.5t371.5 147q145 0 262 -70.5t164 -176.5h6v227zM623 94q170 0 294.5 116t124.5 322.5t-124.5 322.5t-294.5 116t-295 -115t-125 -323.5t125 -323.5 t295 -115z" glyph-name="q" unicode="q"/><glyph d="M600 1085q35 0 55 -6v-116q-25 6 -53 6q-150 0 -249 -110.5t-99 -293.5v-565h-125v1065h125v-248q35 119 122 193.5t224 74.5z" glyph-name="r" horiz-adv-x="733" unicode="r"/><glyph d="M432.5 -20q-145.5 0 -243 75.5t-121.5 206.5l108 31q25 -98 92.5 -151.5t163.5 -53.5q94 0 162 48t68 143q0 76 -49.5 121.5t-163.5 95.5l-82 32q-248 100 -248 291q0 117 88 191.5t221 74.5q119 0 204 -60t113 -163l-100 -33q-57 150 -213 150q-82 0 -136 -42t-54 -118 q0 -121 174 -192l71 -29q156 -63 227.5 -131t71.5 -188q0 -145 -104 -222t-249.5 -77z" glyph-name="s" horiz-adv-x="864" unicode="s"/><glyph d="M547 961h-207v-754q0 -106 106 -107q47 0 97 21v-103q-47 -31 -123 -30q-96 0 -150.5 48t-54.5 144v781h-137v104h137v272h125v-272h207v-104z" glyph-name="t" horiz-adv-x="634" unicode="t"/><glyph d="M920 1065h124v-1065h-124v186q-45 -88 -138.5 -147t-230.5 -59q-182 0 -302 116.5t-120 341.5v627h125v-612q0 -176 92 -267.5t237.5 -91.5t241 92.5t95.5 266.5v612z" glyph-name="u" horiz-adv-x="1173" unicode="u"/><glyph d="M512 0l-455 1065h131l381 -905l381 905h131l-454 -1065h-115z" glyph-name="v" horiz-adv-x="1138" unicode="v"/><glyph d="M1708 1065h127l-405 -1065h-117l-367 911l-366 -911h-117l-406 1065h127l338 -903l363 903h123l362 -903z" glyph-name="w" horiz-adv-x="1892" unicode="w"/><glyph d="M47 0l414 543l-393 522h145l319 -428l320 428h145l-393 -522l414 -543h-150l-336 451l-335 -451h-150z" glyph-name="x" horiz-adv-x="1064" unicode="x"/><glyph d="M950 1065h131l-454 -1065l-172 -389h-123l176 397l-451 1057h131l381 -905z" glyph-name="y" horiz-adv-x="1138" unicode="y"/><glyph d="M57 0l721 952h-663v113h876l-721 -952h697v-113h-910z" glyph-name="z" horiz-adv-x="1048" unicode="z"/><glyph d="M344 -266q-68 0 -114 44t-46 120v583l-92 146l92 149v586q0 76 46 120t114 44h111v-113h-72q-33 0 -52.5 -18.5t-19.5 -51.5v-577l-86 -139l86 -135v-576q0 -33 19.5 -51.5t52.5 -18.5h72v-112h-111z" glyph-name="braceleft" horiz-adv-x="546" unicode="{"/><glyph d="M160 -184v1638h112v-1638h-112z" glyph-name="bar" horiz-adv-x="432" unicode="|"/><glyph d="M203 -266h-111v112h72q33 0 52.5 18.5t19.5 51.5v576l86 135l-86 139v577q0 33 -19.5 51.5t-52.5 18.5h-72v113h111q68 0 113.5 -44t45.5 -120v-586l93 -149l-93 -146v-583q0 -76 -45.5 -120t-113.5 -44z" glyph-name="braceright" horiz-adv-x="546" unicode="}"/><glyph d="M551 467q-59 0 -104.5 34t-82 67.5t-79.5 33.5q-41 0 -65.5 -26.5t-24.5 -65.5h-103q0 92 51.5 142t128.5 50q59 0 104.5 -33.5t82.5 -67.5t80 -34q41 0 65.5 27t24.5 65h102q0 -92 -51 -142t-129 -50z" glyph-name="asciitilde" horiz-adv-x="823" unicode="~"/><glyph d="M207 1085q35 0 56.5 -22.5t21.5 -55t-21.5 -55t-56.5 -22.5t-56.5 22.5t-21.5 55t21.5 55t56.5 22.5zM135 684h127v-1073h-127v1073z" glyph-name="exclamdown" horiz-adv-x="348" unicode="¡"/><glyph d="M659 248q100 6 186.5 57t135.5 139l98 -53q-63 -117 -174.5 -182.5t-245.5 -73.5v-217h-79v217q-205 16 -353.5 160.5t-148.5 378.5q0 236 147.5 380t354.5 160v220h79v-220q133 -8 245 -73.5t175 -179.5l-98 -54q-47 86 -134 137.5t-188 57.5v-854zM203 674 q0 -180 110.5 -294t266.5 -132v854q-156 -18 -266.5 -132t-110.5 -296z" glyph-name="cent" horiz-adv-x="1157" unicode="¢"/><glyph d="M1044 1001h-120v33q0 154 -93.5 241t-236.5 87q-135 0 -226.5 -79t-91.5 -216q0 -47 12.5 -99.5t27 -87t41 -94t38.5 -88.5h348v-98h-317q12 -53 12 -108q0 -197 -182 -383h770v-109h-928v109q221 205 221 393q0 51 -12 98h-201v98h168q-10 27 -37.5 86.5t-42 95 t-27.5 91t-13 106.5q0 176 121.5 287t320.5 111q203 0 325.5 -119t122.5 -322v-33z" glyph-name="sterling" horiz-adv-x="1142" unicode="£"/><glyph d="M1036 974.5q0 -149.5 -84 -267.5l95 -95l-101 -96l-92 92q-121 -92 -276.5 -92t-276.5 92l-92 -92l-100 96l94 95q-84 119 -84 268t86 268l-96 96l100 99l94 -95q119 90 274.5 90.5t274.5 -90.5l94 95l101 -99l-97 -96q86 -119 86 -268.5zM577.5 643q141.5 -2 236.5 95.5 t95 236.5q0 137 -95 233.5t-236.5 98.5t-236.5 -95.5t-95 -236.5q0 -137 95 -233.5t236.5 -98.5z" glyph-name="currency" horiz-adv-x="1155" unicode="¤"/><glyph d="M709 649v-22h303v-86h-303v-82h303v-84h-303v-375h-127v375h-281v84h281v82h-281v86h281v22l-514 805h145l432 -686l432 686h146z" glyph-name="yen" horiz-adv-x="1290" unicode="¥"/><glyph d="M160 881v573h112v-573h-112zM160 -184v573h112v-573h-112z" glyph-name="brokenbar" horiz-adv-x="432" unicode="¦"/><glyph d="M705 342q104 -88 104 -219q0 -145 -110.5 -227t-284.5 -82q-119 0 -215.5 46t-120.5 93v213h94v-162q14 -31 84 -64.5t160 -33.5q125 0 207 57t82 162q0 96 -60.5 145t-185.5 95l-105 38q-270 96 -270 308q0 133 115 215q-115 86 -115 227q0 127 98.5 205t249.5 78 q111 0 202 -42t118 -87v-215h-93v163q-18 27 -80.5 57.5t-144.5 30.5q-113 0 -181.5 -51t-68.5 -141q0 -141 199 -219l106 -39q156 -57 238 -128t82 -200q0 -141 -104 -223zM383 489l106 -38q78 -29 121 -52q94 61 95 168q0 51 -17.5 90t-57.5 67t-75 44t-96 39l-105 39 l-63 24q-106 -49 -107 -161q0 -142 199 -220z" glyph-name="section" horiz-adv-x="886" unicode="§"/><glyph d="M0 1331v127h121v-127h-121zM408 1331v127h120v-127h-120z" glyph-name="dieresis" horiz-adv-x="528" unicode="¨"/><glyph d="M836 -14q-297 0 -512 206.5t-215 534.5t215 534.5t512 206.5t512 -206.5t215 -534.5t-215 -534.5t-512 -206.5zM835.5 102q249.5 0 429 172t179.5 453t-179.5 453t-429 172t-429 -172t-179.5 -453t179.5 -453t429 -172zM848 272q-184 0 -312 128t-128 327t128 327 t312 128t303 -123l-70 -82q-90 90 -225 90q-139 0 -235.5 -94t-96.5 -246t96.5 -246t235.5 -94q135 0 225 90l70 -82q-119 -123 -303 -123z" glyph-name="copyright" horiz-adv-x="1671" unicode="©"/><glyph d="M299 784q-98 0 -159.5 51.5t-61.5 143.5q0 174 239 197l207 22q-4 158 -172 158q-106 0 -196 -86l-56 59q86 117 260 117q264 0 267 -303v-197q0 -82 35 -155h-99q-25 29 -31 98q-81 -105 -233 -105zM309 872q80 0 137.5 45.5t77.5 88.5v108l-209 -22q-135 -12 -135 -111 q0 -51 35 -80t94 -29z" glyph-name="ordfeminine" horiz-adv-x="790" unicode="ª"/><glyph d="M381 268l-299 295v72l299 297l47 -49l-256 -283l256 -283zM690 268l-299 295v72l299 297l47 -49l-256 -283l256 -283z" glyph-name="guillemotleft" horiz-adv-x="788" unicode="«"/><glyph d="M860 618v-315h-115v213h-653v102h768z" glyph-name="logicalnot" horiz-adv-x="952" unicode="¬"/><glyph d="M92 524v103h635v-103h-635z" glyph-name="uni00AD" horiz-adv-x="819" unicode="­"/><glyph d="M836 -14q-297 0 -512 206.5t-215 534.5q0 334 214 543t513 209t513 -209t214 -543q0 -328 -215 -534.5t-512 -206.5zM835.5 102q249.5 0 429 172t179.5 453q0 289 -178.5 462t-430 173t-430 -173t-178.5 -462q0 -281 179.5 -453t429 -172zM575 328v815h279 q129 0 201.5 -72t72.5 -190q0 -98 -51 -161t-139 -85l229 -307h-114l-219 303h-160v-303h-99zM672 721h176q182 0 182 158q0 174 -182 174h-176v-332z" glyph-name="registered" horiz-adv-x="1671" unicode="®"/><glyph d="M0 1333v101h741v-101h-741z" glyph-name="macron" horiz-adv-x="741" unicode="¯"/><glyph d="M399 877q-125 0 -213 88t-88 213t88 211t213 86t212 -86t87 -211t-87 -213t-212 -88zM399 977q84 0 140.5 58.5t56.5 142.5t-56.5 140t-140.5 56q-86 0 -142 -56t-56 -140q0 -86 56 -143.5t142 -57.5z" glyph-name="degree" horiz-adv-x="796" unicode="°"/><glyph d="M492 651h299v-102h-299v-299h-103v299h-297v102h297v297h103v-297zM98 2v102h686v-102h-686z" glyph-name="plusminus" horiz-adv-x="882" unicode="±"/><glyph d="M94 901v66l139 141q57 59 75 78.5t32 46.5t14 55q0 37 -28.5 63.5t-65.5 26.5q-39 0 -67.5 -26.5t-28.5 -75.5v-29h-76v29q0 72 50 119t122 47q70 0 121 -46t51 -108q0 -53 -29.5 -96t-109.5 -125l-96 -100h241v-66h-344z" glyph-name="uni00B2" horiz-adv-x="546" unicode="²"/><glyph d="M285 893q-82 0 -136.5 55.5t-50.5 130.5h78q-2 -49 29 -85t80 -36q45 0 77.5 28t32.5 71q0 102 -151 96v61q129 0 129 86q0 33 -25.5 54.5t-62.5 21.5q-45 0 -71 -29.5t-26 -82.5h-75q-2 78 47 127t125 49q66 0 115 -42t49 -98q0 -66 -62 -108q86 -37 86 -135 q0 -70 -56 -117t-132 -47z" glyph-name="uni00B3" horiz-adv-x="571" unicode="³"/><glyph d="M20 1200l125 316h121l-131 -316h-115z" glyph-name="acute" horiz-adv-x="286" unicode="´"/><glyph d="M920 1065h124v-1065h-124v186q-45 -88 -138.5 -147t-230.5 -59q-184 0 -297 110v-479h-125v1454h125v-612q0 -176 92 -267.5t237.5 -91.5t241 92.5t95.5 266.5v612z" glyph-name="uni00B5" horiz-adv-x="1173" unicode="µ"/><glyph d="M109 991q0 203 132 333t359 130h455v-1454h-127v524h-328q-229 0 -360 130t-131 337zM1184 1454h127v-1454h-127v1454zM928 1333h-318q-174 0 -272 -89t-98 -253t98 -255t272 -91h318v688z" glyph-name="paragraph" horiz-adv-x="1439" unicode="¶"/><glyph d="M178 477q-35 0 -56.5 22.5t-21.5 55.5t21.5 55.5t56.5 22.5t56.5 -22.5t21.5 -55.5t-21.5 -55.5t-56.5 -22.5z" glyph-name="periodcentered" horiz-adv-x="356" unicode="·"/><glyph d="M147 -90q76 2 126.5 -43t50.5 -121q0 -100 -88.5 -148.5t-204.5 -27.5v70q182 -10 182 100q0 115 -160 90l-33 47l82 123h109z" glyph-name="cedilla" horiz-adv-x="344" unicode="¸"/><glyph d="M193 901v453l-35 -23l-37 64l72 41h75v-535h-75z" glyph-name="uni00B9" horiz-adv-x="430" unicode="¹"/><glyph d="M395 784q-121 0 -219 91.5t-98 241t98 238.5t219 89t219.5 -90t98.5 -238q0 -150 -99.5 -241t-218.5 -91zM395 883q86 0 151.5 61.5t65.5 171.5q0 109 -65.5 169.5t-151.5 60.5q-88 0 -153.5 -60.5t-65.5 -169.5q0 -111 65.5 -172t153.5 -61z" glyph-name="ordmasculine" horiz-adv-x="790" unicode="º"/><glyph d="M98 268l-47 49l254 283l-254 283l47 49l299 -297v-72zM408 268l-48 49l254 283l-254 283l48 49l299 -297v-72z" glyph-name="guillemotright" horiz-adv-x="788" unicode="»"/><glyph d="M129 901v453l-35 -23l-37 64l72 41h76v-535h-76zM51 0l893 1434h86l-880 -1434h-99zM983 0v156h-270l270 379h76v-316h55v-63h-55v-156h-76zM850 219h133v195z" glyph-name="onequarter" horiz-adv-x="1165" unicode="¼"/><glyph d="M129 901v453l-35 -23l-37 64l72 41h76v-535h-76zM51 0l893 1434h86l-880 -1434h-99zM719 0v66l139 141q57 59 74.5 78.5t32 46t14.5 55.5q0 37 -28.5 63.5t-65.5 26.5q-39 0 -68 -26.5t-29 -75.5v-29h-75v29q0 72 50 119t122 47q70 0 121 -46t51 -108q0 -53 -30 -96 t-109 -125l-97 -100h242v-66h-344z" glyph-name="onehalf" horiz-adv-x="1114" unicode="½"/><glyph d="M238 893q-82 0 -136.5 55.5t-50.5 130.5h78q-2 -49 28.5 -85t80.5 -36q45 0 77.5 28t32.5 71q0 102 -151 96v61q129 0 129 86q0 33 -26 54.5t-62 21.5q-45 0 -71 -29.5t-26 -82.5h-75q-2 78 47 127t125 49q66 0 114.5 -42t48.5 -98q0 -66 -61 -108q86 -37 86 -135 q0 -70 -56 -117t-132 -47zM109 0l892 1434h86l-880 -1434h-98zM1020 0v156h-270l270 379h76v-316h55v-63h-55v-156h-76zM887 219h133v195z" glyph-name="threequarters" horiz-adv-x="1202" unicode="¾"/><glyph d="M508 1085q35 0 56.5 -22.5t21.5 -55t-21.5 -55t-56.5 -22.5t-56.5 22.5t-21.5 55t21.5 55t56.5 22.5zM571 686v-78q0 -94 -38.5 -165.5t-93 -117.5t-110 -91.5t-94 -109t-38.5 -144.5q0 -125 80.5 -200t211.5 -75q137 0 224.5 82t87.5 223v33h125v-33q0 -195 -119 -307.5 t-318 -112.5q-195 0 -307 104.5t-112 276.5q0 96 37.5 171t93 123t111 93t93 105.5t37.5 134.5v88h129z" glyph-name="questiondown" horiz-adv-x="995" unicode="¿"/><glyph d="M743 1569h-114l-131 315h120zM1200 0l-147 371h-721l-148 -371h-137l584 1454h123l583 -1454h-137zM379 489h627l-314 795z" glyph-name="Agrave" horiz-adv-x="1384" unicode="À"/><glyph d="M895 1884l-131 -315h-115l125 315h121zM1200 0l-147 371h-721l-148 -371h-137l584 1454h123l583 -1454h-137zM379 489h627l-314 795z" glyph-name="Aacute" horiz-adv-x="1384" unicode="Á"/><glyph d="M692 1788l-184 -215l-72 63l211 248h88l213 -248l-71 -63zM1200 0l-147 371h-721l-148 -371h-137l584 1454h123l583 -1454h-137zM379 489h627l-314 795z" glyph-name="Acircumflex" horiz-adv-x="1384" unicode="Â"/><glyph d="M567 1749q-41 0 -65.5 -26.5t-24.5 -65.5h-102q0 92 51 142t129 50q59 0 104.5 -33.5t82 -67.5t79.5 -34q41 0 65.5 26.5t24.5 65.5h103q0 -92 -50.5 -142t-129.5 -50q-59 0 -104.5 33.5t-82.5 67.5t-80 34zM1200 0l-147 371h-721l-148 -371h-137l584 1454h123l583 -1454 h-137zM379 489h627l-314 795z" glyph-name="Atilde" horiz-adv-x="1384" unicode="Ã"/><glyph d="M549 1827v-127h-121v127h121zM956 1827v-127h-120v127h120zM1200 0l-147 371h-721l-148 -371h-137l584 1454h123l583 -1454h-137zM379 489h627l-314 795z" glyph-name="Adieresis" horiz-adv-x="1384" unicode="Ä"/><glyph d="M694 1593q-74 0 -124 50.5t-50 122t50.5 120.5t123.5 49q72 0 122 -50t50 -120q0 -72 -50 -122t-122 -50zM692 1847q-35 0 -58.5 -23.5t-23.5 -58t23.5 -58.5t58.5 -24t58.5 24t23.5 58.5t-23.5 58t-58.5 23.5zM1200 0l-147 371h-721l-148 -371h-137l584 1454h123 l583 -1454h-137zM379 489h627l-314 795z" glyph-name="Aring" horiz-adv-x="1384" unicode="Å"/><glyph d="M1165 121h652v-121h-779v399h-577l-268 -399h-146l981 1454h770v-121h-633v-545h541v-116h-541v-551zM537 512h501v743z" glyph-name="AE" horiz-adv-x="1914" unicode="Æ"/><glyph d="M850 102q293 0 459 220l94 -72q-186 -252 -514 -268l-49 -72q76 2 126 -43t50 -121q0 -100 -88 -148.5t-205 -27.5v70q182 -10 182 100q0 115 -160 90l-32 47l69 105q-289 23 -481 229.5t-192 515.5q0 326 213 537t522 211q358 0 559 -271l-94 -71q-166 219 -461 219 q-258 0 -434 -174t-176 -450.5t177 -451t435 -174.5z" glyph-name="Ccedilla" horiz-adv-x="1490" unicode="Ç"/><glyph d="M604 1589h-115l-131 316h121zM256 121h651v-121h-778v1454h760v-121h-633v-545h541v-116h-541v-551z" glyph-name="Egrave" horiz-adv-x="1005" unicode="È"/><glyph d="M756 1905l-131 -316h-115l125 316h121zM256 121h651v-121h-778v1454h760v-121h-633v-545h541v-116h-541v-551z" glyph-name="Eacute" horiz-adv-x="1005" unicode="É"/><glyph d="M553 1808l-184 -215l-72 64l211 248h88l213 -248l-72 -64zM256 121h651v-121h-778v1454h760v-121h-633v-545h541v-116h-541v-551z" glyph-name="Ecircumflex" horiz-adv-x="1005" unicode="Ê"/><glyph d="M410 1847v-127h-121v127h121zM817 1847v-127h-121v127h121zM256 121h651v-121h-778v1454h760v-121h-633v-545h541v-116h-541v-551z" glyph-name="Edieresis" horiz-adv-x="1005" unicode="Ë"/><glyph d="M244 1589h-115l-131 316h121zM129 0v1454h127v-1454h-127z" glyph-name="Igrave" horiz-adv-x="385" unicode="Ì"/><glyph d="M150 1589l124 316h121l-131 -316h-114zM129 0v1454h127v-1454h-127z" glyph-name="Iacute" horiz-adv-x="385" unicode="Í"/><glyph d="M8 1593l-71 64l210 248h89l213 -248l-72 -64l-184 215zM129 0v1454h127v-1454h-127z" glyph-name="Icircumflex" horiz-adv-x="385" unicode="Î"/><glyph d="M-72 1720v127h121v-127h-121zM336 1720v127h121v-127h-121zM129 0v1454h127v-1454h-127z" glyph-name="Idieresis" horiz-adv-x="385" unicode="Ï"/><glyph d="M557 1454q330 0 525.5 -199.5t195.5 -527.5t-195.5 -527.5t-525.5 -199.5h-393v664h-125v102h125v688h393zM553 121q283 0 438.5 164t155.5 442.5t-155.5 442t-438.5 163.5h-262v-567h383v-102h-383v-543h262z" glyph-name="Eth" horiz-adv-x="1366" unicode="Ð"/><glyph d="M846 1634q-59 0 -104.5 34t-82 67.5t-79.5 33.5q-41 0 -66 -26.5t-25 -65.5h-102q0 92 51 142.5t129 50.5q59 0 104.5 -34t82.5 -67.5t80 -33.5q41 0 65.5 26.5t24.5 65.5h102q0 -92 -50 -142.5t-130 -50.5zM129 0v1454h131l883 -1239h10v1239h127v-1454h-131l-883 1239 h-10v-1239h-127z" glyph-name="Ntilde" horiz-adv-x="1409" unicode="Ñ"/><glyph d="M893 1589h-115l-131 316h121zM842 -20q-299 0 -516 209.5t-217 537.5t217 538t516 210q301 0 517 -210t216 -538t-216 -537.5t-517 -209.5zM841.5 102q245.5 0 425 175.5t179.5 449.5t-179.5 449.5t-425 175.5t-424.5 -175.5t-179 -449.5t179 -449.5t424.5 -175.5z" glyph-name="Ograve" horiz-adv-x="1683" unicode="Ò"/><glyph d="M799 1589l125 316h120l-131 -316h-114zM842 -20q-299 0 -516 209.5t-217 537.5t217 538t516 210q301 0 517 -210t216 -538t-216 -537.5t-517 -209.5zM841.5 102q245.5 0 425 175.5t179.5 449.5t-179.5 449.5t-425 175.5t-424.5 -175.5t-179 -449.5t179 -449.5 t424.5 -175.5z" glyph-name="Oacute" horiz-adv-x="1683" unicode="Ó"/><glyph d="M657 1593l-71 64l211 248h88l213 -248l-72 -64l-184 215zM842 -20q-299 0 -516 209.5t-217 537.5t217 538t516 210q301 0 517 -210t216 -538t-216 -537.5t-517 -209.5zM841.5 102q245.5 0 425 175.5t179.5 449.5t-179.5 449.5t-425 175.5t-424.5 -175.5t-179 -449.5 t179 -449.5t424.5 -175.5z" glyph-name="Ocircumflex" horiz-adv-x="1683" unicode="Ô"/><glyph d="M983 1634q-59 0 -104 34t-82 67.5t-80 33.5q-41 0 -65.5 -26.5t-24.5 -65.5h-103q0 92 51.5 142.5t129.5 50.5q59 0 104 -34t82 -67.5t80 -33.5q41 0 65.5 26.5t24.5 65.5h102q0 -92 -50 -142.5t-130 -50.5zM842 -20q-299 0 -516 209.5t-217 537.5t217 538t516 210 q301 0 517 -210t216 -538t-216 -537.5t-517 -209.5zM841.5 102q245.5 0 425 175.5t179.5 449.5t-179.5 449.5t-425 175.5t-424.5 -175.5t-179 -449.5t179 -449.5t424.5 -175.5z" glyph-name="Otilde" horiz-adv-x="1683" unicode="Õ"/><glyph d="M578 1720v127h120v-127h-120zM985 1720v127h121v-127h-121zM842 -20q-299 0 -516 209.5t-217 537.5t217 538t516 210q301 0 517 -210t216 -538t-216 -537.5t-517 -209.5zM841.5 102q245.5 0 425 175.5t179.5 449.5t-179.5 449.5t-425 175.5t-424.5 -175.5t-179 -449.5 t179 -449.5t424.5 -175.5z" glyph-name="Odieresis" horiz-adv-x="1683" unicode="Ö"/><glyph d="M659 784l-210 -211l210 -211l-71 -71l-211 211l-211 -211l-74 71l213 213l-211 209l72 72l211 -209l209 209z" glyph-name="multiply" horiz-adv-x="751" unicode="×"/><glyph d="M1225 1368q160 -96 255 -263t95 -378q0 -328 -216 -537.5t-517 -209.5q-127 0 -256 45l-60 -127h-143l86 182q-164 96 -262 264t-98 383q0 328 217 538t516 210q141 0 268 -50l49 101h141zM238 727q0 -176 77.5 -314.5t208.5 -219.5l533 1120q-106 39 -215 39 q-246 0 -425 -175.5t-179 -449.5zM842 102q246 0 425 175.5t179 449.5q0 172 -74 308t-201 218l-530 -1116q99 -35 201 -35z" glyph-name="Oslash" horiz-adv-x="1683" unicode="Ø"/><glyph d="M690 1589h-115l-131 316h121zM637 -20q-221 0 -364.5 141t-143.5 389v944h127v-942q0 -197 106.5 -303.5t274.5 -106.5t274.5 106.5t106.5 303.5v942h127v-944q0 -248 -142.5 -389t-365.5 -141z" glyph-name="Ugrave" horiz-adv-x="1273" unicode="Ù"/><glyph d="M594 1589l125 316h121l-131 -316h-115zM637 -20q-221 0 -364.5 141t-143.5 389v944h127v-942q0 -197 106.5 -303.5t274.5 -106.5t274.5 106.5t106.5 303.5v942h127v-944q0 -248 -142.5 -389t-365.5 -141z" glyph-name="Uacute" horiz-adv-x="1273" unicode="Ú"/><glyph d="M453 1593l-72 64l211 248h88l213 -248l-72 -64l-184 215zM637 -20q-221 0 -364.5 141t-143.5 389v944h127v-942q0 -197 106.5 -303.5t274.5 -106.5t274.5 106.5t106.5 303.5v942h127v-944q0 -248 -142.5 -389t-365.5 -141z" glyph-name="Ucircumflex" horiz-adv-x="1273" unicode="Û"/><glyph d="M373 1720v127h121v-127h-121zM780 1720v127h121v-127h-121zM637 -20q-221 0 -364.5 141t-143.5 389v944h127v-942q0 -197 106.5 -303.5t274.5 -106.5t274.5 106.5t106.5 303.5v942h127v-944q0 -248 -142.5 -389t-365.5 -141z" glyph-name="Udieresis" horiz-adv-x="1273" unicode="Ü"/><glyph d="M602 1589l125 316h121l-131 -316h-115zM582 0v649l-514 805h145l432 -686l432 686h146l-514 -805v-649h-127z" glyph-name="Yacute" horiz-adv-x="1290" unicode="Ý"/><glyph d="M645 1159q233 0 359 -110.5t126 -317.5t-125.5 -317.5t-359.5 -110.5h-389v-303h-127v1454h127v-295h389zM633 416q371 0 371 315.5t-371 315.5h-377v-631h377z" glyph-name="Thorn" horiz-adv-x="1218" unicode="Þ"/><glyph d="M129 0v1051q0 180 118 281.5t339 101.5q211 0 337 -92.5t126 -260.5q0 -111 -56.5 -187.5t-167.5 -107.5q297 -68 297 -372q0 -203 -127 -308.5t-374 -105.5h-203v113h188q391 0 391 305q0 309 -411 309h-168v107h166q338 0 338 235q0 125 -89.5 188.5t-246.5 63.5 q-332 0 -332 -277v-1044h-125z" glyph-name="germandbls" horiz-adv-x="1210" unicode="ß"/><glyph d="M678 1200h-115l-131 316h121zM606 -20q-215 0 -371.5 147t-156.5 405.5t156.5 405.5t371.5 147q145 0 262 -70.5t164 -176.5h6v227h125v-1065h-125v227h-6q-47 -106 -164 -176.5t-262 -70.5zM623 94q170 0 294.5 116t124.5 322.5t-124.5 322.5t-294.5 116t-295 -115 t-125 -323.5t125 -323.5t295 -115z" glyph-name="agrave" unicode="à"/><glyph d="M584 1200l125 316h120l-131 -316h-114zM606 -20q-215 0 -371.5 147t-156.5 405.5t156.5 405.5t371.5 147q145 0 262 -70.5t164 -176.5h6v227h125v-1065h-125v227h-6q-47 -106 -164 -176.5t-262 -70.5zM623 94q170 0 294.5 116t124.5 322.5t-124.5 322.5t-294.5 116 t-295 -115t-125 -323.5t125 -323.5t295 -115z" glyph-name="aacute" unicode="á"/><glyph d="M442 1204l-71 64l211 248h88l213 -248l-72 -64l-184 215zM606 -20q-215 0 -371.5 147t-156.5 405.5t156.5 405.5t371.5 147q145 0 262 -70.5t164 -176.5h6v227h125v-1065h-125v227h-6q-47 -106 -164 -176.5t-262 -70.5zM623 94q170 0 294.5 116t124.5 322.5t-124.5 322.5 t-294.5 116t-295 -115t-125 -323.5t125 -323.5t295 -115z" glyph-name="acircumflex" unicode="â"/><glyph d="M768 1245q-59 0 -104.5 34t-82 67.5t-79.5 33.5q-41 0 -65.5 -26.5t-24.5 -65.5h-103q0 92 51.5 142.5t128.5 50.5q59 0 104.5 -34t82.5 -67.5t80 -33.5q41 0 65.5 26.5t24.5 65.5h102q0 -92 -50 -142.5t-130 -50.5zM606 -20q-215 0 -371.5 147t-156.5 405.5t156.5 405.5 t371.5 147q145 0 262 -70.5t164 -176.5h6v227h125v-1065h-125v227h-6q-47 -106 -164 -176.5t-262 -70.5zM623 94q170 0 294.5 116t124.5 322.5t-124.5 322.5t-294.5 116t-295 -115t-125 -323.5t125 -323.5t295 -115z" glyph-name="atilde" unicode="ã"/><glyph d="M362 1331v127h121v-127h-121zM770 1331v127h121v-127h-121zM606 -20q-215 0 -371.5 147t-156.5 405.5t156.5 405.5t371.5 147q145 0 262 -70.5t164 -176.5h6v227h125v-1065h-125v227h-6q-47 -106 -164 -176.5t-262 -70.5zM623 94q170 0 294.5 116t124.5 322.5 t-124.5 322.5t-294.5 116t-295 -115t-125 -323.5t125 -323.5t295 -115z" glyph-name="adieresis" unicode="ä"/><glyph d="M629 1225q-74 0 -124 50t-50 121.5t50 121t124 49.5q72 0 122 -50.5t50 -119.5q0 -72 -50 -122t-122 -50zM627 1315q35 0 58.5 23.5t23.5 58.5t-23.5 58.5t-58.5 23.5t-58.5 -23.5t-23.5 -58.5t23.5 -58.5t58.5 -23.5zM606 -20q-215 0 -371.5 147t-156.5 405.5 t156.5 405.5t371.5 147q145 0 262 -70.5t164 -176.5h6v227h125v-1065h-125v227h-6q-47 -106 -164 -176.5t-262 -70.5zM623 94q170 0 294.5 116t124.5 322.5t-124.5 322.5t-294.5 116t-295 -115t-125 -323.5t125 -323.5t295 -115z" glyph-name="aring" unicode="å"/><glyph d="M2077 487h-914v-22q23 -176 145 -275.5t289 -99.5q217 0 338 143l66 -67q-72 -88 -182.5 -137t-235.5 -49q-264 0 -420 190v-170h-125v227h-6q-47 -106 -163.5 -176.5t-262.5 -70.5q-215 0 -371.5 147t-156.5 405.5t156.5 405.5t371.5 147q145 0 262 -70.5t164 -176.5h6 v227h125v-168q74 90 181.5 139t224.5 49q104 0 198.5 -37.5t169 -109.5t113.5 -189t27 -262zM1569 975q-154 0 -269.5 -98.5t-136.5 -272.5v-16h803q-6 180 -121.5 283.5t-275.5 103.5zM623 94q170 0 294.5 116t124.5 322.5t-124.5 322.5t-294.5 116t-295 -115t-125 -323.5 t125 -323.5t295 -115z" glyph-name="ae" horiz-adv-x="2156" unicode="æ"/><glyph d="M629 94q111 0 205 53.5t147 149.5l98 -55q-61 -115 -170.5 -182.5t-238.5 -77.5l-52 -72q76 2 126.5 -43t50.5 -121q0 -100 -88.5 -148.5t-204.5 -27.5v70q182 -10 182 100q0 115 -160 90l-32 47l69 107q-201 20 -342 166.5t-141 379.5q0 254 164 404.5t383 150.5 q141 0 264 -68.5t190 -193.5l-98 -55q-53 96 -147.5 149.5t-204.5 53.5q-170 0 -298 -119t-128 -322q0 -201 128 -318.5t298 -117.5z" glyph-name="ccedilla" horiz-adv-x="1157" unicode="ç"/><glyph d="M643 1200h-115l-131 316h121zM604 1085q104 0 198.5 -37.5t169.5 -109.5t113.5 -188.5t26.5 -262.5h-915q14 -186 138 -291.5t298 -105.5q217 0 338 143l65 -67q-72 -88 -182.5 -137t-235.5 -49q-223 0 -381.5 148t-158.5 407q0 254 156.5 402t369.5 148zM604 975 q-156 0 -273.5 -102.5t-133.5 -284.5h802q-4 180 -119.5 283.5t-275.5 103.5z" glyph-name="egrave" horiz-adv-x="1191" unicode="è"/><glyph d="M795 1516l-131 -316h-115l125 316h121zM604 1085q104 0 198.5 -37.5t169.5 -109.5t113.5 -188.5t26.5 -262.5h-915q14 -186 138 -291.5t298 -105.5q217 0 338 143l65 -67q-72 -88 -182.5 -137t-235.5 -49q-223 0 -381.5 148t-158.5 407q0 254 156.5 402t369.5 148z M604 975q-156 0 -273.5 -102.5t-133.5 -284.5h802q-4 180 -119.5 283.5t-275.5 103.5z" glyph-name="eacute" horiz-adv-x="1191" unicode="é"/><glyph d="M592 1419l-184 -215l-72 64l211 248h88l213 -248l-72 -64zM604 1085q104 0 198.5 -37.5t169.5 -109.5t113.5 -188.5t26.5 -262.5h-915q14 -186 138 -291.5t298 -105.5q217 0 338 143l65 -67q-72 -88 -182.5 -137t-235.5 -49q-223 0 -381.5 148t-158.5 407 q0 254 156.5 402t369.5 148zM604 975q-156 0 -273.5 -102.5t-133.5 -284.5h802q-4 180 -119.5 283.5t-275.5 103.5z" glyph-name="ecircumflex" horiz-adv-x="1191" unicode="ê"/><glyph d="M449 1458v-127h-121v127h121zM856 1458v-127h-121v127h121zM604 1085q104 0 198.5 -37.5t169.5 -109.5t113.5 -188.5t26.5 -262.5h-915q14 -186 138 -291.5t298 -105.5q217 0 338 143l65 -67q-72 -88 -182.5 -137t-235.5 -49q-223 0 -381.5 148t-158.5 407 q0 254 156.5 402t369.5 148zM604 975q-156 0 -273.5 -102.5t-133.5 -284.5h802q-4 180 -119.5 283.5t-275.5 103.5z" glyph-name="edieresis" horiz-adv-x="1191" unicode="ë"/><glyph d="M244 1200h-115l-131 316h121zM129 0v1065h125v-1065h-125z" glyph-name="igrave" horiz-adv-x="382" unicode="ì"/><glyph d="M150 1200l124 316h121l-131 -316h-114zM129 0v1065h125v-1065h-125z" glyph-name="iacute" horiz-adv-x="382" unicode="í"/><glyph d="M8 1204l-71 64l210 248h89l213 -248l-72 -64l-184 215zM129 0v1065h125v-1065h-125z" glyph-name="icircumflex" horiz-adv-x="382" unicode="î"/><glyph d="M-72 1331v127h121v-127h-121zM336 1331v127h121v-127h-121zM129 0v1065h125v-1065h-125z" glyph-name="idieresis" horiz-adv-x="382" unicode="ï"/><glyph d="M813 1202q139 -182 209 -342t70 -344q0 -252 -148.5 -394t-370.5 -142q-205 0 -350 143t-145 393q0 260 134 404.5t361 144.5q180 0 267 -92l-158 211l-209 -31v72l160 22l-139 187h141l129 -166l178 24v-71zM573 92q166 0 279 108.5t113 315.5q0 221 -102.5 327.5 t-289.5 106.5q-174 0 -271 -106.5t-97 -327.5q0 -205 109 -314.5t259 -109.5z" glyph-name="eth" horiz-adv-x="1220" unicode="ð"/><glyph d="M481 1380q-41 0 -65.5 -26.5t-24.5 -65.5h-102q0 92 51 142.5t129 50.5q59 0 104 -34t82 -67.5t80 -33.5q41 0 65.5 26.5t24.5 65.5h103q0 -92 -50.5 -142.5t-129.5 -50.5q-59 0 -104.5 34t-82.5 67.5t-80 33.5zM623 1085q182 0 301.5 -116.5t119.5 -341.5v-627h-124v612 q0 176 -92.5 267.5t-238 91.5t-240.5 -92.5t-95 -266.5v-612h-125v1065h125v-186q45 88 138.5 147t230.5 59z" glyph-name="ntilde" horiz-adv-x="1173" unicode="ñ"/><glyph d="M678 1200h-115l-131 316h121zM627 -20q-219 0 -384 150.5t-165 402t165 402t384 150.5t384 -150.5t165 -402t-165 -402t-384 -150.5zM627 94q172 0 298 118t126 320.5t-126 320.5t-298 118t-298 -118t-126 -320.5t126 -320.5t298 -118z" glyph-name="ograve" horiz-adv-x="1253" unicode="ò"/><glyph d="M584 1200l125 316h120l-131 -316h-114zM627 -20q-219 0 -384 150.5t-165 402t165 402t384 150.5t384 -150.5t165 -402t-165 -402t-384 -150.5zM627 94q172 0 298 118t126 320.5t-126 320.5t-298 118t-298 -118t-126 -320.5t126 -320.5t298 -118z" glyph-name="oacute" horiz-adv-x="1253" unicode="ó"/><glyph d="M442 1204l-71 64l211 248h88l213 -248l-72 -64l-184 215zM627 -20q-219 0 -384 150.5t-165 402t165 402t384 150.5t384 -150.5t165 -402t-165 -402t-384 -150.5zM627 94q172 0 298 118t126 320.5t-126 320.5t-298 118t-298 -118t-126 -320.5t126 -320.5t298 -118z" glyph-name="ocircumflex" horiz-adv-x="1253" unicode="ô"/><glyph d="M768 1245q-59 0 -104.5 34t-82 67.5t-79.5 33.5q-41 0 -65.5 -26.5t-24.5 -65.5h-103q0 92 51.5 142.5t128.5 50.5q59 0 104.5 -34t82.5 -67.5t80 -33.5q41 0 65.5 26.5t24.5 65.5h102q0 -92 -50 -142.5t-130 -50.5zM627 -20q-219 0 -384 150.5t-165 402t165 402 t384 150.5t384 -150.5t165 -402t-165 -402t-384 -150.5zM627 94q172 0 298 118t126 320.5t-126 320.5t-298 118t-298 -118t-126 -320.5t126 -320.5t298 -118z" glyph-name="otilde" horiz-adv-x="1253" unicode="õ"/><glyph d="M362 1331v127h121v-127h-121zM770 1331v127h121v-127h-121zM627 -20q-219 0 -384 150.5t-165 402t165 402t384 150.5t384 -150.5t165 -402t-165 -402t-384 -150.5zM627 94q172 0 298 118t126 320.5t-126 320.5t-298 118t-298 -118t-126 -320.5t126 -320.5t298 -118z" glyph-name="odieresis" horiz-adv-x="1253" unicode="ö"/><glyph d="M438 762q-35 0 -57.5 22.5t-22.5 55t22.5 56.5t57.5 24t56.5 -24t21.5 -56.5t-21.5 -55t-56.5 -22.5zM92 524v103h715v-103h-715zM438 233q-35 0 -57.5 23t-22.5 55.5t22.5 55t57.5 22.5t56.5 -22.5t21.5 -55t-21.5 -55.5t-56.5 -23z" glyph-name="divide" horiz-adv-x="899" unicode="÷"/><glyph d="M911 1010q121 -70 193 -193t72 -285q0 -252 -165 -402t-384 -150q-94 0 -193 32l-55 -114h-119l78 159q-119 72 -189.5 193t-70.5 282q0 252 165 402.5t384 150.5q96 0 188 -30l62 129h118zM203 532q0 -246 186 -368l375 784q-68 23 -137 23q-172 0 -298 -118t-126 -321z M627 94q172 0 298 118t126 320q0 248 -191 371l-375 -786q72 -23 142 -23z" glyph-name="oslash" horiz-adv-x="1253" unicode="ø"/><glyph d="M651 1200h-114l-131 316h120zM920 1065h124v-1065h-124v186q-45 -88 -138.5 -147t-230.5 -59q-182 0 -302 116.5t-120 341.5v627h125v-612q0 -176 92 -267.5t237.5 -91.5t241 92.5t95.5 266.5v612z" glyph-name="ugrave" horiz-adv-x="1173" unicode="ù"/><glyph d="M803 1516l-131 -316h-115l125 316h121zM920 1065h124v-1065h-124v186q-45 -88 -138.5 -147t-230.5 -59q-182 0 -302 116.5t-120 341.5v627h125v-612q0 -176 92 -267.5t237.5 -91.5t241 92.5t95.5 266.5v612z" glyph-name="uacute" horiz-adv-x="1173" unicode="ú"/><glyph d="M600 1419l-184 -215l-72 64l211 248h88l213 -248l-72 -64zM920 1065h124v-1065h-124v186q-45 -88 -138.5 -147t-230.5 -59q-182 0 -302 116.5t-120 341.5v627h125v-612q0 -176 92 -267.5t237.5 -91.5t241 92.5t95.5 266.5v612z" glyph-name="ucircumflex" horiz-adv-x="1173" unicode="û"/><glyph d="M457 1458v-127h-121v127h121zM864 1458v-127h-121v127h121zM920 1065h124v-1065h-124v186q-45 -88 -138.5 -147t-230.5 -59q-182 0 -302 116.5t-120 341.5v627h125v-612q0 -176 92 -267.5t237.5 -91.5t241 92.5t95.5 266.5v612z" glyph-name="udieresis" horiz-adv-x="1173" unicode="ü"/><glyph d="M776 1516l-131 -316h-115l125 316h121zM950 1065h131l-454 -1065l-172 -389h-123l176 397l-451 1057h131l381 -905z" glyph-name="yacute" horiz-adv-x="1138" unicode="ý"/><glyph d="M686 1085q215 0 371.5 -147t156.5 -405.5t-156.5 -405.5t-371.5 -147q-145 0 -262 70.5t-164 176.5h-6v-616h-125v1843h125v-616h6q47 106 164 176.5t262 70.5zM670 94q170 0 293.5 115t123.5 323.5t-123.5 323.5t-293.5 115t-295 -116t-125 -322.5t125 -322.5t295 -116z " glyph-name="thorn" unicode="þ"/><glyph d="M430 1458v-127h-121v127h121zM838 1458v-127h-121v127h121zM950 1065h131l-454 -1065l-172 -389h-123l176 397l-451 1057h131l381 -905z" glyph-name="ydieresis" horiz-adv-x="1138" unicode="ÿ"/><glyph d="M1063 1802v-100h-741v100h741zM1200 0l-147 371h-721l-148 -371h-137l584 1454h123l583 -1454h-137zM379 489h627l-314 795z" glyph-name="Amacron" horiz-adv-x="1384" unicode="Ā"/><glyph d="M256 1333v101h741v-101h-741zM606 -20q-215 0 -371.5 147t-156.5 405.5t156.5 405.5t371.5 147q145 0 262 -70.5t164 -176.5h6v227h125v-1065h-125v227h-6q-47 -106 -164 -176.5t-262 -70.5zM623 94q170 0 294.5 116t124.5 322.5t-124.5 322.5t-294.5 116t-295 -115 t-125 -323.5t125 -323.5t295 -115z" glyph-name="amacron" unicode="ā"/><glyph d="M692.5 1604q-141.5 0 -213 82.5t-69.5 197.5h108q0 -76 43 -127t131 -51t131 51t43 127h109q2 -115 -69.5 -197.5t-213 -82.5zM1200 0l-147 371h-721l-148 -371h-137l584 1454h123l583 -1454h-137zM379 489h627l-314 795z" glyph-name="Abreve" horiz-adv-x="1384" unicode="Ă"/><glyph d="M626.5 1235q-141.5 0 -213 83t-69.5 198h109q0 -76 43 -127.5t131 -51.5t131 51.5t43 127.5h108q2 -115 -69.5 -198t-213 -83zM606 -20q-215 0 -371.5 147t-156.5 405.5t156.5 405.5t371.5 147q145 0 262 -70.5t164 -176.5h6v227h125v-1065h-125v227h-6 q-47 -106 -164 -176.5t-262 -70.5zM623 94q170 0 294.5 116t124.5 322.5t-124.5 322.5t-294.5 116t-295 -115t-125 -323.5t125 -323.5t295 -115z" glyph-name="abreve" unicode="ă"/><glyph d="M1077 -221q0 -66 51.5 -98.5t116.5 -14.5v-72q-53 -20 -117.5 -18t-118 50t-53.5 128q0 170 240 256l-143 361h-721l-148 -371h-137l584 1454h123l583 -1454q-139 -35 -199.5 -94t-60.5 -127zM379 489h627l-314 795z" glyph-name="Aogonek" horiz-adv-x="1384" unicode="Ą"/><glyph d="M1163 0q-139 -35 -199.5 -94.5t-60.5 -126.5q0 -66 51.5 -98.5t116.5 -14.5v-72q-53 -20 -117.5 -18t-118 50t-53.5 128q0 90 71 158t185 104v211h-6q-47 -106 -163.5 -176.5t-262.5 -70.5q-215 0 -371.5 147t-156.5 405.5t156.5 405.5t371.5 147q145 0 262 -70.5 t164 -176.5h6v227h125v-1065zM623 94q170 0 294.5 116t124.5 322.5t-124.5 322.5t-294.5 116t-295 -115t-125 -323.5t125 -323.5t295 -115z" glyph-name="aogonek" unicode="ą"/><glyph d="M752 1589l125 316h120l-131 -316h-114zM846 -20q-309 0 -523 210.5t-214 536.5t213 537t522 211q358 0 559 -271l-94 -71q-166 219 -461 219q-258 0 -434 -174t-176 -450.5t177 -451t435 -174.5q293 0 459 220l94 -72q-201 -270 -557 -270z" glyph-name="Cacute" horiz-adv-x="1490" unicode="Ć"/><glyph d="M565 1200l125 316h121l-131 -316h-115zM625 -20q-219 0 -383 149.5t-164 400.5q0 254 164 404.5t383 150.5q141 0 264 -68.5t190 -193.5l-98 -55q-53 96 -147.5 149.5t-204.5 53.5q-170 0 -298 -119t-128 -322q0 -201 128 -318.5t298 -117.5q111 0 205 53.5t147 149.5 l98 -55q-68 -125 -190.5 -193.5t-263.5 -68.5z" glyph-name="cacute" horiz-adv-x="1157" unicode="ć"/><glyph d="M731 1720v127h125v-127h-125zM846 -20q-309 0 -523 210.5t-214 536.5t213 537t522 211q358 0 559 -271l-94 -71q-166 219 -461 219q-258 0 -434 -174t-176 -450.5t177 -451t435 -174.5q293 0 459 220l94 -72q-201 -270 -557 -270z" glyph-name="Cdotaccent" horiz-adv-x="1490" unicode="Ċ"/><glyph d="M545 1331v127h125v-127h-125zM625 -20q-219 0 -383 149.5t-164 400.5q0 254 164 404.5t383 150.5q141 0 264 -68.5t190 -193.5l-98 -55q-53 96 -147.5 149.5t-204.5 53.5q-170 0 -298 -119t-128 -322q0 -201 128 -318.5t298 -117.5q111 0 205 53.5t147 149.5l98 -55 q-68 -125 -190.5 -193.5t-263.5 -68.5z" glyph-name="cdotaccent" horiz-adv-x="1157" unicode="ċ"/><glyph d="M606 1907l185 -215l184 215l72 -64l-213 -248h-89l-210 248zM846 -20q-309 0 -523 210.5t-214 536.5t213 537t522 211q358 0 559 -271l-94 -71q-166 219 -461 219q-258 0 -434 -174t-176 -450.5t177 -451t435 -174.5q293 0 459 220l94 -72q-201 -270 -557 -270z" glyph-name="Ccaron" horiz-adv-x="1490" unicode="Č"/><glyph d="M422 1518l184 -215l185 215l71 -64l-213 -248h-88l-211 248zM625 -20q-219 0 -383 149.5t-164 400.5q0 254 164 404.5t383 150.5q141 0 264 -68.5t190 -193.5l-98 -55q-53 96 -147.5 149.5t-204.5 53.5q-170 0 -298 -119t-128 -322q0 -201 128 -318.5t298 -117.5 q111 0 205 53.5t147 149.5l98 -55q-68 -125 -190.5 -193.5t-263.5 -68.5z" glyph-name="ccaron" horiz-adv-x="1157" unicode="č"/><glyph d="M489 1907l185 -215l184 215l72 -64l-213 -248h-88l-211 248zM129 0v1454h393q330 0 525.5 -199.5t195.5 -527.5t-195.5 -527.5t-525.5 -199.5h-393zM256 121h262q283 0 438.5 164t155.5 442.5t-155.5 442t-438.5 163.5h-262v-1212z" glyph-name="Dcaron" horiz-adv-x="1331" unicode="Ď"/><glyph d="M1354 1470h121l-132 -315h-114zM1038 1454h125v-1454h-125v227h-6q-47 -106 -163.5 -176.5t-262.5 -70.5q-215 0 -371.5 147t-156.5 405.5t156.5 405.5t371.5 147q145 0 262 -70.5t164 -176.5h6v616zM623 94q170 0 294.5 116t124.5 322.5t-124.5 322.5t-294.5 116 t-295 -115t-125 -323.5t125 -323.5t295 -115z" glyph-name="dcaron" horiz-adv-x="1265" unicode="ď"/><glyph d="M557 1454q330 0 525.5 -199.5t195.5 -527.5t-195.5 -527.5t-525.5 -199.5h-393v664h-125v102h125v688h393zM553 121q283 0 438.5 164t155.5 442.5t-155.5 442t-438.5 163.5h-262v-567h383v-102h-383v-543h262z" glyph-name="Dcroat" horiz-adv-x="1366" unicode="Đ"/><glyph d="M1241 1305v-97h-78v-1208h-125v227h-6q-47 -106 -163.5 -176.5t-262.5 -70.5q-215 0 -371.5 147t-156.5 405.5t156.5 405.5t371.5 147q145 0 262 -70.5t164 -176.5h6v370h-450v97h450v149h125v-149h78zM623 94q170 0 294.5 116t124.5 322.5t-124.5 322.5t-294.5 116 t-295 -115t-125 -323.5t125 -323.5t295 -115z" glyph-name="dcroat" horiz-adv-x="1275" unicode="đ"/><glyph d="M182 1823h742v-101h-742v101zM256 672v-551h651v-121h-778v1454h760v-121h-633v-545h541v-116h-541z" glyph-name="Emacron" horiz-adv-x="1005" unicode="Ē"/><glyph d="M963 1434v-101h-742v101h742zM604 1085q104 0 198.5 -37.5t169.5 -109.5t113.5 -188.5t26.5 -262.5h-915q14 -186 138 -291.5t298 -105.5q217 0 338 143l65 -67q-72 -88 -182.5 -137t-235.5 -49q-223 0 -381.5 148t-158.5 407q0 254 156.5 402t369.5 148zM604 975 q-156 0 -273.5 -102.5t-133.5 -284.5h802q-4 180 -119.5 283.5t-275.5 103.5z" glyph-name="emacron" horiz-adv-x="1191" unicode="ē"/><glyph d="M614 1847v-127h-125v127h125zM256 121h651v-121h-778v1454h760v-121h-633v-545h541v-116h-541v-551z" glyph-name="Edotaccent" horiz-adv-x="1005" unicode="Ė"/><glyph d="M653 1458v-127h-125v127h125zM604 1085q104 0 198.5 -37.5t169.5 -109.5t113.5 -188.5t26.5 -262.5h-915q14 -186 138 -291.5t298 -105.5q217 0 338 143l65 -67q-72 -88 -182.5 -137t-235.5 -49q-223 0 -381.5 148t-158.5 407q0 254 156.5 402t369.5 148zM604 975 q-156 0 -273.5 -102.5t-133.5 -284.5h802q-4 180 -119.5 283.5t-275.5 103.5z" glyph-name="edotaccent" horiz-adv-x="1191" unicode="ė"/><glyph d="M907 0q-139 -35 -199.5 -94.5t-60.5 -126.5q0 -66 51.5 -98.5t116.5 -14.5v-72q-53 -20 -117.5 -18t-118 50t-53.5 128q0 158 211 246h-608v1454h760v-121h-633v-545h541v-116h-541v-551h651v-121z" glyph-name="Eogonek" horiz-adv-x="1005" unicode="Ę"/><glyph d="M604 1085q104 0 198.5 -37.5t169.5 -109.5t113.5 -188.5t26.5 -262.5h-915q14 -186 138 -291.5t298 -105.5q217 0 338 143l65 -67q-109 -133 -291 -172q-123 -35 -178 -93.5t-55 -121.5q0 -66 51 -98.5t117 -14.5v-72q-53 -20 -117.5 -18t-118 50t-53.5 128 q0 141 172 228q-207 20 -346 166.5t-139 386.5q0 254 156.5 402t369.5 148zM604 975q-156 0 -273.5 -102.5t-133.5 -284.5h802q-4 180 -119.5 283.5t-275.5 103.5z" glyph-name="eogonek" horiz-adv-x="1191" unicode="ę"/><glyph d="M594 1595h-88l-211 248l72 64l184 -215l184 215l72 -64zM256 121h651v-121h-778v1454h760v-121h-633v-545h541v-116h-541v-551z" glyph-name="Ecaron" horiz-adv-x="1005" unicode="Ě"/><glyph d="M633 1206h-88l-211 248l72 64l184 -215l184 215l72 -64zM604 1085q104 0 198.5 -37.5t169.5 -109.5t113.5 -188.5t26.5 -262.5h-915q14 -186 138 -291.5t298 -105.5q217 0 338 143l65 -67q-72 -88 -182.5 -137t-235.5 -49q-223 0 -381.5 148t-158.5 407q0 254 156.5 402 t369.5 148zM604 975q-156 0 -273.5 -102.5t-133.5 -284.5h802q-4 180 -119.5 283.5t-275.5 103.5z" glyph-name="ecaron" horiz-adv-x="1191" unicode="ě"/><glyph d="M852 1624q-141 0 -213 83t-70 198h109q0 -76 43 -127.5t131 -51.5t131 51.5t43 127.5h109q2 -115 -70 -198t-213 -83zM1513 721q16 -336 -180 -538.5t-493 -202.5q-305 0 -518 210.5t-213 536.5t213 537t522 211q358 0 559 -271l-94 -71q-166 219 -461 219 q-258 0 -434 -174t-176 -451q0 -274 178 -450.5t432 -176.5q215 0 366.5 131t174.5 377h-443v113h567z" glyph-name="Gbreve" horiz-adv-x="1622" unicode="Ğ"/><glyph d="M616.5 1235q-141.5 0 -213 83t-69.5 198h108q2 -76 44 -127.5t130 -51.5q90 0 132.5 51.5t44.5 127.5h106q2 -115 -69.5 -198t-213 -83zM1038 1065h125v-1016q0 -129 -46 -225t-125 -148.5t-168 -77t-189 -24.5q-205 0 -313 76v110q117 -78 299 -77q180 0 298.5 89 t118.5 283v172h-8q-47 -106 -163.5 -176.5t-262.5 -70.5q-213 0 -369.5 147t-156.5 405.5t156.5 405.5t369.5 147q145 0 262 -70.5t164 -176.5h8v227zM621 94q170 0 295.5 116t125.5 322.5t-125.5 322.5t-295.5 116t-294 -115t-124 -323.5t124 -323.5t294 -115z" glyph-name="gbreve" unicode="ğ"/><glyph d="M915 1847v-127h-124v127h124zM1513 721q16 -336 -180 -538.5t-493 -202.5q-305 0 -518 210.5t-213 536.5t213 537t522 211q358 0 559 -271l-94 -71q-166 219 -461 219q-258 0 -434 -174t-176 -451q0 -274 178 -450.5t432 -176.5q215 0 366.5 131t174.5 377h-443v113h567z " glyph-name="Gdotaccent" horiz-adv-x="1622" unicode="Ġ"/><glyph d="M680 1458v-127h-125v127h125zM1038 1065h125v-1016q0 -129 -46 -225t-125 -148.5t-168 -77t-189 -24.5q-205 0 -313 76v110q117 -78 299 -77q180 0 298.5 89t118.5 283v172h-8q-47 -106 -163.5 -176.5t-262.5 -70.5q-213 0 -369.5 147t-156.5 405.5t156.5 405.5 t369.5 147q145 0 262 -70.5t164 -176.5h8v227zM621 94q170 0 295.5 116t125.5 322.5t-125.5 322.5t-295.5 116t-294 -115t-124 -323.5t124 -323.5t294 -115z" glyph-name="gdotaccent" unicode="ġ"/><glyph d="M1513 721q16 -336 -180 -538.5t-493 -202.5q-305 0 -518 210.5t-213 536.5t213 537t522 211q358 0 559 -271l-94 -71q-166 219 -461 219q-258 0 -434 -174t-176 -451q0 -274 178 -450.5t432 -176.5q215 0 366.5 131t174.5 377h-443v113h567zM618 -500l150 424h117 l-152 -424h-115z" glyph-name="Gcommaaccent" horiz-adv-x="1622" unicode="Ģ"/><glyph d="M788 1622l-151 -426h-115l150 426h116zM1038 1065h125v-1016q0 -129 -46 -225t-125 -148.5t-168 -77t-189 -24.5q-205 0 -313 76v110q117 -78 299 -77q180 0 298.5 89t118.5 283v172h-8q-47 -106 -163.5 -176.5t-262.5 -70.5q-213 0 -369.5 147t-156.5 405.5t156.5 405.5 t369.5 147q145 0 262 -70.5t164 -176.5h8v227zM621 94q170 0 295.5 116t125.5 322.5t-125.5 322.5t-295.5 116t-294 -115t-124 -323.5t124 -323.5t294 -115z" glyph-name="gcommaaccent" unicode="ģ"/><glyph d="M1034 1454h127v-1454h-127v653h-778v-653h-127v1454h127v-328h778v328zM256 772h778v234h-778v-234z" glyph-name="Hbar" horiz-adv-x="1290" unicode="Ħ"/><glyph d="M645 1085q182 0 302 -116.5t120 -341.5v-627h-125v612q0 176 -92 267.5t-237.5 91.5t-241 -92.5t-95.5 -266.5v-612h-124v1182h-152v80h152v192h124v-192h240v-80h-240v-303q45 88 138.5 147t230.5 59z" glyph-name="hbar" horiz-adv-x="1196" unicode="ħ"/><glyph d="M-178 1722v101h741v-101h-741zM129 0v1454h127v-1454h-127z" glyph-name="Imacron" horiz-adv-x="385" unicode="Ī"/><glyph d="M-178 1333v101h741v-101h-741zM129 0v1065h125v-1065h-125z" glyph-name="imacron" horiz-adv-x="382" unicode="ī"/><glyph d="M256 0q-139 -35 -199.5 -94.5t-60.5 -126.5q0 -66 51 -98.5t117 -14.5v-72q-53 -20 -117.5 -18t-118 50t-53.5 128q0 90 68.5 156.5t185.5 105.5v1438h127v-1454z" glyph-name="Iogonek" horiz-adv-x="385" unicode="Į"/><glyph d="M129 1458h125v-127h-125v127zM129 16v1049h125v-1065q-139 -35 -199.5 -94.5t-60.5 -126.5q0 -66 51 -98.5t117 -14.5v-72q-53 -20 -117.5 -18t-118 50t-53.5 128q0 90 70.5 157.5t185.5 104.5z" glyph-name="iogonek" horiz-adv-x="382" unicode="į"/><glyph d="M129 1720v127h125v-127h-125zM129 0v1454h127v-1454h-127z" glyph-name="Idotaccent" horiz-adv-x="385" unicode="İ"/><glyph d="M129 0v1065h125v-1065h-125z" glyph-name="dotlessi" horiz-adv-x="382" unicode="ı"/><glyph d="M129 0v1454h127v-1454h-127zM803 -20q-119 0 -210 48t-140 136l84 82q96 -143 262 -144q131 0 209.5 83t78.5 247v1022h127v-1034q0 -219 -117.5 -329.5t-293.5 -110.5z" glyph-name="IJ" horiz-adv-x="1343" unicode="Ĳ"/><glyph d="M129 1333v121h125v-121h-125zM514 1333v121h125v-121h-125zM129 0v1065h125v-1065h-125zM199 -395v116h41q135 0 204.5 61.5t69.5 227.5v1055h125v-1063q0 -221 -103.5 -309t-295.5 -88h-41z" glyph-name="ij" horiz-adv-x="768" unicode="ĳ"/><glyph d="M559 782l643 -782h-149l-572 692l-225 -256v-436h-127v1454h127v-850l741 850h152zM463 -500l149 424h117l-151 -424h-115z" glyph-name="Kcommaaccent" horiz-adv-x="1259" unicode="Ķ"/><glyph d="M512 567l512 -567h-150l-440 483l-180 -194v-289h-125v1454h125v-1005l565 616h154zM348 -500l150 424h116l-151 -424h-115z" glyph-name="kcommaaccent" horiz-adv-x="1081" unicode="ķ"/><glyph d="M436 1880l-131 -315h-115l125 315h121zM256 121h668v-121h-795v1454h127v-1333z" glyph-name="Lacute" horiz-adv-x="1001" unicode="Ĺ"/><glyph d="M147 1589l125 316h121l-131 -316h-115zM129 0v1454h125v-1454h-125z" glyph-name="lacute" horiz-adv-x="382" unicode="ĺ"/><glyph d="M256 121h668v-121h-795v1454h127v-1333zM319 -500l150 424h117l-152 -424h-115z" glyph-name="Lcommaaccent" horiz-adv-x="1011" unicode="Ļ"/><glyph d="M129 0v1454h125v-1454h-125zM-18 -500l149 424h117l-152 -424h-114z" glyph-name="lcommaaccent" horiz-adv-x="382" unicode="ļ"/><glyph d="M256 121h668v-121h-795v1454h127v-1333zM741 1427l-151 -426h-113l150 426h114z" glyph-name="Lcaron" horiz-adv-x="1011" unicode="Ľ"/><glyph d="M328 1049l149 426h117l-152 -426h-114zM129 0v1454h125v-1454h-125z" glyph-name="lcaron" horiz-adv-x="512" unicode="ľ"/><glyph d="M256 121h668v-121h-795v1454h127v-1333zM659.5 655q-34.5 0 -56 22.5t-21.5 55.5t21.5 55.5t56 22.5t56 -22.5t21.5 -55.5t-21.5 -55.5t-56 -22.5z" glyph-name="Ldot" horiz-adv-x="1011" unicode="Ŀ"/><glyph d="M129 0v1454h125v-1454h-125zM493.5 651q-34.5 0 -56 22.5t-21.5 55.5t21.5 55.5t56 22.5t56 -22.5t21.5 -55.5t-21.5 -55.5t-56 -22.5z" glyph-name="ldot" horiz-adv-x="499" unicode="ŀ"/><glyph d="M371 121h667v-121h-794v496l-131 -140v156l131 139v803h127v-670l280 297h2v-153l-282 -299v-508z" glyph-name="Lslash" horiz-adv-x="1126" unicode="Ł"/><glyph d="M465 1081v-129l-189 -211v-741h-124v600l-189 -211v131l189 211v723h124v-582l187 209h2z" glyph-name="lslash" horiz-adv-x="428" unicode="ł"/><glyph d="M664 1589l124 316h121l-131 -316h-114zM129 0v1454h131l883 -1239h10v1239h127v-1454h-131l-883 1239h-10v-1239h-127z" glyph-name="Nacute" horiz-adv-x="1409" unicode="Ń"/><glyph d="M809 1516l-131 -316h-115l125 316h121zM623 1085q182 0 301.5 -116.5t119.5 -341.5v-627h-124v612q0 176 -92.5 267.5t-238 91.5t-240.5 -92.5t-95 -266.5v-612h-125v1065h125v-186q45 88 138.5 147t230.5 59z" glyph-name="nacute" horiz-adv-x="1173" unicode="ń"/><glyph d="M129 0v1454h131l883 -1239h10v1239h127v-1454h-131l-883 1239h-10v-1239h-127zM498 -500l149 424h117l-152 -424h-114z" glyph-name="Ncommaaccent" horiz-adv-x="1409" unicode="Ņ"/><glyph d="M623 1085q182 0 301.5 -116.5t119.5 -341.5v-627h-124v612q0 176 -92.5 267.5t-238 91.5t-240.5 -92.5t-95 -266.5v-612h-125v1065h125v-186q45 88 138.5 147t230.5 59zM397 -500l150 424h117l-152 -424h-115z" glyph-name="ncommaaccent" horiz-adv-x="1173" unicode="ņ"/><glyph d="M518 1907l184 -215l185 215l71 -64l-213 -248h-88l-211 248zM129 0v1454h131l883 -1239h10v1239h127v-1454h-131l-883 1239h-10v-1239h-127z" glyph-name="Ncaron" horiz-adv-x="1409" unicode="Ň"/><glyph d="M647 1206h-88l-211 248l72 64l184 -215l184 215l72 -64zM623 1085q182 0 301.5 -116.5t119.5 -341.5v-627h-124v612q0 176 -92.5 267.5t-238 91.5t-240.5 -92.5t-95 -266.5v-612h-125v1065h125v-186q45 88 138.5 147t230.5 59z" glyph-name="ncaron" horiz-adv-x="1173" unicode="ň"/><glyph d="M1274 1434v-1348l-10 -8v-64q0 -219 -117 -329.5t-295 -110.5q-242 0 -350 184l84 82q96 -143 262 -143q131 0 210 83t79 247v26l-881 1145v-1198h-127v1434h96l912 -1186v801h10v385h127z" glyph-name="Eng" horiz-adv-x="1402" unicode="Ŋ"/><glyph d="M623 1085q182 0 301.5 -116.5t119.5 -341.5v-633q0 -215 -103 -302t-296 -87h-41v116h41q135 0 205 61.5t70 227.5v602q0 176 -92.5 267.5t-238 91.5t-240.5 -92.5t-95 -266.5v-612h-125v1065h125v-186q45 88 138.5 147t230.5 59z" glyph-name="eng" horiz-adv-x="1173" unicode="ŋ"/><glyph d="M471 1722v101h741v-101h-741zM842 -20q-299 0 -516 209.5t-217 537.5t217 538t516 210q301 0 517 -210t216 -538t-216 -537.5t-517 -209.5zM841.5 102q245.5 0 425 175.5t179.5 449.5t-179.5 449.5t-425 175.5t-424.5 -175.5t-179 -449.5t179 -449.5t424.5 -175.5z" glyph-name="Omacron" horiz-adv-x="1683" unicode="Ō"/><glyph d="M256 1333v101h741v-101h-741zM627 -20q-219 0 -384 150.5t-165 402t165 402t384 150.5t384 -150.5t165 -402t-165 -402t-384 -150.5zM627 94q172 0 298 118t126 320.5t-126 320.5t-298 118t-298 -118t-126 -320.5t126 -320.5t298 -118z" glyph-name="omacron" horiz-adv-x="1253" unicode="ō"/><glyph d="M649 1589l125 316h121l-131 -316h-115zM907 1589l125 316h121l-131 -316h-115zM842 -20q-299 0 -516 209.5t-217 537.5t217 538t516 210q301 0 517 -210t216 -538t-216 -537.5t-517 -209.5zM841.5 102q245.5 0 425 175.5t179.5 449.5t-179.5 449.5t-425 175.5 t-424.5 -175.5t-179 -449.5t179 -449.5t424.5 -175.5z" glyph-name="Ohungarumlaut" horiz-adv-x="1683" unicode="Ő"/><glyph d="M434 1200l125 316h121l-131 -316h-115zM692 1200l125 316h121l-131 -316h-115zM627 -20q-219 0 -384 150.5t-165 402t165 402t384 150.5t384 -150.5t165 -402t-165 -402t-384 -150.5zM627 94q172 0 298 118t126 320.5t-126 320.5t-298 118t-298 -118t-126 -320.5 t126 -320.5t298 -118z" glyph-name="ohungarumlaut" horiz-adv-x="1253" unicode="ő"/><glyph d="M1577 121h651v-121h-778v299q-100 -150 -262 -234.5t-346 -84.5q-299 0 -516 209.5t-217 537.5t217 538t516 210q184 0 346 -85t262 -235v299h760v-121h-633v-545h541v-116h-541v-551zM841.5 102q245.5 0 425 175.5t179.5 449.5t-179.5 449.5t-425 175.5t-424.5 -175.5 t-179 -449.5t179 -449.5t424.5 -175.5z" glyph-name="OE" horiz-adv-x="2326" unicode="Œ"/><glyph d="M2073 487h-899q0 -20 -9 -65q35 -158 153 -245t275 -87q217 0 338 143l66 -67q-72 -88 -182.5 -137t-235.5 -49q-150 0 -276.5 70.5t-196.5 199.5q-74 -129 -203 -199.5t-276 -70.5q-219 0 -384 150.5t-165 402t165 402t384 150.5q145 0 275 -70.5t202 -199.5 q70 129 194.5 199.5t266.5 70.5q104 0 198.5 -37.5t169 -109.5t113.5 -189t27 -262zM1565 975q-143 0 -255 -86t-145 -244q4 -20 9 -57h788q-6 180 -121.5 283.5t-275.5 103.5zM627 94q152 0 270.5 94.5t146.5 257.5q-6 43 -6 89q0 43 6 86q-29 164 -147.5 257t-269.5 93 q-172 0 -298 -118t-126 -320.5t126 -320.5t298 -118z" glyph-name="oe" horiz-adv-x="2152" unicode="œ"/><glyph d="M809 1905l-131 -316h-115l125 316h121zM1110 0h-141l-359 530h-30h-324v-530h-127v1454h451q223 0 354 -130t131 -333q0 -166 -86 -283.5t-242 -158.5zM256 1333v-686h307q174 0 272.5 90t98.5 254t-98.5 253t-272.5 89h-307z" glyph-name="Racute" horiz-adv-x="1198" unicode="Ŕ"/><glyph d="M590 1516l-131 -316h-115l125 316h121zM600 1085q35 0 55 -6v-116q-25 6 -53 6q-150 0 -249 -110.5t-99 -293.5v-565h-125v1065h125v-248q35 119 122 193.5t224 74.5z" glyph-name="racute" horiz-adv-x="733" unicode="ŕ"/><glyph d="M737 549l373 -549h-141l-359 530h-30h-324v-530h-127v1454h451q223 0 354 -130t131 -333q0 -166 -86 -283.5t-242 -158.5zM256 1333v-686h307q174 0 272.5 90t98.5 254t-98.5 253t-272.5 89h-307zM403 -500l150 424h117l-152 -424h-115z" glyph-name="Rcommaaccent" horiz-adv-x="1198" unicode="Ŗ"/><glyph d="M600 1085q35 0 55 -6v-116q-25 6 -53 6q-150 0 -249 -110.5t-99 -293.5v-565h-125v1065h125v-248q35 119 122 193.5t224 74.5zM-16 -500l149 424h117l-152 -424h-114z" glyph-name="rcommaaccent" horiz-adv-x="733" unicode="ŗ"/><glyph d="M647 1595h-88l-211 248l72 64l184 -215l184 215l72 -64zM1110 0h-141l-359 530h-30h-324v-530h-127v1454h451q223 0 354 -130t131 -333q0 -166 -86 -283.5t-242 -158.5zM256 1333v-686h307q174 0 272.5 90t98.5 254t-98.5 253t-272.5 89h-307z" glyph-name="Rcaron" horiz-adv-x="1198" unicode="Ř"/><glyph d="M428 1206h-88l-211 248l72 64l184 -215l184 215l72 -64zM600 1085q35 0 55 -6v-116q-25 6 -53 6q-150 0 -249 -110.5t-99 -293.5v-565h-125v1065h125v-248q35 119 122 193.5t224 74.5z" glyph-name="rcaron" horiz-adv-x="733" unicode="ř"/><glyph d="M496 1589l125 316h120l-131 -316h-114zM555 -20q-182 0 -312 97t-165 255l106 47q31 -127 131.5 -203t239.5 -76q137 0 228 74t91 205q0 119 -74.5 187.5t-230.5 129.5l-98 39q-332 131 -332 383q0 160 114 258.5t288 98.5q166 0 274.5 -85t151.5 -216l-101 -50 q-92 231 -321 232q-121 0 -200 -64.5t-79 -173.5q0 -180 250 -276l98 -39q195 -78 293.5 -171t98.5 -253q0 -186 -130.5 -292.5t-320.5 -106.5z" glyph-name="Sacute" horiz-adv-x="1083" unicode="Ś"/><glyph d="M377 1200l125 316h121l-131 -316h-115zM432.5 -20q-145.5 0 -243 75.5t-121.5 206.5l108 31q25 -98 92.5 -151.5t163.5 -53.5q94 0 162 48t68 143q0 76 -49.5 121.5t-163.5 95.5l-82 32q-248 100 -248 291q0 117 88 191.5t221 74.5q119 0 204 -60t113 -163l-100 -33 q-57 150 -213 150q-82 0 -136 -42t-54 -118q0 -121 174 -192l71 -29q156 -63 227.5 -131t71.5 -188q0 -145 -104 -222t-249.5 -77z" glyph-name="sacute" horiz-adv-x="864" unicode="ś"/><glyph d="M1006 379q0 -176 -117 -280.5t-295 -116.5l-49 -72q76 2 126 -43t50 -121q0 -100 -88 -148.5t-205 -27.5v70q182 -10 182 100q0 115 -159 90l-33 47l71 107q-158 16 -268 110t-143 238l106 47q31 -127 131.5 -203t239.5 -76q137 0 228 74t91 205q0 119 -74.5 187.5 t-230.5 129.5l-98 39q-332 131 -332 383q0 160 114 258.5t288 98.5q166 0 274.5 -85t151.5 -216l-101 -50q-92 231 -321 232q-121 0 -200 -64.5t-79 -173.5q0 -180 250 -276l98 -39q195 -78 293.5 -171t98.5 -253z" glyph-name="Scedilla" horiz-adv-x="1083" unicode="Ş"/><glyph d="M786 279q0 -135 -90 -211t-223 -86l-49 -72q74 4 124 -42t50 -122q0 -100 -88 -147.5t-205 -26.5v70q182 -14 182 98.5t-159 91.5l-33 45l72 107q-121 16 -200 89.5t-99 188.5l108 31q25 -98 92.5 -151.5t163.5 -53.5q94 0 162 48t68 143q0 76 -49.5 121.5t-163.5 95.5 l-82 32q-248 100 -248 291q0 117 88 191.5t221 74.5q119 0 204 -60t113 -163l-100 -33q-57 150 -213 150q-82 0 -136 -42t-54 -118q0 -121 174 -192l71 -29q156 -63 227.5 -130.5t71.5 -188.5z" glyph-name="scedilla" horiz-adv-x="868" unicode="ş"/><glyph d="M352 1907l185 -215l184 215l72 -64l-213 -248h-88l-211 248zM555 -20q-182 0 -312 97t-165 255l106 47q31 -127 131.5 -203t239.5 -76q137 0 228 74t91 205q0 119 -74.5 187.5t-230.5 129.5l-98 39q-332 131 -332 383q0 160 114 258.5t288 98.5q166 0 274.5 -85 t151.5 -216l-101 -50q-92 231 -321 232q-121 0 -200 -64.5t-79 -173.5q0 -180 250 -276l98 -39q195 -78 293.5 -171t98.5 -253q0 -186 -130.5 -292.5t-320.5 -106.5z" glyph-name="Scaron" horiz-adv-x="1083" unicode="Š"/><glyph d="M233 1518l185 -215l184 215l72 -64l-213 -248h-88l-211 248zM432.5 -20q-145.5 0 -243 75.5t-121.5 206.5l108 31q25 -98 92.5 -151.5t163.5 -53.5q94 0 162 48t68 143q0 76 -49.5 121.5t-163.5 95.5l-82 32q-248 100 -248 291q0 117 88 191.5t221 74.5q119 0 204 -60 t113 -163l-100 -33q-57 150 -213 150q-82 0 -136 -42t-54 -118q0 -121 174 -192l71 -29q156 -63 227.5 -131t71.5 -188q0 -145 -104 -222t-249.5 -77z" glyph-name="scaron" horiz-adv-x="864" unicode="š"/><glyph d="M1008 1333h-402v-1333h12l-94 -94q74 -2 127.5 -47t53.5 -121q0 -98 -96.5 -147.5t-229.5 -20.5l20 51q86 -14 140.5 23t54.5 94t-49 89t-107 1l-45 47l99 125h-13v1333h-401v121h930v-121z" glyph-name="Tcommaaccent" horiz-adv-x="1085" unicode="Ţ"/><glyph d="M387 -82q76 2 126 -43t50 -121q0 -100 -88 -148t-205 -28v70q182 -10 183 100q0 115 -160 90l-33 47l76 115q-121 37 -121 180v781h-137v104h137v272h125v-272h207v-104h-207v-754q0 -106 106 -107q47 0 97 21v-103q-43 -27 -107 -30z" glyph-name="tcommaaccent" horiz-adv-x="634" unicode="ţ"/><glyph d="M584 1595h-88l-211 248l71 64l185 -215l184 215l72 -64zM1008 1454v-121h-402v-1333h-127v1333h-401v121h930z" glyph-name="Tcaron" horiz-adv-x="1085" unicode="Ť"/><glyph d="M672 1470l-131 -315h-115l125 315h121zM340 1337v-272h207v-104h-207v-754q0 -106 106 -107q47 0 97 21v-103q-47 -31 -123 -30q-96 0 -150.5 48t-54.5 144v781h-137v104h137v272h125z" glyph-name="tcaron" horiz-adv-x="618" unicode="ť"/><glyph d="M1008 1333h-402v-280h322v-121h-322v-932h-127v932h-301v121h301v280h-401v121h930v-121z" glyph-name="Tbar" horiz-adv-x="1085" unicode="Ŧ"/><glyph d="M547 961h-207v-125h207v-105h-207v-524q0 -106 106 -107q47 0 97 21v-103q-47 -31 -123 -30q-96 0 -150.5 48t-54.5 144v551h-137v105h137v125h-137v104h137v272h125v-272h207v-104z" glyph-name="tbar" horiz-adv-x="634" unicode="ŧ"/><glyph d="M778 1634q-59 0 -104 34t-82 67.5t-80 33.5q-41 0 -65.5 -26.5t-24.5 -65.5h-103q0 92 51.5 142.5t129.5 50.5q59 0 104 -34t82 -67.5t80 -33.5q41 0 65.5 26.5t24.5 65.5h102q0 -92 -50 -142.5t-130 -50.5zM637 -20q-221 0 -364.5 141t-143.5 389v944h127v-942 q0 -197 106.5 -303.5t274.5 -106.5t274.5 106.5t106.5 303.5v942h127v-944q0 -248 -142.5 -389t-365.5 -141z" glyph-name="Utilde" horiz-adv-x="1273" unicode="Ũ"/><glyph d="M475 1380q-41 0 -65.5 -26.5t-24.5 -65.5h-102q0 92 51 142.5t129 50.5q59 0 104 -34t82 -67.5t80 -33.5q41 0 65.5 26.5t24.5 65.5h103q0 -92 -50.5 -142.5t-130.5 -50.5q-59 0 -104 34t-82 67.5t-80 33.5zM920 1065h124v-1065h-124v186q-45 -88 -138.5 -147t-230.5 -59 q-182 0 -302 116.5t-120 341.5v627h125v-612q0 -176 92 -267.5t237.5 -91.5t241 92.5t95.5 266.5v612z" glyph-name="utilde" horiz-adv-x="1173" unicode="ũ"/><glyph d="M266 1722v101h742v-101h-742zM637 -20q-221 0 -364.5 141t-143.5 389v944h127v-942q0 -197 106.5 -303.5t274.5 -106.5t274.5 106.5t106.5 303.5v942h127v-944q0 -248 -142.5 -389t-365.5 -141z" glyph-name="Umacron" horiz-adv-x="1273" unicode="Ū"/><glyph d="M971 1434v-101h-742v101h742zM920 1065h124v-1065h-124v186q-45 -88 -138.5 -147t-230.5 -59q-182 0 -302 116.5t-120 341.5v627h125v-612q0 -176 92 -267.5t237.5 -91.5t241 92.5t95.5 266.5v612z" glyph-name="umacron" horiz-adv-x="1173" unicode="ū"/><glyph d="M637 1624q-141 0 -213 83t-70 198h109q0 -76 43 -127.5t131 -51.5t131 51.5t43 127.5h109q2 -115 -70 -198t-213 -83zM637 -20q-221 0 -364.5 141t-143.5 389v944h127v-942q0 -197 106.5 -303.5t274.5 -106.5t274.5 106.5t106.5 303.5v942h127v-944q0 -248 -142.5 -389 t-365.5 -141z" glyph-name="Ubreve" horiz-adv-x="1273" unicode="Ŭ"/><glyph d="M600 1235q-141 0 -213 83t-70 198h109q0 -76 43 -127.5t131 -51.5t131 51.5t43 127.5h109q2 -115 -70 -198t-213 -83zM920 1065h124v-1065h-124v186q-45 -88 -138.5 -147t-230.5 -59q-182 0 -302 116.5t-120 341.5v627h125v-612q0 -176 92 -267.5t237.5 -91.5t241 92.5 t95.5 266.5v612z" glyph-name="ubreve" horiz-adv-x="1173" unicode="ŭ"/><glyph d="M639 1614q-74 0 -124 50t-50 122t50 121t124 49q72 0 122 -50.5t50 -119.5q0 -72 -50 -122t-122 -50zM637 1704q35 0 58.5 23.5t23.5 58.5t-23.5 58.5t-58.5 23.5t-58.5 -23.5t-23.5 -58.5t23.5 -58.5t58.5 -23.5zM637 -20q-221 0 -364.5 141t-143.5 389v944h127v-942 q0 -197 106.5 -303.5t274.5 -106.5t274.5 106.5t106.5 303.5v942h127v-944q0 -248 -142.5 -389t-365.5 -141z" glyph-name="Uring" horiz-adv-x="1273" unicode="Ů"/><glyph d="M600 1225q-74 0 -124 50t-50 121.5t50 121t124 49.5q72 0 122 -50.5t50 -119.5q0 -72 -50 -122t-122 -50zM598 1479q-35 0 -58.5 -23.5t-23.5 -58.5t23.5 -58.5t58.5 -23.5t58.5 23.5t23.5 58.5t-23.5 58.5t-58.5 23.5zM920 1065h124v-1065h-124v186q-45 -88 -138.5 -147 t-230.5 -59q-182 0 -302 116.5t-120 341.5v627h125v-612q0 -176 92 -267.5t237.5 -91.5t241 92.5t95.5 266.5v612z" glyph-name="uring" horiz-adv-x="1173" unicode="ů"/><glyph d="M444 1589l125 316h121l-131 -316h-115zM702 1589l125 316h121l-131 -316h-115zM637 -20q-221 0 -364.5 141t-143.5 389v944h127v-942q0 -197 106.5 -303.5t274.5 -106.5t274.5 106.5t106.5 303.5v942h127v-944q0 -248 -142.5 -389t-365.5 -141z" glyph-name="Uhungarumlaut" horiz-adv-x="1273" unicode="Ű"/><glyph d="M653 1516l-131 -316h-114l124 316h121zM911 1516l-131 -316h-114l125 316h120zM920 1065h124v-1065h-124v186q-45 -88 -138.5 -147t-230.5 -59q-182 0 -302 116.5t-120 341.5v627h125v-612q0 -176 92 -267.5t237.5 -91.5t241 92.5t95.5 266.5v612z" glyph-name="uhungarumlaut" horiz-adv-x="1173" unicode="ű"/><glyph d="M1018 1454h127v-944q0 -209 -102.5 -343t-272.5 -173q-127 -35 -182.5 -93.5t-55.5 -121.5q0 -66 51.5 -98.5t116.5 -14.5v-72q-53 -20 -117.5 -18t-117.5 50t-53 128q0 141 172 228q-201 18 -328 157.5t-127 370.5v944h127v-942q0 -197 106.5 -303.5t274.5 -106.5 t274.5 106.5t106.5 303.5v942z" glyph-name="Uogonek" horiz-adv-x="1273" unicode="Ų"/><glyph d="M793 -221q0 -66 51 -98.5t117 -14.5v-72q-53 -20 -118 -18t-118 50t-53 128q0 88 67.5 154.5t180.5 105.5v172q-45 -88 -138.5 -147t-230.5 -59q-182 0 -302 116.5t-120 341.5v627h125v-612q0 -176 92 -267.5t237.5 -91.5t241 92.5t95.5 266.5v612h124v-1063l9 -2 q-139 -35 -199.5 -94t-60.5 -127z" glyph-name="uogonek" horiz-adv-x="1173" unicode="ų"/><glyph d="M825 1593l-71 64l211 248h88l213 -248l-72 -64l-184 215zM504 0l-436 1454h135l362 -1223l391 1223h105l393 -1223l363 1223h135l-439 -1454h-104l-399 1229l-402 -1229h-104z" glyph-name="Wcircumflex" horiz-adv-x="2019" unicode="Ŵ"/><glyph d="M948 1419l-184 -215l-72 64l211 248h88l213 -248l-71 -64zM1708 1065h127l-405 -1065h-117l-367 911l-366 -911h-117l-406 1065h127l338 -903l363 903h123l362 -903z" glyph-name="wcircumflex" horiz-adv-x="1892" unicode="ŵ"/><glyph d="M461 1593l-72 64l211 248h88l213 -248l-72 -64l-184 215zM582 0v649l-514 805h145l432 -686l432 686h146l-514 -805v-649h-127z" glyph-name="Ycircumflex" horiz-adv-x="1290" unicode="Ŷ"/><glyph d="M573 1419l-184 -215l-72 64l211 248h88l213 -248l-71 -64zM950 1065h131l-454 -1065l-172 -389h-123l176 397l-451 1057h131l381 -905z" glyph-name="ycircumflex" horiz-adv-x="1138" unicode="ŷ"/><glyph d="M381 1720v127h121v-127h-121zM788 1720v127h121v-127h-121zM582 0v649l-514 805h145l432 -686l432 686h146l-514 -805v-649h-127z" glyph-name="Ydieresis" horiz-adv-x="1290" unicode="Ÿ"/><glyph d="M539 1589l125 316h120l-131 -316h-114zM57 0l846 1333h-801v121h1012l-846 -1333h832v-121h-1043z" glyph-name="Zacute" horiz-adv-x="1181" unicode="Ź"/><glyph d="M494 1200l124 316h121l-131 -316h-114zM57 0l721 952h-663v113h876l-721 -952h697v-113h-910z" glyph-name="zacute" horiz-adv-x="1048" unicode="ź"/><glyph d="M518 1720v127h125v-127h-125zM57 0l846 1333h-801v121h1012l-846 -1333h832v-121h-1043z" glyph-name="Zdotaccent" horiz-adv-x="1181" unicode="Ż"/><glyph d="M473 1331v127h125v-127h-125zM57 0l721 952h-663v113h876l-721 -952h697v-113h-910z" glyph-name="zdotaccent" horiz-adv-x="1048" unicode="ż"/><glyph d="M395 1907l185 -215l184 215l72 -64l-213 -248h-88l-211 248zM57 0l846 1333h-801v121h1012l-846 -1333h832v-121h-1043z" glyph-name="Zcaron" horiz-adv-x="1181" unicode="Ž"/><glyph d="M350 1518l185 -215l184 215l72 -64l-213 -248h-89l-210 248zM57 0l721 952h-663v113h876l-721 -952h697v-113h-910z" glyph-name="zcaron" horiz-adv-x="1048" unicode="ž"/><glyph d="M768 1475q311 0 528 -211t217 -537t-213 -536.5t-516 -210.5q-299 0 -495.5 202.5t-179.5 538.5h1271v6q0 274 -178 449.5t-436 175.5q-299 0 -453 -217l-92 69q187 271 547 271zM772 102q223 0 391 139.5t207 366.5h-1137q23 -246 173.5 -376t365.5 -130z" glyph-name="uni018F" horiz-adv-x="1622" unicode="Ə"/><glyph d="M477 1384q-168 0 -168 -196v-123h301v-104h-301v-1074q0 -160 -81 -226.5t-189 -66.5q-90 0 -158 41v103q59 -33 135 -33q168 0 168 195v1061h-118v104h118v137q0 158 80 224.5t189 66.5q94 0 157 -41v-100q-55 32 -133 32z" glyph-name="florin" horiz-adv-x="708" unicode="ƒ"/><glyph d="M733 1575h-88l-211 248l72 63l184 -215l184 215l72 -63zM1200 0l-147 371h-721l-148 -371h-137l584 1454h123l583 -1454h-137zM379 489h627l-314 795z" glyph-name="uni01CD" horiz-adv-x="1384" unicode="Ǎ"/><glyph d="M440 1518l185 -215l184 215l72 -64l-213 -248h-88l-211 248zM606 -20q-215 0 -371.5 147t-156.5 405.5t156.5 405.5t371.5 147q145 0 262 -70.5t164 -176.5h6v227h125v-1065h-125v227h-6q-47 -106 -164 -176.5t-262 -70.5zM623 94q170 0 294.5 116t124.5 322.5 t-124.5 322.5t-294.5 116t-295 -115t-125 -323.5t125 -323.5t295 -115z" glyph-name="uni01CE" unicode="ǎ"/><glyph d="M6 1907l184 -215l185 215l71 -64l-213 -248h-88l-211 248zM129 0v1454h127v-1454h-127z" glyph-name="uni01CF" horiz-adv-x="385" unicode="Ǐ"/><glyph d="M6 1518l184 -215l185 215l71 -64l-213 -248h-88l-211 248zM129 0v1065h125v-1065h-125z" glyph-name="uni01D0" horiz-adv-x="382" unicode="ǐ"/><glyph d="M655 1907l185 -215l184 215l72 -64l-213 -248h-88l-211 248zM842 -20q-299 0 -516 209.5t-217 537.5t217 538t516 210q301 0 517 -210t216 -538t-216 -537.5t-517 -209.5zM841.5 102q245.5 0 425 175.5t179.5 449.5t-179.5 449.5t-425 175.5t-424.5 -175.5t-179 -449.5 t179 -449.5t424.5 -175.5z" glyph-name="uni01D1" horiz-adv-x="1683" unicode="Ǒ"/><glyph d="M440 1518l185 -215l184 215l72 -64l-213 -248h-88l-211 248zM627 -20q-219 0 -384 150.5t-165 402t165 402t384 150.5t384 -150.5t165 -402t-165 -402t-384 -150.5zM627 94q172 0 298 118t126 320.5t-126 320.5t-298 118t-298 -118t-126 -320.5t126 -320.5t298 -118z" glyph-name="uni01D2" horiz-adv-x="1253" unicode="ǒ"/><glyph d="M451 1907l184 -215l184 215l72 -64l-213 -248h-88l-211 248zM637 -20q-221 0 -364.5 141t-143.5 389v944h127v-942q0 -197 106.5 -303.5t274.5 -106.5t274.5 106.5t106.5 303.5v942h127v-944q0 -248 -142.5 -389t-365.5 -141z" glyph-name="uni01D3" horiz-adv-x="1273" unicode="Ǔ"/><glyph d="M641 1206h-88l-211 248l72 64l184 -215l184 215l72 -64zM920 1065h124v-1065h-124v186q-45 -88 -138.5 -147t-230.5 -59q-182 0 -302 116.5t-120 341.5v627h125v-612q0 -176 92 -267.5t237.5 -91.5t241 92.5t95.5 266.5v612z" glyph-name="uni01D4" horiz-adv-x="1173" unicode="ǔ"/><glyph d="M950 -12q-115 -35 -165 -91.5t-50 -117.5q0 -66 51.5 -98.5t116.5 -14.5v-72q-53 -20 -117.5 -18t-118 50t-53.5 128q0 143 170 228q-281 23 -478 229.5t-197 515.5q0 328 217 538t516 210q301 0 517 -210t216 -538q0 -297 -179.5 -498.5t-445.5 -240.5zM238 727 q0 -274 179 -449.5t424.5 -175.5t425 175.5t179.5 449.5t-179.5 449.5t-425 175.5t-424.5 -175.5t-179 -449.5z" glyph-name="uni01EA" horiz-adv-x="1683" unicode="Ǫ"/><glyph d="M555 -20q-182 0 -312 97t-165 255l106 47q31 -127 131.5 -203t239.5 -76q137 0 228 74t91 205q0 119 -74.5 187.5t-230.5 129.5l-98 39q-332 131 -332 383q0 160 114 258.5t288 98.5q166 0 274.5 -85t151.5 -216l-101 -50q-92 231 -321 232q-121 0 -200 -64.5t-79 -173.5 q0 -180 250 -276l98 -39q195 -78 293.5 -171t98.5 -253q0 -186 -130.5 -292.5t-320.5 -106.5zM340 -500l149 424h117l-151 -424h-115z" glyph-name="Scommaaccent" horiz-adv-x="1083" unicode="Ș"/><glyph d="M432.5 -20q-145.5 0 -243 75.5t-121.5 206.5l108 31q25 -98 92.5 -151.5t163.5 -53.5q94 0 162 48t68 143q0 76 -49.5 121.5t-163.5 95.5l-82 32q-248 100 -248 291q0 117 88 191.5t221 74.5q119 0 204 -60t113 -163l-100 -33q-57 150 -213 150q-82 0 -136 -42t-54 -118 q0 -121 174 -192l71 -29q156 -63 227.5 -131t71.5 -188q0 -145 -104 -222t-249.5 -77zM215 -500l150 424h116l-151 -424h-115z" glyph-name="scommaaccent" horiz-adv-x="864" unicode="ș"/><glyph d="M1008 1454v-121h-402v-1333h-127v1333h-401v121h930zM336 -500l149 424h117l-151 -424h-115z" glyph-name="uni021A" horiz-adv-x="1085" unicode="Ț"/><glyph d="M547 961h-207v-754q0 -106 106 -107q47 0 97 21v-103q-47 -31 -123 -30q-96 0 -150.5 48t-54.5 144v781h-137v104h137v272h125v-272h207v-104zM184 -492l150 424h117l-152 -424h-115z" glyph-name="uni021B" horiz-adv-x="634" unicode="ț"/><glyph d="M-184 -395v116h41q135 0 204.5 61.5t69.5 227.5v1055h125v-1063q0 -221 -103.5 -309t-295.5 -88h-41z" glyph-name="uni0237" horiz-adv-x="385" unicode="ȷ"/><glyph d="M573 1085q223 0 382 -148.5t159 -406.5q0 -254 -155.5 -402t-370.5 -148q-104 0 -198.5 37.5t-169.5 109.5t-113.5 188.5t-26.5 262.5h915q-14 186 -137 291.5t-297 105.5q-217 0 -338 -144l-67 68q72 88 182 137t235 49zM588 90q156 0 273.5 102.5t133.5 284.5h-802 q6 -180 120.5 -283.5t274.5 -103.5z" glyph-name="uni0259" horiz-adv-x="1191" unicode="ə"/><glyph d="M92 1204l-72 64l211 248h88l213 -248l-71 -64l-185 215z" glyph-name="circumflex" horiz-adv-x="552" unicode="ˆ"/><glyph d="M92 1518l184 -215l185 215l71 -64l-213 -248h-88l-211 248z" glyph-name="caron" horiz-adv-x="552" unicode="ˇ"/><glyph d="M303 1235q-141 0 -213 83t-70 198h109q0 -76 43 -127.5t131 -51.5t131 51.5t43 127.5h109q2 -115 -70 -198t-213 -83z" glyph-name="breve" horiz-adv-x="606" unicode="˘"/><glyph d="M20 1331v127h125v-127h-125z" glyph-name="dotaccent" horiz-adv-x="165" unicode="˙"/><glyph d="M195 1225q-74 0 -124.5 50t-50.5 121.5t50.5 121t124.5 49.5q72 0 122 -50.5t50 -119.5q0 -72 -50 -122t-122 -50zM192.5 1315q34.5 0 58 23.5t23.5 58.5t-23.5 58.5t-58 23.5t-58 -23.5t-23.5 -58.5t23.5 -58.5t58 -23.5z" glyph-name="ring" horiz-adv-x="387" unicode="˚"/><glyph d="M289 -406q-53 -20 -118 -18t-118 50t-53 128q0 92 73.5 161t194.5 105l113 -20q-139 -35 -199.5 -94.5t-60.5 -126.5q0 -66 51 -98.5t117 -14.5v-72z" glyph-name="ogonek" horiz-adv-x="380" unicode="˛"/><glyph d="M479 1245q-59 0 -104 34t-82 67.5t-80 33.5q-41 0 -65.5 -26.5t-24.5 -65.5h-103q0 92 51.5 142.5t129.5 50.5q59 0 104 -34t82 -67.5t80 -33.5q41 0 65.5 26.5t24.5 65.5h102q0 -92 -50 -142.5t-130 -50.5z" glyph-name="tilde" horiz-adv-x="679" unicode="˜"/><glyph d="M20 1200l125 316h121l-131 -316h-115zM279 1200l124 316h121l-131 -316h-114z" glyph-name="hungarumlaut" horiz-adv-x="544" unicode="˝"/><glyph d="M-287 -500l150 424h117l-152 -424h-115z" glyph-name="uni0326" horiz-adv-x="0" unicode="̦"/><glyph d="M102 0l627 1434h43l627 -1434h-1297zM274 113h953l-475 1099z" glyph-name="Delta" horiz-adv-x="1501" unicode="Δ"/><glyph d="M160 0v121h307v8q-358 240 -358 602q0 303 217 510t493.5 207t493.5 -207t217 -510q0 -362 -359 -602v-8h308v-121h-406v203l88 67q242 182 242 461q0 256 -178 427t-405.5 171t-404.5 -171t-177 -427q0 -279 239 -461l88 -67v-203h-405z" glyph-name="Omega" horiz-adv-x="1638" unicode="Ω"/><glyph d="M920 1065h124v-1065h-124v186q-45 -88 -138.5 -147t-230.5 -59q-184 0 -297 110v-479h-125v1454h125v-612q0 -176 92 -267.5t237.5 -91.5t241 92.5t95.5 266.5v612z" glyph-name="mu" horiz-adv-x="1173" unicode="μ"/><glyph d="M1110 100q66 0 139 37v-112q-74 -37 -151 -37q-201 0 -201 205v759h-463v-952h-127v952h-205v113h1125v-113h-203v-739q0 -68 19.5 -90.5t66.5 -22.5z" glyph-name="pi" horiz-adv-x="1341" unicode="π"/><glyph d="M381 1847v-127h-121v127h121zM788 1847v-127h-120v127h120zM256 121h651v-121h-778v1454h760v-121h-633v-545h541v-116h-541v-551z" glyph-name="afii10023" horiz-adv-x="1005" unicode="Ё"/><glyph d="M758 1905l-131 -316h-115l125 316h121zM940 1454v-121h-684v-1333h-127v1454h811z" glyph-name="afii10052" horiz-adv-x="1028" unicode="Ѓ"/><glyph d="M850 102q293 0 459 220l94 -72q-201 -270 -557 -270q-309 0 -523 210.5t-214 536.5t213 537t522 211q358 0 559 -271l-94 -71q-166 219 -461 219q-246 0 -420 -161t-188 -417h424v-112h-424q23 -250 195.5 -405t414.5 -155z" glyph-name="afii10053" horiz-adv-x="1490" unicode="Є"/><glyph d="M129 0v1454h127v-1454h-127z" glyph-name="afii10055" horiz-adv-x="385" unicode="І"/><glyph d="M-72 1720v127h121v-127h-121zM336 1720v127h121v-127h-121zM129 0v1454h127v-1454h-127z" glyph-name="afii10056" horiz-adv-x="385" unicode="Ї"/><glyph d="M1200 0l-147 371h-721l-148 -371h-137l584 1454h123l583 -1454h-137zM379 489h627l-314 795z" glyph-name="afii10017" horiz-adv-x="1384" unicode="А"/><glyph d="M584 930q229 0 360 -130t131 -337q0 -203 -132 -333t-359 -130h-455v1454h813v-121h-686v-403h328zM573 121q174 0 272.5 89t98.5 253t-98 255t-273 91h-317v-688h317z" glyph-name="afii10018" horiz-adv-x="1163" unicode="Б"/><glyph d="M772 805q145 -33 226 -137.5t81 -257.5q0 -184 -124 -297t-365 -113h-461v1454h479q190 0 289.5 -97t99.5 -243q0 -106 -56 -189t-169 -120zM588 1339h-332v-495h326q139 0 215.5 70.5t76.5 185.5q0 111 -72.5 175t-213.5 64zM582 115q184 0 278 78.5t94 224.5 q0 150 -95 236.5t-277 86.5h-326v-626h326z" glyph-name="afii10019" horiz-adv-x="1167" unicode="В"/><glyph d="M940 1454v-121h-684v-1333h-127v1454h811z" glyph-name="afii10020" horiz-adv-x="1028" unicode="Г"/><glyph d="M1260 121h165v-262h-127v141h-1101v-141h-127v262h106q49 76 71.5 222t27 281.5t4.5 436.5v393h981v-1333zM299 121h834v1212h-727v-272q0 -301 -4.5 -436.5t-28 -281.5t-74.5 -222z" glyph-name="afii10021" horiz-adv-x="1495" unicode="Д"/><glyph d="M256 121h651v-121h-778v1454h760v-121h-633v-545h541v-116h-541v-551z" glyph-name="afii10022" horiz-adv-x="1005" unicode="Е"/><glyph d="M1931 0l-571 692l-225 -256v-436h-127v436l-226 256l-571 -692h-150l644 782l-590 672h151l742 -850v850h127v-850l741 850h152l-590 -672l643 -782h-150z" glyph-name="afii10024" horiz-adv-x="2138" unicode="Ж"/><glyph d="M592 -20q-225 0 -363.5 126.5t-138.5 323.5h131q0 -145 106.5 -237.5t272.5 -92.5q154 0 258.5 81t104.5 229q0 152 -115 230.5t-309 82.5v100q176 8 267 89t91 192q0 113 -88 181.5t-219 68.5q-141 0 -232.5 -82t-91.5 -234h-129q0 201 126 319t325 118 q190 0 315 -102.5t125 -258.5q0 -115 -73.5 -206t-209.5 -126q152 -25 250.5 -123t98.5 -256q0 -193 -143.5 -308t-358.5 -115z" glyph-name="afii10025" horiz-adv-x="1183" unicode="З"/><glyph d="M1280 0h-127v1239h-10l-883 -1239h-131v1454h127v-1239h10l883 1239h131v-1454z" glyph-name="afii10026" horiz-adv-x="1409" unicode="И"/><glyph d="M772 1604q-141 0 -213 82.5t-70 197.5h109q2 -76 44 -127t130 -51t131 51t45 127h107q2 -115 -70 -197.5t-213 -82.5zM1280 0h-127v1239h-10l-883 -1239h-131v1454h127v-1239h10l883 1239h131v-1454z" glyph-name="afii10027" horiz-adv-x="1409" unicode="Й"/><glyph d="M1053 0l-572 692l-225 -256v-436h-127v1454h127v-850l741 850h152l-590 -672l643 -782h-149z" glyph-name="afii10028" horiz-adv-x="1259" unicode="К"/><glyph d="M186 -12q-88 0 -147 39v106q74 -33 123 -33q90 0 90 105v1249h1042v-1454h-127v1333h-788v-1155q0 -190 -193 -190z" glyph-name="afii10029" horiz-adv-x="1423" unicode="Л"/><glyph d="M129 0v1454h143l607 -1288l606 1288h143v-1454h-127v1194h-10l-563 -1194h-99l-563 1194h-10v-1194h-127z" glyph-name="afii10030" horiz-adv-x="1757" unicode="М"/><glyph d="M1034 1454h127v-1454h-127v653h-778v-653h-127v1454h127v-682h778v682z" glyph-name="afii10031" horiz-adv-x="1290" unicode="Н"/><glyph d="M842 -20q-299 0 -516 209.5t-217 537.5t217 538t516 210q301 0 517 -210t216 -538t-216 -537.5t-517 -209.5zM841.5 102q245.5 0 425 175.5t179.5 449.5t-179.5 449.5t-425 175.5t-424.5 -175.5t-179 -449.5t179 -449.5t424.5 -175.5z" glyph-name="afii10032" horiz-adv-x="1683" unicode="О"/><glyph d="M1161 1454v-1454h-127v1333h-778v-1333h-127v1454h1032z" glyph-name="afii10033" horiz-adv-x="1290" unicode="П"/><glyph d="M584 1454q227 0 359 -130t132 -333q0 -207 -131 -337t-360 -130h-328v-524h-127v1454h455zM573 645q174 0 272.5 91t98.5 255t-98 253t-273 89h-317v-688h317z" glyph-name="afii10034" horiz-adv-x="1163" unicode="Р"/><glyph d="M846 -20q-309 0 -523 210.5t-214 536.5t213 537t522 211q358 0 559 -271l-94 -71q-166 219 -461 219q-258 0 -434 -174t-176 -450.5t177 -451t435 -174.5q293 0 459 220l94 -72q-201 -270 -557 -270z" glyph-name="afii10035" horiz-adv-x="1490" unicode="С"/><glyph d="M1008 1454v-121h-402v-1333h-127v1333h-401v121h930z" glyph-name="afii10036" horiz-adv-x="1085" unicode="Т"/><glyph d="M1120 1454h140l-789 -1454h-139l260 481l-524 973h139l457 -844z" glyph-name="afii10037" horiz-adv-x="1320" unicode="У"/><glyph d="M926 1311q313 0 493 -162t180 -422t-180 -422t-493 -162h-21v-143h-127v143h-16q-313 0 -493.5 162t-180.5 422t180.5 422t493.5 162h16v143h127v-143h21zM762 256h16v942h-16q-266 0 -406.5 -128t-140.5 -343t140.5 -343t406.5 -128zM926 256q266 0 406.5 128t140.5 343 t-140.5 343t-406.5 128h-21v-942h21z" glyph-name="afii10038" horiz-adv-x="1687" unicode="Ф"/><glyph d="M1251 0h-149l-447 641l-446 -641h-152l523 750l-490 704h150l415 -596l414 596h152l-490 -704z" glyph-name="afii10039" horiz-adv-x="1308" unicode="Х"/><glyph d="M1161 121h119v-262h-125v141h-1026v1454h127v-1333h778v1333h127v-1333z" glyph-name="afii10040" horiz-adv-x="1347" unicode="Ц"/><glyph d="M954 1454h127v-1454h-127v614q-49 -78 -152.5 -144.5t-256.5 -66.5q-193 0 -325 116t-132 337v598h127v-580q0 -164 96.5 -257t259.5 -93q168 0 275.5 94.5t107.5 255.5v580z" glyph-name="afii10041" horiz-adv-x="1210" unicode="Ч"/><glyph d="M129 0v1454h127v-1333h690v1333h127v-1333h690v1333h127v-1454h-1761z" glyph-name="afii10042" horiz-adv-x="2019" unicode="Ш"/><glyph d="M1890 121h119v-262h-125v141h-1755v1454h127v-1333h690v1333h127v-1333h690v1333h127v-1333z" glyph-name="afii10043" horiz-adv-x="2076" unicode="Щ"/><glyph d="M657 930q229 0 360.5 -130t131.5 -337q0 -203 -132 -333t-360 -130h-454v1333h-203v121h330v-524h327zM645 121q174 0 273.5 89t99.5 253t-99.5 255t-273.5 91h-315v-688h315z" glyph-name="afii10044" horiz-adv-x="1236" unicode="Ъ"/><glyph d="M584 930q229 0 360 -130t131 -337q0 -203 -132 -333t-359 -130h-455v1454h127v-524h328zM1305 1454h127v-1454h-127v1454zM573 121q174 0 272.5 89t98.5 253t-98 255t-273 91h-317v-688h317z" glyph-name="afii10045" horiz-adv-x="1560" unicode="Ы"/><glyph d="M584 930q229 0 360 -130t131 -337q0 -203 -132 -333t-359 -130h-455v1454h127v-524h328zM573 121q174 0 272.5 89t98.5 253t-98 255t-273 91h-317v-688h317z" glyph-name="afii10046" horiz-adv-x="1163" unicode="Ь"/><glyph d="M666 1475q309 0 522 -211t213 -537q0 -328 -213 -537.5t-524 -209.5q-356 0 -555 270l92 72q166 -219 461 -220q242 0 413.5 155t194.5 405h-424v112h424q-14 258 -188.5 418t-419.5 160q-295 0 -461 -219l-92 71q199 271 557 271z" glyph-name="afii10047" horiz-adv-x="1488" unicode="Э"/><glyph d="M1235 1475q301 0 517 -210t216 -538t-216 -537.5t-517 -209.5q-283 0 -495 190t-236 492h-248v-662h-127v1454h127v-680h248q16 309 230 505t501 196zM1235 102q246 0 425 175.5t179 449.5t-179 449.5t-425 175.5t-425 -175.5t-179 -449.5t179 -449.5t425 -175.5z" glyph-name="afii10048" horiz-adv-x="2078" unicode="Ю"/><glyph d="M618 1454h451v-1454h-127v530h-324h-30l-359 -530h-141l373 549q-156 41 -242 158.5t-86 283.5q0 203 131 333t354 130zM635 647h307v686h-307q-174 0 -272.5 -89t-98.5 -253t98.5 -254t272.5 -90z" glyph-name="afii10049" horiz-adv-x="1198" unicode="Я"/><glyph d="M606 -20q-215 0 -371.5 147t-156.5 405.5t156.5 405.5t371.5 147q145 0 262 -70.5t164 -176.5h6v227h125v-1065h-125v227h-6q-47 -106 -164 -176.5t-262 -70.5zM623 94q170 0 294.5 116t124.5 322.5t-124.5 322.5t-294.5 116t-295 -115t-125 -323.5t125 -323.5t295 -115z " glyph-name="afii10065" unicode="а"/><glyph d="M686 1085q215 0 371.5 -147t156.5 -405.5t-156.5 -405.5t-371.5 -147q-145 0 -262 70.5t-164 176.5h-6v-227h-125v1126q0 152 66.5 230t226.5 78h358q51 0 75 7t36 34h121q-12 -80 -59.5 -114t-153.5 -34h-344q-115 0 -158 -51t-43 -172v-266h6q47 106 164 176.5 t262 70.5zM670 94q170 0 293.5 115t123.5 323.5t-123.5 323.5t-293.5 115t-295 -116t-125 -322.5t125 -322.5t295 -116z" glyph-name="afii10066" unicode="б"/><glyph d="M803 588q227 -63 227 -277q0 -143 -107.5 -227t-322.5 -84h-471v1065h492q160 0 248.5 -69.5t88.5 -184.5q1 -162 -155 -223zM606 956h-352v-331h356q109 0 166.5 45t57.5 125q-1 161 -228 161zM614 109q291 0 291 206q0 213 -291 213h-360v-419h360z" glyph-name="afii10067" horiz-adv-x="1118" unicode="в"/><glyph d="M868 1065v-113h-614v-952h-125v1065h739z" glyph-name="afii10068" horiz-adv-x="950" unicode="г"/><glyph d="M1073 113h98v-250h-124v137h-852v-137h-125v250h75q59 86 73.5 242.5t14.5 504.5v205h840v-952zM266 113h682v839h-590v-92q0 -348 -15.5 -504.5t-76.5 -242.5z" glyph-name="afii10069" horiz-adv-x="1241" unicode="д"/><glyph d="M604 1085q104 0 198.5 -37.5t169.5 -109.5t113.5 -188.5t26.5 -262.5h-915q14 -186 138 -291.5t298 -105.5q217 0 338 143l65 -67q-72 -88 -182.5 -137t-235.5 -49q-223 0 -381.5 148t-158.5 407q0 254 156.5 402t369.5 148zM604 975q-156 0 -273.5 -102.5t-133.5 -284.5 h802q-4 180 -119.5 283.5t-275.5 103.5z" glyph-name="afii10070" horiz-adv-x="1191" unicode="е"/><glyph d="M1550 0l-458 508l-156 -160v-348h-125v348l-156 160l-458 -508h-150l531 588l-469 477h159l543 -559v559h125v-561l545 561h157l-467 -475l529 -590h-150z" glyph-name="afii10072" horiz-adv-x="1757" unicode="ж"/><glyph d="M510 -20q-188 0 -304 96t-116 252h121q0 -109 84 -175.5t219 -66.5q125 0 210 56.5t85 160.5q0 109 -89 162t-241 53v90q135 0 202 52.5t67 132.5q0 84 -67 134t-175 50q-113 0 -182.5 -55.5t-69.5 -149.5h-121q0 141 101.5 226t273.5 85q166 0 264 -78.5t98 -199.5 q0 -80 -51 -143.5t-153 -92.5q115 -14 190.5 -85.5t75.5 -184.5q0 -143 -121 -231t-301 -88z" glyph-name="afii10073" horiz-adv-x="1021" unicode="з"/><glyph d="M129 0v1065h125v-881l657 881h125v-1065h-125v881l-657 -881h-125z" glyph-name="afii10074" horiz-adv-x="1165" unicode="и"/><glyph d="M583.5 1235q-141.5 0 -213 83t-69.5 198h109q0 -76 43 -127.5t131 -51.5t131 51.5t43 127.5h108q2 -115 -69.5 -198t-213 -83zM129 0v1065h125v-881l657 881h125v-1065h-125v881l-657 -881h-125z" glyph-name="afii10075" horiz-adv-x="1165" unicode="й"/><glyph d="M868 0l-458 508l-156 -160v-348h-125v1065h125v-559l543 559h159l-469 -477l531 -588h-150z" glyph-name="afii10076" horiz-adv-x="1075" unicode="к"/><glyph d="M1126 1065v-1065h-125v952h-626v-764q0 -104 -55.5 -152t-145.5 -48q-84 0 -135 37v106q55 -33 117 -33q51 0 72.5 26t21.5 81v860h876z" glyph-name="afii10077" horiz-adv-x="1255" unicode="л"/><glyph d="M129 0v1065h131l451 -909l450 909h131v-1065h-125v834l-407 -834h-98l-408 834v-834h-125z" glyph-name="afii10078" horiz-adv-x="1421" unicode="м"/><glyph d="M895 1065h125v-1065h-125v467h-641v-467h-125v1065h125v-485h641v485z" glyph-name="afii10079" horiz-adv-x="1148" unicode="н"/><glyph d="M627 -20q-219 0 -384 150.5t-165 402t165 402t384 150.5t384 -150.5t165 -402t-165 -402t-384 -150.5zM627 94q172 0 298 118t126 320.5t-126 320.5t-298 118t-298 -118t-126 -320.5t126 -320.5t298 -118z" glyph-name="afii10080" horiz-adv-x="1253" unicode="о"/><glyph d="M1014 1065v-1065h-125v952h-635v-952h-125v1065h885z" glyph-name="afii10081" horiz-adv-x="1142" unicode="п"/><glyph d="M686 1085q215 0 371.5 -147t156.5 -405.5t-156.5 -405.5t-371.5 -147q-145 0 -262 70.5t-164 176.5h-6v-616h-125v1454h125v-227h6q47 106 164 176.5t262 70.5zM670 94q170 0 293.5 115t123.5 323.5t-123.5 323.5t-293.5 115t-295 -116t-125 -322.5t125 -322.5t295 -116z " glyph-name="afii10082" unicode="р"/><glyph d="M625 -20q-219 0 -383 149.5t-164 400.5q0 254 164 404.5t383 150.5q141 0 264 -68.5t190 -193.5l-98 -55q-53 96 -147.5 149.5t-204.5 53.5q-170 0 -298 -119t-128 -322q0 -201 128 -318.5t298 -117.5q111 0 205 53.5t147 149.5l98 -55q-68 -125 -190.5 -193.5 t-263.5 -68.5z" glyph-name="afii10083" horiz-adv-x="1157" unicode="с"/><glyph d="M836 1065v-113h-320v-952h-125v952h-321v113h766z" glyph-name="afii10084" horiz-adv-x="905" unicode="т"/><glyph d="M950 1065h131l-454 -1065l-172 -389h-123l176 397l-451 1057h131l381 -905z" glyph-name="afii10085" horiz-adv-x="1138" unicode="у"/><glyph d="M1032 -389v616h-10q-47 -106 -164 -176.5t-262 -70.5q-209 0 -363.5 147t-154.5 405.5t154.5 405.5t363.5 147q145 0 262 -70.5t164 -176.5h10v647h123v-647h10q47 106 164 176.5t262 70.5q209 0 363.5 -147t154.5 -405.5t-154.5 -405.5t-363.5 -147q-145 0 -262 70.5 t-164 176.5h-10v-616h-123zM612 94q170 0 295 116t125 322.5t-125 322.5t-295 116q-166 0 -287.5 -115t-121.5 -323.5t121.5 -323.5t287.5 -115zM1575 94q166 0 288 115t122 323.5t-122 323.5t-288 115q-170 0 -295 -116t-125 -322.5t125 -322.5t295 -116z" glyph-name="afii10086" horiz-adv-x="2187" unicode="ф"/><glyph d="M47 0l414 543l-393 522h145l319 -428l320 428h145l-393 -522l414 -543h-150l-336 451l-335 -451h-150z" glyph-name="afii10087" horiz-adv-x="1064" unicode="х"/><glyph d="M1014 113h96v-254h-125v141h-856v1065h125v-952h635v952h125v-952z" glyph-name="afii10088" horiz-adv-x="1177" unicode="ц"/><glyph d="M874 1065h125v-1065h-125v408q-47 -70 -136 -116t-212 -46q-166 0 -281.5 94t-115.5 297v428h125v-426q0 -131 80 -206t219 -75q141 0 231 76t90 205v426z" glyph-name="afii10089" horiz-adv-x="1128" unicode="ч"/><glyph d="M129 0v1065h125v-952h475v952h125v-952h475v952h123v-1065h-1323z" glyph-name="afii10090" horiz-adv-x="1581" unicode="ш"/><glyph d="M1452 113h98v-254h-125v141h-1296v1065h125v-952h475v952h125v-952h475v952h123v-952z" glyph-name="afii10091" horiz-adv-x="1617" unicode="щ"/><glyph d="M666 635q174 0 269 -85t95 -232.5t-95 -232.5t-269 -85h-523v952h-143v113h268v-430h398zM655 113q252 0 252 204.5t-252 204.5h-387v-409h387z" glyph-name="afii10092" horiz-adv-x="1107" unicode="ъ"/><glyph d="M651 635q174 0 269.5 -85t95.5 -232.5t-95.5 -232.5t-269.5 -85h-522v1065h125v-430h397zM1143 1065h125v-1065h-125v1065zM641 113q252 0 252 204.5t-252 204.5h-387v-409h387z" glyph-name="afii10093" horiz-adv-x="1396" unicode="ы"/><glyph d="M651 635q174 0 269.5 -85t95.5 -232.5t-95.5 -232.5t-269.5 -85h-522v1065h125v-430h397zM641 113q252 0 252 204.5t-252 204.5h-387v-409h387z" glyph-name="afii10094" horiz-adv-x="1093" unicode="ь"/><glyph d="M530 1085q221 0 385 -150.5t164 -404.5q0 -252 -164.5 -401t-384.5 -149q-141 0 -263 67.5t-189 194.5l96 55q55 -96 149.5 -149.5t204.5 -53.5q158 0 282 105.5t140 283.5h-356v95h356q-16 182 -140 287.5t-282 105.5q-111 0 -205 -53.5t-149 -149.5l-96 55 q68 127 189.5 194.5t262.5 67.5z" glyph-name="afii10095" horiz-adv-x="1157" unicode="э"/><glyph d="M1018 1085q219 0 384 -150.5t165 -402t-165 -402t-384 -150.5q-205 0 -365.5 133t-181.5 360h-217v-473h-125v1065h125v-477h217q18 229 179 363t368 134zM1018 94q172 0 297 118t125 320.5t-125 320.5t-297 118t-298 -118t-126 -320.5t126 -320.5t298 -118z" glyph-name="afii10096" horiz-adv-x="1650" unicode="ю"/><glyph d="M989 1065v-1065h-125v410h-276l-348 -410h-152l354 410q-162 6 -250 95t-88 232q0 147 94.5 237.5t266.5 90.5h524zM469 522h395v430h-395q-125 0 -183.5 -60.5t-58.5 -154.5t58.5 -154.5t183.5 -60.5z" glyph-name="afii10097" horiz-adv-x="1118" unicode="я"/><glyph d="M467 1458v-127h-121v127h121zM874 1458v-127h-120v127h120zM604 1085q104 0 198.5 -37.5t169.5 -109.5t113.5 -188.5t26.5 -262.5h-915q14 -186 138 -291.5t298 -105.5q217 0 338 143l65 -67q-72 -88 -182.5 -137t-235.5 -49q-223 0 -381.5 148t-158.5 407 q0 254 156.5 402t369.5 148zM604 975q-156 0 -273.5 -102.5t-133.5 -284.5h802q-4 180 -119.5 283.5t-275.5 103.5z" glyph-name="afii10071" horiz-adv-x="1191" unicode="ё"/><glyph d="M731 1516l-131 -316h-115l125 316h121zM868 1065v-113h-614v-952h-125v1065h739z" glyph-name="afii10100" horiz-adv-x="950" unicode="ѓ"/><glyph d="M629 94q111 0 205 53.5t147 149.5l98 -55q-68 -125 -190.5 -193.5t-263.5 -68.5q-219 0 -383 149.5t-164 400.5q0 254 164 404.5t383 150.5q141 0 264 -68.5t190 -193.5l-98 -55q-53 96 -147.5 149.5t-204.5 53.5q-158 0 -283 -105.5t-141 -287.5h358v-95h-358 q16 -178 141 -283.5t283 -105.5z" glyph-name="afii10101" horiz-adv-x="1157" unicode="є"/><glyph d="M129 1333v121h125v-121h-125zM129 0v1065h125v-1065h-125z" glyph-name="afii10103" horiz-adv-x="382" unicode="і"/><glyph d="M-72 1331v127h121v-127h-121zM336 1331v127h121v-127h-121zM129 0v1065h125v-1065h-125z" glyph-name="afii10104" horiz-adv-x="382" unicode="ї"/><glyph d="M813 1550h127v-217h-684v-1333h-127v1454h684v96z" glyph-name="afii10050" horiz-adv-x="1028" unicode="Ґ"/><glyph d="M743 1159h125v-207h-614v-952h-125v1065h614v94z" glyph-name="afii10098" horiz-adv-x="950" unicode="ґ"/><glyph d="M1061 1589h-115l-131 316h121zM504 0l-436 1454h135l362 -1223l391 1223h105l393 -1223l363 1223h135l-439 -1454h-104l-399 1229l-402 -1229h-104z" glyph-name="Wgrave" horiz-adv-x="2019" unicode="Ẁ"/><glyph d="M999 1200h-114l-131 316h120zM1708 1065h127l-405 -1065h-117l-367 911l-366 -911h-117l-406 1065h127l338 -903l363 903h123l362 -903z" glyph-name="wgrave" horiz-adv-x="1892" unicode="ẁ"/><glyph d="M967 1589l125 316h120l-131 -316h-114zM504 0l-436 1454h135l362 -1223l391 1223h105l393 -1223l363 1223h135l-439 -1454h-104l-399 1229l-402 -1229h-104z" glyph-name="Wacute" horiz-adv-x="2019" unicode="Ẃ"/><glyph d="M1151 1516l-131 -316h-115l125 316h121zM1708 1065h127l-405 -1065h-117l-367 911l-366 -911h-117l-406 1065h127l338 -903l363 903h123l362 -903z" glyph-name="wacute" horiz-adv-x="1892" unicode="ẃ"/><glyph d="M745 1720v127h121v-127h-121zM1153 1720v127h121v-127h-121zM504 0l-436 1454h135l362 -1223l391 1223h105l393 -1223l363 1223h135l-439 -1454h-104l-399 1229l-402 -1229h-104z" glyph-name="Wdieresis" horiz-adv-x="2019" unicode="Ẅ"/><glyph d="M803 1458v-127h-121v127h121zM1210 1458v-127h-120v127h120zM1708 1065h127l-405 -1065h-117l-367 911l-366 -911h-117l-406 1065h127l338 -903l363 903h123l362 -903z" glyph-name="wdieresis" horiz-adv-x="1892" unicode="ẅ"/><glyph d="M696 1589h-114l-131 316h120zM582 0v649l-514 805h145l432 -686l432 686h146l-514 -805v-649h-127z" glyph-name="Ygrave" horiz-adv-x="1290" unicode="Ỳ"/><glyph d="M625 1200h-115l-131 316h121zM950 1065h131l-454 -1065l-172 -389h-123l176 397l-451 1057h131l381 -905z" glyph-name="ygrave" horiz-adv-x="1138" unicode="ỳ"/><glyph d="M92 524v103h1045v-103h-1045z" glyph-name="endash" horiz-adv-x="1228" unicode="–"/><glyph d="M92 524v103h1168v-103h-1168z" glyph-name="emdash" horiz-adv-x="1351" unicode="—"/><glyph d="M326 1454l-150 -426h-117l152 426h115z" glyph-name="quoteleft" horiz-adv-x="385" unicode="‘"/><glyph d="M59 1028l150 426h117l-152 -426h-115z" glyph-name="quoteright" horiz-adv-x="385" unicode="’"/><glyph d="M59 -287l150 426h117l-152 -426h-115z" glyph-name="quotesinglbase" horiz-adv-x="395" unicode="‚"/><glyph d="M326 1454l-150 -426h-117l152 426h115zM563 1454l-149 -426h-117l152 426h114z" glyph-name="quotedblleft" horiz-adv-x="622" unicode="“"/><glyph d="M59 1028l150 426h117l-152 -426h-115zM297 1028l149 426h117l-151 -426h-115z" glyph-name="quotedblright" horiz-adv-x="622" unicode="”"/><glyph d="M59 -287l150 426h117l-152 -426h-115zM297 -287l149 426h117l-151 -426h-115z" glyph-name="quotedblbase" horiz-adv-x="632" unicode="„"/><glyph d="M530 1165v-90h-168l-18 -416h-57l-19 416h-170v90h166l-12 289h127l-12 -289h163z" glyph-name="dagger" horiz-adv-x="628" unicode="†"/><glyph d="M365 1165h165v-90h-172l-14 -289h-57l-15 289h-174v90h168l-14 289h127zM344 668l14 -289h172v-90h-165l14 -289h-127l14 289h-168v90h174l15 289h57z" glyph-name="daggerdbl" horiz-adv-x="628" unicode="‡"/><glyph d="M188.5 496q-34.5 0 -56 22.5t-21.5 55t21.5 55t56 22.5t56 -22.5t21.5 -55t-21.5 -55t-56 -22.5z" glyph-name="bullet" horiz-adv-x="360" unicode="•"/><glyph d="M158 -20q-35 0 -56.5 22.5t-21.5 55t21.5 55t56.5 22.5t56.5 -22.5t21.5 -55t-21.5 -55t-56.5 -22.5zM663.5 -20q-34.5 0 -56 22.5t-21.5 55t21.5 55t56 22.5t56 -22.5t21.5 -55t-21.5 -55t-56 -22.5zM1169.5 -20q-34.5 0 -56 22.5t-21.5 55t21.5 55t56 22.5t56 -22.5 t21.5 -55t-21.5 -55t-56 -22.5z" glyph-name="ellipsis" horiz-adv-x="1327" unicode="…"/><glyph d="M325.5 961q-104.5 0 -179 73.5t-74.5 178t74.5 178t179 73.5t179.5 -73.5t75 -178t-75 -178t-179.5 -73.5zM299 0l-96 63l919 1393l95 -63zM325.5 1055q67.5 0 112.5 44t45 113.5t-45 113.5t-112.5 44t-112.5 -44t-45 -113.5t45 -113.5t112.5 -44zM1103.5 -10 q-104.5 0 -179 73.5t-74.5 178t74.5 178.5t179 74t179.5 -74t75 -178.5t-75 -178t-179.5 -73.5zM1722.5 -10q-104.5 0 -179.5 73.5t-75 178t75 178.5t179.5 74t179 -74t74.5 -178.5t-74.5 -178t-179 -73.5zM1103.5 84q67.5 0 113 44t45.5 113.5t-45.5 113.5t-113 44 t-112.5 -44t-45 -113.5t45 -113.5t112.5 -44zM1722.5 84q67.5 0 112.5 44t45 113.5t-45 113.5t-112.5 44t-112.5 -44t-45 -113.5t45 -113.5t112.5 -44z" glyph-name="perthousand" horiz-adv-x="2048" unicode="‰"/><glyph d="M381 268l-299 295v72l299 297l47 -49l-256 -283l256 -283z" glyph-name="guilsinglleft" horiz-adv-x="479" unicode="‹"/><glyph d="M98 268l-47 49l254 283l-254 283l47 49l299 -297v-72z" glyph-name="guilsinglright" horiz-adv-x="479" unicode="›"/><glyph d="M-389 0l893 1434h86l-881 -1434h-98z" glyph-name="fraction" horiz-adv-x="221" unicode="⁄"/><glyph d="M897 102q293 0 459 220l94 -72q-201 -270 -557 -270q-270 0 -473 164.5t-252 433.5h-137v84h127q-2 20 -2 65v18h-125v84h131q35 287 240.5 466.5t488.5 179.5q358 0 559 -271l-94 -71q-166 219 -461 219q-231 0 -401 -143.5t-203 -379.5h452v-84h-458v-18q0 -45 2 -65 h456v-84h-442q45 -215 210 -345.5t386 -130.5z" glyph-name="Euro" horiz-adv-x="1536" unicode="€"/><glyph d="M272 1085v304h-139v65h350v-65h-139v-304h-72zM551 1085v369h74l145 -285l150 285h71v-369h-71v238l-119 -238h-60l-116 238v-238h-74z" glyph-name="trademark" horiz-adv-x="1124" unicode="™"/><glyph d="M129 901v453l-35 -23l-37 64l72 41h76v-535h-76zM51 0l893 1434h86l-880 -1434h-99zM899 -4q-76 0 -131 46t-55 116q0 92 88 135q-61 39 -62 108q0 53 44 95.5t116 42.5q74 0 118 -41t44 -97q0 -70 -62 -108q88 -43 88 -135q0 -70 -55 -116t-133 -46zM899 322 q35 0 59.5 23.5t24.5 55.5q0 74 -84 74q-41 0 -62.5 -21.5t-21.5 -52t25.5 -55t58.5 -24.5zM899 59q49 0 80 27t31 72t-31 72.5t-80 27.5q-45 0 -78 -28.5t-33 -71.5q0 -41 33 -70t78 -29z" glyph-name="oneeighth" horiz-adv-x="1138" unicode="⅛"/><glyph d="M238 893q-82 0 -136.5 55.5t-50.5 130.5h78q-2 -49 28.5 -85t80.5 -36q45 0 77.5 28t32.5 71q0 102 -151 96v61q129 0 129 86q0 33 -26 54.5t-62 21.5q-45 0 -71 -29.5t-26 -82.5h-75q-2 78 47 127t125 49q66 0 114.5 -42t48.5 -98q0 -66 -61 -108q86 -37 86 -135 q0 -70 -56 -117t-132 -47zM92 0l893 1434h86l-881 -1434h-98zM936 -4q-76 0 -131 46t-55 116q0 92 88 135q-61 39 -62 108q0 53 44 95.5t116 42.5q74 0 118 -41t44 -97q0 -70 -62 -108q88 -43 88 -135q0 -70 -55 -116t-133 -46zM936 322q35 0 59.5 23.5t24.5 55.5 q0 74 -84 74q-41 0 -62.5 -21.5t-21.5 -52t25.5 -55t58.5 -24.5zM936 59q49 0 80 27t31 72t-31 72.5t-80 27.5q-45 0 -78 -28.5t-33 -71.5q0 -41 33 -70t78 -29z" glyph-name="threeeighths" horiz-adv-x="1175" unicode="⅜"/><glyph d="M236 893q-68 0 -120.5 38t-64.5 89l68 39q4 -41 35.5 -71t81.5 -30q47 0 81.5 36t34.5 89q0 51 -33.5 87t-74.5 36q-72 0 -117 -59l-66 16l37 273h283v-66h-213l-16 -119q45 20 92 21q72 0 129 -54.5t57 -134t-57 -135t-137 -55.5zM92 0l893 1434h86l-881 -1434h-98z M940 -4q-76 0 -131 46t-55 116q0 92 88 135q-61 39 -62 108q0 53 44 95.5t116 42.5q74 0 118 -41t44 -97q0 -70 -62 -108q88 -43 88 -135q0 -70 -55 -116t-133 -46zM940 322q35 0 59.5 23.5t24.5 55.5q0 74 -84 74q-41 0 -62.5 -21.5t-21.5 -52t25.5 -55t58.5 -24.5zM940 59 q49 0 80 27t31 72t-31 72.5t-80 27.5q-45 0 -78 -28.5t-33 -71.5q0 -41 33 -70t78 -29z" glyph-name="fiveeighths" horiz-adv-x="1179" unicode="⅝"/><glyph d="M121 901l182 469h-248v66h355l-209 -535h-80zM51 0l893 1434h86l-880 -1434h-99zM899 -4q-76 0 -131 46t-55 116q0 92 88 135q-61 39 -62 108q0 53 44 95.5t116 42.5q74 0 118 -41t44 -97q0 -70 -62 -108q88 -43 88 -135q0 -70 -55 -116t-133 -46zM899 322 q35 0 59.5 23.5t24.5 55.5q0 74 -84 74q-41 0 -62.5 -21.5t-21.5 -52t25.5 -55t58.5 -24.5zM899 59q49 0 80 27t31 72t-31 72.5t-80 27.5q-45 0 -78 -28.5t-33 -71.5q0 -41 33 -70t78 -29z" glyph-name="seveneighths" horiz-adv-x="1138" unicode="⅞"/><glyph d="M809 954q2 -4 30.5 -43l38 -52t35 -53t37 -63.5t30.5 -64.5t27.5 -75t15.5 -77t7 -84q0 -207 -133 -334.5t-332 -127.5q-197 0 -332 126.5t-135 329.5q0 197 129 320t320 123q129 0 223 -66l-459 641h144zM565.5 94q143.5 0 243.5 92.5t100 245.5q0 152 -100 244 t-243.5 92t-245 -92t-101.5 -244q0 -154 101.5 -246t245 -92z" glyph-name="partialdiff" horiz-adv-x="1128" unicode="∂"/><glyph d="M92 -389v1823h1168v-1823h-117v1700h-934v-1700h-117z" glyph-name="product" horiz-adv-x="1351" unicode="∏"/><glyph d="M92 -389l563 911l-563 912h1155v-125h-934l490 -787l-490 -786h934v-125h-1155z" glyph-name="summation" horiz-adv-x="1339" unicode="∑"/><glyph d="M92 524v103h686v-103h-686z" glyph-name="minus" horiz-adv-x="870" unicode="−"/><glyph d="M651 -389l-338 954h-221v131h307l312 -905l467 1643h122l-516 -1823h-133z" glyph-name="radical" horiz-adv-x="1392" unicode="√"/><glyph d="M1225 870q143 0 240.5 -96t97.5 -237q0 -145 -97.5 -242.5t-240.5 -97.5q-199 0 -389 247q-190 -248 -387 -247q-143 0 -241.5 97t-98.5 243q0 141 98 237t242 96q195 0 387 -243q192 243 389 243zM453 307q160 0 315 230q-156 225 -315 225q-98 0 -163 -65.5t-65 -159.5 q0 -96 65 -163t163 -67zM1219 307q98 0 162.5 66.5t64.5 163.5q0 94 -64.5 159.5t-162.5 65.5q-160 0 -316 -225q156 -230 316 -230z" glyph-name="infinity" horiz-adv-x="1671" unicode="∞"/><glyph d="M-119 -389v113q104 0 145.5 45t41.5 172v1167q0 186 74.5 256t238.5 70v-113q-102 0 -144 -47t-42 -174v-1168q0 -186 -75 -253.5t-239 -67.5z" glyph-name="integral" horiz-adv-x="479" unicode="∫"/><glyph d="M551 608q-59 0 -104.5 34t-82 67.5t-79.5 33.5q-41 0 -65.5 -26.5t-24.5 -67.5h-103q0 92 50.5 142.5t129.5 50.5q59 0 104.5 -34t82.5 -67.5t80 -33.5q41 0 65.5 26.5t24.5 67.5h102q0 -92 -50 -142.5t-130 -50.5zM551 279q-59 0 -104.5 33.5t-82 67.5t-79.5 34 q-41 0 -65.5 -27t-24.5 -68h-103q0 92 50.5 142.5t129.5 50.5q59 0 104.5 -34t82.5 -67.5t80 -33.5q41 0 65.5 26.5t24.5 67.5h102q0 -92 -50 -142t-130 -50z" glyph-name="approxequal" horiz-adv-x="823" unicode="≈"/><glyph d="M778 690h-243l-91 -229h334v-103h-372l-140 -358h-108l139 358h-205v103h244l90 229h-334v103h373l139 356h109l-140 -356h205v-103z" glyph-name="notequal" horiz-adv-x="870" unicode="≠"/><glyph d="M795 322l-703 403v86l703 403v-112l-584 -334l584 -332v-114zM92 102h703v-102h-703v102z" glyph-name="lessequal" horiz-adv-x="882" unicode="≤"/><glyph d="M92 322v114l584 332l-584 334v112l703 -403v-86zM795 102v-102h-703v102h703z" glyph-name="greaterequal" horiz-adv-x="886" unicode="≥"/><glyph d="M573 1434l318 -717l-318 -717h-163l-318 717l318 717h163zM492 111l268 606l-268 606l-269 -606z" glyph-name="lozenge" horiz-adv-x="983" unicode="◊"/><glyph d="M113 0l120 1454h140l540 -1290l541 1290h139l121 -1454h-131l-98 1225l-512 -1225h-119l-510 1225l-100 -1225h-131z" glyph-name="M.aalt" horiz-adv-x="1826"/><glyph d="M131 1331v127h123v-127h-123zM135 0v1065h125v-1065h-125z" glyph-name="i.locl" horiz-adv-x="391"/><glyph d="M184 1319q-35 0 -58.5 24.5t-23.5 59.5t24 57.5t58 22.5q33 0 56.5 -22.5t23.5 -57.5t-23.5 -59.5t-56.5 -24.5zM121 0v1065h125v-1065h-125z" glyph-name="i.salt" horiz-adv-x="366"/><glyph d="M186 1319q-35 0 -58.5 24.5t-23.5 59.5t24 57.5t58.5 22.5t57 -22.5t22.5 -57.5t-23.5 -59.5t-56.5 -24.5zM-193 -395v116h41q135 0 205 61.5t70 227.5v1055h125v-1063q0 -221 -103.5 -309t-296.5 -88h-41z" glyph-name="j.aalt" horiz-adv-x="368"/><glyph d="M1092 961h-207v-754q0 -106 106 -107q47 0 96 21v-103q-47 -31 -122 -30q-96 0 -150.5 48t-54.5 144v781h-461v-961h-125v961h-117v104h117v139q0 158 81 223.5t191 65.5q88 0 156 -41v-100q-59 33 -135 32q-168 0 -168 -196v-123h461v272h125v-272h207v-104z" glyph-name="f_t.dlig" horiz-adv-x="1179"/><glyph d="M1133 961h-207v-754q0 -106 106 -107q45 0 96 21v-103q-47 -31 -124 -30q-94 0 -148.5 48t-54.5 144v778h-387v3h-74v-754q0 -106 106 -107q47 0 97 21v-103q-47 -31 -123 -30q-96 0 -150.5 48t-54.5 144v781h-137v104h137v272h125v-272h461v272h125v-272h207v-104z" glyph-name="t_t.dlig" horiz-adv-x="1220"/><glyph d="M663.5 -20q-247.5 0 -401 199.5t-153.5 547.5t154.5 548t400.5 200q248 0 402.5 -200t154.5 -548t-155 -547.5t-402.5 -199.5zM663.5 94q196.5 0 313.5 170t117 463q0 291 -117 462t-313.5 171t-312 -171t-115.5 -462q0 -293 115.5 -463t312 -170z" glyph-name="zero.salt" horiz-adv-x="1329"/><glyph d="M733 -20q-248 0 -401.5 198.5t-153.5 548.5q0 348 153.5 548t401.5 200t401.5 -200t153.5 -548q0 -350 -153.5 -548.5t-401.5 -198.5zM733.5 94q196.5 0 313 170t116.5 463q0 291 -116.5 462t-313 171t-313.5 -171t-117 -462q0 -293 117 -463t313.5 -170z" glyph-name="zero.tnum" horiz-adv-x="1433"/><glyph d="M666 0v1335h-195v119h317v-1454h-122z" glyph-name="one.tnum" horiz-adv-x="1433"/><glyph d="M260 0l477 590q16 20 71.5 89t70 87t50.5 70.5t47 81t22.5 71.5t11.5 86q0 131 -81 206t-214 75q-139 0 -228.5 -82t-89.5 -236v-34h-125v45q0 188 122 307t321 119q190 0 306 -110t116 -278q0 -45 -7.5 -85.5t-26 -82.5t-31.5 -71t-45 -72t-45 -60.5t-51 -63.5t-46 -54 l-400 -485h658v-113h-883z" glyph-name="two.tnum" horiz-adv-x="1433"/><glyph d="M702 -20q-172 0 -294.5 87t-167.5 224l96 53q41 -115 138 -183.5t231 -68.5q156 0 261 93.5t105 260.5q0 193 -140 289t-335 49l356 557h-628v113h819l-367 -569q168 -2 295 -121t127 -320q0 -209 -142.5 -336.5t-353.5 -127.5z" glyph-name="three.tnum" horiz-adv-x="1433"/><glyph d="M1174 506v-113h-154v-393h-127v393h-639v113l639 948h127v-948h154zM385 506h508v764z" glyph-name="four.tnum" horiz-adv-x="1433"/><glyph d="M684 -20q-168 0 -289 82.5t-174 209.5l101 56q37 -96 135 -165t229 -69q160 0 270.5 105.5t110.5 275.5q0 168 -106.5 275.5t-268.5 107.5q-98 0 -185 -44t-142 -124l-105 37l98 727h689v-113h-590l-74 -512q117 137 328 138q201 0 340 -136.5t139 -355.5t-144.5 -357 t-361.5 -138z" glyph-name="five.tnum" horiz-adv-x="1433"/><glyph d="M754 879q190 0 319 -123t129 -320q0 -203 -135 -329.5t-332 -126.5q-199 0 -332 128t-133 334q0 41 7.5 84t15.5 77t27.5 75t30.5 64.5t37 63.5t35 53t37.5 52t31.5 43l354 500h141l-457 -641q99 66 224 66zM735.5 94q143.5 0 244.5 92.5t101 245.5q0 152 -101 244 t-244.5 92t-244 -92t-100.5 -244q0 -154 100.5 -246t244 -92z" glyph-name="six.tnum" horiz-adv-x="1433"/><glyph d="M457 0l520 1341h-676v113h842l-559 -1454h-127z" glyph-name="seven.tnum" horiz-adv-x="1433"/><glyph d="M727.5 -20q-190.5 0 -326 119.5t-135.5 312.5q0 137 72 238.5t190 150.5q-178 111 -178 315q0 147 104.5 253t272.5 106t272.5 -105.5t104.5 -253.5q0 -98 -46 -181t-130 -134q119 -49 190.5 -150.5t71.5 -238.5q0 -193 -136 -312.5t-326.5 -119.5zM727 846 q111 0 186.5 75.5t75.5 186.5q0 106 -71.5 180t-190.5 74q-117 0 -188.5 -74t-71.5 -180q0 -111 75.5 -186.5t184.5 -75.5zM727 96q139 0 236.5 88t97.5 232q0 141 -96.5 230t-237.5 89t-236.5 -89t-95.5 -230.5t97.5 -230.5t234.5 -89z" glyph-name="eight.tnum" horiz-adv-x="1433"/><glyph d="M719 1475q199 0 332 -128t133 -335q0 -98 -39 -202.5t-72 -155t-94 -132.5q-10 -16 -16 -22l-355 -500h-141l455 639q-92 -63 -220 -64q-190 0 -320 123t-130 320q0 203 135 330t332 127zM373 1022q0 -152 101 -244t244.5 -92t244 92t100.5 244q0 154 -100.5 246t-244 92 t-244.5 -92t-101 -246z" glyph-name="nine.tnum" horiz-adv-x="1433"/><glyph d="M266 -4q-92 0 -153.5 71.5t-61.5 186.5v27q0 115 61.5 186.5t153.5 71.5q96 0 155.5 -72t59.5 -186v-27q0 -115 -59.5 -186.5t-155.5 -71.5zM266 59q63 0 101.5 51.5t38.5 143.5v27q0 92 -38 143t-102 51q-59 0 -99 -52t-40 -142v-27q0 -90 40 -142.5t99 -52.5z" glyph-name="zero.dnom" horiz-adv-x="532"/><glyph d="M123 0v453l-35 -23l-37 64l72 41h76v-535h-76z" glyph-name="one.dnom" horiz-adv-x="249"/><glyph d="M57 0v66l140 141q57 59 74.5 78.5t31.5 46t14 55.5q0 37 -28.5 63.5t-65.5 26.5q-39 0 -67.5 -26.5t-28.5 -75.5v-29h-76v29q0 72 50.5 119t121.5 47q70 0 121 -46t51 -108q0 -53 -29.5 -96t-109.5 -125l-96 -100h241v-66h-344z" glyph-name="two.dnom" horiz-adv-x="452"/><glyph d="M238 -8q-82 0 -136.5 55t-50.5 131h78q-2 -49 28.5 -85t80.5 -36q45 0 77.5 28t32.5 71q0 102 -151 96v61q129 0 129 86q0 33 -26 54.5t-62 21.5q-45 0 -71 -29.5t-26 -83.5h-75q-2 78 47 127.5t125 49.5q66 0 114.5 -42t48.5 -98q0 -66 -61 -108q86 -37 86 -135 q0 -70 -56 -117t-132 -47z" glyph-name="three.dnom" horiz-adv-x="477"/><glyph d="M322 0v156h-271l271 379h75v-316h56v-63h-56v-156h-75zM188 219h134v195z" glyph-name="four.dnom" horiz-adv-x="503"/><glyph d="M236 -8q-68 0 -120.5 38t-64.5 89l68 39q4 -41 35.5 -71t81.5 -30q47 0 81.5 36t34.5 89q0 51 -33.5 87t-74.5 36q-72 0 -117 -59l-66 16l37 273h283v-66h-213l-16 -119q45 20 92 21q72 0 129 -54.5t57 -134.5t-57 -135t-137 -55z" glyph-name="five.dnom" horiz-adv-x="481"/><glyph d="M229.5 -8q-69.5 0 -124 51t-54.5 123q0 33 11.5 64.5t20.5 47t36.5 51.5t34.5 44l116 162h86l-139 -197h12q70 0 123.5 -51t53.5 -121q0 -72 -53.5 -123t-123 -51zM229 57q37 0 69 31t32 78t-31 76.5t-70 29.5q-45 0 -73.5 -28.5t-28.5 -77.5q0 -47 31.5 -78t70.5 -31z " glyph-name="six.dnom" horiz-adv-x="456"/><glyph d="M117 0l182 469h-248v66h355l-209 -535h-80z" glyph-name="seven.dnom" horiz-adv-x="456"/><glyph d="M238 -4q-76 0 -131.5 46t-55.5 116q0 92 88 135q-61 39 -61 108q0 53 44 95.5t116 42.5q74 0 117.5 -41t43.5 -97q0 -70 -61 -108q88 -43 88 -135q0 -70 -55 -116t-133 -46zM238 322q37 0 60.5 23.5t23.5 55.5q0 74 -84 74q-41 0 -62.5 -21.5t-21.5 -52t25.5 -55 t58.5 -24.5zM238 59q49 0 79.5 27t30.5 72t-30.5 72.5t-79.5 27.5q-45 0 -78 -28.5t-33 -71.5q0 -41 33 -70t78 -29z" glyph-name="eight.dnom" horiz-adv-x="477"/><glyph d="M100 0l140 195h-11q-72 0 -125 52t-53 122q0 72 54.5 122t124 50t124 -50.5t54.5 -121.5q0 -27 -5.5 -49.5t-18.5 -46t-21.5 -37t-30 -40t-29.5 -36.5l-115 -160h-88zM229 260q45 0 73 29.5t28 79.5q0 45 -32 75.5t-69 30.5q-39 0 -70.5 -30.5t-31.5 -75.5 q0 -47 31.5 -78t70.5 -31z" glyph-name="nine.dnom" horiz-adv-x="458"/><glyph d="M266 897q-92 0 -153.5 71.5t-61.5 186.5v27q0 115 61.5 186.5t153.5 71.5q96 0 155.5 -72t59.5 -186v-27q0 -115 -59.5 -186.5t-155.5 -71.5zM266 961q63 0 101.5 51t38.5 143v27q0 92 -38 143t-102 51q-59 0 -99 -52t-40 -142v-27q0 -90 40 -142t99 -52z" glyph-name="zero.numr" horiz-adv-x="532"/><glyph d="M123 901v453l-35 -23l-37 64l72 41h76v-535h-76z" glyph-name="one.numr" horiz-adv-x="249"/><glyph d="M57 901v66l140 141q57 59 74.5 78.5t31.5 46.5t14 55q0 37 -28.5 63.5t-65.5 26.5q-39 0 -67.5 -26.5t-28.5 -75.5v-29h-76v29q0 72 50.5 119t121.5 47q70 0 121 -46t51 -108q0 -53 -29.5 -96t-109.5 -125l-96 -100h241v-66h-344z" glyph-name="two.numr" horiz-adv-x="452"/><glyph d="M238 893q-82 0 -136.5 55.5t-50.5 130.5h78q-2 -49 28.5 -85t80.5 -36q45 0 77.5 28t32.5 71q0 102 -151 96v61q129 0 129 86q0 33 -26 54.5t-62 21.5q-45 0 -71 -29.5t-26 -82.5h-75q-2 78 47 127t125 49q66 0 114.5 -42t48.5 -98q0 -66 -61 -108q86 -37 86 -135 q0 -70 -56 -117t-132 -47z" glyph-name="three.numr" horiz-adv-x="477"/><glyph d="M322 901v156h-271l271 379h75v-316h56v-63h-56v-156h-75zM188 1120h134v195z" glyph-name="four.numr" horiz-adv-x="503"/><glyph d="M236 893q-68 0 -120.5 38t-64.5 89l68 39q4 -41 35.5 -71t81.5 -30q47 0 81.5 36t34.5 89q0 51 -33.5 87t-74.5 36q-72 0 -117 -59l-66 16l37 273h283v-66h-213l-16 -119q45 20 92 21q72 0 129 -54.5t57 -134t-57 -135t-137 -55.5z" glyph-name="five.numr" horiz-adv-x="481"/><glyph d="M229.5 893q-69.5 0 -124 51t-54.5 123q0 33 11.5 64.5t20.5 47t36.5 51.5t34.5 44l116 162h86l-139 -197h12q70 0 123.5 -51t53.5 -121q0 -72 -53.5 -123t-123 -51zM229 958q37 0 69 31t32 78t-31 77t-70 30q-45 0 -73.5 -29t-28.5 -78q0 -47 31.5 -78t70.5 -31z" glyph-name="six.numr" horiz-adv-x="456"/><glyph d="M117 901l182 469h-248v66h355l-209 -535h-80z" glyph-name="seven.numr" horiz-adv-x="456"/><glyph d="M238 897q-76 0 -131.5 46t-55.5 116q0 92 88 135q-61 39 -61 109q0 53 44 95t116 42q74 0 117.5 -41t43.5 -96q0 -70 -61 -109q88 -43 88 -135q0 -70 -55 -116t-133 -46zM238 1223q37 0 60.5 23.5t23.5 56.5q0 74 -84 73q-41 0 -62.5 -21.5t-21.5 -52t25.5 -55 t58.5 -24.5zM238 961q49 0 79.5 26.5t30.5 71.5t-30.5 72.5t-79.5 27.5q-45 0 -78 -28.5t-33 -71.5q0 -41 33 -69.5t78 -28.5z" glyph-name="eight.numr" horiz-adv-x="477"/><glyph d="M100 901l140 195h-11q-72 0 -125 52t-53 122q0 72 54.5 122t124 50t124 -50.5t54.5 -121.5q0 -27 -5.5 -49.5t-18.5 -46t-21.5 -37t-30 -40t-29.5 -36.5l-115 -160h-88zM229 1161q45 0 73 30t28 79q0 45 -32 75.5t-69 30.5q-39 0 -70.5 -30.5t-31.5 -75.5q0 -47 31.5 -78 t70.5 -31z" glyph-name="nine.numr" horiz-adv-x="458"/></font>
</defs>
</svg>
