<?xml version="1.0" standalone="no"?>
<!DOCTYPE svg PUBLIC "-//W3C//DTD SVG 1.1//EN" "http://www.w3.org/Graphics/SVG/1.1/DTD/svg11.dtd">
<svg xmlns="http://www.w3.org/2000/svg"><metadata>This SVG WebFont was generated by YouWorkForThem.
Â© 2017 Connary Fagen</metadata><defs><font horiz-adv-x="1292" id="ywftsvg"><font-face ascent="1638" bbox="-389 -512 2245 1939" cap-height="1454" descent="-410" font-family="" font-stretch="normal" font-weight="300" panose-1="0 0 4 0 0 0 0 0 0 0" underline-position="0" underline-thickness="0" unicode-range="U+0020-FB01" units-per-em="2048" x-height="1065"/><missing-glyph d="M883 1638v-2150h-682v2150h682zM717 1495h-357v-72h142v-80h-144v-69h359v69h-144v80h144v72zM573 1217h-215v-224h359v74h-144v150zM502 1145v-78h-72v78h72zM717 936h-359v-72h144v-80h-144v-69h215v149h144v72zM717 807h-72v-143h-287v-72h359v215zM717 545h-215v-121 h71v49h72v-100h-215v172h-72v-244h359v244zM717 172h-359v-244h359v244zM645 100v-100h-215v100h215zM717 -121h-359v-72h152l-152 -100v-72h359v72h-219l149 100h70v72z" horiz-adv-x="1075"/><glyph d="M840 1065v-1065h-97v983h-473v-983h-94v983h-113v82h113v154q0 147 75 210.5t179 63.5q84 0 150 -41v-80q-59 35 -140 35q-170 0 -170 -201v-141h570zM743 1454h97v-98h-97v98z" glyph-name="uniFB01" horiz-adv-x="972" unicode="fi"/><glyph d="M1010 1407q-170 0 -170 -201v-141h307v-82h-307v-983h-97v983h-473v-983h-94v983h-113v82h113v152q0 150 76 213t178 63q84 0 150 -41v-80q-59 35 -140 35q-170 0 -170 -201v-141h473v152q0 150 76 213t180 63q86 0 148 -41v-80q-59 35 -137 35z" glyph-name="f_f.liga" horiz-adv-x="1251" unicode="ff"/><glyph d="M883 1638v-2150h-682v2150h682zM717 1495h-357v-72h142v-80h-144v-69h359v69h-144v80h144v72zM573 1217h-215v-224h359v74h-144v150zM502 1145v-78h-72v78h72zM717 936h-359v-72h144v-80h-144v-69h215v149h144v72zM717 807h-72v-143h-287v-72h359v215zM717 545h-215v-121 h71v49h72v-100h-215v172h-72v-244h359v244zM717 172h-359v-244h359v244zM645 100v-100h-215v100h215zM717 -121h-359v-72h152l-152 -100v-72h359v72h-219l149 100h70v72z" glyph-name=".notdef" horiz-adv-x="1075"/><glyph glyph-name="glyph1" horiz-adv-x="0"/><glyph glyph-name="glyph2" horiz-adv-x="681"/><glyph glyph-name="space" horiz-adv-x="452" unicode=" "/><glyph d="M137 367v1087h96v-1087h-96zM196.5 -20q-28.5 0 -45 17t-16.5 44t16.5 45t45 18t45 -18t16.5 -45t-16.5 -44t-45 -17z" glyph-name="exclam" horiz-adv-x="393" unicode="!"/><glyph d="M82 1051v403h92v-403h-92zM268 1051v403h92v-403h-92z" glyph-name="quotedbl" horiz-adv-x="442" unicode="&quot;"/><glyph d="M1034 979h-192l-37 -522h229v-88h-235l-27 -369h-96l26 369h-337l-27 -369h-96l26 369h-176v88h182l37 522h-219v86h225l27 369h96l-26 -369h338l26 369h96l-26 -369h186v-86zM709 457l36 522h-337l-37 -522h338z" glyph-name="numbersign" horiz-adv-x="1126" unicode="#"/><glyph d="M784 467q0 -133 -88 -207t-217 -84v-176h-82v176q-125 10 -208 85t-105 194l84 22q27 -106 100.5 -161.5t173.5 -55.5q102 0 175 52.5t73 154.5q0 84 -54 133t-179 102l-72 31q-248 104 -248 289q0 104 73 175t187 81v176h82v-176q98 -10 168 -66.5t96 -144.5l-77 -29 q-61 156 -228 156q-88 0 -147.5 -44t-59.5 -128q0 -129 187 -209l61 -25q162 -68 233.5 -136t71.5 -185z" glyph-name="dollar" horiz-adv-x="866" unicode="$"/><glyph d="M325.5 961q-104.5 0 -179 73.5t-74.5 178t74.5 178t179 73.5t179.5 -73.5t75 -178t-75 -178t-179.5 -73.5zM285 0l-74 51l932 1405l71 -51zM325.5 1038q75.5 0 126 48.5t50.5 126t-50.5 125.5t-126 48t-125.5 -48t-50 -125.5t50 -126t125.5 -48.5zM1103.5 -10 q-104.5 0 -179 73.5t-74.5 178t74.5 178.5t179 74t179.5 -74t75 -178.5t-75 -178t-179.5 -73.5zM1104 68q74 0 124 48t50 125.5t-50 126t-124 48.5t-124 -48.5t-50 -126t50 -125.5t124 -48z" glyph-name="percent" horiz-adv-x="1429" unicode="%"/><glyph d="M1180 74q43 0 86 22v-80q-39 -29 -103 -28q-154 0 -153 178v70q-53 -115 -167 -185.5t-261 -70.5q-203 0 -335 130t-132 336q0 195 120.5 318t296.5 135l-294 555h712v-84h-577l284 -545h-63q-160 0 -271.5 -101t-111.5 -271q0 -174 112.5 -279.5t272.5 -105.5 q174 0 287.5 115.5t113.5 254.5v393h242v-81h-156l4 -570q1 -106 93 -106z" glyph-name="ampersand" horiz-adv-x="1359" unicode="&amp;"/><glyph d="M82 1051v403h92v-403h-92z" glyph-name="quotesingle" horiz-adv-x="256" unicode="'"/><glyph d="M309 -266q-217 387 -217 921q0 508 217 871h88q-207 -375 -207 -871q0 -524 207 -921h-88z" glyph-name="parenleft" horiz-adv-x="468" unicode="("/><glyph d="M180 -266h-88q207 397 207 921q0 496 -207 871h88q217 -362 217 -871q0 -534 -217 -921z" glyph-name="parenright" horiz-adv-x="468" unicode=")"/><glyph d="M412 1192l-6 240h88l-5 -240h-77zM387 1116l-233 62l20 82l232 -72zM512 1116l-18 72l231 72l20 -82zM311 864l-71 47l149 197l57 -49zM588 864l-135 195l57 49l149 -197z" glyph-name="asterisk" horiz-adv-x="899" unicode="*"/><glyph d="M776 616v-77h-305v-303h-76v303h-303v77h303v302h76v-302h305z" glyph-name="plus" horiz-adv-x="868" unicode="+"/><glyph d="M61 -289l144 404h90l-143 -404h-91z" glyph-name="comma" horiz-adv-x="366" unicode=","/><glyph d="M92 541v75h635v-75h-635z" glyph-name="hyphen" horiz-adv-x="819" unicode="-"/><glyph d="M145.5 -20q-28.5 0 -46 17t-17.5 44t17.5 45t46 18t45 -18t16.5 -45t-16.5 -44t-45 -17z" glyph-name="period" horiz-adv-x="288" unicode="."/><glyph d="M125 0l588 1536h102l-588 -1536h-102z" glyph-name="slash" horiz-adv-x="899" unicode="/"/><glyph d="M840 -20q-301 0 -513 209.5t-212 537.5t212 538t513 210t514 -210t213 -538t-213 -537.5t-514 -209.5zM840 70q260 0 446.5 184t186.5 473t-186.5 473t-446.5 184q-258 0 -445.5 -184t-187.5 -473t187.5 -473t445.5 -184z" glyph-name="zero" horiz-adv-x="1681" unicode="0"/><glyph d="M307 0v1362h-184v92h278v-1454h-94z" glyph-name="one" horiz-adv-x="567" unicode="1"/><glyph d="M94 0l479 586q16 18 63.5 75.5t63 76t49 64.5t46 70.5t31 64.5t24.5 75t6 73q0 135 -86 217t-231 82q-152 0 -247 -88t-95 -249v-35h-95v43q0 188 123 304t314 116q186 0 297.5 -107.5t111.5 -273.5q0 -45 -7 -88t-26.5 -86t-33 -72t-46 -73t-45 -60.5t-51.5 -61.5 t-45 -53l-428 -514h690v-86h-862z" glyph-name="two" horiz-adv-x="1069" unicode="2"/><glyph d="M561 -20q-170 0 -292 86t-165 223l74 39q41 -117 142.5 -188.5t242.5 -71.5q164 0 275.5 97t111.5 273q0 201 -143 302.5t-342 56.5l375 571h-650v86h801l-381 -573q174 2 305.5 -117t131.5 -324q0 -209 -140.5 -334.5t-345.5 -125.5z" glyph-name="three" horiz-adv-x="1148" unicode="3"/><glyph d="M997 494v-88h-153v-406h-96v406h-644v88l644 960h96v-960h153zM205 494h543v815z" glyph-name="four" horiz-adv-x="1089" unicode="4"/><glyph d="M553 -20q-166 0 -287 82.5t-172 209.5l76 43q41 -102 144.5 -174.5t240.5 -72.5q172 0 290 112.5t118 292.5q0 178 -114 293t-286 115q-225 0 -346 -179l-82 27l98 725h678v-86h-604l-78 -551q125 147 344 148q203 0 342.5 -136.5t139.5 -355.5q0 -217 -143.5 -355 t-358.5 -138z" glyph-name="five" horiz-adv-x="1157" unicode="5"/><glyph d="M571 877q195 0 325 -123t130 -320q0 -201 -133 -327.5t-329.5 -126.5t-328 128t-131.5 332q0 41 7.5 84t16.5 77t27.5 75t31 65.5t37 63.5t34.5 54t37 51t31 42l356 502h106l-471 -666q115 89 254 89zM563.5 70q153.5 0 261 98t107.5 262t-107.5 261t-261.5 97 q-152 0 -259 -97t-107 -261t106.5 -262t260 -98z" glyph-name="six" horiz-adv-x="1128" unicode="6"/><glyph d="M233 0l525 1368h-697v86h824l-553 -1454h-99z" glyph-name="seven" horiz-adv-x="946" unicode="7"/><glyph d="M557 -20q-186 0 -319.5 118.5t-133.5 309.5q0 137 73 238.5t194 152.5q-90 53 -137.5 137t-47.5 182q0 147 102.5 252t268.5 105q164 0 266.5 -104.5t102.5 -252.5q0 -98 -47.5 -182t-137.5 -137q123 -51 196 -152.5t73 -238.5q0 -188 -133.5 -308t-319.5 -120zM557 834 q117 0 199 80.5t82 199.5q0 111 -77 191.5t-204 80.5q-129 0 -205 -79.5t-76 -192.5q0 -119 82 -199.5t199 -80.5zM557.5 70q147.5 0 250.5 93t103 245q0 150 -101 245t-252.5 95t-253 -95.5t-101.5 -245t103.5 -243.5t251 -94z" glyph-name="eight" horiz-adv-x="1112" unicode="8"/><glyph d="M565.5 1475q196.5 0 328.5 -128t132 -333q0 -55 -13.5 -112.5t-26.5 -96.5t-45 -95.5t-45 -77t-51 -73.5t-40 -57l-359 -502h-106l471 662q-117 -84 -254 -84q-193 0 -323 122.5t-130 319.5q0 201 132.5 328t329 127zM197 1024q0 -164 107.5 -261t260.5 -97 q152 0 259.5 97t107.5 261t-106.5 262t-260 98t-261 -98t-107.5 -262z" glyph-name="nine" horiz-adv-x="1128" unicode="9"/><glyph d="M176 897q-29 0 -46 18.5t-17 45t17 44t46 17.5t45.5 -17.5t16.5 -44t-16.5 -45t-45.5 -18.5zM176 -20q-29 0 -46 17t-17 44t17 45t46 18t45.5 -18t16.5 -45t-16.5 -44t-45.5 -17z" glyph-name="colon" horiz-adv-x="329" unicode=":"/><glyph d="M250 897q-29 0 -46.5 18.5t-17.5 45t17.5 44t46.5 17.5t45 -17.5t16 -44t-16 -45t-45 -18.5zM61 -289l144 404h90l-143 -404h-91z" glyph-name="semicolon" horiz-adv-x="393" unicode=";"/><glyph d="M946 0l-854 455v75l854 455v-96l-747 -397l747 -394v-98z" glyph-name="less" horiz-adv-x="1017" unicode="&lt;"/><glyph d="M92 702v78h686v-78h-686zM92 377v76h686v-76h-686z" glyph-name="equal" horiz-adv-x="870" unicode="="/><glyph d="M72 0v98l747 394l-747 397v96l854 -455v-75z" glyph-name="greater" horiz-adv-x="1017" unicode=">"/><glyph d="M432 367v82q0 68 20.5 125t54.5 96t75 73.5t80.5 69.5t73.5 73t54.5 91t20.5 117q0 137 -87 214.5t-226 77.5q-143 0 -236.5 -84.5t-93.5 -236.5v-35h-96v35q0 188 116.5 299t309.5 111q190 0 299.5 -104.5t109.5 -272.5q0 -96 -39 -172t-94 -125t-110.5 -95.5 t-94.5 -108.5t-39 -138v-92h-98zM479.5 -20q-28.5 0 -45 17t-16.5 44t16.5 45t45 18t46 -18t17.5 -45t-17.5 -44t-46 -17z" glyph-name="question" horiz-adv-x="980" unicode="?"/><glyph d="M1190 72q-145 -92 -348 -92q-303 0 -515 206.5t-212 536.5t213 541t510 211q295 0 499.5 -210t204.5 -558q0 -201 -65.5 -301.5t-176.5 -100.5q-82 0 -137 59.5t-59 167.5q-37 -115 -125 -172t-191 -57q-141 0 -243.5 110.5t-102.5 309.5t100.5 301t245.5 102 q98 0 179.5 -50t113.5 -144l17 174h63v-488q0 -119 38 -177t99 -58q156 0 156 307q0 328 -177 514.5t-437 186.5q-264 0 -451.5 -185.5t-187.5 -482.5t187 -478.5t462 -181.5q199 0 340 103v-94zM803 383q109 0 188.5 89t79.5 251t-79 243t-189 81q-115 0 -197 -82t-82 -242 t83 -250t196 -90z" glyph-name="at" horiz-adv-x="1654" unicode="@"/><glyph d="M1212 0l-155 391h-746l-155 -391h-103l588 1454h88l588 -1454h-105zM348 483h672l-336 838z" glyph-name="A" horiz-adv-x="1370" unicode="A"/><glyph d="M758 803q147 -33 229 -138.5t82 -256.5q0 -184 -123 -296t-364 -112h-447v1454h467q193 0 290 -97t97 -241q0 -106 -56 -191t-175 -122zM590 1366h-359v-530h351q150 0 232.5 75.5t82.5 198.5q0 119 -77.5 187.5t-229.5 68.5zM578 88q197 0 297 84t100 238 q0 160 -102.5 252t-294.5 92h-347v-666h347z" glyph-name="B" horiz-adv-x="1163" unicode="B"/><glyph d="M848 -20q-309 0 -521 210.5t-212 536.5t211 537t520 211q350 0 553 -263l-72 -57q-172 225 -477 225q-270 0 -454.5 -182t-184.5 -471q0 -287 185.5 -470t453.5 -183q305 0 477 225l72 -57q-203 -262 -551 -262z" glyph-name="C" horiz-adv-x="1490" unicode="C"/><glyph d="M135 0v1454h367q336 0 529.5 -198.5t193.5 -528.5t-193.5 -528.5t-529.5 -198.5h-367zM231 92h267q297 0 462.5 171t165.5 464t-165.5 464t-462.5 171h-267v-1270z" glyph-name="D" horiz-adv-x="1318" unicode="D"/><glyph d="M231 92h668v-92h-764v1454h746v-92h-650v-586h557v-92h-557v-592z" glyph-name="E" horiz-adv-x="1003" unicode="E"/><glyph d="M891 1368h-660v-594h590v-84h-590v-690h-96v1454h756v-86z" glyph-name="F" horiz-adv-x="993" unicode="F"/><glyph d="M1516 709q12 -330 -184.5 -529.5t-489.5 -199.5q-303 0 -515 210.5t-212 536.5t211 537t520 211q350 0 553 -263l-72 -57q-172 225 -479 225q-270 0 -453.5 -182t-183.5 -471q0 -287 186.5 -471t452.5 -184q229 0 391 142t180 407h-463v88h558z" glyph-name="G" horiz-adv-x="1630" unicode="G"/><glyph d="M1044 1454h97v-1454h-97v664h-813v-664h-96v1454h96v-698h813v698z" glyph-name="H" horiz-adv-x="1275" unicode="H"/><glyph d="M135 0v1454h96v-1454h-96z" glyph-name="I" horiz-adv-x="364" unicode="I"/><glyph d="M408 -20q-113 0 -200 47t-134 129l63 61q96 -145 269 -145q141 0 222 89t81 253v1040h96v-1046q0 -211 -112.5 -319.5t-284.5 -108.5z" glyph-name="J" horiz-adv-x="937" unicode="J"/><glyph d="M1067 0l-594 713l-242 -271v-442h-96v1454h96v-883l779 883h120l-598 -674l652 -780h-117z" glyph-name="K" horiz-adv-x="1247" unicode="K"/><glyph d="M231 92h687v-92h-783v1454h96v-1362z" glyph-name="L" horiz-adv-x="1011" unicode="L"/><glyph d="M135 0v1454h109l633 -1327l630 1327h111v-1454h-96v1251h-11l-596 -1251h-77l-596 1251h-11v-1251h-96z" glyph-name="M" horiz-adv-x="1753" unicode="M"/><glyph d="M135 0v1454h101l925 -1288h10v1288h97v-1454h-101l-925 1288h-11v-1288h-96z" glyph-name="N" horiz-adv-x="1400" unicode="N"/><glyph d="M844 -20q-297 0 -513 209.5t-216 537.5t216 538t513 210q299 0 515 -210t216 -538t-216 -537.5t-515 -209.5zM844 74q258 0 445.5 182t187.5 471t-187.5 471t-445.5 182q-256 0 -444.5 -182t-188.5 -471t188.5 -471t444.5 -182z" glyph-name="O" horiz-adv-x="1687" unicode="O"/><glyph d="M575 1454q227 0 357.5 -128t130.5 -329q0 -205 -130 -332.5t-358 -127.5h-344v-537h-96v1454h440zM569 629q184 0 289 98t105 270q0 174 -104.5 269.5t-289.5 95.5h-338v-733h338z" glyph-name="P" horiz-adv-x="1155" unicode="P"/><glyph d="M1575 727q0 -354 -254 -571l131 -156h-117l-86 102q-180 -123 -405 -122q-297 0 -513 209.5t-216 537.5t216 538t513 210q299 0 515 -210t216 -538zM844 74q193 0 344 102l-340 404h117l295 -351q217 190 217 498q0 289 -187.5 471t-445.5 182q-256 0 -444.5 -182 t-188.5 -471t188.5 -471t444.5 -182z" glyph-name="Q" horiz-adv-x="1687" unicode="Q"/><glyph d="M1092 0h-111l-371 543q-12 -2 -39 -2h-340v-541h-96v1454h436q223 0 352.5 -129t129.5 -328q0 -170 -90.5 -287.5t-253.5 -154.5zM559 633q184 0 288.5 96t104.5 268q0 174 -104.5 269.5t-288.5 95.5h-328v-729h328z" glyph-name="R" horiz-adv-x="1185" unicode="R"/><glyph d="M553 -20q-180 0 -307 96t-162 254l82 37q31 -135 136.5 -214t252.5 -79q145 0 242.5 78.5t97.5 218.5q0 129 -81 201.5t-245 136.5l-98 39q-326 129 -326 378q0 156 112 252.5t282 96.5q162 0 267 -85t148 -214l-77 -37q-94 244 -336 243q-129 0 -213 -69.5t-84 -186.5 q0 -193 258 -292l98 -39q197 -80 295 -171.5t98 -252.5q0 -182 -126 -286.5t-314 -104.5z" glyph-name="S" horiz-adv-x="1075" unicode="S"/><glyph d="M1004 1454v-92h-412v-1362h-96v1362h-412v92h920z" glyph-name="T" horiz-adv-x="1085" unicode="T"/><glyph d="M635 -20q-219 0 -359.5 139t-140.5 385v950h96v-948q0 -205 112 -318.5t292 -113.5q178 0 290.5 114.5t112.5 317.5v948h97v-950q0 -246 -140.5 -385t-359.5 -139z" glyph-name="U" horiz-adv-x="1267" unicode="U"/><glyph d="M651 0l-588 1454h103l528 -1319l529 1319h104l-588 -1454h-88z" glyph-name="V" horiz-adv-x="1390" unicode="V"/><glyph d="M506 0l-432 1454h100l379 -1274l408 1274h81l410 -1274l377 1274h102l-434 -1454h-80l-416 1280l-413 -1280h-82z" glyph-name="W" horiz-adv-x="2004" unicode="W"/><glyph d="M1233 0h-115l-469 670l-471 -670h-115l527 752l-492 702h115l434 -620l434 620h117l-491 -702z" glyph-name="X" horiz-adv-x="1296" unicode="X"/><glyph d="M584 0v662l-510 792h110l449 -700l446 700h113l-512 -792v-662h-96z" glyph-name="Y" horiz-adv-x="1265" unicode="Y"/><glyph d="M63 0l875 1362h-827v92h993l-877 -1362h863v-92h-1027z" glyph-name="Z" horiz-adv-x="1177" unicode="Z"/><glyph d="M92 -266v1792h283v-86h-187v-1620h187v-86h-283z" glyph-name="bracketleft" horiz-adv-x="466" unicode="["/><glyph d="M774 0h-102l-588 1536h102z" glyph-name="backslash" horiz-adv-x="899" unicode="\"/><glyph d="M375 -266h-283v86h187v1620h-187v86h283v-1792z" glyph-name="bracketright" horiz-adv-x="466" unicode="]"/><glyph d="M92 973l342 461h90l342 -461h-116l-269 364l-272 -364h-117z" glyph-name="asciicircum" horiz-adv-x="958" unicode="^"/><glyph d="M92 -88v88h1024v-88h-1024z" glyph-name="underscore" horiz-adv-x="1208" unicode="_"/><glyph d="M242 1200h-92l-130 316h97z" glyph-name="grave" horiz-adv-x="262" unicode="`"/><glyph d="M614 -20q-217 0 -373.5 147t-156.5 405.5t156.5 405.5t373.5 147q150 0 271 -73.5t174 -192.5h6v246h94v-1065h-94v246h-6q-53 -119 -174 -192.5t-271 -73.5zM623 68q178 0 311 122.5t133 342t-133 342t-311 122.5q-180 0 -311.5 -121.5t-131.5 -343t131.5 -343 t311.5 -121.5z" glyph-name="a" unicode="a"/><glyph d="M678 1085q217 0 374.5 -148.5t157.5 -404.5t-157.5 -404t-374.5 -148q-150 0 -270.5 73.5t-171.5 192.5h-7v-246h-94v1454h94v-635h7q51 119 171.5 192.5t270.5 73.5zM670 68q180 0 311 121.5t131 343t-131 343t-311 121.5q-178 0 -311.5 -122.5t-133.5 -342t133.5 -342 t311.5 -122.5z" glyph-name="b" unicode="b"/><glyph d="M627 -20q-217 0 -380 149.5t-163 400.5q0 254 162 404.5t381 150.5q143 0 265 -68.5t187 -193.5l-75 -41q-55 102 -155.5 158.5t-217.5 56.5q-180 0 -315.5 -126t-135.5 -341q0 -213 135.5 -337.5t315.5 -124.5q117 0 217 56t156 159l75 -41q-66 -125 -187.5 -193.5 t-264.5 -68.5z" glyph-name="c" horiz-adv-x="1163" unicode="c"/><glyph d="M1065 1454h94v-1454h-94v246h-6q-53 -119 -174 -192.5t-271 -73.5q-217 0 -373.5 147t-156.5 405.5t156.5 405.5t373.5 147q150 0 271 -73.5t174 -192.5h6v635zM623 68q178 0 311 122.5t133 342t-133 342t-311 122.5q-180 0 -311.5 -121.5t-131.5 -343t131.5 -343 t311.5 -121.5z" glyph-name="d" unicode="d"/><glyph d="M606 1085q104 0 198.5 -37.5t167 -108.5t111.5 -185.5t29 -253.5h-938q12 -203 142 -317.5t315 -114.5q229 0 350 153l55 -55q-74 -90 -183.5 -138t-231.5 -48q-223 0 -380 148t-157 407q0 254 154.5 402t367.5 148zM606 997q-168 0 -293 -110.5t-137 -306.5h852 q-6 193 -129 305t-293 112z" glyph-name="e" horiz-adv-x="1196" unicode="e"/><glyph d="M440 1407q-170 0 -170 -201v-141h310v-82h-310v-983h-94v983h-113v82h113v152q0 150 76 213t178 63q84 0 150 -41v-80q-60 35 -140 35z" glyph-name="f" horiz-adv-x="681" unicode="f"/><glyph d="M1065 1065h94v-1022q0 -127 -45 -221t-123 -146.5t-166 -77t-188 -24.5q-106 0 -190.5 24.5t-122.5 53.5v88q115 -80 305 -80q86 0 159.5 19.5t138 63.5t101.5 123t37 187v193h-8q-53 -119 -174 -192.5t-271 -73.5q-215 0 -371.5 147t-156.5 405.5t156.5 405.5t371.5 147 q150 0 271 -73.5t174 -192.5h8v246zM621 68q180 0 313 122.5t133 342t-133 342t-313 122.5q-178 0 -309.5 -121.5t-131.5 -343t131.5 -343t309.5 -121.5z" glyph-name="g" unicode="g"/><glyph d="M606 1085q184 0 305 -116.5t121 -341.5v-627h-94v618q0 186 -98.5 282.5t-252 96.5t-256 -96t-102.5 -283v-618h-94v1454h94v-584q45 90 140.5 152.5t236.5 62.5z" glyph-name="h" horiz-adv-x="1165" unicode="h"/><glyph d="M135 1356v98h94v-98h-94zM135 0v1065h94v-1065h-94z" glyph-name="i" horiz-adv-x="362" unicode="i"/><glyph d="M135 1356v98h96v-98h-96zM-184 -395v88h39q135 0 207.5 64.5t72.5 234.5v1073h96v-1075q0 -217 -100 -301t-283 -84h-32z" glyph-name="j" horiz-adv-x="364" unicode="j"/><glyph d="M881 0l-463 498l-189 -203v-295h-94v1454h94v-1036l598 647h119l-469 -504l522 -561h-118z" glyph-name="k" horiz-adv-x="1060" unicode="k"/><glyph d="M135 0v1454h94v-1454h-94z" glyph-name="l" horiz-adv-x="362" unicode="l"/><glyph d="M1294 1085q174 0 278.5 -113.5t104.5 -338.5v-633h-94v621q0 176 -76.5 276t-230.5 100t-239 -102t-85 -274v-621h-94v621q0 176 -76.5 276t-230.5 100t-238 -102t-84 -274v-621h-94v1065h94v-182q98 203 340 202q270 0 355 -249q35 102 127.5 175.5t242.5 73.5z" glyph-name="m" horiz-adv-x="1812" unicode="m"/><glyph d="M606 1085q184 0 305 -116.5t121 -341.5v-627h-94v618q0 186 -98.5 282.5t-252 96.5t-256 -96t-102.5 -283v-618h-94v1065h94v-195q45 90 140.5 152.5t236.5 62.5z" glyph-name="n" horiz-adv-x="1165" unicode="n"/><glyph d="M629 -20q-219 0 -382 149.5t-163 403t163 403t382 149.5t383 -150.5t164 -402t-164 -402t-383 -150.5zM628.5 68q182.5 0 316.5 124.5t134 340t-134 340t-316.5 124.5t-315.5 -124.5t-133 -340t133 -340t315.5 -124.5z" glyph-name="o" horiz-adv-x="1259" unicode="o"/><glyph d="M678 1085q217 0 374.5 -148.5t157.5 -404.5t-157.5 -404t-374.5 -148q-150 0 -270.5 73.5t-171.5 192.5h-7v-635h-94v1454h94v-246h7q51 119 171.5 192.5t270.5 73.5zM670 68q180 0 311 121.5t131 343t-131 343t-311 121.5q-178 0 -311.5 -122.5t-133.5 -342t133.5 -342 t311.5 -122.5z" glyph-name="p" unicode="p"/><glyph d="M1065 1065h94v-1454h-94v635h-6q-53 -119 -174 -192.5t-271 -73.5q-217 0 -373.5 147t-156.5 405.5t156.5 405.5t373.5 147q150 0 271 -73.5t174 -192.5h6v246zM623 68q178 0 311 122.5t133 342t-133 342t-311 122.5q-180 0 -311.5 -121.5t-131.5 -343t131.5 -343 t311.5 -121.5z" glyph-name="q" unicode="q"/><glyph d="M578 1085q35 0 53 -6v-86q-29 4 -51 4q-150 0 -250.5 -111.5t-100.5 -299.5v-586h-94v1065h94v-242q35 115 123.5 188.5t225.5 73.5z" glyph-name="r" horiz-adv-x="712" unicode="r"/><glyph d="M430 -20q-141 0 -236.5 75.5t-119.5 204.5l84 23q27 -106 100.5 -161.5t173.5 -55.5q102 0 175 52t73 154q0 84 -54.5 133.5t-179.5 102.5l-71 31q-248 104 -248 288q0 113 85 185.5t214 72.5q113 0 196 -57t111 -156l-78 -28q-61 156 -227 155q-88 0 -147.5 -44 t-59.5 -128q0 -129 187 -209l61 -24q162 -68 233.5 -136.5t71.5 -185.5q0 -143 -102.5 -217.5t-241.5 -74.5z" glyph-name="s" horiz-adv-x="856" unicode="s"/><glyph d="M516 983h-205v-803q0 -106 105 -106q47 0 96 22v-80q-47 -29 -113 -28q-182 0 -182 170v825h-133v82h133v272h94v-272h205v-82z" glyph-name="t" horiz-adv-x="610" unicode="t"/><glyph d="M938 1065h94v-1065h-94v199q-45 -92 -140.5 -155.5t-238.5 -63.5q-182 0 -303 116.5t-121 341.5v627h94v-619q0 -186 98.5 -282t252 -96t256 97t102.5 281v619z" glyph-name="u" horiz-adv-x="1165" unicode="u"/><glyph d="M520 0l-457 1065h101l397 -938l400 938h100l-457 -1065h-84z" glyph-name="v" horiz-adv-x="1124" unicode="v"/><glyph d="M1735 1065h98l-408 -1065h-90l-387 948l-389 -948h-88l-408 1065h99l354 -936l383 936h96l383 -936z" glyph-name="w" horiz-adv-x="1894" unicode="w"/><glyph d="M53 0l416 543l-399 522h112l340 -449l340 449h113l-400 -522l416 -543h-114l-355 471l-354 -471h-115z" glyph-name="x" horiz-adv-x="1044" unicode="x"/><glyph d="M961 1065h100l-457 -1065l-172 -389h-94l178 399l-453 1055h101l397 -938z" glyph-name="y" horiz-adv-x="1124" unicode="y"/><glyph d="M63 0l750 979h-694v86h862l-752 -977h729v-88h-895z" glyph-name="z" horiz-adv-x="1044" unicode="z"/><glyph d="M332 -266q-63 0 -105.5 43t-42.5 108v596l-92 146l92 149v598q0 66 42 109t106 43h92v-86h-72q-33 0 -52 -20.5t-19 -53.5v-600l-80 -139l80 -135v-598q0 -33 19 -53.5t52 -20.5h72v-86h-92z" glyph-name="braceleft" horiz-adv-x="516" unicode="{"/><glyph d="M166 -184v1638h86v-1638h-86z" glyph-name="bar" horiz-adv-x="417" unicode="|"/><glyph d="M184 -266h-92v86h72q33 0 52.5 20.5t19.5 53.5v598l81 135l-81 139v600q0 33 -19.5 53.5t-52.5 20.5h-72v86h92q63 0 105.5 -43t42.5 -109v-598l92 -149l-92 -146v-596q0 -66 -42.5 -108.5t-105.5 -42.5z" glyph-name="braceright" horiz-adv-x="516" unicode="}"/><glyph d="M530 475q-55 0 -99 35t-83 69.5t-82 34.5q-45 0 -68.5 -27.5t-23.5 -70.5h-82q0 88 48 133t122 45q55 0 99.5 -34.5t83 -69.5t81.5 -35q45 0 68.5 27.5t23.5 70.5h82q0 -88 -48 -133t-122 -45z" glyph-name="asciitilde" horiz-adv-x="792" unicode="~"/><glyph d="M196.5 1085q28.5 0 45 -17t16.5 -44t-16.5 -45t-45 -18t-45 18t-16.5 45t16.5 44t45 17zM137 700h96v-1089h-96v1089z" glyph-name="exclamdown" horiz-adv-x="313" unicode="¡"/><glyph d="M657 221q109 6 201 60.5t146 148.5l75 -39q-63 -117 -174.5 -183.5t-247.5 -74.5v-215h-69v217q-207 12 -355.5 157.5t-148.5 381.5q0 238 148.5 383t355.5 157v220h69v-217q133 -8 246 -75t176 -181l-75 -39q-53 94 -145.5 148t-201.5 60v-909zM180 674 q0 -195 120 -315.5t288 -135.5v905q-168 -14 -288 -134.5t-120 -319.5z" glyph-name="cent" horiz-adv-x="1163" unicode="¢"/><glyph d="M1034 1006h-90v30q0 170 -101.5 261.5t-248.5 91.5q-141 0 -239.5 -82t-98.5 -230q0 -63 17.5 -123.5t56.5 -149.5t49 -118h354v-78h-332q16 -61 17 -125q0 -201 -191 -397h789v-86h-912v86q223 207 224 408q0 51 -15 114h-198v78h172q-12 33 -39 92.5t-43.5 98t-29.5 95 t-13 109.5q0 174 118.5 284t315.5 110q199 0 318.5 -119t119.5 -320v-30z" glyph-name="sterling" horiz-adv-x="1138" unicode="£"/><glyph d="M1034 975q0 -158 -94 -279l96 -96l-86 -84l-94 94q-123 -94 -281 -94q-162 0 -280 96l-96 -96l-84 84l96 96q-94 121 -94 279t94 280l-96 97l84 84l96 -97q123 94 280.5 94.5t278.5 -94.5l96 97l86 -84l-96 -97q94 -122 94 -280zM575 625q145 -2 249 100t104 249.5 t-102.5 248t-250 102.5t-249 -99.5t-101.5 -250.5q0 -147 101.5 -247.5t248.5 -102.5z" glyph-name="currency" horiz-adv-x="1150" unicode="¤"/><glyph d="M680 662v-23h305v-74h-305v-84h305v-73h-305v-408h-96v408h-283v73h283v84h-283v74h283v23l-510 792h110l449 -700l446 700h113z" glyph-name="yen" horiz-adv-x="1265" unicode="¥"/><glyph d="M166 881v573h86v-573h-86zM166 -184v573h86v-573h-86z" glyph-name="brokenbar" horiz-adv-x="417" unicode="¦"/><glyph d="M692 338q106 -84 107 -219q0 -141 -108.5 -223t-278.5 -82q-119 0 -213.5 46t-114.5 91v207h70v-170q16 -31 90.5 -67t169.5 -36q129 0 218 61.5t89 174.5q0 55 -19.5 97t-63.5 71.5t-80 46t-103 41.5l-99 37q-266 96 -266 303q0 137 117 215q-117 86 -117 227 q0 123 95.5 200t244.5 77q109 0 197 -41t114 -86v-209h-71v172q-18 29 -83 60.5t-155 31.5q-119 0 -192.5 -55.5t-73.5 -149.5q0 -154 213 -235l98 -37q76 -27 124 -50.5t98.5 -61.5t75 -91t24.5 -123q-1 -143 -107 -223zM379 481l98 -37q80 -29 146 -61q98 63 98 180 q0 55 -19.5 97t-63.5 72t-80 46.5t-103 40.5l-99 37q-35 12 -80 35q-111 -57 -110 -174q0 -154 213 -236z" glyph-name="section" horiz-adv-x="882" unicode="§"/><glyph d="M0 1354v100h94v-100h-94zM387 1354v100h96v-100h-96z" glyph-name="dieresis" horiz-adv-x="483" unicode="¨"/><glyph d="M842 -14q-299 0 -513 205.5t-214 535.5t214 535.5t513 205.5q193 0 357.5 -89t267 -261t102.5 -391t-102.5 -391t-267 -261t-357.5 -89zM842 80q260 0 445.5 177t185.5 470t-185.5 470t-445.5 177t-446.5 -177t-186.5 -470t186.5 -470t446.5 -177zM854 260 q-190 0 -322.5 131t-132.5 336t132.5 336t322.5 131q186 0 311 -125l-57 -65q-98 98 -250 98q-150 0 -257 -103.5t-107 -271.5t107.5 -271.5t256.5 -103.5q152 0 250 101l57 -68q-125 -125 -311 -125z" glyph-name="copyright" horiz-adv-x="1681" unicode="©"/><glyph d="M297 786q-96 0 -154.5 50.5t-58.5 142.5q0 168 233 195l215 22q-4 170 -180 170q-109 0 -202 -90l-48 51q86 117 256 117q256 0 258 -301v-197q0 -84 35 -153h-86q-27 35 -30 104q-86 -111 -238 -111zM307 864q82 0 143.5 47t81.5 90v121l-217 -22q-147 -16 -147 -119 q0 -57 38 -87t101 -30z" glyph-name="ordfeminine" horiz-adv-x="784" unicode="ª"/><glyph d="M379 276l-297 295v64l297 295l39 -41l-264 -287l264 -285zM678 276l-297 295v64l297 295l39 -41l-264 -287l264 -285z" glyph-name="guillemotleft" horiz-adv-x="768" unicode="«"/><glyph d="M836 618v-288h-86v213h-658v75h744z" glyph-name="logicalnot" horiz-adv-x="927" unicode="¬"/><glyph d="M92 541v75h635v-75h-635z" glyph-name="uni00AD" horiz-adv-x="819" unicode="­"/><glyph d="M842 -14q-299 0 -513 205.5t-214 535.5q0 336 213 544t514 208q299 0 513 -208t214 -544q0 -219 -102.5 -391t-267 -261t-357.5 -89zM842 80q260 0 445.5 177t185.5 470q0 299 -185.5 478t-445.5 179q-262 0 -447.5 -179t-185.5 -478q0 -293 186.5 -470t446.5 -177z M578 315v838h278q131 0 206 -72.5t75 -191.5q0 -104 -55.5 -168t-145.5 -84l242 -322h-103l-233 318h-180v-318h-84zM662 713h192q199 0 199 174q0 90 -51.5 139t-147.5 49h-192v-362z" glyph-name="registered" horiz-adv-x="1681" unicode="®"/><glyph d="M0 1354v80h737v-80h-737z" glyph-name="macron" horiz-adv-x="737" unicode="¯"/><glyph d="M401 877q-125 0 -211 87t-86 214q0 125 86 211t211 86t212 -86t87 -211t-87 -213t-212 -88zM401 958q92 0 154.5 62.5t62.5 157t-62 156t-155 61.5q-90 0 -152.5 -62.5t-62.5 -154.5q0 -94 62.5 -157t152.5 -63z" glyph-name="degree" horiz-adv-x="804" unicode="°"/><glyph d="M471 610h305v-78h-305v-303h-76v303h-303v78h303v301h76v-301zM90 2v78h686v-78h-686z" glyph-name="plusminus" horiz-adv-x="868" unicode="±"/><glyph d="M100 901v66l140 141q57 59 74.5 78.5t31.5 46.5t14 55q0 37 -28.5 63.5t-65.5 26.5q-39 0 -67.5 -26.5t-28.5 -75.5v-29h-76v29q0 72 50.5 119t121.5 47q70 0 121 -46t51 -108q0 -53 -29.5 -96t-109.5 -125l-96 -100h241v-66h-344z" glyph-name="uni00B2" horiz-adv-x="557" unicode="²"/><glyph d="M291 893q-82 0 -136.5 55.5t-50.5 130.5h78q0 -49 30 -85t79 -36q45 0 77.5 28t32.5 71q0 98 -151 98v59q129 0 129 86q0 33 -25.5 54.5t-62.5 21.5q-94 0 -98 -112h-74q-2 78 47 127t125 49q66 0 115 -42t49 -98q0 -66 -62 -108q86 -37 86 -135q0 -70 -56 -117t-132 -47 z" glyph-name="uni00B3" horiz-adv-x="581" unicode="³"/><glyph d="M20 1200l125 316h97l-129 -316h-93z" glyph-name="acute" horiz-adv-x="262" unicode="´"/><glyph d="M938 1065h94v-1065h-94v199q-45 -92 -140.5 -155.5t-238.5 -63.5q-211 0 -330 145v-514h-94v1454h94v-619q0 -186 98.5 -282t252 -96t256 97t102.5 281v619z" glyph-name="uni00B5" horiz-adv-x="1165" unicode="µ"/><glyph d="M115 997q0 201 129 329t356 128h442v-1454h-96v537h-346q-227 0 -356 127.5t-129 332.5zM1161 1454h96v-1454h-96v1454zM946 1362h-338q-186 0 -290.5 -95.5t-104.5 -269.5t105.5 -271t289.5 -97h338v733z" glyph-name="paragraph" horiz-adv-x="1390" unicode="¶"/><glyph d="M166 494q-29 0 -46.5 17t-17.5 44t17.5 44t46.5 17t45 -17t16 -44t-16 -44t-45 -17z" glyph-name="periodcentered" horiz-adv-x="329" unicode="·"/><glyph d="M131 -92q72 2 122 -42t50 -120q0 -98 -81 -143t-191 -29v68q180 -14 180 100q0 113 -158 92l-33 43l82 123h93z" glyph-name="cedilla" horiz-adv-x="323" unicode="¸"/><glyph d="M195 901v453l-35 -23l-37 64l72 41h75v-535h-75z" glyph-name="uni00B9" horiz-adv-x="436" unicode="¹"/><glyph d="M397 786q-119 0 -216 90.5t-97 240t96 238.5t217 89t218.5 -89t97.5 -238.5t-97.5 -240t-218.5 -90.5zM397 868q92 0 163 65.5t71 182.5t-71 182.5t-163 65.5t-161.5 -65.5t-69.5 -182.5t69.5 -182.5t161.5 -65.5z" glyph-name="ordmasculine" horiz-adv-x="796" unicode="º"/><glyph d="M90 276l-39 41l264 285l-264 287l39 41l297 -295v-64zM389 276l-39 41l264 285l-264 287l39 41l297 -295v-64z" glyph-name="guillemotright" horiz-adv-x="768" unicode="»"/><glyph d="M129 901v453l-35 -23l-37 64l72 41h76v-535h-76zM51 0l893 1434h86l-880 -1434h-99zM983 0v156h-270l270 379h76v-316h55v-63h-55v-156h-76zM850 219h133v195z" glyph-name="onequarter" horiz-adv-x="1165" unicode="¼"/><glyph d="M129 901v453l-35 -23l-37 64l72 41h76v-535h-76zM51 0l893 1434h86l-880 -1434h-99zM719 0v66l139 141q57 59 74.5 78.5t32 46t14.5 55.5q0 37 -28.5 63.5t-65.5 26.5q-39 0 -68 -26.5t-29 -75.5v-29h-75v29q0 72 50 119t122 47q70 0 121 -46t51 -108q0 -53 -30 -96 t-109 -125l-97 -100h242v-66h-344z" glyph-name="onehalf" horiz-adv-x="1114" unicode="½"/><glyph d="M238 893q-82 0 -136.5 55.5t-50.5 130.5h78q0 -49 29.5 -85t79.5 -36q45 0 77.5 28t32.5 71q0 98 -151 98v59q129 0 129 86q0 33 -26 54.5t-62 21.5q-45 0 -71 -29.5t-26 -82.5h-75q-2 78 47 127t125 49q66 0 114.5 -42t48.5 -98q0 -66 -61 -108q86 -37 86 -135 q0 -70 -56 -117t-132 -47zM109 0l892 1434h86l-880 -1434h-98zM1020 0v156h-270l270 379h76v-316h55v-63h-55v-156h-76zM887 219h133v195z" glyph-name="threequarters" horiz-adv-x="1202" unicode="¾"/><glyph d="M499.5 1085q28.5 0 46 -17t17.5 -44t-17.5 -45t-46 -18t-45 18t-16.5 45t16.5 44t45 17zM549 698v-82q0 -68 -21.5 -125t-54.5 -96t-74 -73.5t-82 -69.5t-73.5 -73t-54 -91t-21.5 -117q0 -137 88 -215t225 -78q145 0 237.5 85t92.5 237v35h96v-35q0 -188 -115.5 -299 t-310.5 -111q-188 0 -298.5 104.5t-110.5 272.5q0 96 39 172t95 125t111.5 95.5t94.5 108.5t39 138v92h98z" glyph-name="questiondown" horiz-adv-x="980" unicode="¿"/><glyph d="M727 1569h-92l-129 315h96zM1212 0l-155 391h-746l-155 -391h-103l588 1454h88l588 -1454h-105zM348 483h672l-336 838z" glyph-name="Agrave" horiz-adv-x="1370" unicode="À"/><glyph d="M874 1884l-129 -315h-92l125 315h96zM1212 0l-155 391h-746l-155 -391h-103l588 1454h88l588 -1454h-105zM348 483h672l-336 838z" glyph-name="Aacute" horiz-adv-x="1370" unicode="Á"/><glyph d="M684 1802l-184 -217l-60 53l209 246h70l209 -246l-60 -53zM1212 0l-155 391h-746l-155 -391h-103l588 1454h88l588 -1454h-105zM348 483h672l-336 838z" glyph-name="Acircumflex" horiz-adv-x="1370" unicode="Â"/><glyph d="M557 1761q-45 0 -68.5 -27.5t-23.5 -70.5h-82q0 88 48 133t122 45q55 0 99 -34.5t83 -69.5t82 -35q45 0 68.5 28.5t23.5 71.5h82q0 -88 -48 -134t-122 -46q-55 0 -99 35t-83 69.5t-82 34.5zM1212 0l-155 391h-746l-155 -391h-103l588 1454h88l588 -1454h-105zM348 483 h672l-336 838z" glyph-name="Atilde" horiz-adv-x="1370" unicode="Ã"/><glyph d="M539 1823v-101h-95v101h95zM928 1823v-101h-97v101h97zM1212 0l-155 391h-746l-155 -391h-103l588 1454h88l588 -1454h-105zM348 483h672l-336 838z" glyph-name="Adieresis" horiz-adv-x="1370" unicode="Ä"/><glyph d="M686 1602q-70 0 -117 46t-47 113q0 66 47 112t117 46q66 0 113 -46t47 -112q0 -68 -47 -113.5t-113 -45.5zM684 1847q-37 0 -62.5 -25.5t-25.5 -60.5q0 -37 25.5 -62.5t62.5 -25.5t61.5 25.5t24.5 62.5q0 35 -24.5 60.5t-61.5 25.5zM1212 0l-155 391h-746l-155 -391h-103 l588 1454h88l588 -1454h-105zM348 483h672l-336 838z" glyph-name="Aring" horiz-adv-x="1370" unicode="Å"/><glyph d="M1143 92h669v-92h-765v416h-603l-280 -416h-111l981 1454h760v-92h-651v-586h557v-92h-557v-592zM502 502h545v809z" glyph-name="AE" horiz-adv-x="1914" unicode="Æ"/><glyph d="M850 74q305 0 477 225l72 -57q-188 -244 -508 -260l-49 -74q72 2 122 -42t50 -120q0 -98 -81 -143t-192 -29v68q180 -14 181 100q0 113 -158 92l-33 43l70 105q-293 16 -489.5 224t-196.5 521q0 326 211 537t520 211q350 0 553 -263l-72 -57q-172 225 -477 225 q-270 0 -454.5 -182t-184.5 -471q0 -287 185.5 -470t453.5 -183z" glyph-name="Ccedilla" horiz-adv-x="1490" unicode="Ç"/><glyph d="M592 1589h-92l-129 316h96zM231 92h668v-92h-764v1454h746v-92h-650v-586h557v-92h-557v-592z" glyph-name="Egrave" horiz-adv-x="1003" unicode="È"/><glyph d="M741 1905l-129 -316h-92l125 316h96zM231 92h668v-92h-764v1454h746v-92h-650v-586h557v-92h-557v-592z" glyph-name="Eacute" horiz-adv-x="1003" unicode="É"/><glyph d="M551 1823l-184 -217l-60 53l209 246h70l209 -246l-60 -53zM231 92h668v-92h-764v1454h746v-92h-650v-586h557v-92h-557v-592z" glyph-name="Ecircumflex" horiz-adv-x="1003" unicode="Ê"/><glyph d="M403 1843v-100h-94v100h94zM793 1843v-100h-97v100h97zM231 92h668v-92h-764v1454h746v-92h-650v-586h557v-92h-557v-592z" glyph-name="Edieresis" horiz-adv-x="1003" unicode="Ë"/><glyph d="M223 1589h-92l-129 316h96zM135 0v1454h96v-1454h-96z" glyph-name="Igrave" horiz-adv-x="364" unicode="Ì"/><glyph d="M152 1589l124 316h97l-129 -316h-92zM135 0v1454h96v-1454h-96z" glyph-name="Iacute" horiz-adv-x="364" unicode="Í"/><glyph d="M-2 1606l-59 53l208 246h70l209 -246l-59 -53l-185 217zM135 0v1454h96v-1454h-96z" glyph-name="Icircumflex" horiz-adv-x="364" unicode="Î"/><glyph d="M-59 1743v100h94v-100h-94zM328 1743v100h96v-100h-96zM135 0v1454h96v-1454h-96z" glyph-name="Idieresis" horiz-adv-x="364" unicode="Ï"/><glyph d="M514 1454q334 0 528.5 -198.5t194.5 -528.5t-194.5 -528.5t-528.5 -198.5h-369v680h-129v76h129v698h369zM510 92q297 0 463 171t166 464t-166 464t-463 171h-268v-606h409v-76h-409v-588h268z" glyph-name="Eth" horiz-adv-x="1331" unicode="Ð"/><glyph d="M838 1642q-55 0 -99.5 35t-83.5 70t-82 35q-45 0 -68.5 -28t-23.5 -71h-82q0 88 48.5 133.5t121.5 45.5q55 0 99.5 -35t83.5 -70t82 -35q45 0 68.5 29t23.5 72h82q0 -88 -48 -134.5t-122 -46.5zM135 0v1454h101l925 -1288h10v1288h97v-1454h-101l-925 1288h-11v-1288h-96 z" glyph-name="Ntilde" horiz-adv-x="1400" unicode="Ñ"/><glyph d="M887 1589h-92l-129 316h96zM844 -20q-297 0 -513 209.5t-216 537.5t216 538t513 210q299 0 515 -210t216 -538t-216 -537.5t-515 -209.5zM844 74q258 0 445.5 182t187.5 471t-187.5 471t-445.5 182q-256 0 -444.5 -182t-188.5 -471t188.5 -471t444.5 -182z" glyph-name="Ograve" horiz-adv-x="1687" unicode="Ò"/><glyph d="M813 1589l125 316h96l-129 -316h-92zM844 -20q-297 0 -513 209.5t-216 537.5t216 538t513 210q299 0 515 -210t216 -538t-216 -537.5t-515 -209.5zM844 74q258 0 445.5 182t187.5 471t-187.5 471t-445.5 182q-256 0 -444.5 -182t-188.5 -471t188.5 -471t444.5 -182z" glyph-name="Oacute" horiz-adv-x="1687" unicode="Ó"/><glyph d="M659 1606l-59 53l209 246h70l208 -246l-59 -53l-184 217zM844 -20q-297 0 -513 209.5t-216 537.5t216 538t513 210q299 0 515 -210t216 -538t-216 -537.5t-515 -209.5zM844 74q258 0 445.5 182t187.5 471t-187.5 471t-445.5 182q-256 0 -444.5 -182t-188.5 -471 t188.5 -471t444.5 -182z" glyph-name="Ocircumflex" horiz-adv-x="1687" unicode="Ô"/><glyph d="M981 1642q-55 0 -99 35t-83 70t-82 35q-45 0 -68.5 -28t-23.5 -71h-82q0 88 48 133.5t122 45.5q55 0 99 -35t83 -70t82 -35q45 0 68.5 29t23.5 72h82q0 -88 -48 -134.5t-122 -46.5zM844 -20q-297 0 -513 209.5t-216 537.5t216 538t513 210q299 0 515 -210t216 -538 t-216 -537.5t-515 -209.5zM844 74q258 0 445.5 182t187.5 471t-187.5 471t-445.5 182q-256 0 -444.5 -182t-188.5 -471t188.5 -471t444.5 -182z" glyph-name="Otilde" horiz-adv-x="1687" unicode="Õ"/><glyph d="M604 1743v100h94v-100h-94zM991 1743v100h96v-100h-96zM844 -20q-297 0 -513 209.5t-216 537.5t216 538t513 210q299 0 515 -210t216 -538t-216 -537.5t-515 -209.5zM844 74q258 0 445.5 182t187.5 471t-187.5 471t-445.5 182q-256 0 -444.5 -182t-188.5 -471t188.5 -471 t444.5 -182z" glyph-name="Odieresis" horiz-adv-x="1687" unicode="Ö"/><glyph d="M631 793l-213 -213l213 -215l-53 -54l-216 213l-215 -215l-55 56l215 215l-213 213l56 55l212 -213l213 213z" glyph-name="multiply" horiz-adv-x="722" unicode="×"/><glyph d="M1214 1374q164 -96 262.5 -264t98.5 -383q0 -328 -216 -537.5t-515 -209.5q-137 0 -269 51l-63 -133h-109l84 174q-170 96 -271 267t-101 388q0 328 216 538t513 210q143 0 282 -56l52 107h108zM211 727q0 -190 87 -337.5t230 -231.5l557 1175q-117 47 -241 47 q-256 0 -444.5 -182t-188.5 -471zM844 74q258 0 445.5 182t187.5 471q0 186 -82 331.5t-221 229.5l-558 -1171q107 -43 228 -43z" glyph-name="Oslash" horiz-adv-x="1687" unicode="Ø"/><glyph d="M676 1589h-92l-129 316h96zM635 -20q-219 0 -359.5 139t-140.5 385v950h96v-948q0 -205 112 -318.5t292 -113.5q178 0 290.5 114.5t112.5 317.5v948h97v-950q0 -246 -140.5 -385t-359.5 -139z" glyph-name="Ugrave" horiz-adv-x="1267" unicode="Ù"/><glyph d="M604 1589l125 316h96l-129 -316h-92zM635 -20q-219 0 -359.5 139t-140.5 385v950h96v-948q0 -205 112 -318.5t292 -113.5q178 0 290.5 114.5t112.5 317.5v948h97v-950q0 -246 -140.5 -385t-359.5 -139z" glyph-name="Uacute" horiz-adv-x="1267" unicode="Ú"/><glyph d="M451 1606l-60 53l209 246h70l209 -246l-60 -53l-184 217zM635 -20q-219 0 -359.5 139t-140.5 385v950h96v-948q0 -205 112 -318.5t292 -113.5q178 0 290.5 114.5t112.5 317.5v948h97v-950q0 -246 -140.5 -385t-359.5 -139z" glyph-name="Ucircumflex" horiz-adv-x="1267" unicode="Û"/><glyph d="M393 1743v100h94v-100h-94zM780 1743v100h97v-100h-97zM635 -20q-219 0 -359.5 139t-140.5 385v950h96v-948q0 -205 112 -318.5t292 -113.5q178 0 290.5 114.5t112.5 317.5v948h97v-950q0 -246 -140.5 -385t-359.5 -139z" glyph-name="Udieresis" horiz-adv-x="1267" unicode="Ü"/><glyph d="M602 1589l125 316h96l-129 -316h-92zM584 0v662l-510 792h110l449 -700l446 700h113l-512 -792v-662h-96z" glyph-name="Yacute" horiz-adv-x="1265" unicode="Ý"/><glyph d="M635 1157q231 0 354 -110.5t123 -315.5t-123 -315.5t-354 -110.5h-404v-305h-96v1454h96v-297h404zM623 393q393 0 393 338t-393 338h-392v-676h392z" glyph-name="Thorn" horiz-adv-x="1206" unicode="Þ"/><glyph d="M135 0v1069q0 168 111.5 266.5t331.5 98.5q209 0 330.5 -91.5t121.5 -259.5q0 -231 -223 -297q295 -72 295 -372q0 -203 -126 -308.5t-374 -105.5h-209v88h199q416 0 416 326q0 328 -435 327h-180v84h180q180 0 271.5 59.5t91.5 192.5t-94 202t-264 69q-348 0 -349 -285 v-1063h-94z" glyph-name="germandbls" horiz-adv-x="1196" unicode="ß"/><glyph d="M668 1200h-93l-129 316h97zM614 -20q-217 0 -373.5 147t-156.5 405.5t156.5 405.5t373.5 147q150 0 271 -73.5t174 -192.5h6v246h94v-1065h-94v246h-6q-53 -119 -174 -192.5t-271 -73.5zM623 68q178 0 311 122.5t133 342t-133 342t-311 122.5q-180 0 -311.5 -121.5 t-131.5 -343t131.5 -343t311.5 -121.5z" glyph-name="agrave" unicode="à"/><glyph d="M596 1200l125 316h96l-129 -316h-92zM614 -20q-217 0 -373.5 147t-156.5 405.5t156.5 405.5t373.5 147q150 0 271 -73.5t174 -192.5h6v246h94v-1065h-94v246h-6q-53 -119 -174 -192.5t-271 -73.5zM623 68q178 0 311 122.5t133 342t-133 342t-311 122.5 q-180 0 -311.5 -121.5t-131.5 -343t131.5 -343t311.5 -121.5z" glyph-name="aacute" unicode="á"/><glyph d="M442 1217l-59 53l209 246h70l208 -246l-59 -53l-184 217zM614 -20q-217 0 -373.5 147t-156.5 405.5t156.5 405.5t373.5 147q150 0 271 -73.5t174 -192.5h6v246h94v-1065h-94v246h-6q-53 -119 -174 -192.5t-271 -73.5zM623 68q178 0 311 122.5t133 342t-133 342 t-311 122.5q-180 0 -311.5 -121.5t-131.5 -343t131.5 -343t311.5 -121.5z" glyph-name="acircumflex" unicode="â"/><glyph d="M764 1253q-55 0 -99 35t-83 70t-82 35q-45 0 -68.5 -28t-23.5 -71h-82q0 88 48 133.5t122 45.5q55 0 99 -35t83 -70t82 -35q45 0 68.5 29t23.5 72h82q0 -88 -48 -134.5t-122 -46.5zM614 -20q-217 0 -373.5 147t-156.5 405.5t156.5 405.5t373.5 147q150 0 271 -73.5 t174 -192.5h6v246h94v-1065h-94v246h-6q-53 -119 -174 -192.5t-271 -73.5zM623 68q178 0 311 122.5t133 342t-133 342t-311 122.5q-180 0 -311.5 -121.5t-131.5 -343t131.5 -343t311.5 -121.5z" glyph-name="atilde" unicode="ã"/><glyph d="M385 1354v100h94v-100h-94zM772 1354v100h96v-100h-96zM614 -20q-217 0 -373.5 147t-156.5 405.5t156.5 405.5t373.5 147q150 0 271 -73.5t174 -192.5h6v246h94v-1065h-94v246h-6q-53 -119 -174 -192.5t-271 -73.5zM623 68q178 0 311 122.5t133 342t-133 342t-311 122.5 q-180 0 -311.5 -121.5t-131.5 -343t131.5 -343t311.5 -121.5z" glyph-name="adieresis" unicode="ä"/><glyph d="M629 1233q-70 0 -117 46t-47 114q0 66 47 111.5t117 45.5q66 0 112.5 -46t46.5 -111q0 -68 -46.5 -114t-112.5 -46zM627 1305q37 0 61.5 25.5t24.5 62.5q0 35 -24.5 60.5t-61.5 25.5t-62.5 -26t-25.5 -60q0 -37 25.5 -62.5t62.5 -25.5zM614 -20q-217 0 -373.5 147 t-156.5 405.5t156.5 405.5t373.5 147q150 0 271 -73.5t174 -192.5h6v246h94v-1065h-94v246h-6q-53 -119 -174 -192.5t-271 -73.5zM623 68q178 0 311 122.5t133 342t-133 342t-311 122.5q-180 0 -311.5 -121.5t-131.5 -343t131.5 -343t311.5 -121.5z" glyph-name="aring" unicode="å"/><glyph d="M1591 1085q104 0 198.5 -37.5t167.5 -108.5t111.5 -185.5t28.5 -253.5h-938q12 -203 142.5 -317.5t314.5 -114.5q229 0 350 153l55 -55q-74 -90 -183 -138t-232 -48q-135 0 -254 59t-193 168v-207h-94v246h-6q-53 -119 -174 -192.5t-271 -73.5q-217 0 -373.5 147 t-156.5 405.5t156.5 405.5t373.5 147q150 0 271 -73.5t174 -192.5h6v246h94v-205q72 109 187.5 167t244.5 58zM623 68q178 0 311 122.5t133 342t-133 342t-311 122.5q-180 0 -311.5 -121.5t-131.5 -343t131.5 -343t311.5 -121.5zM1591 997q-168 0 -292.5 -110.5 t-137.5 -306.5h852q-6 193 -129 305t-293 112z" glyph-name="ae" horiz-adv-x="2181" unicode="æ"/><glyph d="M631 68q117 0 217 56t156 159l75 -41q-61 -119 -172.5 -185.5t-244.5 -74.5l-50 -74q72 2 122 -42t50 -120q0 -98 -80.5 -143t-191.5 -29v68q180 -14 180 100q0 113 -157 92l-33 43l69 105q-201 20 -344 167.5t-143 380.5q0 254 162 404.5t381 150.5q143 0 265 -68.5 t187 -193.5l-75 -41q-55 102 -155.5 158.5t-217.5 56.5q-180 0 -315.5 -126t-135.5 -341q0 -213 135.5 -337.5t315.5 -124.5z" glyph-name="ccedilla" horiz-adv-x="1163" unicode="ç"/><glyph d="M633 1200h-92l-129 316h96zM606 1085q104 0 198.5 -37.5t167 -108.5t111.5 -185.5t29 -253.5h-938q12 -203 142 -317.5t315 -114.5q229 0 350 153l55 -55q-74 -90 -183.5 -138t-231.5 -48q-223 0 -380 148t-157 407q0 254 154.5 402t367.5 148zM606 997 q-168 0 -293 -110.5t-137 -306.5h852q-6 193 -129 305t-293 112z" glyph-name="egrave" horiz-adv-x="1196" unicode="è"/><glyph d="M782 1516l-129 -316h-92l125 316h96zM606 1085q104 0 198.5 -37.5t167 -108.5t111.5 -185.5t29 -253.5h-938q12 -203 142 -317.5t315 -114.5q229 0 350 153l55 -55q-74 -90 -183.5 -138t-231.5 -48q-223 0 -380 148t-157 407q0 254 154.5 402t367.5 148zM606 997 q-168 0 -293 -110.5t-137 -306.5h852q-6 193 -129 305t-293 112z" glyph-name="eacute" horiz-adv-x="1196" unicode="é"/><glyph d="M592 1434l-184 -217l-60 53l209 246h70l209 -246l-60 -53zM606 1085q104 0 198.5 -37.5t167 -108.5t111.5 -185.5t29 -253.5h-938q12 -203 142 -317.5t315 -114.5q229 0 350 153l55 -55q-74 -90 -183.5 -138t-231.5 -48q-223 0 -380 148t-157 407q0 254 154.5 402 t367.5 148zM606 997q-168 0 -293 -110.5t-137 -306.5h852q-6 193 -129 305t-293 112z" glyph-name="ecircumflex" horiz-adv-x="1196" unicode="ê"/><glyph d="M444 1454v-100h-94v100h94zM834 1454v-100h-97v100h97zM606 1085q104 0 198.5 -37.5t167 -108.5t111.5 -185.5t29 -253.5h-938q12 -203 142 -317.5t315 -114.5q229 0 350 153l55 -55q-74 -90 -183.5 -138t-231.5 -48q-223 0 -380 148t-157 407q0 254 154.5 402t367.5 148 zM606 997q-168 0 -293 -110.5t-137 -306.5h852q-6 193 -129 305t-293 112z" glyph-name="edieresis" horiz-adv-x="1196" unicode="ë"/><glyph d="M223 1200h-92l-129 316h96zM135 0v1065h94v-1065h-94z" glyph-name="igrave" horiz-adv-x="362" unicode="ì"/><glyph d="M152 1200l124 316h97l-129 -316h-92zM135 0v1065h94v-1065h-94z" glyph-name="iacute" horiz-adv-x="362" unicode="í"/><glyph d="M-2 1217l-59 53l208 246h70l209 -246l-59 -53l-185 217zM135 0v1065h94v-1065h-94z" glyph-name="icircumflex" horiz-adv-x="362" unicode="î"/><glyph d="M-59 1354v100h94v-100h-94zM328 1354v100h96v-100h-96zM135 0v1065h94v-1065h-94z" glyph-name="idieresis" horiz-adv-x="362" unicode="ï"/><glyph d="M793 1204q141 -184 214.5 -343t73.5 -345q0 -250 -145 -393t-365 -143q-205 0 -346 143t-141 393q0 258 131 403.5t356 145.5q197 0 293 -104l-174 229l-215 -29v62l172 24l-141 187h108l136 -174l174 24v-61zM571 68q174 0 294 115.5t120 332.5q0 461 -414 461 q-186 0 -288.5 -113.5t-102.5 -347.5q0 -215 115.5 -331.5t275.5 -116.5z" glyph-name="eth" horiz-adv-x="1216" unicode="ð"/><glyph d="M473 1393q-45 0 -68.5 -28t-23.5 -71h-82q0 88 48 133.5t122 45.5q55 0 99 -35t83 -70t82 -35q45 0 68.5 29t23.5 72h82q0 -88 -48 -134.5t-122 -46.5q-55 0 -99 35t-83 70t-82 35zM606 1085q184 0 305 -116.5t121 -341.5v-627h-94v618q0 186 -98.5 282.5t-252 96.5 t-256 -96t-102.5 -283v-618h-94v1065h94v-195q45 90 140.5 152.5t236.5 62.5z" glyph-name="ntilde" horiz-adv-x="1165" unicode="ñ"/><glyph d="M672 1200h-92l-129 316h96zM629 -20q-219 0 -382 149.5t-163 403t163 403t382 149.5t383 -150.5t164 -402t-164 -402t-383 -150.5zM628.5 68q182.5 0 316.5 124.5t134 340t-134 340t-316.5 124.5t-315.5 -124.5t-133 -340t133 -340t315.5 -124.5z" glyph-name="ograve" horiz-adv-x="1259" unicode="ò"/><glyph d="M598 1200l125 316h96l-129 -316h-92zM629 -20q-219 0 -382 149.5t-163 403t163 403t382 149.5t383 -150.5t164 -402t-164 -402t-383 -150.5zM628.5 68q182.5 0 316.5 124.5t134 340t-134 340t-316.5 124.5t-315.5 -124.5t-133 -340t133 -340t315.5 -124.5z" glyph-name="oacute" horiz-adv-x="1259" unicode="ó"/><glyph d="M444 1217l-59 53l209 246h70l208 -246l-59 -53l-184 217zM629 -20q-219 0 -382 149.5t-163 403t163 403t382 149.5t383 -150.5t164 -402t-164 -402t-383 -150.5zM628.5 68q182.5 0 316.5 124.5t134 340t-134 340t-316.5 124.5t-315.5 -124.5t-133 -340t133 -340 t315.5 -124.5z" glyph-name="ocircumflex" horiz-adv-x="1259" unicode="ô"/><glyph d="M766 1253q-55 0 -99 35t-83 70t-82 35q-45 0 -68.5 -28t-23.5 -71h-82q0 88 48 133.5t122 45.5q55 0 99 -35t83 -70t82 -35q45 0 68.5 29t23.5 72h82q0 -88 -48 -134.5t-122 -46.5zM629 -20q-219 0 -382 149.5t-163 403t163 403t382 149.5t383 -150.5t164 -402t-164 -402 t-383 -150.5zM628.5 68q182.5 0 316.5 124.5t134 340t-134 340t-316.5 124.5t-315.5 -124.5t-133 -340t133 -340t315.5 -124.5z" glyph-name="otilde" horiz-adv-x="1259" unicode="õ"/><glyph d="M389 1354v100h94v-100h-94zM776 1354v100h96v-100h-96zM629 -20q-219 0 -382 149.5t-163 403t163 403t382 149.5t383 -150.5t164 -402t-164 -402t-383 -150.5zM628.5 68q182.5 0 316.5 124.5t134 340t-134 340t-316.5 124.5t-315.5 -124.5t-133 -340t133 -340 t315.5 -124.5z" glyph-name="odieresis" horiz-adv-x="1259" unicode="ö"/><glyph d="M417.5 762q-28.5 0 -45 17.5t-16.5 44t16.5 45t45 18.5t46 -18.5t17.5 -45.5q0 -25 -17.5 -43t-46 -18zM92 541v75h680v-75h-680zM417.5 270q-28.5 0 -45 17.5t-16.5 44t16.5 45t45 18.5t46 -18.5t17.5 -44.5q0 -25 -17.5 -43.5t-46 -18.5z" glyph-name="divide" horiz-adv-x="862" unicode="÷"/><glyph d="M903 1014q125 -68 199 -192t74 -290q0 -252 -164 -402t-383 -150q-109 0 -203 36l-57 -118h-93l74 155q-121 68 -193.5 191t-72.5 288q0 254 163 403.5t382 149.5q102 0 200 -36l64 135h92zM180 532q0 -272 209 -399l402 836q-80 29 -162 28q-182 0 -315.5 -125 t-133.5 -340zM629 68q182 0 316 124.5t134 339.5q0 137 -58 241t-157 161l-399 -836q76 -30 164 -30z" glyph-name="oslash" horiz-adv-x="1259" unicode="ø"/><glyph d="M639 1200h-92l-129 316h96zM938 1065h94v-1065h-94v199q-45 -92 -140.5 -155.5t-238.5 -63.5q-182 0 -303 116.5t-121 341.5v627h94v-619q0 -186 98.5 -282t252 -96t256 97t102.5 281v619z" glyph-name="ugrave" horiz-adv-x="1165" unicode="ù"/><glyph d="M788 1516l-129 -316h-92l125 316h96zM938 1065h94v-1065h-94v199q-45 -92 -140.5 -155.5t-238.5 -63.5q-182 0 -303 116.5t-121 341.5v627h94v-619q0 -186 98.5 -282t252 -96t256 97t102.5 281v619z" glyph-name="uacute" horiz-adv-x="1165" unicode="ú"/><glyph d="M598 1434l-184 -217l-60 53l209 246h70l209 -246l-60 -53zM938 1065h94v-1065h-94v199q-45 -92 -140.5 -155.5t-238.5 -63.5q-182 0 -303 116.5t-121 341.5v627h94v-619q0 -186 98.5 -282t252 -96t256 97t102.5 281v619z" glyph-name="ucircumflex" horiz-adv-x="1165" unicode="û"/><glyph d="M451 1454v-100h-95v100h95zM840 1454v-100h-97v100h97zM938 1065h94v-1065h-94v199q-45 -92 -140.5 -155.5t-238.5 -63.5q-182 0 -303 116.5t-121 341.5v627h94v-619q0 -186 98.5 -282t252 -96t256 97t102.5 281v619z" glyph-name="udieresis" horiz-adv-x="1165" unicode="ü"/><glyph d="M750 1516l-129 -316h-93l125 316h97zM961 1065h100l-457 -1065l-172 -389h-94l178 399l-453 1055h101l397 -938z" glyph-name="yacute" horiz-adv-x="1124" unicode="ý"/><glyph d="M678 1085q217 0 374.5 -148.5t157.5 -404.5t-157.5 -404t-374.5 -148q-150 0 -270.5 73.5t-171.5 192.5h-7v-635h-94v1843h94v-635h7q51 119 171.5 192.5t270.5 73.5zM670 68q180 0 311 121.5t131 343t-131 343t-311 121.5q-178 0 -311.5 -122.5t-133.5 -342t133.5 -342 t311.5 -122.5z" glyph-name="thorn" unicode="þ"/><glyph d="M412 1454v-100h-95v100h95zM801 1454v-100h-96v100h96zM961 1065h100l-457 -1065l-172 -389h-94l178 399l-453 1055h101l397 -938z" glyph-name="ydieresis" horiz-adv-x="1124" unicode="ÿ"/><glyph d="M1055 1802v-80h-738v80h738zM1212 0l-155 391h-746l-155 -391h-103l588 1454h88l588 -1454h-105zM348 483h672l-336 838z" glyph-name="Amacron" horiz-adv-x="1370" unicode="Ā"/><glyph d="M258 1354v80h737v-80h-737zM614 -20q-217 0 -373.5 147t-156.5 405.5t156.5 405.5t373.5 147q150 0 271 -73.5t174 -192.5h6v246h94v-1065h-94v246h-6q-53 -119 -174 -192.5t-271 -73.5zM623 68q178 0 311 122.5t133 342t-133 342t-311 122.5q-180 0 -311.5 -121.5 t-131.5 -343t131.5 -343t311.5 -121.5z" glyph-name="amacron" unicode="ā"/><glyph d="M684 1612q-137 0 -206.5 81t-67.5 191h90q2 -78 47 -132t137 -54q94 0 138 54t46 132h93q2 -111 -69 -191.5t-208 -80.5zM1212 0l-155 391h-746l-155 -391h-103l588 1454h88l588 -1454h-105zM348 483h672l-336 838z" glyph-name="Abreve" horiz-adv-x="1370" unicode="Ă"/><glyph d="M626.5 1243q-137.5 0 -207 81t-67.5 192h90q2 -78 47.5 -132.5t137.5 -54.5q94 0 138 54.5t46 132.5h92q2 -111 -68.5 -192t-208 -81zM614 -20q-217 0 -373.5 147t-156.5 405.5t156.5 405.5t373.5 147q150 0 271 -73.5t174 -192.5h6v246h94v-1065h-94v246h-6 q-53 -119 -174 -192.5t-271 -73.5zM623 68q178 0 311 122.5t133 342t-133 342t-311 122.5q-180 0 -311.5 -121.5t-131.5 -343t131.5 -343t311.5 -121.5z" glyph-name="abreve" unicode="ă"/><glyph d="M1063 -223q0 -70 50 -103.5t118 -17.5v-62q-78 -39 -172 4.5t-94 153.5q0 90 66.5 157.5t174.5 104.5l-149 377h-746l-155 -391h-103l588 1454h88l588 -1454q-133 -31 -193.5 -93t-60.5 -130zM348 483h672l-336 838z" glyph-name="Aogonek" horiz-adv-x="1370" unicode="Ą"/><glyph d="M1065 1065h94v-1065h-2q-133 -31 -193.5 -93.5t-60.5 -129.5q0 -70 50.5 -103.5t117.5 -17.5v-62q-78 -39 -172 4.5t-94 153.5q0 94 72.5 162t187.5 104v228h-6q-53 -119 -174 -192.5t-271 -73.5q-217 0 -373.5 147t-156.5 405.5t156.5 405.5t373.5 147q150 0 271 -73.5 t174 -192.5h6v246zM623 68q178 0 311 122.5t133 342t-133 342t-311 122.5q-180 0 -311.5 -121.5t-131.5 -343t131.5 -343t311.5 -121.5z" glyph-name="aogonek" unicode="ą"/><glyph d="M762 1589l125 316h96l-129 -316h-92zM848 -20q-309 0 -521 210.5t-212 536.5t211 537t520 211q350 0 553 -263l-72 -57q-172 225 -477 225q-270 0 -454.5 -182t-184.5 -471q0 -287 185.5 -470t453.5 -183q305 0 477 225l72 -57q-203 -262 -551 -262z" glyph-name="Cacute" horiz-adv-x="1490" unicode="Ć"/><glyph d="M584 1200l125 316h96l-129 -316h-92zM627 -20q-217 0 -380 149.5t-163 400.5q0 254 162 404.5t381 150.5q143 0 265 -68.5t187 -193.5l-75 -41q-55 102 -155.5 158.5t-217.5 56.5q-180 0 -315.5 -126t-135.5 -341q0 -213 135.5 -337.5t315.5 -124.5q117 0 217 56t156 159 l75 -41q-66 -125 -187.5 -193.5t-264.5 -68.5z" glyph-name="cacute" horiz-adv-x="1163" unicode="ć"/><glyph d="M743 1743v100h95v-100h-95zM848 -20q-309 0 -521 210.5t-212 536.5t211 537t520 211q350 0 553 -263l-72 -57q-172 225 -477 225q-270 0 -454.5 -182t-184.5 -471q0 -287 185.5 -470t453.5 -183q305 0 477 225l72 -57q-203 -262 -551 -262z" glyph-name="Cdotaccent" horiz-adv-x="1490" unicode="Ċ"/><glyph d="M565 1354v100h94v-100h-94zM627 -20q-217 0 -380 149.5t-163 400.5q0 254 162 404.5t381 150.5q143 0 265 -68.5t187 -193.5l-75 -41q-55 102 -155.5 158.5t-217.5 56.5q-180 0 -315.5 -126t-135.5 -341q0 -213 135.5 -337.5t315.5 -124.5q117 0 217 56t156 159l75 -41 q-66 -125 -187.5 -193.5t-264.5 -68.5z" glyph-name="cdotaccent" horiz-adv-x="1163" unicode="ċ"/><glyph d="M608 1907l185 -217l184 217l59 -54l-209 -245h-69l-209 245zM848 -20q-309 0 -521 210.5t-212 536.5t211 537t520 211q350 0 553 -263l-72 -57q-172 225 -477 225q-270 0 -454.5 -182t-184.5 -471q0 -287 185.5 -470t453.5 -183q305 0 477 225l72 -57 q-203 -262 -551 -262z" glyph-name="Ccaron" horiz-adv-x="1490" unicode="Č"/><glyph d="M430 1518l184 -218l185 218l59 -54l-209 -245h-69l-209 245zM627 -20q-217 0 -380 149.5t-163 400.5q0 254 162 404.5t381 150.5q143 0 265 -68.5t187 -193.5l-75 -41q-55 102 -155.5 158.5t-217.5 56.5q-180 0 -315.5 -126t-135.5 -341q0 -213 135.5 -337.5 t315.5 -124.5q117 0 217 56t156 159l75 -41q-66 -125 -187.5 -193.5t-264.5 -68.5z" glyph-name="ccaron" horiz-adv-x="1163" unicode="č"/><glyph d="M487 1907l185 -217l184 217l59 -54l-208 -245h-70l-209 245zM135 0v1454h367q336 0 529.5 -198.5t193.5 -528.5t-193.5 -528.5t-529.5 -198.5h-367zM231 92h267q297 0 462.5 171t165.5 464t-165.5 464t-462.5 171h-267v-1270z" glyph-name="Dcaron" horiz-adv-x="1318" unicode="Ď"/><glyph d="M1343 1470h97l-129 -315h-92zM1065 1454h94v-1454h-94v246h-6q-53 -119 -174 -192.5t-271 -73.5q-217 0 -373.5 147t-156.5 405.5t156.5 405.5t373.5 147q150 0 271 -73.5t174 -192.5h6v635zM623 68q178 0 311 122.5t133 342t-133 342t-311 122.5q-180 0 -311.5 -121.5 t-131.5 -343t131.5 -343t311.5 -121.5z" glyph-name="dcaron" horiz-adv-x="1247" unicode="ď"/><glyph d="M514 1454q334 0 528.5 -198.5t194.5 -528.5t-194.5 -528.5t-528.5 -198.5h-369v680h-129v76h129v698h369zM510 92q297 0 463 171t166 464t-166 464t-463 171h-268v-606h409v-76h-409v-588h268z" glyph-name="Dcroat" horiz-adv-x="1331" unicode="Đ"/><glyph d="M1233 1298v-75h-74v-1223h-94v246h-6q-53 -119 -174 -192.5t-271 -73.5q-217 0 -373.5 147t-156.5 405.5t156.5 405.5t373.5 147q150 0 271 -73.5t174 -192.5h6v404h-465v75h465v156h94v-156h74zM623 68q178 0 311 122.5t133 342t-133 342t-311 122.5 q-180 0 -311.5 -121.5t-131.5 -343t131.5 -343t311.5 -121.5z" glyph-name="dcroat" horiz-adv-x="1267" unicode="đ"/><glyph d="M182 1823h738v-80h-738v80zM231 684v-592h668v-92h-764v1454h746v-92h-650v-586h557v-92h-557z" glyph-name="Emacron" horiz-adv-x="1003" unicode="Ē"/><glyph d="M961 1434v-80h-738v80h738zM606 1085q104 0 198.5 -37.5t167 -108.5t111.5 -185.5t29 -253.5h-938q12 -203 142 -317.5t315 -114.5q229 0 350 153l55 -55q-74 -90 -183.5 -138t-231.5 -48q-223 0 -380 148t-157 407q0 254 154.5 402t367.5 148zM606 997 q-168 0 -293 -110.5t-137 -306.5h852q-6 193 -129 305t-293 112z" glyph-name="emacron" horiz-adv-x="1196" unicode="ē"/><glyph d="M596 1843v-100h-94v100h94zM231 92h668v-92h-764v1454h746v-92h-650v-586h557v-92h-557v-592z" glyph-name="Edotaccent" horiz-adv-x="1003" unicode="Ė"/><glyph d="M637 1454v-100h-94v100h94zM606 1085q104 0 198.5 -37.5t167 -108.5t111.5 -185.5t29 -253.5h-938q12 -203 142 -317.5t315 -114.5q229 0 350 153l55 -55q-74 -90 -183.5 -138t-231.5 -48q-223 0 -380 148t-157 407q0 254 154.5 402t367.5 148zM606 997 q-168 0 -293 -110.5t-137 -306.5h852q-6 193 -129 305t-293 112z" glyph-name="edotaccent" horiz-adv-x="1196" unicode="ė"/><glyph d="M899 0q-133 -31 -193.5 -93.5t-60.5 -129.5q0 -70 50 -103.5t118 -17.5v-62q-78 -39 -172 4.5t-94 153.5q0 160 207 248h-619v1454h746v-92h-650v-586h557v-92h-557v-592h668v-92z" glyph-name="Eogonek" horiz-adv-x="1003" unicode="Ę"/><glyph d="M606 1085q104 0 198.5 -37.5t167 -108.5t111.5 -185.5t29 -253.5h-938q12 -203 142 -317.5t315 -114.5q229 0 350 153l55 -55q-111 -135 -297 -174q-117 -35 -169 -93.5t-52 -121.5q0 -70 50 -103.5t118 -17.5v-62q-78 -39 -172 4.5t-94 153.5q0 143 166 228 q-211 12 -356.5 159.5t-145.5 395.5q0 254 154.5 402t367.5 148zM606 997q-168 0 -293 -110.5t-137 -306.5h852q-6 193 -129 305t-293 112z" glyph-name="eogonek" horiz-adv-x="1196" unicode="ę"/><glyph d="M586 1608h-70l-209 245l60 54l184 -217l184 217l60 -54zM231 92h668v-92h-764v1454h746v-92h-650v-586h557v-92h-557v-592z" glyph-name="Ecaron" horiz-adv-x="1003" unicode="Ě"/><glyph d="M629 1219h-70l-209 245l60 54l184 -218l184 218l60 -54zM606 1085q104 0 198.5 -37.5t167 -108.5t111.5 -185.5t29 -253.5h-938q12 -203 142 -317.5t315 -114.5q229 0 350 153l55 -55q-74 -90 -183.5 -138t-231.5 -48q-223 0 -380 148t-157 407q0 254 154.5 402 t367.5 148zM606 997q-168 0 -293 -110.5t-137 -306.5h852q-6 193 -129 305t-293 112z" glyph-name="ecaron" horiz-adv-x="1196" unicode="ě"/><glyph d="M854 1632q-137 0 -206.5 81t-67.5 192h90q2 -78 47 -132.5t137 -54.5q94 0 138 54.5t46 132.5h92q2 -111 -68.5 -192t-207.5 -81zM1516 709q12 -330 -184.5 -529.5t-489.5 -199.5q-303 0 -515 210.5t-212 536.5t211 537t520 211q350 0 553 -263l-72 -57 q-172 225 -479 225q-270 0 -453.5 -182t-183.5 -471q0 -287 186.5 -471t452.5 -184q229 0 391 142t180 407h-463v88h558z" glyph-name="Gbreve" horiz-adv-x="1630" unicode="Ğ"/><glyph d="M616.5 1243q-137.5 0 -207 81t-67.5 192h90q2 -78 46 -132.5t138.5 -54.5t138.5 54.5t46 132.5h90q2 -111 -67.5 -192t-207 -81zM1065 1065h94v-1022q0 -127 -45 -221t-123 -146.5t-166 -77t-188 -24.5q-106 0 -190.5 24.5t-122.5 53.5v88q115 -80 305 -80 q86 0 159.5 19.5t138 63.5t101.5 123t37 187v193h-8q-53 -119 -174 -192.5t-271 -73.5q-215 0 -371.5 147t-156.5 405.5t156.5 405.5t371.5 147q150 0 271 -73.5t174 -192.5h8v246zM621 68q180 0 313 122.5t133 342t-133 342t-313 122.5q-178 0 -309.5 -121.5t-131.5 -343 t131.5 -343t309.5 -121.5z" glyph-name="gbreve" unicode="ğ"/><glyph d="M901 1843v-100h-94v100h94zM1516 709q12 -330 -184.5 -529.5t-489.5 -199.5q-303 0 -515 210.5t-212 536.5t211 537t520 211q350 0 553 -263l-72 -57q-172 225 -479 225q-270 0 -453.5 -182t-183.5 -471q0 -287 186.5 -471t452.5 -184q229 0 391 142t180 407h-463v88h558 z" glyph-name="Gdotaccent" horiz-adv-x="1630" unicode="Ġ"/><glyph d="M662 1454v-100h-95v100h95zM1065 1065h94v-1022q0 -127 -45 -221t-123 -146.5t-166 -77t-188 -24.5q-106 0 -190.5 24.5t-122.5 53.5v88q115 -80 305 -80q86 0 159.5 19.5t138 63.5t101.5 123t37 187v193h-8q-53 -119 -174 -192.5t-271 -73.5q-215 0 -371.5 147 t-156.5 405.5t156.5 405.5t371.5 147q150 0 271 -73.5t174 -192.5h8v246zM621 68q180 0 313 122.5t133 342t-133 342t-313 122.5q-178 0 -309.5 -121.5t-131.5 -343t131.5 -343t309.5 -121.5z" glyph-name="gdotaccent" unicode="ġ"/><glyph d="M1516 709q12 -330 -184.5 -529.5t-489.5 -199.5q-303 0 -515 210.5t-212 536.5t211 537t520 211q350 0 553 -263l-72 -57q-172 225 -479 225q-270 0 -453.5 -182t-183.5 -471q0 -287 186.5 -471t452.5 -184q229 0 391 142t180 407h-463v88h558zM641 -477l141 403h92 l-143 -403h-90z" glyph-name="Gcommaaccent" horiz-adv-x="1630" unicode="Ģ"/><glyph d="M770 1642l-143 -403h-88l141 403h90zM1065 1065h94v-1022q0 -127 -45 -221t-123 -146.5t-166 -77t-188 -24.5q-106 0 -190.5 24.5t-122.5 53.5v88q115 -80 305 -80q86 0 159.5 19.5t138 63.5t101.5 123t37 187v193h-8q-53 -119 -174 -192.5t-271 -73.5q-215 0 -371.5 147 t-156.5 405.5t156.5 405.5t371.5 147q150 0 271 -73.5t174 -192.5h8v246zM621 68q180 0 313 122.5t133 342t-133 342t-313 122.5q-178 0 -309.5 -121.5t-131.5 -343t131.5 -343t309.5 -121.5z" glyph-name="gcommaaccent" unicode="ģ"/><glyph d="M1044 1454h97v-1454h-97v664h-813v-664h-96v1454h96v-352h813v352zM231 756h813v252h-813v-252z" glyph-name="Hbar" horiz-adv-x="1275" unicode="Ħ"/><glyph d="M629 1085q184 0 305 -116.5t121 -341.5v-627h-94v618q0 186 -98.5 282.5t-252 96.5t-256 -96t-102.5 -283v-618h-94v1190h-158v67h158v197h94v-197h233v-67h-233v-320q45 90 140.5 152.5t236.5 62.5z" glyph-name="hbar" horiz-adv-x="1187" unicode="ħ"/><glyph d="M-186 1743v80h737v-80h-737zM135 0v1454h96v-1454h-96z" glyph-name="Imacron" horiz-adv-x="364" unicode="Ī"/><glyph d="M-186 1354v80h737v-80h-737zM135 0v1065h94v-1065h-94z" glyph-name="imacron" horiz-adv-x="362" unicode="ī"/><glyph d="M135 1454h96v-1454h-2q-133 -31 -193.5 -93.5t-60.5 -129.5q0 -70 50.5 -103.5t117.5 -17.5v-62q-78 -39 -172 4.5t-94 153.5q0 94 71.5 162t186.5 104v1436z" glyph-name="Iogonek" horiz-adv-x="364" unicode="Į"/><glyph d="M227 1454v-100h-94v100h94zM135 1065h94v-1065h-2q-133 -31 -193.5 -93.5t-60.5 -129.5q0 -70 50.5 -103.5t117.5 -17.5v-62q-78 -39 -172 4.5t-94 153.5q0 94 72.5 162t187.5 104v1047z" glyph-name="iogonek" horiz-adv-x="362" unicode="į"/><glyph d="M133 1743v100h94v-100h-94zM135 0v1454h96v-1454h-96z" glyph-name="Idotaccent" horiz-adv-x="364" unicode="İ"/><glyph d="M135 0v1065h94v-1065h-94z" glyph-name="dotlessi" horiz-adv-x="362" unicode="ı"/><glyph d="M135 0v1454h96v-1454h-96zM772 -20q-113 0 -200 47t-134 129l64 61q96 -145 268 -145q141 0 222 89t81 253v1040h96v-1046q0 -211 -112.5 -319.5t-284.5 -108.5z" glyph-name="IJ" horiz-adv-x="1302" unicode="Ĳ"/><glyph d="M135 1356v98h94v-98h-94zM498 1356v98h96v-98h-96zM135 0v1065h94v-1065h-94zM178 -395v88h39q135 0 208 64.5t73 234.5v1073h96v-1075q0 -217 -100.5 -301t-282.5 -84h-33z" glyph-name="ij" horiz-adv-x="727" unicode="ĳ"/><glyph d="M532 780l652 -780h-117l-594 713l-242 -271v-442h-96v1454h96v-883l779 883h120zM473 -477l141 403h93l-144 -403h-90z" glyph-name="Kcommaaccent" horiz-adv-x="1247" unicode="Ķ"/><glyph d="M477 561l522 -561h-118l-463 498l-189 -203v-295h-94v1454h94v-1036l598 647h119zM358 -477l142 403h92l-143 -403h-91z" glyph-name="kcommaaccent" horiz-adv-x="1060" unicode="ķ"/><glyph d="M412 1880l-129 -315h-93l125 315h97zM231 92h687v-92h-783v1454h96v-1362z" glyph-name="Lacute" horiz-adv-x="989" unicode="Ĺ"/><glyph d="M150 1589l124 316h97l-129 -316h-92zM135 0v1454h94v-1454h-94z" glyph-name="lacute" horiz-adv-x="362" unicode="ĺ"/><glyph d="M231 92h687v-92h-783v1454h96v-1362zM340 -477l141 403h92l-143 -403h-90z" glyph-name="Lcommaaccent" horiz-adv-x="1011" unicode="Ļ"/><glyph d="M135 0v1454h94v-1454h-94zM-8 -477l141 403h92l-143 -403h-90z" glyph-name="lcommaaccent" horiz-adv-x="362" unicode="ļ"/><glyph d="M231 92h687v-92h-783v1454h96v-1362zM702 1436l-143 -404h-90l143 404h90z" glyph-name="Lcaron" horiz-adv-x="1011" unicode="Ľ"/><glyph d="M309 1071l142 404h92l-144 -404h-90zM135 0v1454h94v-1454h-94z" glyph-name="lcaron" horiz-adv-x="460" unicode="ľ"/><glyph d="M231 92h687v-92h-783v1454h96v-1362zM622.5 672q-28.5 0 -45 17.5t-16.5 44t16.5 44t45 17.5t46 -17.5t17.5 -44t-17.5 -44t-46 -17.5z" glyph-name="Ldot" horiz-adv-x="1011" unicode="Ŀ"/><glyph d="M135 0v1454h94v-1454h-94zM454.5 668q-28.5 0 -45 17t-16.5 44t16.5 44.5t45 17.5t46 -18.5t17.5 -43t-17.5 -43t-46 -18.5z" glyph-name="ldot" horiz-adv-x="446" unicode="ŀ"/><glyph d="M346 92h686v-92h-782v518l-137 -145v129l137 145v807h96v-706l297 313h2v-127l-299 -316v-526z" glyph-name="Lslash" horiz-adv-x="1126" unicode="Ł"/><glyph d="M451 1071v-108l-199 -228v-735h-96v627l-199 -228v111l199 227v717h96v-608l197 225h2z" glyph-name="lslash" horiz-adv-x="407" unicode="ł"/><glyph d="M672 1589l125 316h96l-129 -316h-92zM135 0v1454h101l925 -1288h10v1288h97v-1454h-101l-925 1288h-11v-1288h-96z" glyph-name="Nacute" horiz-adv-x="1400" unicode="Ń"/><glyph d="M793 1516l-129 -316h-93l125 316h97zM606 1085q184 0 305 -116.5t121 -341.5v-627h-94v618q0 186 -98.5 282.5t-252 96.5t-256 -96t-102.5 -283v-618h-94v1065h94v-195q45 90 140.5 152.5t236.5 62.5z" glyph-name="nacute" horiz-adv-x="1165" unicode="ń"/><glyph d="M135 0v1454h101l925 -1288h10v1288h97v-1454h-101l-925 1288h-11v-1288h-96zM514 -477l141 403h93l-144 -403h-90z" glyph-name="Ncommaaccent" horiz-adv-x="1400" unicode="Ņ"/><glyph d="M606 1085q184 0 305 -116.5t121 -341.5v-627h-94v618q0 186 -98.5 282.5t-252 96.5t-256 -96t-102.5 -283v-618h-94v1065h94v-195q45 90 140.5 152.5t236.5 62.5zM412 -477l141 403h92l-143 -403h-90z" glyph-name="ncommaaccent" horiz-adv-x="1165" unicode="ņ"/><glyph d="M518 1907l184 -217l185 217l59 -54l-209 -245h-69l-209 245zM135 0v1454h101l925 -1288h10v1288h97v-1454h-101l-925 1288h-11v-1288h-96z" glyph-name="Ncaron" horiz-adv-x="1400" unicode="Ň"/><glyph d="M637 1219h-70l-209 245l60 54l184 -218l184 218l60 -54zM606 1085q184 0 305 -116.5t121 -341.5v-627h-94v618q0 186 -98.5 282.5t-252 96.5t-256 -96t-102.5 -283v-618h-94v1065h94v-195q45 90 140.5 152.5t236.5 62.5z" glyph-name="ncaron" horiz-adv-x="1165" unicode="ň"/><glyph d="M1264 1434v-1352l-11 -12v-68q0 -211 -112.5 -319.5t-284.5 -108.5q-231 0 -334 176l64 62q96 -145 270 -146q139 0 220 89t81 253v35l-926 1208v-1251h-96v1434h72l950 -1241v856h10v385h97z" glyph-name="Eng" horiz-adv-x="1396" unicode="Ŋ"/><glyph d="M606 1085q184 0 305 -116.5t121 -341.5v-635q0 -219 -99 -303t-282 -84h-35v88h39q137 0 210 64.5t73 234.5v626q0 186 -98.5 282.5t-252 96.5t-256 -96t-102.5 -283v-618h-94v1065h94v-195q45 90 140.5 152.5t236.5 62.5z" glyph-name="eng" horiz-adv-x="1165" unicode="ŋ"/><glyph d="M477 1743v80h737v-80h-737zM844 -20q-297 0 -513 209.5t-216 537.5t216 538t513 210q299 0 515 -210t216 -538t-216 -537.5t-515 -209.5zM844 74q258 0 445.5 182t187.5 471t-187.5 471t-445.5 182q-256 0 -444.5 -182t-188.5 -471t188.5 -471t444.5 -182z" glyph-name="Omacron" horiz-adv-x="1687" unicode="Ō"/><glyph d="M262 1354v80h737v-80h-737zM629 -20q-219 0 -382 149.5t-163 403t163 403t382 149.5t383 -150.5t164 -402t-164 -402t-383 -150.5zM628.5 68q182.5 0 316.5 124.5t134 340t-134 340t-316.5 124.5t-315.5 -124.5t-133 -340t133 -340t315.5 -124.5z" glyph-name="omacron" horiz-adv-x="1259" unicode="ō"/><glyph d="M672 1589l125 316h96l-129 -316h-92zM901 1589l125 316h96l-129 -316h-92zM844 -20q-297 0 -513 209.5t-216 537.5t216 538t513 210q299 0 515 -210t216 -538t-216 -537.5t-515 -209.5zM844 74q258 0 445.5 182t187.5 471t-187.5 471t-445.5 182q-256 0 -444.5 -182 t-188.5 -471t188.5 -471t444.5 -182z" glyph-name="Ohungarumlaut" horiz-adv-x="1687" unicode="Ő"/><glyph d="M457 1200l125 316h96l-129 -316h-92zM686 1200l125 316h96l-129 -316h-92zM629 -20q-219 0 -382 149.5t-163 403t163 403t382 149.5t383 -150.5t164 -402t-164 -402t-383 -150.5zM628.5 68q182.5 0 316.5 124.5t134 340t-134 340t-316.5 124.5t-315.5 -124.5t-133 -340 t133 -340t315.5 -124.5z" glyph-name="ohungarumlaut" horiz-adv-x="1259" unicode="ő"/><glyph d="M1575 92h670v-92h-766v348q-96 -172 -267.5 -270t-367.5 -98q-297 0 -513 209.5t-216 537.5t216 538t513 210q197 0 367.5 -98.5t267.5 -270.5v348h747v-92h-651v-586h559v-92h-559v-592zM844 74q258 0 445.5 182t187.5 471t-187.5 471t-445.5 182q-256 0 -444.5 -182 t-188.5 -471t188.5 -471t444.5 -182z" glyph-name="OE" horiz-adv-x="2347" unicode="Œ"/><glyph d="M2095 500h-919q-4 -49 -9 -74q31 -170 156 -264t291 -94q229 0 350 153l55 -55q-74 -90 -183.5 -138t-231.5 -48q-156 0 -287 77.5t-197 221.5q-70 -141 -204 -220t-287 -79q-219 0 -382 149.5t-163 403t163 403t382 149.5q154 0 288 -77.5t203 -219.5q63 141 191.5 219 t277.5 78q104 0 198.5 -37.5t167.5 -108.5t111.5 -185.5t28.5 -253.5zM629 68q162 0 288.5 100t155.5 276q-6 43 -6 91q0 47 6 86q-29 176 -155.5 276t-288.5 100q-182 0 -315.5 -124.5t-133.5 -340t133.5 -340t315.5 -124.5zM1589 997q-154 0 -272.5 -94t-149.5 -262l7 -61 h837q-4 193 -127 305t-295 112z" glyph-name="oe" horiz-adv-x="2181" unicode="œ"/><glyph d="M803 1905l-129 -316h-92l125 316h96zM1092 0h-111l-371 543q-12 -2 -39 -2h-340v-541h-96v1454h436q223 0 352.5 -129t129.5 -328q0 -170 -90.5 -287.5t-253.5 -154.5zM559 633q184 0 288.5 96t104.5 268q0 174 -104.5 269.5t-288.5 95.5h-328v-729h328z" glyph-name="Racute" horiz-adv-x="1185" unicode="Ŕ"/><glyph d="M567 1516l-129 -316h-92l125 316h96zM578 1085q35 0 53 -6v-86q-29 4 -51 4q-150 0 -250.5 -111.5t-100.5 -299.5v-586h-94v1065h94v-242q35 115 123.5 188.5t225.5 73.5z" glyph-name="racute" horiz-adv-x="712" unicode="ŕ"/><glyph d="M709 555l383 -555h-111l-371 543q-12 -2 -39 -2h-340v-541h-96v1454h436q223 0 352.5 -129t129.5 -328q0 -170 -90 -287.5t-254 -154.5zM559 633q184 0 288.5 96t104.5 268q0 174 -104.5 269.5t-288.5 95.5h-328v-729h328zM422 -477l141 403h92l-143 -403h-90z" glyph-name="Rcommaaccent" horiz-adv-x="1185" unicode="Ŗ"/><glyph d="M578 1085q35 0 53 -6v-86q-29 4 -51 4q-150 0 -250.5 -111.5t-100.5 -299.5v-586h-94v1065h94v-242q35 115 123.5 188.5t225.5 73.5zM-6 -477l141 403h92l-143 -403h-90z" glyph-name="rcommaaccent" horiz-adv-x="712" unicode="ŗ"/><glyph d="M647 1608h-69l-209 245l59 54l184 -217l185 217l59 -54zM1092 0h-111l-371 543q-12 -2 -39 -2h-340v-541h-96v1454h436q223 0 352.5 -129t129.5 -328q0 -170 -90.5 -287.5t-253.5 -154.5zM559 633q184 0 288.5 96t104.5 268q0 174 -104.5 269.5t-288.5 95.5h-328v-729 h328z" glyph-name="Rcaron" horiz-adv-x="1185" unicode="Ř"/><glyph d="M412 1219h-70l-209 245l60 54l184 -218l184 218l60 -54zM578 1085q35 0 53 -6v-86q-29 4 -51 4q-150 0 -250.5 -111.5t-100.5 -299.5v-586h-94v1065h94v-242q35 115 123.5 188.5t225.5 73.5z" glyph-name="rcaron" horiz-adv-x="712" unicode="ř"/><glyph d="M506 1589l125 316h96l-129 -316h-92zM553 -20q-180 0 -307 96t-162 254l82 37q31 -135 136.5 -214t252.5 -79q145 0 242.5 78.5t97.5 218.5q0 129 -81 201.5t-245 136.5l-98 39q-326 129 -326 378q0 156 112 252.5t282 96.5q162 0 267 -85t148 -214l-77 -37 q-94 244 -336 243q-129 0 -213 -69.5t-84 -186.5q0 -193 258 -292l98 -39q197 -80 295 -171.5t98 -252.5q0 -182 -126 -286.5t-314 -104.5z" glyph-name="Sacute" horiz-adv-x="1075" unicode="Ś"/><glyph d="M389 1200l125 316h96l-129 -316h-92zM430 -20q-141 0 -236.5 75.5t-119.5 204.5l84 23q27 -106 100.5 -161.5t173.5 -55.5q102 0 175 52t73 154q0 84 -54.5 133.5t-179.5 102.5l-71 31q-248 104 -248 288q0 113 85 185.5t214 72.5q113 0 196 -57t111 -156l-78 -28 q-61 156 -227 155q-88 0 -147.5 -44t-59.5 -128q0 -129 187 -209l61 -24q162 -68 233.5 -136.5t71.5 -185.5q0 -143 -102.5 -217.5t-241.5 -74.5z" glyph-name="sacute" horiz-adv-x="856" unicode="ś"/><glyph d="M993 371q0 -172 -114.5 -276.5t-292.5 -114.5l-49 -72q72 2 122 -42t50 -120q0 -98 -81 -143t-192 -29v68q180 -14 180 100q0 113 -157 92l-33 43l70 105q-160 14 -270.5 108t-141.5 240l82 37q31 -135 136.5 -214t252.5 -79q145 0 242.5 78.5t97.5 218.5 q0 129 -81 201.5t-245 136.5l-98 39q-326 129 -326 378q0 156 112 252.5t282 96.5q162 0 267 -85t148 -214l-77 -37q-94 244 -336 243q-129 0 -213 -69.5t-84 -186.5q0 -193 258 -292l98 -39q197 -80 295 -171t98 -253z" glyph-name="Scedilla" horiz-adv-x="1075" unicode="Ş"/><glyph d="M774 272q0 -137 -93 -211.5t-226 -80.5l-49 -72q72 2 122 -42t50 -120q0 -98 -81 -143t-192 -29v68q180 -14 180 100q0 113 -157 92l-33 43l72 107q-117 16 -194 89.5t-99 186.5l84 23q27 -106 100.5 -161.5t173.5 -55.5q102 0 175 52t73 154q0 84 -54.5 133.5 t-179.5 102.5l-71 31q-248 104 -248 288q0 113 85 185.5t214 72.5q113 0 196 -57t111 -156l-78 -28q-61 156 -227 155q-88 0 -147.5 -44t-59.5 -128q0 -129 187 -209l61 -24q162 -68 233.5 -136.5t71.5 -185.5z" glyph-name="scedilla" horiz-adv-x="856" unicode="ş"/><glyph d="M352 1907l185 -217l184 217l59 -54l-209 -245h-69l-209 245zM553 -20q-180 0 -307 96t-162 254l82 37q31 -135 136.5 -214t252.5 -79q145 0 242.5 78.5t97.5 218.5q0 129 -81 201.5t-245 136.5l-98 39q-326 129 -326 378q0 156 112 252.5t282 96.5q162 0 267 -85 t148 -214l-77 -37q-94 244 -336 243q-129 0 -213 -69.5t-84 -186.5q0 -193 258 -292l98 -39q197 -80 295 -171.5t98 -252.5q0 -182 -126 -286.5t-314 -104.5z" glyph-name="Scaron" horiz-adv-x="1075" unicode="Š"/><glyph d="M238 1518l184 -218l184 218l60 -54l-209 -245h-70l-209 245zM430 -20q-141 0 -236.5 75.5t-119.5 204.5l84 23q27 -106 100.5 -161.5t173.5 -55.5q102 0 175 52t73 154q0 84 -54.5 133.5t-179.5 102.5l-71 31q-248 104 -248 288q0 113 85 185.5t214 72.5q113 0 196 -57 t111 -156l-78 -28q-61 156 -227 155q-88 0 -147.5 -44t-59.5 -128q0 -129 187 -209l61 -24q162 -68 233.5 -136.5t71.5 -185.5q0 -143 -102.5 -217.5t-241.5 -74.5z" glyph-name="scaron" horiz-adv-x="856" unicode="š"/><glyph d="M1004 1362h-412v-1362h6l-92 -96q72 2 125 -44t53 -122q0 -94 -90 -142.5t-215 -25.5l20 49q86 -12 140.5 26t54.5 93q0 59 -49 92t-109 2l-39 43l105 125h-6v1362h-412v92h920v-92z" glyph-name="Tcommaaccent" horiz-adv-x="1085" unicode="Ţ"/><glyph d="M362 -84q72 2 122.5 -42t50.5 -120q0 -98 -81 -143t-192 -29v68q180 -14 180 100q0 113 -157 92l-33 43l74 113q-109 29 -109 160v825h-133v82h133v272h94v-272h205v-82h-205v-803q0 -106 105 -106q47 0 96 22v-80q-39 -25 -100 -28z" glyph-name="tcommaaccent" horiz-adv-x="610" unicode="ţ"/><glyph d="M580 1608h-70l-209 245l59 54l185 -217l184 217l59 -54zM1004 1454v-92h-412v-1362h-96v1362h-412v92h920z" glyph-name="Tcaron" horiz-adv-x="1085" unicode="Ť"/><glyph d="M616 1470l-129 -315h-92l125 315h96zM311 1337v-272h205v-82h-205v-803q0 -106 105 -106q47 0 96 22v-80q-47 -29 -113 -28q-182 0 -182 170v825h-133v82h133v272h94z" glyph-name="tcaron" horiz-adv-x="587" unicode="ť"/><glyph d="M1004 1362h-412v-293h332v-94h-332v-975h-96v975h-312v94h312v293h-412v92h920v-92z" glyph-name="Tbar" horiz-adv-x="1085" unicode="Ŧ"/><glyph d="M516 983h-205v-131h205v-82h-205v-590q0 -106 105 -106q47 0 96 22v-80q-47 -29 -113 -28q-182 0 -182 170v612h-133v82h133v131h-133v82h133v272h94v-272h205v-82z" glyph-name="tbar" horiz-adv-x="610" unicode="ŧ"/><glyph d="M770 1642q-55 0 -99 35t-83 70t-82 35q-45 0 -68.5 -28t-23.5 -71h-82q0 88 48 133.5t122 45.5q55 0 99 -35t83 -70t82 -35q45 0 68.5 29t23.5 72h82q0 -88 -48 -134.5t-122 -46.5zM635 -20q-219 0 -359.5 139t-140.5 385v950h96v-948q0 -205 112 -318.5t292 -113.5 q178 0 290.5 114.5t112.5 317.5v948h97v-950q0 -246 -140.5 -385t-359.5 -139z" glyph-name="Utilde" horiz-adv-x="1267" unicode="Ũ"/><glyph d="M469 1393q-45 0 -68.5 -28t-23.5 -71h-82q0 88 48 133.5t122 45.5q55 0 99 -35t83 -70t82 -35q45 0 68.5 29t23.5 72h82q0 -88 -48 -134.5t-122 -46.5q-55 0 -99 35t-83 70t-82 35zM938 1065h94v-1065h-94v199q-45 -92 -140.5 -155.5t-238.5 -63.5q-182 0 -303 116.5 t-121 341.5v627h94v-619q0 -186 98.5 -282t252 -96t256 97t102.5 281v619z" glyph-name="utilde" horiz-adv-x="1165" unicode="ũ"/><glyph d="M266 1743v80h738v-80h-738zM635 -20q-219 0 -359.5 139t-140.5 385v950h96v-948q0 -205 112 -318.5t292 -113.5q178 0 290.5 114.5t112.5 317.5v948h97v-950q0 -246 -140.5 -385t-359.5 -139z" glyph-name="Umacron" horiz-adv-x="1267" unicode="Ū"/><glyph d="M967 1434v-80h-738v80h738zM938 1065h94v-1065h-94v199q-45 -92 -140.5 -155.5t-238.5 -63.5q-182 0 -303 116.5t-121 341.5v627h94v-619q0 -186 98.5 -282t252 -96t256 97t102.5 281v619z" glyph-name="umacron" horiz-adv-x="1165" unicode="ū"/><glyph d="M633 1632q-137 0 -207 81t-68 192h91q2 -78 47 -132.5t137 -54.5q94 0 138 54.5t46 132.5h92q2 -111 -68.5 -192t-207.5 -81zM635 -20q-219 0 -359.5 139t-140.5 385v950h96v-948q0 -205 112 -318.5t292 -113.5q178 0 290.5 114.5t112.5 317.5v948h97v-950 q0 -246 -140.5 -385t-359.5 -139z" glyph-name="Ubreve" horiz-adv-x="1267" unicode="Ŭ"/><glyph d="M598 1243q-137 0 -206.5 81t-67.5 192h90q2 -78 47 -132.5t137 -54.5q94 0 138 54.5t46 132.5h92q2 -111 -68.5 -192t-207.5 -81zM938 1065h94v-1065h-94v199q-45 -92 -140.5 -155.5t-238.5 -63.5q-182 0 -303 116.5t-121 341.5v627h94v-619q0 -186 98.5 -282t252 -96 t256 97t102.5 281v619z" glyph-name="ubreve" horiz-adv-x="1165" unicode="ŭ"/><glyph d="M637 1622q-70 0 -117 46t-47 114q0 66 47 111.5t117 45.5q66 0 113 -46t47 -111q0 -68 -47 -114t-113 -46zM635 1694q37 0 61.5 25.5t24.5 62.5q0 35 -24.5 60.5t-61.5 25.5t-62.5 -25.5t-25.5 -60.5q0 -37 25.5 -62.5t62.5 -25.5zM635 -20q-219 0 -359.5 139t-140.5 385 v950h96v-948q0 -205 112 -318.5t292 -113.5q178 0 290.5 114.5t112.5 317.5v948h97v-950q0 -246 -140.5 -385t-359.5 -139z" glyph-name="Uring" horiz-adv-x="1267" unicode="Ů"/><glyph d="M600 1233q-70 0 -117 46t-47 114q0 66 47 111.5t117 45.5q66 0 113 -46t47 -111q0 -68 -47 -114t-113 -46zM598 1479q-37 0 -62.5 -26t-25.5 -60q0 -37 25.5 -62.5t62.5 -25.5t61.5 25.5t24.5 62.5q0 35 -24.5 60.5t-61.5 25.5zM938 1065h94v-1065h-94v199 q-45 -92 -140.5 -155.5t-238.5 -63.5q-182 0 -303 116.5t-121 341.5v627h94v-619q0 -186 98.5 -282t252 -96t256 97t102.5 281v619z" glyph-name="uring" horiz-adv-x="1165" unicode="ů"/><glyph d="M463 1589l125 316h96l-129 -316h-92zM692 1589l125 316h96l-129 -316h-92zM635 -20q-219 0 -359.5 139t-140.5 385v950h96v-948q0 -205 112 -318.5t292 -113.5q178 0 290.5 114.5t112.5 317.5v948h97v-950q0 -246 -140.5 -385t-359.5 -139z" glyph-name="Uhungarumlaut" horiz-adv-x="1267" unicode="Ű"/><glyph d="M647 1516l-129 -316h-92l125 316h96zM877 1516l-129 -316h-93l125 316h97zM938 1065h94v-1065h-94v199q-45 -92 -140.5 -155.5t-238.5 -63.5q-182 0 -303 116.5t-121 341.5v627h94v-619q0 -186 98.5 -282t252 -96t256 97t102.5 281v619z" glyph-name="uhungarumlaut" horiz-adv-x="1165" unicode="ű"/><glyph d="M1038 1454h97v-950q0 -211 -104.5 -344t-278.5 -168q-117 -35 -168.5 -93.5t-51.5 -121.5q0 -70 50.5 -103.5t117.5 -17.5v-62q-78 -39 -172 4.5t-94 153.5q0 143 166 228q-207 12 -336 150t-129 374v950h96v-948q0 -205 112 -318.5t292 -113.5q178 0 290.5 114.5 t112.5 317.5v948z" glyph-name="Uogonek" horiz-adv-x="1267" unicode="Ų"/><glyph d="M788 -223q0 -70 50.5 -103.5t117.5 -17.5v-62q-78 -39 -172 4.5t-94 153.5q0 92 68.5 158.5t179.5 103.5v185q-45 -92 -140.5 -155.5t-238.5 -63.5q-182 0 -303 116.5t-121 341.5v627h94v-619q0 -186 98.5 -282t252 -96t256 97t102.5 281v619h94v-1063l10 -2 q-133 -31 -193.5 -93t-60.5 -130z" glyph-name="uogonek" horiz-adv-x="1165" unicode="ų"/><glyph d="M819 1606l-59 53l209 246h69l209 -246l-59 -53l-184 217zM506 0l-432 1454h100l379 -1274l408 1274h81l410 -1274l377 1274h102l-434 -1454h-80l-416 1280l-413 -1280h-82z" glyph-name="Wcircumflex" horiz-adv-x="2004" unicode="Ŵ"/><glyph d="M948 1434l-184 -217l-59 53l208 246h70l209 -246l-59 -53zM1735 1065h98l-408 -1065h-90l-387 948l-389 -948h-88l-408 1065h99l354 -936l383 936h96l383 -936z" glyph-name="wcircumflex" horiz-adv-x="1894" unicode="ŵ"/><glyph d="M449 1606l-60 53l209 246h70l209 -246l-60 -53l-184 217zM584 0v662l-510 792h110l449 -700l446 700h113l-512 -792v-662h-96z" glyph-name="Ycircumflex" horiz-adv-x="1265" unicode="Ŷ"/><glyph d="M559 1434l-184 -217l-60 53l209 246h70l209 -246l-60 -53zM961 1065h100l-457 -1065l-172 -389h-94l178 399l-453 1055h101l397 -938z" glyph-name="ycircumflex" horiz-adv-x="1124" unicode="ŷ"/><glyph d="M391 1743v100h94v-100h-94zM778 1743v100h96v-100h-96zM584 0v662l-510 792h110l449 -700l446 700h113l-512 -792v-662h-96z" glyph-name="Ydieresis" horiz-adv-x="1265" unicode="Ÿ"/><glyph d="M553 1589l125 316h96l-129 -316h-92zM63 0l875 1362h-827v92h993l-877 -1362h863v-92h-1027z" glyph-name="Zacute" horiz-adv-x="1177" unicode="Ź"/><glyph d="M502 1200l125 316h96l-129 -316h-92zM63 0l750 979h-694v86h862l-752 -977h729v-88h-895z" glyph-name="zacute" horiz-adv-x="1044" unicode="ź"/><glyph d="M537 1743v100h94v-100h-94zM63 0l875 1362h-827v92h993l-877 -1362h863v-92h-1027z" glyph-name="Zdotaccent" horiz-adv-x="1177" unicode="Ż"/><glyph d="M483 1354v100h95v-100h-95zM63 0l750 979h-694v86h862l-752 -977h729v-88h-895z" glyph-name="zdotaccent" horiz-adv-x="1044" unicode="ż"/><glyph d="M401 1907l185 -217l184 217l59 -54l-208 -245h-70l-209 245zM63 0l875 1362h-827v92h993l-877 -1362h863v-92h-1027z" glyph-name="Zcaron" horiz-adv-x="1177" unicode="Ž"/><glyph d="M348 1518l184 -218l185 218l59 -54l-209 -245h-69l-209 245zM63 0l750 979h-694v86h862l-752 -977h729v-88h-895z" glyph-name="zcaron" horiz-adv-x="1044" unicode="ž"/><glyph d="M770 1475q309 0 527.5 -212t218.5 -536t-212 -535.5t-513 -211.5q-295 0 -492 199.5t-186 529.5h1302v18q0 287 -187.5 470t-457.5 183q-311 0 -467 -223l-72 55q187 263 539 263zM780 74q238 0 415 151.5t212 395.5h-1198q18 -264 179 -405.5t392 -141.5z" glyph-name="uni018F" horiz-adv-x="1630" unicode="Ə"/><glyph d="M449 1407q-170 0 -170 -201v-141h309v-82h-309v-1118q0 -150 -74 -213.5t-178 -63.5q-78 0 -152 41v80q59 -35 139 -35q170 0 170 203v1106h-114v82h114v154q0 147 75 210.5t177 63.5q86 0 152 -41v-80q-59 35 -139 35z" glyph-name="florin" horiz-adv-x="690" unicode="ƒ"/><glyph d="M721 1587h-70l-209 246l60 53l184 -217l184 217l60 -53zM1212 0l-155 391h-746l-155 -391h-103l588 1454h88l588 -1454h-105zM348 483h672l-336 838z" glyph-name="uni01CD" horiz-adv-x="1370" unicode="Ǎ"/><glyph d="M444 1518l185 -218l184 218l59 -54l-208 -245h-70l-209 245zM614 -20q-217 0 -373.5 147t-156.5 405.5t156.5 405.5t373.5 147q150 0 271 -73.5t174 -192.5h6v246h94v-1065h-94v246h-6q-53 -119 -174 -192.5t-271 -73.5zM623 68q178 0 311 122.5t133 342t-133 342 t-311 122.5q-180 0 -311.5 -121.5t-131.5 -343t131.5 -343t311.5 -121.5z" glyph-name="uni01CE" unicode="ǎ"/><glyph d="M-2 1907l184 -217l185 217l59 -54l-209 -245h-70l-208 245zM135 0v1454h96v-1454h-96z" glyph-name="uni01CF" horiz-adv-x="364" unicode="Ǐ"/><glyph d="M0 1518l184 -218l185 218l59 -54l-209 -245h-69l-209 245zM135 0v1065h94v-1065h-94z" glyph-name="uni01D0" horiz-adv-x="362" unicode="ǐ"/><glyph d="M662 1907l184 -217l184 217l60 -54l-209 -245h-70l-209 245zM844 -20q-297 0 -513 209.5t-216 537.5t216 538t513 210q299 0 515 -210t216 -538t-216 -537.5t-515 -209.5zM844 74q258 0 445.5 182t187.5 471t-187.5 471t-445.5 182q-256 0 -444.5 -182t-188.5 -471 t188.5 -471t444.5 -182z" glyph-name="uni01D1" horiz-adv-x="1687" unicode="Ǒ"/><glyph d="M446 1518l185 -218l184 218l59 -54l-208 -245h-70l-209 245zM629 -20q-219 0 -382 149.5t-163 403t163 403t382 149.5t383 -150.5t164 -402t-164 -402t-383 -150.5zM628.5 68q182.5 0 316.5 124.5t134 340t-134 340t-316.5 124.5t-315.5 -124.5t-133 -340t133 -340 t315.5 -124.5z" glyph-name="uni01D2" horiz-adv-x="1259" unicode="ǒ"/><glyph d="M451 1907l184 -217l184 217l60 -54l-209 -245h-70l-209 245zM635 -20q-219 0 -359.5 139t-140.5 385v950h96v-948q0 -205 112 -318.5t292 -113.5q178 0 290.5 114.5t112.5 317.5v948h97v-950q0 -246 -140.5 -385t-359.5 -139z" glyph-name="uni01D3" horiz-adv-x="1267" unicode="Ǔ"/><glyph d="M633 1219h-70l-209 245l60 54l184 -218l184 218l60 -54zM938 1065h94v-1065h-94v199q-45 -92 -140.5 -155.5t-238.5 -63.5q-182 0 -303 116.5t-121 341.5v627h94v-619q0 -186 98.5 -282t252 -96t256 97t102.5 281v619z" glyph-name="uni01D4" horiz-adv-x="1165" unicode="ǔ"/><glyph d="M938 -14q-106 -35 -154.5 -92.5t-48.5 -116.5q0 -70 51.5 -103.5t116.5 -17.5v-62q-78 -39 -172 4.5t-94 153.5q0 141 166 230q-285 14 -486.5 222t-201.5 523q0 328 216 538t513 210q299 0 515 -210t216 -538q0 -299 -184.5 -502.5t-452.5 -238.5zM211 727 q0 -289 188.5 -471t444.5 -182q258 0 445.5 182t187.5 471t-187.5 471t-445.5 182q-256 0 -444.5 -182t-188.5 -471z" glyph-name="uni01EA" horiz-adv-x="1687" unicode="Ǫ"/><glyph d="M553 -20q-180 0 -307 96t-162 254l82 37q31 -135 136.5 -214t252.5 -79q145 0 242.5 78.5t97.5 218.5q0 129 -81 201.5t-245 136.5l-98 39q-326 129 -326 378q0 156 112 252.5t282 96.5q162 0 267 -85t148 -214l-77 -37q-94 244 -336 243q-129 0 -213 -69.5t-84 -186.5 q0 -193 258 -292l98 -39q197 -80 295 -171.5t98 -252.5q0 -182 -126 -286.5t-314 -104.5zM360 -477l142 403h92l-143 -403h-91z" glyph-name="Scommaaccent" horiz-adv-x="1075" unicode="Ș"/><glyph d="M430 -20q-141 0 -236.5 75.5t-119.5 204.5l84 23q27 -106 100.5 -161.5t173.5 -55.5q102 0 175 52t73 154q0 84 -54.5 133.5t-179.5 102.5l-71 31q-248 104 -248 288q0 113 85 185.5t214 72.5q113 0 196 -57t111 -156l-78 -28q-61 156 -227 155q-88 0 -147.5 -44 t-59.5 -128q0 -129 187 -209l61 -24q162 -68 233.5 -136.5t71.5 -185.5q0 -143 -102.5 -217.5t-241.5 -74.5zM229 -477l142 403h92l-144 -403h-90z" glyph-name="scommaaccent" horiz-adv-x="856" unicode="ș"/><glyph d="M1004 1454v-92h-412v-1362h-96v1362h-412v92h920zM354 -477l142 403h92l-144 -403h-90z" glyph-name="uni021A" horiz-adv-x="1085" unicode="Ț"/><glyph d="M516 983h-205v-803q0 -106 105 -106q47 0 96 22v-80q-47 -29 -113 -28q-182 0 -182 170v825h-133v82h133v272h94v-272h205v-82zM186 -469l142 403h92l-144 -403h-90z" glyph-name="uni021B" horiz-adv-x="610" unicode="ț"/><glyph d="M-184 -395v88h39q135 0 207.5 64.5t72.5 234.5v1073h96v-1075q0 -217 -100 -301t-283 -84h-32z" glyph-name="uni0237" horiz-adv-x="364" unicode="ȷ"/><glyph d="M575 1085q223 0 381 -148.5t158 -406.5q0 -254 -155.5 -402t-368.5 -148q-219 0 -373 155.5t-133 429.5h940q-12 203 -143 317.5t-314 114.5q-231 0 -352 -153l-53 55q72 90 182 138t231 48zM590 68q168 0 294 110.5t138 306.5h-852q4 -193 127 -305t293 -112z" glyph-name="uni0259" horiz-adv-x="1198" unicode="ə"/><glyph d="M80 1217l-60 53l209 246h70l209 -246l-59 -53l-185 217z" glyph-name="circumflex" horiz-adv-x="528" unicode="ˆ"/><glyph d="M80 1518l184 -218l185 218l59 -54l-209 -245h-70l-209 245z" glyph-name="caron" horiz-adv-x="528" unicode="ˇ"/><glyph d="M295 1243q-137 0 -207 81t-68 192h91q2 -78 47 -132.5t137 -54.5q94 0 138 54.5t46 132.5h92q2 -111 -68.5 -192t-207.5 -81z" glyph-name="breve" horiz-adv-x="591" unicode="˘"/><glyph d="M20 1354v100h95v-100h-95z" glyph-name="dotaccent" horiz-adv-x="135" unicode="˙"/><glyph d="M184 1233q-70 0 -117 46t-47 114q0 66 47.5 111.5t116.5 45.5q66 0 113 -46t47 -111q0 -68 -47 -114t-113 -46zM182 1305q37 0 61.5 25.5t24.5 62.5q0 35 -24.5 60.5t-61.5 25.5t-62.5 -26t-25.5 -60q0 -37 25.5 -62.5t62.5 -25.5z" glyph-name="ring" horiz-adv-x="364" unicode="˚"/><glyph d="M266 -406q-78 -39 -172 4.5t-94 153.5q0 94 73.5 163t190.5 105l88 -20q-133 -31 -193.5 -93.5t-60.5 -129.5q0 -70 50.5 -103.5t117.5 -17.5v-62z" glyph-name="ogonek" horiz-adv-x="352" unicode="˛"/><glyph d="M459 1253q-55 0 -99.5 35t-83 70t-81.5 35q-45 0 -69 -28t-24 -71h-82q0 88 48.5 133.5t121.5 45.5q55 0 99.5 -35t83.5 -70t82 -35q45 0 68.5 29t23.5 72h82q0 -88 -48 -134.5t-122 -46.5z" glyph-name="tilde" horiz-adv-x="649" unicode="˜"/><glyph d="M20 1200l125 316h97l-129 -316h-93zM250 1200l125 316h96l-129 -316h-92z" glyph-name="hungarumlaut" horiz-adv-x="491" unicode="˝"/><glyph d="M-254 -477l141 403h93l-144 -403h-90z" glyph-name="uni0326" horiz-adv-x="0" unicode="̦"/><glyph d="M102 0l629 1434h39l629 -1434h-1297zM240 88h1022l-510 1172z" glyph-name="Delta" horiz-adv-x="1501" unicode="Δ"/><glyph d="M166 0v92h309v39q-360 240 -360 600q0 203 102 370t265 257t343 90q279 0 495 -207t216 -510q0 -362 -362 -600v-39h311v-92h-393v180l92 70q256 195 256 481q0 266 -188.5 447.5t-426.5 181.5q-240 0 -428 -181.5t-188 -447.5q0 -287 256 -481l92 -70v-180h-391z" glyph-name="Omega" horiz-adv-x="1648" unicode="Ω"/><glyph d="M938 1065h94v-1065h-94v199q-45 -92 -140.5 -155.5t-238.5 -63.5q-211 0 -330 145v-514h-94v1454h94v-619q0 -186 98.5 -282t252 -96t256 97t102.5 281v619z" glyph-name="mu" horiz-adv-x="1165" unicode="μ"/><glyph d="M1079 76q66 0 140 37v-88q-74 -37 -136 -37q-186 0 -186 205v786h-494v-979h-96v979h-205v86h1094v-86h-203v-791q0 -68 19.5 -90t66.5 -22z" glyph-name="pi" horiz-adv-x="1310" unicode="π"/><glyph d="M373 1843v-100h-94v100h94zM762 1843v-100h-96v100h96zM231 92h668v-92h-764v1454h746v-92h-650v-586h557v-92h-557v-592z" glyph-name="afii10023" horiz-adv-x="1003" unicode="Ё"/><glyph d="M739 1905l-129 -316h-92l125 316h96zM930 1454v-92h-699v-1362h-96v1454h795z" glyph-name="afii10052" horiz-adv-x="1024" unicode="Ѓ"/><glyph d="M850 74q305 0 477 225l72 -57q-203 -262 -551 -262q-309 0 -521 210.5t-212 536.5t211 537t520 211q350 0 553 -263l-72 -57q-172 225 -477 225q-262 0 -444.5 -172t-194.5 -446h438v-88h-436q18 -266 199.5 -433t437.5 -167z" glyph-name="afii10053" horiz-adv-x="1490" unicode="Є"/><glyph d="M135 0v1454h96v-1454h-96z" glyph-name="afii10055" horiz-adv-x="364" unicode="І"/><glyph d="M-59 1743v100h94v-100h-94zM328 1743v100h96v-100h-96zM135 0v1454h96v-1454h-96z" glyph-name="afii10056" horiz-adv-x="364" unicode="Ї"/><glyph d="M1212 0l-155 391h-746l-155 -391h-103l588 1454h88l588 -1454h-105zM348 483h672l-336 838z" glyph-name="afii10017" horiz-adv-x="1370" unicode="А"/><glyph d="M575 918q227 0 357.5 -128t130.5 -333q0 -201 -130 -329t-358 -128h-440v1454h797v-92h-701v-444h344zM569 92q184 0 289 95.5t105 269.5q0 172 -104.5 270t-289.5 98h-338v-733h338z" glyph-name="afii10018" horiz-adv-x="1155" unicode="Б"/><glyph d="M758 803q147 -33 229 -138.5t82 -256.5q0 -184 -123 -296t-364 -112h-447v1454h467q193 0 290 -97t97 -241q0 -106 -56 -191t-175 -122zM590 1366h-359v-530h351q150 0 232.5 75.5t82.5 198.5q0 119 -77.5 187.5t-229.5 68.5zM578 88q197 0 297 84t100 238 q0 160 -102.5 252t-294.5 92h-347v-666h347z" glyph-name="afii10019" horiz-adv-x="1163" unicode="В"/><glyph d="M930 1454v-92h-699v-1362h-96v1454h795z" glyph-name="afii10020" horiz-adv-x="1024" unicode="Г"/><glyph d="M1221 92h151v-233h-96v141h-1108v-141h-96v233h86q39 59 62.5 140t32.5 224.5t11 254t2 350.5v393h955v-1362zM250 92h874v1270h-762v-301q0 -240 -2 -350.5t-12 -254t-33.5 -224.5t-64.5 -140z" glyph-name="afii10021" horiz-adv-x="1443" unicode="Д"/><glyph d="M231 92h668v-92h-764v1454h746v-92h-650v-586h557v-92h-557v-592z" glyph-name="afii10022" horiz-adv-x="1003" unicode="Е"/><glyph d="M1950 0l-596 715l-242 -273v-442h-96v438l-244 275l-594 -713h-117l654 778l-600 676h121l780 -887v887h96v-883l780 883h119l-598 -674l653 -780h-116z" glyph-name="afii10024" horiz-adv-x="2127" unicode="Ж"/><glyph d="M590 -20q-223 0 -360.5 126.5t-137.5 319.5h98q0 -154 114 -254t292 -100q166 0 277.5 87t111.5 242q0 162 -124 246t-322 88v78q178 8 278.5 95t100.5 206t-94.5 193.5t-237.5 74.5q-152 0 -250 -88t-98 -250h-99q0 197 124 314t323 117q186 0 308 -101.5t122 -255.5 q0 -113 -73 -205t-218 -131q162 -29 260 -127t98 -254q0 -190 -140 -305.5t-353 -115.5z" glyph-name="afii10025" horiz-adv-x="1175" unicode="З"/><glyph d="M1268 0h-97v1288h-10l-925 -1288h-101v1454h96v-1288h11l925 1288h101v-1454z" glyph-name="afii10026" horiz-adv-x="1400" unicode="И"/><glyph d="M772 1612q-137 0 -206.5 81t-67.5 191h90q2 -78 46 -132t138 -54t138 54t46 132h91q2 -111 -68 -191.5t-207 -80.5zM1268 0h-97v1288h-10l-925 -1288h-101v1454h96v-1288h11l925 1288h101v-1454z" glyph-name="afii10027" horiz-adv-x="1400" unicode="Й"/><glyph d="M1067 0l-594 713l-242 -271v-442h-96v1454h96v-883l779 883h120l-598 -674l652 -780h-117z" glyph-name="afii10028" horiz-adv-x="1247" unicode="К"/><glyph d="M180 -12q-80 0 -139 39v84q70 -35 123 -35q88 0 88 104v1274h1024v-1454h-96v1362h-832v-1212q0 -82 -48 -122t-120 -40z" glyph-name="afii10029" horiz-adv-x="1411" unicode="Л"/><glyph d="M135 0v1454h109l633 -1327l630 1327h111v-1454h-96v1251h-11l-596 -1251h-77l-596 1251h-11v-1251h-96z" glyph-name="afii10030" horiz-adv-x="1753" unicode="М"/><glyph d="M1044 1454h97v-1454h-97v664h-813v-664h-96v1454h96v-698h813v698z" glyph-name="afii10031" horiz-adv-x="1275" unicode="Н"/><glyph d="M844 -20q-297 0 -513 209.5t-216 537.5t216 538t513 210q299 0 515 -210t216 -538t-216 -537.5t-515 -209.5zM844 74q258 0 445.5 182t187.5 471t-187.5 471t-445.5 182q-256 0 -444.5 -182t-188.5 -471t188.5 -471t444.5 -182z" glyph-name="afii10032" horiz-adv-x="1687" unicode="О"/><glyph d="M1139 1454v-1454h-97v1362h-811v-1362h-96v1454h1004z" glyph-name="afii10033" horiz-adv-x="1271" unicode="П"/><glyph d="M575 1454q227 0 357.5 -128t130.5 -329q0 -205 -130 -332.5t-358 -127.5h-344v-537h-96v1454h440zM569 629q184 0 289 98t105 270q0 174 -104.5 269.5t-289.5 95.5h-338v-733h338z" glyph-name="afii10034" horiz-adv-x="1155" unicode="Р"/><glyph d="M848 -20q-309 0 -521 210.5t-212 536.5t211 537t520 211q350 0 553 -263l-72 -57q-172 225 -477 225q-270 0 -454.5 -182t-184.5 -471q0 -287 185.5 -470t453.5 -183q305 0 477 225l72 -57q-203 -262 -551 -262z" glyph-name="afii10035" horiz-adv-x="1490" unicode="С"/><glyph d="M1004 1454v-92h-412v-1362h-96v1362h-412v92h920z" glyph-name="afii10036" horiz-adv-x="1085" unicode="Т"/><glyph d="M1128 1454h107l-793 -1454h-104l262 483l-526 971h104l473 -876z" glyph-name="afii10037" horiz-adv-x="1296" unicode="У"/><glyph d="M922 1311q307 0 485 -163t178 -421t-178 -421t-485 -163h-37v-143h-97v143h-30q-309 0 -486.5 162t-177.5 422t177.5 422t486.5 162h30v143h97v-143h37zM758 231h30v994h-30q-270 0 -419 -135.5t-149 -362.5t149 -361.5t419 -134.5zM922 231q268 0 417.5 134.5 t149.5 361.5t-149.5 362.5t-417.5 135.5h-37v-994h37z" glyph-name="afii10038" horiz-adv-x="1677" unicode="Ф"/><glyph d="M1233 0h-115l-469 670l-471 -670h-115l527 752l-492 702h115l434 -620l434 620h117l-491 -702z" glyph-name="afii10039" horiz-adv-x="1296" unicode="Х"/><glyph d="M1139 92h82v-233h-95v141h-991v1454h96v-1362h811v1362h97v-1362z" glyph-name="afii10040" horiz-adv-x="1294" unicode="Ц"/><glyph d="M965 1454h96v-1454h-96v631q-29 -47 -73 -90t-138.5 -86t-206.5 -43q-190 0 -321.5 114.5t-131.5 331.5v596h96v-584q0 -168 99.5 -266t271.5 -98q176 0 290 99.5t114 264.5v584z" glyph-name="afii10041" horiz-adv-x="1196" unicode="Ч"/><glyph d="M135 0v1454h96v-1362h723v1362h97v-1362h723v1362h96v-1454h-1735z" glyph-name="afii10042" horiz-adv-x="2004" unicode="Ш"/><glyph d="M1870 92h82v-233h-92v141h-1725v1454h96v-1362h723v1362h97v-1362h723v1362h96v-1362z" glyph-name="afii10043" horiz-adv-x="2025" unicode="Щ"/><glyph d="M643 918q227 0 356 -128t129 -333q0 -201 -129 -329t-356 -128h-442v1362h-201v92h297v-536h346zM635 92q184 0 288.5 95.5t104.5 269.5q0 172 -104.5 270t-288.5 98h-338v-733h338z" glyph-name="afii10044" horiz-adv-x="1222" unicode="Ъ"/><glyph d="M575 918q227 0 357.5 -128t130.5 -333q0 -201 -130 -329t-358 -128h-440v1454h96v-536h344zM1294 1454h97v-1454h-97v1454zM569 92q184 0 289 95.5t105 269.5q0 172 -104.5 270t-289.5 98h-338v-733h338z" glyph-name="afii10045" horiz-adv-x="1523" unicode="Ы"/><glyph d="M575 918q227 0 357.5 -128t130.5 -333q0 -201 -130 -329t-358 -128h-440v1454h96v-536h344zM569 92q184 0 289 95.5t105 269.5q0 172 -104.5 270t-289.5 98h-338v-733h338z" glyph-name="afii10046" horiz-adv-x="1155" unicode="Ь"/><glyph d="M666 1475q309 0 521 -211t212 -537t-213 -536.5t-522 -210.5q-348 0 -549 262l69 57q172 -225 478 -225q258 0 438 167t198 433h-434v88h436q-12 274 -194 446t-444 172q-305 0 -478 -225l-69 57q201 263 551 263z" glyph-name="afii10047" horiz-adv-x="1490" unicode="Э"/><glyph d="M1223 1475q297 0 513 -210t216 -538t-216 -537.5t-513 -209.5q-285 0 -497 194.5t-232 499.5h-263v-674h-96v1454h96v-692h261q14 313 228 513t503 200zM1223 74q256 0 444 182t188 471t-188 471t-444 182q-258 0 -445.5 -182t-187.5 -471t187.5 -471t445.5 -182z" glyph-name="afii10048" horiz-adv-x="2066" unicode="Ю"/><glyph d="M614 1454h439v-1454h-97v541h-342q-27 0 -39 2l-370 -543h-111l383 555q-164 37 -254 154.5t-90 287.5q0 199 129 328t352 129zM627 633h329v729h-329q-184 0 -289 -95.5t-105 -269.5q0 -172 105 -268t289 -96z" glyph-name="afii10049" horiz-adv-x="1185" unicode="Я"/><glyph d="M614 -20q-217 0 -373.5 147t-156.5 405.5t156.5 405.5t373.5 147q150 0 271 -73.5t174 -192.5h6v246h94v-1065h-94v246h-6q-53 -119 -174 -192.5t-271 -73.5zM623 68q178 0 311 122.5t133 342t-133 342t-311 122.5q-180 0 -311.5 -121.5t-131.5 -343t131.5 -343 t311.5 -121.5z" glyph-name="afii10065" unicode="а"/><glyph d="M678 1085q217 0 374.5 -148.5t157.5 -404.5t-157.5 -404t-374.5 -148q-150 0 -270.5 73.5t-171.5 192.5h-7v-246h-94v1133q0 150 63.5 225.5t223.5 75.5h381q47 0 67.5 7t32.5 34h94q-10 -68 -51 -96.5t-131 -28.5h-373q-125 0 -169 -54.5t-44 -183.5v-293h7 q51 119 171.5 192.5t270.5 73.5zM670 68q180 0 311 121.5t131 343t-131 343t-311 121.5q-178 0 -311.5 -122.5t-133.5 -342t133.5 -342t311.5 -122.5z" glyph-name="afii10066" unicode="б"/><glyph d="M780 588q229 -61 230 -279q0 -141 -103.5 -225t-316.5 -84h-455v1065h475q158 0 244 -68.5t86 -183.5q0 -164 -160 -225zM598 979h-369v-361h373q117 0 180.5 49.5t63.5 135.5q0 176 -248 176zM602 86q313 0 313 223q0 231 -313 232h-373v-455h373z" glyph-name="afii10067" horiz-adv-x="1103" unicode="в"/><glyph d="M858 1065v-86h-629v-979h-94v1065h723z" glyph-name="afii10068" horiz-adv-x="940" unicode="г"/><glyph d="M1040 88h88v-231h-94v143h-868v-143h-94v231h65q59 86 73.5 247t14.5 525v205h815v-977zM227 88h719v891h-627v-119q0 -365 -15.5 -525.5t-76.5 -246.5z" glyph-name="afii10069" horiz-adv-x="1200" unicode="д"/><glyph d="M606 1085q104 0 198.5 -37.5t167 -108.5t111.5 -185.5t29 -253.5h-938q12 -203 142 -317.5t315 -114.5q229 0 350 153l55 -55q-74 -90 -183.5 -138t-231.5 -48q-223 0 -380 148t-157 407q0 254 154.5 402t367.5 148zM606 997q-168 0 -293 -110.5t-137 -306.5h852 q-6 193 -129 305t-293 112z" glyph-name="afii10070" horiz-adv-x="1196" unicode="е"/><glyph d="M1550 0l-483 522l-162 -162v-360h-94v360l-162 162l-483 -522h-113l537 582l-479 483h122l578 -586v586h94v-586l578 586h123l-480 -483l537 -582h-113z" glyph-name="afii10072" horiz-adv-x="1726" unicode="ж"/><glyph d="M506 -20q-184 0 -299 94t-115 245h94q0 -117 90.5 -186.5t233.5 -69.5q135 0 225 60.5t90 173.5q0 117 -94 173t-252 56v74q141 0 213 57.5t72 143.5q0 90 -71.5 144t-188.5 54q-123 0 -199 -59t-76 -164h-94q0 139 100.5 223t268.5 84q162 0 258 -78.5t96 -197.5 q0 -78 -49 -143.5t-158 -94.5q121 -16 195 -89.5t74 -184.5q0 -141 -119 -228t-295 -87z" glyph-name="afii10073" horiz-adv-x="1011" unicode="з"/><glyph d="M135 0v1065h94v-924l697 924h96v-1065h-96v924l-697 -924h-94z" glyph-name="afii10074" horiz-adv-x="1155" unicode="и"/><glyph d="M577.5 1243q-137.5 0 -207 81t-67.5 192h90q2 -78 47 -132.5t138 -54.5q94 0 138 54.5t46 132.5h92q2 -111 -68.5 -192t-208 -81zM135 0v1065h94v-924l697 924h96v-1065h-96v924l-697 -924h-94z" glyph-name="afii10075" horiz-adv-x="1155" unicode="й"/><glyph d="M874 0l-485 522l-160 -162v-360h-94v1065h94v-586l578 586h121l-477 -481l536 -584h-113z" glyph-name="afii10076" horiz-adv-x="1050" unicode="к"/><glyph d="M1102 1065v-1065h-96v979h-662v-817q0 -88 -49 -131t-129 -43q-76 0 -125 37v84q59 -37 117 -37q92 0 92 112v881h852z" glyph-name="afii10077" horiz-adv-x="1234" unicode="л"/><glyph d="M135 0v1065h96l476 -950l473 950h98v-1065h-96v885l-437 -885h-77l-439 885v-885h-94z" glyph-name="afii10078" horiz-adv-x="1411" unicode="м"/><glyph d="M913 1065h95v-1065h-95v481h-684v-481h-94v1065h94v-496h684v496z" glyph-name="afii10079" horiz-adv-x="1140" unicode="н"/><glyph d="M629 -20q-219 0 -382 149.5t-163 403t163 403t382 149.5t383 -150.5t164 -402t-164 -402t-383 -150.5zM628.5 68q182.5 0 316.5 124.5t134 340t-134 340t-316.5 124.5t-315.5 -124.5t-133 -340t133 -340t315.5 -124.5z" glyph-name="afii10080" horiz-adv-x="1259" unicode="о"/><glyph d="M991 1065v-1065h-94v979h-668v-979h-94v1065h856z" glyph-name="afii10081" horiz-adv-x="1124" unicode="п"/><glyph d="M678 1085q217 0 374.5 -148.5t157.5 -404.5t-157.5 -404t-374.5 -148q-150 0 -270.5 73.5t-171.5 192.5h-7v-635h-94v1454h94v-246h7q51 119 171.5 192.5t270.5 73.5zM670 68q180 0 311 121.5t131 343t-131 343t-311 121.5q-178 0 -311.5 -122.5t-133.5 -342t133.5 -342 t311.5 -122.5z" glyph-name="afii10082" unicode="р"/><glyph d="M627 -20q-217 0 -380 149.5t-163 400.5q0 254 162 404.5t381 150.5q143 0 265 -68.5t187 -193.5l-75 -41q-55 102 -155.5 158.5t-217.5 56.5q-180 0 -315.5 -126t-135.5 -341q0 -213 135.5 -337.5t315.5 -124.5q117 0 217 56t156 159l75 -41q-66 -125 -187.5 -193.5 t-264.5 -68.5z" glyph-name="afii10083" horiz-adv-x="1163" unicode="с"/><glyph d="M823 1065v-86h-327v-979h-95v979h-329v86h751z" glyph-name="afii10084" horiz-adv-x="894" unicode="т"/><glyph d="M961 1065h100l-457 -1065l-172 -389h-94l178 399l-453 1055h101l397 -938z" glyph-name="afii10085" horiz-adv-x="1124" unicode="у"/><glyph d="M1055 -389v635h-8q-51 -119 -172 -192.5t-271 -73.5q-211 0 -365.5 147t-154.5 405.5t154.5 405.5t365.5 147q150 0 270.5 -73.5t172.5 -192.5h8v666h94v-666h8q53 119 174 192.5t271 73.5q211 0 365.5 -147t154.5 -405.5t-155 -405.5t-365 -147q-150 0 -271 73.5 t-174 192.5h-8v-635h-94zM612 68q178 0 310.5 122.5t132.5 342t-132 342t-311 122.5q-176 0 -304 -121.5t-128 -343t128 -343t304 -121.5zM1593 68q176 0 304 121.5t128 343t-128 343t-304 121.5q-178 0 -311 -122.5t-133 -342t133 -342t311 -122.5z" glyph-name="afii10086" horiz-adv-x="2205" unicode="ф"/><glyph d="M53 0l416 543l-399 522h112l340 -449l340 449h113l-400 -522l416 -543h-114l-355 471l-354 -471h-115z" glyph-name="afii10087" horiz-adv-x="1044" unicode="х"/><glyph d="M991 88h88v-229h-94v141h-850v1065h94v-977h668v977h94v-977z" glyph-name="afii10088" horiz-adv-x="1153" unicode="ц"/><glyph d="M881 1065h94v-1065h-94v418q-45 -72 -138.5 -121t-216.5 -49q-162 0 -276.5 93t-114.5 292v432h94v-434q0 -137 84 -216t232 -79q150 0 243 80t93 215v434z" glyph-name="afii10089" horiz-adv-x="1107" unicode="ч"/><glyph d="M135 0v1065h94v-977h506v977h94v-977h506v977h95v-1065h-1295z" glyph-name="afii10090" horiz-adv-x="1562" unicode="ш"/><glyph d="M1430 88h88v-229h-95v141h-1288v1065h94v-977h506v977h94v-977h506v977h95v-977z" glyph-name="afii10091" horiz-adv-x="1589" unicode="щ"/><glyph d="M643 625q176 0 271.5 -83t95.5 -229q0 -147 -95.5 -230t-271.5 -83h-500v979h-143v86h238v-440h405zM637 88q279 0 278.5 225.5t-278.5 225.5h-399v-451h399z" glyph-name="afii10092" horiz-adv-x="1093" unicode="ъ"/><glyph d="M633 625q178 0 273 -83t95 -229q0 -147 -95 -230t-273 -83h-498v1065h94v-440h404zM1124 1065h95v-1065h-95v1065zM629 88q276 0 276 225.5t-276 225.5h-400v-451h400z" glyph-name="afii10093" horiz-adv-x="1353" unicode="ы"/><glyph d="M633 625q178 0 273 -83t95 -229q0 -147 -95 -230t-273 -83h-498v1065h94v-440h404zM629 88q276 0 276 225.5t-276 225.5h-400v-451h400z" glyph-name="afii10094" horiz-adv-x="1083" unicode="ь"/><glyph d="M535 1085q219 0 381.5 -150.5t162.5 -404.5q0 -252 -162.5 -401t-381.5 -149q-143 0 -265.5 68.5t-185.5 193.5l74 41q57 -102 157.5 -158.5t214.5 -56.5q172 0 305.5 114.5t145.5 311.5h-371v75h371q-12 199 -145.5 313.5t-305.5 114.5q-115 0 -215 -56t-157 -159 l-74 41q63 125 185.5 193.5t265.5 68.5z" glyph-name="afii10095" horiz-adv-x="1163" unicode="э"/><glyph d="M1010 1085q219 0 382.5 -150.5t163.5 -402t-163.5 -402t-382.5 -150.5q-209 0 -369 137t-174 372h-238v-489h-94v1065h94v-490h238q14 236 174 373t369 137zM1010 68q184 0 317 124.5t133 340t-133 340t-317 124.5q-182 0 -315.5 -124.5t-133.5 -340t133.5 -340 t315.5 -124.5z" glyph-name="afii10096" horiz-adv-x="1638" unicode="ю"/><glyph d="M969 1065v-1065h-95v430h-301l-362 -430h-117l369 430q-172 0 -262 87t-90 230.5t90 230.5t262 87h506zM465 516h409v463h-409q-137 0 -198.5 -64.5t-61.5 -167t61.5 -167t198.5 -64.5z" glyph-name="afii10097" horiz-adv-x="1103" unicode="я"/><glyph d="M463 1454v-100h-94v100h94zM852 1454v-100h-96v100h96zM606 1085q104 0 198.5 -37.5t167 -108.5t111.5 -185.5t29 -253.5h-938q12 -203 142 -317.5t315 -114.5q229 0 350 153l55 -55q-74 -90 -183.5 -138t-231.5 -48q-223 0 -380 148t-157 407q0 254 154.5 402t367.5 148 zM606 997q-168 0 -293 -110.5t-137 -306.5h852q-6 193 -129 305t-293 112z" glyph-name="afii10071" horiz-adv-x="1196" unicode="ё"/><glyph d="M719 1516l-129 -316h-92l125 316h96zM858 1065v-86h-629v-979h-94v1065h723z" glyph-name="afii10100" horiz-adv-x="940" unicode="ѓ"/><glyph d="M631 68q117 0 217 56t156 159l75 -41q-66 -125 -187.5 -193.5t-264.5 -68.5q-217 0 -380 149.5t-163 400.5q0 254 162 404.5t381 150.5q143 0 265 -68.5t187 -193.5l-75 -41q-55 102 -155.5 158.5t-217.5 56.5q-170 0 -303 -114.5t-146 -313.5h371v-75h-371 q12 -197 144.5 -311.5t304.5 -114.5z" glyph-name="afii10101" horiz-adv-x="1163" unicode="є"/><glyph d="M135 1356v98h94v-98h-94zM135 0v1065h94v-1065h-94z" glyph-name="afii10103" horiz-adv-x="362" unicode="і"/><glyph d="M-59 1354v100h94v-100h-94zM328 1354v100h96v-100h-96zM135 0v1065h94v-1065h-94z" glyph-name="afii10104" horiz-adv-x="362" unicode="ї"/><glyph d="M834 1550h96v-188h-699v-1362h-96v1454h699v96z" glyph-name="afii10050" horiz-adv-x="1024" unicode="Ґ"/><glyph d="M764 1159h94v-180h-629v-979h-94v1065h629v94z" glyph-name="afii10098" horiz-adv-x="940" unicode="ґ"/><glyph d="M1044 1589h-92l-129 316h97zM506 0l-432 1454h100l379 -1274l408 1274h81l410 -1274l377 1274h102l-434 -1454h-80l-416 1280l-413 -1280h-82z" glyph-name="Wgrave" horiz-adv-x="2004" unicode="Ẁ"/><glyph d="M991 1200h-92l-129 316h96zM1735 1065h98l-408 -1065h-90l-387 948l-389 -948h-88l-408 1065h99l354 -936l383 936h96l383 -936z" glyph-name="wgrave" horiz-adv-x="1894" unicode="ẁ"/><glyph d="M973 1589l125 316h96l-129 -316h-92zM506 0l-432 1454h100l379 -1274l408 1274h81l410 -1274l377 1274h102l-434 -1454h-80l-416 1280l-413 -1280h-82z" glyph-name="Wacute" horiz-adv-x="2004" unicode="Ẃ"/><glyph d="M1139 1516l-129 -316h-92l124 316h97zM1735 1065h98l-408 -1065h-90l-387 948l-389 -948h-88l-408 1065h99l354 -936l383 936h96l383 -936z" glyph-name="wacute" horiz-adv-x="1894" unicode="ẃ"/><glyph d="M762 1743v100h94v-100h-94zM1149 1743v100h96v-100h-96zM506 0l-432 1454h100l379 -1274l408 1274h81l410 -1274l377 1274h102l-434 -1454h-80l-416 1280l-413 -1280h-82z" glyph-name="Wdieresis" horiz-adv-x="2004" unicode="Ẅ"/><glyph d="M801 1454v-100h-94v100h94zM1190 1454v-100h-96v100h96zM1735 1065h98l-408 -1065h-90l-387 948l-389 -948h-88l-408 1065h99l354 -936l383 936h96l383 -936z" glyph-name="wdieresis" horiz-adv-x="1894" unicode="ẅ"/><glyph d="M674 1589h-92l-129 316h96zM584 0v662l-510 792h110l449 -700l446 700h113l-512 -792v-662h-96z" glyph-name="Ygrave" horiz-adv-x="1265" unicode="Ỳ"/><glyph d="M600 1200h-92l-129 316h96zM961 1065h100l-457 -1065l-172 -389h-94l178 399l-453 1055h101l397 -938z" glyph-name="ygrave" horiz-adv-x="1124" unicode="ỳ"/><glyph d="M92 541v75h1045v-75h-1045z" glyph-name="endash" horiz-adv-x="1228" unicode="–"/><glyph d="M92 541v75h1168v-75h-1168z" glyph-name="emdash" horiz-adv-x="1351" unicode="—"/><glyph d="M295 1454l-141 -403h-93l146 403h88z" glyph-name="quoteleft" horiz-adv-x="356" unicode="‘"/><glyph d="M61 1051l144 403h90l-143 -403h-91z" glyph-name="quoteright" horiz-adv-x="356" unicode="’"/><glyph d="M61 -289l144 404h90l-143 -404h-91z" glyph-name="quotesinglbase" horiz-adv-x="366" unicode="‚"/><glyph d="M295 1454l-141 -403h-93l146 403h88zM512 1454l-141 -403h-92l143 403h90z" glyph-name="quotedblleft" horiz-adv-x="573" unicode="“"/><glyph d="M61 1051l144 403h90l-143 -403h-91zM279 1051l141 403h92l-143 -403h-90z" glyph-name="quotedblright" horiz-adv-x="573" unicode="”"/><glyph d="M61 -289l144 404h90l-143 -404h-91zM279 -289l141 404h92l-143 -404h-90z" glyph-name="quotedblbase" horiz-adv-x="583" unicode="„"/><glyph d="M506 1161v-74h-162l-14 -428h-47l-17 428h-162v74h160l-10 293h102l-10 -293h160z" glyph-name="dagger" horiz-adv-x="608" unicode="†"/><glyph d="M344 1161h162v-74h-164l-12 -301h-47l-13 301h-166v74h162l-12 293h102zM330 668l12 -301h164v-74h-162l12 -293h-102l12 293h-162v74h166l13 301h47z" glyph-name="daggerdbl" horiz-adv-x="608" unicode="‡"/><glyph d="M176 504q-29 0 -46 17.5t-17 44t17 45t46 18.5t45.5 -18.5t16.5 -45t-16.5 -44t-45.5 -17.5z" glyph-name="bullet" horiz-adv-x="329" unicode="•"/><glyph d="M145.5 -20q-28.5 0 -46 17t-17.5 44t17.5 45t46 18t45 -18t16.5 -45t-16.5 -44t-45 -17zM651.5 -20q-28.5 0 -46 17t-17.5 44t17.5 45t46 18t45 -18t16.5 -45t-16.5 -44t-45 -17zM1157 -20q-29 0 -46 17t-17 44t17 45t46 18t45.5 -18t16.5 -45t-16.5 -44t-45.5 -17z" glyph-name="ellipsis" horiz-adv-x="1300" unicode="…"/><glyph d="M325.5 961q-104.5 0 -179 73.5t-74.5 178t74.5 178t179 73.5t179.5 -73.5t75 -178t-75 -178t-179.5 -73.5zM285 0l-74 51l932 1405l71 -51zM325.5 1038q75.5 0 126 48.5t50.5 126t-50.5 125.5t-126 48t-125.5 -48t-50 -125.5t50 -126t125.5 -48.5zM1103.5 -10 q-104.5 0 -179 73.5t-74.5 178t74.5 178.5t179 74t179.5 -74t75 -178.5t-75 -178t-179.5 -73.5zM1722.5 -10q-104.5 0 -179.5 73.5t-75 178t75 178.5t179.5 74t179 -74t74.5 -178.5t-74.5 -178t-179 -73.5zM1104 68q74 0 124 48t50 125.5t-50 126t-124 48.5t-124 -48.5 t-50 -126t50 -125.5t124 -48zM1722.5 68q73.5 0 123.5 48t50 125.5t-50 126t-123.5 48.5t-124 -48.5t-50.5 -126t50.5 -125.5t124 -48z" glyph-name="perthousand" horiz-adv-x="2048" unicode="‰"/><glyph d="M379 276l-297 295v64l297 295l39 -41l-264 -287l264 -285z" glyph-name="guilsinglleft" horiz-adv-x="468" unicode="‹"/><glyph d="M90 276l-39 41l264 285l-264 287l39 41l297 -295v-64z" glyph-name="guilsinglright" horiz-adv-x="468" unicode="›"/><glyph d="M-389 0l893 1434h86l-881 -1434h-98z" glyph-name="fraction" horiz-adv-x="221" unicode="⁄"/><glyph d="M895 74q305 0 477 225l70 -57q-201 -262 -549 -262q-272 0 -475 167.5t-248 440.5h-139v74h129q-2 20 -2 65v18h-127v74h131q33 291 238.5 473.5t490.5 182.5q350 0 551 -263l-70 -57q-172 225 -477 225q-248 0 -425 -154.5t-208 -406.5h453v-74h-459v-18q0 -45 2 -65 h457v-74h-447q45 -231 219.5 -372.5t407.5 -141.5z" glyph-name="Euro" horiz-adv-x="1536" unicode="€"/><glyph d="M274 1085v310h-141v59h350v-59h-141v-310h-68zM551 1085v369h65l148 -289l151 289h66v-369h-66v246l-122 -246h-54l-123 246v-246h-65z" glyph-name="trademark" horiz-adv-x="1114" unicode="™"/><glyph d="M129 901v453l-35 -23l-37 64l72 41h76v-535h-76zM51 0l893 1434h86l-880 -1434h-99zM899 -4q-76 0 -131 46t-55 116q0 92 88 135q-61 39 -62 108q0 53 44 95.5t116 42.5q74 0 118 -41t44 -97q0 -70 -62 -108q88 -43 88 -135q0 -70 -55 -116t-133 -46zM899 322 q35 0 59.5 23.5t24.5 55.5q0 74 -84 74q-41 0 -62.5 -21.5t-21.5 -52t25.5 -55t58.5 -24.5zM899 59q49 0 80 27t31 72t-31 72.5t-80 27.5q-45 0 -78 -28.5t-33 -71.5q0 -41 33 -70t78 -29z" glyph-name="oneeighth" horiz-adv-x="1138" unicode="⅛"/><glyph d="M238 893q-82 0 -136.5 55.5t-50.5 130.5h78q0 -49 29.5 -85t79.5 -36q45 0 77.5 28t32.5 71q0 98 -151 98v59q129 0 129 86q0 33 -26 54.5t-62 21.5q-45 0 -71 -29.5t-26 -82.5h-75q-2 78 47 127t125 49q66 0 114.5 -42t48.5 -98q0 -66 -61 -108q86 -37 86 -135 q0 -70 -56 -117t-132 -47zM92 0l893 1434h86l-881 -1434h-98zM936 -4q-76 0 -131 46t-55 116q0 92 88 135q-61 39 -62 108q0 53 44 95.5t116 42.5q74 0 118 -41t44 -97q0 -70 -62 -108q88 -43 88 -135q0 -70 -55 -116t-133 -46zM936 322q35 0 59.5 23.5t24.5 55.5 q0 74 -84 74q-41 0 -62.5 -21.5t-21.5 -52t25.5 -55t58.5 -24.5zM936 59q49 0 80 27t31 72t-31 72.5t-80 27.5q-45 0 -78 -28.5t-33 -71.5q0 -41 33 -70t78 -29z" glyph-name="threeeighths" horiz-adv-x="1175" unicode="⅜"/><glyph d="M236 893q-68 0 -120.5 38t-64.5 89l68 39q4 -41 35.5 -71t81.5 -30q47 0 81.5 36t34.5 89q0 51 -33.5 87t-74.5 36q-72 0 -117 -59l-66 16l37 273h283v-66h-213l-16 -119q45 20 92 21q72 0 129 -54.5t57 -134t-57 -135t-137 -55.5zM92 0l893 1434h86l-881 -1434h-98z M940 -4q-76 0 -131 46t-55 116q0 92 88 135q-61 39 -62 108q0 53 44 95.5t116 42.5q74 0 118 -41t44 -97q0 -70 -62 -108q88 -43 88 -135q0 -70 -55 -116t-133 -46zM940 322q35 0 59.5 23.5t24.5 55.5q0 74 -84 74q-41 0 -62.5 -21.5t-21.5 -52t25.5 -55t58.5 -24.5zM940 59 q49 0 80 27t31 72t-31 72.5t-80 27.5q-45 0 -78 -28.5t-33 -71.5q0 -41 33 -70t78 -29z" glyph-name="fiveeighths" horiz-adv-x="1179" unicode="⅝"/><glyph d="M121 901l182 469h-248v66h355l-209 -535h-80zM51 0l893 1434h86l-880 -1434h-99zM899 -4q-76 0 -131 46t-55 116q0 92 88 135q-61 39 -62 108q0 53 44 95.5t116 42.5q74 0 118 -41t44 -97q0 -70 -62 -108q88 -43 88 -135q0 -70 -55 -116t-133 -46zM899 322 q35 0 59.5 23.5t24.5 55.5q0 74 -84 74q-41 0 -62.5 -21.5t-21.5 -52t25.5 -55t58.5 -24.5zM899 59q49 0 80 27t31 72t-31 72.5t-80 27.5q-45 0 -78 -28.5t-33 -71.5q0 -41 33 -70t78 -29z" glyph-name="seveneighths" horiz-adv-x="1138" unicode="⅞"/><glyph d="M805 952q2 -4 40 -57t51 -73.5t45 -77t45 -95.5t26.5 -96t13.5 -113q0 -205 -132 -332.5t-328.5 -127.5t-329 126.5t-132.5 327.5q0 197 130.5 320t322.5 123q137 0 254 -84l-471 661h106zM565.5 70q153.5 0 260 98t106.5 262t-107.5 261t-259.5 97q-154 0 -261 -97 t-107 -261t107.5 -262t261 -98z" glyph-name="partialdiff" horiz-adv-x="1128" unicode="∂"/><glyph d="M92 -389v1823h1137v-1823h-86v1726h-965v-1726h-86z" glyph-name="product" horiz-adv-x="1320" unicode="∏"/><glyph d="M92 -389l563 911l-563 912h1141v-101h-963l502 -811l-502 -811h963v-100h-1141z" glyph-name="summation" horiz-adv-x="1325" unicode="∑"/><glyph d="M92 541v75h686v-75h-686z" glyph-name="minus" horiz-adv-x="870" unicode="−"/><glyph d="M637 -389l-330 971h-215v94h283l305 -922l467 1680h92l-506 -1823h-96z" glyph-name="radical" horiz-adv-x="1331" unicode="√"/><glyph d="M1225 868q137 0 234 -96t97 -235q0 -143 -96 -240.5t-235 -97.5q-201 0 -389 260q-188 -260 -387 -260q-139 0 -236.5 96t-97.5 242q0 141 97 236t237 95q199 0 387 -256q188 256 389 256zM453 289q164 0 327 248q-162 242 -327 241q-104 0 -173 -69.5t-69 -171.5 q0 -104 69 -176t173 -72zM1219 289q104 0 172.5 71.5t68.5 176.5q0 102 -68.5 171.5t-172.5 69.5q-166 0 -328 -241q164 -248 328 -248z" glyph-name="infinity" horiz-adv-x="1671" unicode="∞"/><glyph d="M-125 -389v86q106 0 152.5 48t46.5 179v1194q0 184 71.5 250t221.5 66v-86q-106 0 -151.5 -48.5t-45.5 -179.5v-1194q0 -184 -71.5 -249.5t-223.5 -65.5z" glyph-name="integral" horiz-adv-x="468" unicode="∫"/><glyph d="M530 614q-55 0 -99 35t-83 70t-82 35q-45 0 -68.5 -29t-23.5 -72h-82q0 88 48 134.5t122 46.5q55 0 99.5 -35t83 -70t81.5 -35q45 0 68.5 28t23.5 71h82q0 -88 -48 -133.5t-122 -45.5zM530 287q-55 0 -99 34.5t-83 69.5t-82 35q-45 0 -68.5 -27.5t-23.5 -70.5h-82 q0 88 48 133t122 45q55 0 99.5 -35t83 -69.5t81.5 -34.5q45 0 68.5 28.5t23.5 71.5h82q0 -88 -48 -134t-122 -46z" glyph-name="approxequal" horiz-adv-x="792" unicode="≈"/><glyph d="M778 702h-252l-96 -249h348v-76h-377l-147 -377h-84l147 377h-225v76h254l96 249h-350v78h381l143 369h84l-143 -369h221v-78z" glyph-name="notequal" horiz-adv-x="870" unicode="≠"/><glyph d="M795 322l-703 411v70l703 411v-88l-615 -358l615 -356v-90zM92 78h703v-78h-703v78z" glyph-name="lessequal" horiz-adv-x="888" unicode="≤"/><glyph d="M92 322v90l615 356l-615 358v88l703 -411v-70zM795 78v-78h-703v78h703z" glyph-name="greaterequal" horiz-adv-x="886" unicode="≥"/><glyph d="M528 1434l318 -717l-318 -717h-118l-318 717l318 717h118zM469 92l276 625l-276 624l-276 -624z" glyph-name="lozenge" horiz-adv-x="937" unicode="◊"/><glyph d="M113 0l120 1454h109l567 -1329l566 1329h108l121 -1454h-100l-101 1282l-551 -1282h-88l-547 1282l-104 -1282h-100z" glyph-name="M.aalt" horiz-adv-x="1816"/><glyph d="M133 1354v100h94v-100h-94zM143 0v1065h95v-1065h-95z" glyph-name="i.locl" horiz-adv-x="370"/><glyph d="M172 1339q-29 0 -49.5 19.5t-20.5 50.5q0 27 20.5 46.5t49.5 19.5t47.5 -18.5t18.5 -47.5q0 -31 -18.5 -50.5t-47.5 -19.5zM123 0v1065h94v-1065h-94z" glyph-name="i.salt" horiz-adv-x="342"/><glyph d="M174 1339q-31 0 -50.5 19.5t-19.5 50.5q0 29 19.5 47.5t50.5 18.5q27 0 46.5 -18.5t19.5 -47.5q0 -31 -18.5 -50.5t-47.5 -19.5zM-195 -395v88h37q137 0 210 64.5t73 234.5v1073h94v-1075q0 -217 -99.5 -301t-281.5 -84h-33z" glyph-name="j.aalt" horiz-adv-x="344"/><glyph d="M1042 983h-202v-803q0 -106 102 -106q47 0 96 22v-80q-47 -29 -112 -28q-84 0 -133.5 43t-49.5 127v825h-473v-983h-94v983h-113v82h113v152q0 150 76 213t178 63q84 0 150 -41v-80q-59 35 -140 35q-170 0 -170 -201v-141h473v272h97v-272h202v-82z" glyph-name="f_t.dlig" horiz-adv-x="1136"/><glyph d="M1083 983h-202v-803q0 -106 102 -106q47 0 96 22v-80q-47 -29 -112 -28q-84 0 -132.5 43t-48.5 127v825h-14v-2h-391v2h-70v-803q0 -106 105 -106q47 0 96 22v-80q-47 -29 -113 -28q-182 0 -182 170v825h-133v82h133v272h94v-272h475v272h95v-272h202v-82z" glyph-name="t_t.dlig" horiz-adv-x="1177"/><glyph d="M663.5 -20q-245.5 0 -397 200.5t-151.5 546.5t151.5 547t397 201t397 -201t151.5 -547t-151.5 -546.5t-397 -200.5zM663.5 70q202.5 0 327.5 174t125 483t-125 484t-327.5 175t-327.5 -175t-125 -484t125 -483t327.5 -174z" glyph-name="zero.salt" horiz-adv-x="1327"/><glyph d="M739 -20q-248 0 -399.5 200.5t-151.5 546.5t152 547t399 201q246 0 397.5 -201t151.5 -547t-151.5 -546.5t-397.5 -200.5zM739 70q203 0 328 174t125 483t-125 484t-328 175q-205 0 -329.5 -175t-124.5 -484t124.5 -483t329.5 -174z" glyph-name="zero.tnum" horiz-adv-x="1433"/><glyph d="M684 0v1362h-184v92h278v-1454h-94z" glyph-name="one.tnum" horiz-adv-x="1433"/><glyph d="M272 0l482 586q18 23 63 76t61.5 74.5t49.5 65.5t46 70.5t30.5 64.5t23.5 74t6 74q0 135 -86 217t-231 82q-150 0 -245 -88t-95 -249v-35h-94v43q0 188 121.5 304t312.5 116q188 0 299.5 -107.5t111.5 -273.5q0 -45 -7 -88t-26.5 -86t-32.5 -72t-46 -73t-45.5 -60.5 t-51 -61.5t-45.5 -53l-428 -514h689v-86h-863z" glyph-name="two.tnum" horiz-adv-x="1433"/><glyph d="M711 -20q-170 0 -292 86t-167 223l76 39q41 -117 142 -188.5t243 -71.5q164 0 275.5 97t111.5 273q0 201 -143.5 302.5t-342.5 56.5l375 571h-651v86h803l-383 -573q174 2 306 -117t132 -324q0 -209 -140 -334.5t-345 -125.5z" glyph-name="three.tnum" horiz-adv-x="1433"/><glyph d="M1163 494v-88h-153v-406h-97v406h-643v88l643 960h97v-960h153zM371 494h542v815z" glyph-name="four.tnum" horiz-adv-x="1433"/><glyph d="M692 -20q-166 0 -286.5 82.5t-174.5 209.5l78 43q39 -102 143.5 -174.5t241.5 -72.5q172 0 289 112.5t117 292.5q0 178 -114 293t-284 115q-225 0 -348 -179l-82 27l99 725h678v-86h-603l-79 -551q129 147 344 148q203 0 342 -136.5t139 -355.5q0 -217 -142.5 -355 t-357.5 -138z" glyph-name="five.tnum" horiz-adv-x="1433"/><glyph d="M750 877q193 0 322.5 -123t129.5 -320q0 -201 -132 -327.5t-328.5 -126.5t-328.5 128t-132 332q0 41 7 84t16 77t27.5 75t31 65.5t37 63.5t34.5 54t37 51t31 42l356 502h109l-469 -661q113 84 252 84zM741 70q152 0 260.5 98t108.5 262q0 162 -108.5 260t-260.5 98 q-154 0 -261 -97t-107 -261t107 -262t261 -98z" glyph-name="six.tnum" horiz-adv-x="1433"/><glyph d="M475 0l524 1368h-696v86h823l-553 -1454h-98z" glyph-name="seven.tnum" horiz-adv-x="1433"/><glyph d="M735 -20q-188 0 -321 118.5t-133 309.5q0 137 73.5 238.5t194.5 152.5q-90 53 -137 137t-47 182q0 147 102 252t268 105q164 0 266.5 -104.5t102.5 -252.5q0 -98 -47 -182t-137 -137q123 -51 195.5 -152.5t72.5 -238.5q0 -188 -133.5 -308t-319.5 -120zM735 834 q117 0 199 80.5t82 199.5q0 111 -77 191.5t-204 80.5q-129 0 -204.5 -79.5t-75.5 -192.5q0 -119 81.5 -199.5t198.5 -80.5zM735.5 70q147.5 0 251 93t103.5 245q0 150 -101.5 245t-253 95t-253 -95.5t-101.5 -245t103.5 -243.5t251 -94z" glyph-name="eight.tnum" horiz-adv-x="1433"/><glyph d="M723 1475q197 0 329 -128t132 -333q0 -41 -7.5 -84t-16.5 -77t-27.5 -75t-30.5 -65.5t-37 -63.5t-35 -54t-36.5 -51t-30.5 -42l-357 -502h-108l469 662q-113 -84 -252 -84q-193 0 -323 122.5t-130 319.5q0 201 132 328t329 127zM354 1024q0 -162 108.5 -260t260.5 -98 q154 0 261.5 97t107.5 261t-107.5 262t-261.5 98q-152 0 -260.5 -98t-108.5 -262z" glyph-name="nine.tnum" horiz-adv-x="1433"/><glyph d="M266 -4q-92 0 -153.5 71.5t-61.5 186.5v27q0 115 61.5 186.5t153.5 71.5q96 0 155.5 -72t59.5 -186v-27q0 -115 -59.5 -186.5t-155.5 -71.5zM266 59q63 0 101.5 51.5t38.5 143.5v27q0 92 -38 143t-102 51q-59 0 -99 -52t-40 -142v-27q0 -90 40 -142.5t99 -52.5z" glyph-name="zero.dnom" horiz-adv-x="532"/><glyph d="M123 0v453l-35 -23l-37 64l72 41h76v-535h-76z" glyph-name="one.dnom" horiz-adv-x="249"/><glyph d="M57 0v66l140 141q57 59 74.5 78.5t31.5 46t14 55.5q0 37 -28.5 63.5t-65.5 26.5q-39 0 -67.5 -26.5t-28.5 -75.5v-29h-76v29q0 72 50.5 119t121.5 47q70 0 121 -46t51 -108q0 -53 -29.5 -96t-109.5 -125l-96 -100h241v-66h-344z" glyph-name="two.dnom" horiz-adv-x="452"/><glyph d="M238 -8q-82 0 -136.5 55t-50.5 131h78q0 -49 29.5 -85t79.5 -36q45 0 77.5 28t32.5 71q0 98 -151 98v59q129 0 129 86q0 33 -26 54.5t-62 21.5q-45 0 -71 -29.5t-26 -83.5h-75q-2 78 47 127.5t125 49.5q66 0 114.5 -42t48.5 -98q0 -66 -61 -108q86 -37 86 -135 q0 -70 -56 -117t-132 -47z" glyph-name="three.dnom" horiz-adv-x="477"/><glyph d="M322 0v156h-271l271 379h75v-316h56v-63h-56v-156h-75zM188 219h134v195z" glyph-name="four.dnom" horiz-adv-x="503"/><glyph d="M236 -8q-68 0 -120.5 38t-64.5 89l68 39q4 -41 35.5 -71t81.5 -30q47 0 81.5 36t34.5 89q0 51 -33.5 87t-74.5 36q-72 0 -117 -59l-66 16l37 273h283v-66h-213l-16 -119q45 20 92 21q72 0 129 -54.5t57 -134.5t-57 -135t-137 -55z" glyph-name="five.dnom" horiz-adv-x="481"/><glyph d="M229.5 -8q-69.5 0 -124 51t-54.5 123q0 33 11.5 64.5t20.5 47t36.5 51.5t34.5 44l116 162h86l-139 -197h12q70 0 123.5 -51t53.5 -121q0 -72 -53.5 -123t-123 -51zM229 57q37 0 69 31t32 78t-31 76.5t-70 29.5q-45 0 -73.5 -28.5t-28.5 -77.5q0 -47 31.5 -78t70.5 -31z " glyph-name="six.dnom" horiz-adv-x="456"/><glyph d="M117 0l182 469h-248v66h355l-209 -535h-80z" glyph-name="seven.dnom" horiz-adv-x="456"/><glyph d="M238 -4q-76 0 -131.5 46t-55.5 116q0 92 88 135q-61 39 -61 108q0 53 44 95.5t116 42.5q74 0 117.5 -41t43.5 -97q0 -70 -61 -108q88 -43 88 -135q0 -70 -55 -116t-133 -46zM238 322q37 0 60.5 23.5t23.5 55.5q0 74 -84 74q-41 0 -62.5 -21.5t-21.5 -52t25.5 -55 t58.5 -24.5zM238 59q49 0 79.5 27t30.5 72t-30.5 72.5t-79.5 27.5q-45 0 -78 -28.5t-33 -71.5q0 -41 33 -70t78 -29z" glyph-name="eight.dnom" horiz-adv-x="477"/><glyph d="M100 0l140 195h-11q-72 0 -125 52t-53 122q0 72 54.5 122t124 50t124 -50.5t54.5 -121.5q0 -27 -5.5 -49.5t-18.5 -46t-21.5 -37t-30 -40t-29.5 -36.5l-115 -160h-88zM229 260q45 0 73 29.5t28 79.5q0 45 -32 75.5t-69 30.5q-39 0 -70.5 -30.5t-31.5 -75.5 q0 -47 31.5 -78t70.5 -31z" glyph-name="nine.dnom" horiz-adv-x="458"/><glyph d="M266 897q-92 0 -153.5 71.5t-61.5 186.5v27q0 115 61.5 186.5t153.5 71.5q96 0 155.5 -72t59.5 -186v-27q0 -115 -59.5 -186.5t-155.5 -71.5zM266 961q63 0 101.5 51t38.5 143v27q0 92 -38 143t-102 51q-59 0 -99 -52t-40 -142v-27q0 -90 40 -142t99 -52z" glyph-name="zero.numr" horiz-adv-x="532"/><glyph d="M123 901v453l-35 -23l-37 64l72 41h76v-535h-76z" glyph-name="one.numr" horiz-adv-x="249"/><glyph d="M57 901v66l140 141q57 59 74.5 78.5t31.5 46.5t14 55q0 37 -28.5 63.5t-65.5 26.5q-39 0 -67.5 -26.5t-28.5 -75.5v-29h-76v29q0 72 50.5 119t121.5 47q70 0 121 -46t51 -108q0 -53 -29.5 -96t-109.5 -125l-96 -100h241v-66h-344z" glyph-name="two.numr" horiz-adv-x="452"/><glyph d="M238 893q-82 0 -136.5 55.5t-50.5 130.5h78q0 -49 29.5 -85t79.5 -36q45 0 77.5 28t32.5 71q0 98 -151 98v59q129 0 129 86q0 33 -26 54.5t-62 21.5q-45 0 -71 -29.5t-26 -82.5h-75q-2 78 47 127t125 49q66 0 114.5 -42t48.5 -98q0 -66 -61 -108q86 -37 86 -135 q0 -70 -56 -117t-132 -47z" glyph-name="three.numr" horiz-adv-x="477"/><glyph d="M322 901v156h-271l271 379h75v-316h56v-63h-56v-156h-75zM188 1120h134v195z" glyph-name="four.numr" horiz-adv-x="503"/><glyph d="M236 893q-68 0 -120.5 38t-64.5 89l68 39q4 -41 35.5 -71t81.5 -30q47 0 81.5 36t34.5 89q0 51 -33.5 87t-74.5 36q-72 0 -117 -59l-66 16l37 273h283v-66h-213l-16 -119q45 20 92 21q72 0 129 -54.5t57 -134t-57 -135t-137 -55.5z" glyph-name="five.numr" horiz-adv-x="481"/><glyph d="M229.5 893q-69.5 0 -124 51t-54.5 123q0 33 11.5 64.5t20.5 47t36.5 51.5t34.5 44l116 162h86l-139 -197h12q70 0 123.5 -51t53.5 -121q0 -72 -53.5 -123t-123 -51zM229 958q37 0 69 31t32 78t-31 77t-70 30q-45 0 -73.5 -29t-28.5 -78q0 -47 31.5 -78t70.5 -31z" glyph-name="six.numr" horiz-adv-x="456"/><glyph d="M117 901l182 469h-248v66h355l-209 -535h-80z" glyph-name="seven.numr" horiz-adv-x="456"/><glyph d="M238 897q-76 0 -131.5 46t-55.5 116q0 92 88 135q-61 39 -61 109q0 53 44 95t116 42q74 0 117.5 -41t43.5 -96q0 -70 -61 -109q88 -43 88 -135q0 -70 -55 -116t-133 -46zM238 1223q37 0 60.5 23.5t23.5 56.5q0 74 -84 73q-41 0 -62.5 -21.5t-21.5 -52t25.5 -55 t58.5 -24.5zM238 961q49 0 79.5 26.5t30.5 71.5t-30.5 72.5t-79.5 27.5q-45 0 -78 -28.5t-33 -71.5q0 -41 33 -69.5t78 -28.5z" glyph-name="eight.numr" horiz-adv-x="477"/><glyph d="M100 901l140 195h-11q-72 0 -125 52t-53 122q0 72 54.5 122t124 50t124 -50.5t54.5 -121.5q0 -27 -5.5 -49.5t-18.5 -46t-21.5 -37t-30 -40t-29.5 -36.5l-115 -160h-88zM229 1161q45 0 73 30t28 79q0 45 -32 75.5t-69 30.5q-39 0 -70.5 -30.5t-31.5 -75.5q0 -47 31.5 -78 t70.5 -31z" glyph-name="nine.numr" horiz-adv-x="458"/></font>
</defs>
</svg>
