<?xml version="1.0" encoding="UTF-8" standalone="no"?>
<svg
   xmlns:dc="http://purl.org/dc/elements/1.1/"
   xmlns:cc="http://creativecommons.org/ns#"
   xmlns:rdf="http://www.w3.org/1999/02/22-rdf-syntax-ns#"
   xmlns:svg="http://www.w3.org/2000/svg"
   xmlns="http://www.w3.org/2000/svg"
   id="svg8244"
   version="1.1"
   viewBox="0 0 513.24243 158.41342"
   height="158.41342mm"
   width="513.24243mm">
  <defs
     id="defs8238" />
  <metadata
     id="metadata8241">
    <rdf:RDF>
      <cc:Work
         rdf:about="">
        <dc:format>image/svg+xml</dc:format>
        <dc:type
           rdf:resource="http://purl.org/dc/dcmitype/StillImage" />
        <dc:title></dc:title>
      </cc:Work>
    </rdf:RDF>
  </metadata>
  <g
     transform="translate(384.80562,-29.561147)"
     id="layer1">
    <rect
       ry="0"
       y="161.65964"
       x="-374.27551"
       height="26.314932"
       width="363.92947"
       id="rect5888-3-1-2"
       style="fill:#000000;fill-opacity:1;stroke:none;stroke-width:1.23220789" />
    <path
       id="rect1655"
       d="m -10.620743,56.578968 c -26.33345,0 -46.92756,21.323776 -46.94687,47.528882 -0.0185,26.17173 20.61342,47.49548 46.94687,47.49548 19.25479,0 19.25479,-8.2256 19.25479,-8.2256 v 8.22412 c 0,8.60857 -13.1191001,10.05779 -19.25241,10.05779 v 26.31493 c 31.44837,-2e-5 46.96883,-20.99714 47.03498,-36.33218 L 36.307077,56.578942 H 8.632717 v 4.85812 c 0,0 0,-4.858094 -19.25346,-4.858094 z m 0,27.017821 c 12.3637099,0 19.25479,8.130435 19.25479,20.494331 0,12.3639 -6.8910801,20.49442 -19.25479,20.49442 -12.36398,0 -19.25452,-8.13052 -19.25452,-20.49442 0,-12.363896 6.89054,-20.494331 19.25452,-20.494331 z"
       style="fill:#000000;fill-opacity:1;stroke:none;stroke-width:0.26458332" />
    <path
       id="rect1604"
       d="m -146.54255,56.578942 27.67303,7.9e-5 V 104.0911 c 0,12.3639 5.30165,20.49441 17.66563,20.49441 12.363718,0 17.66556,-8.13051 17.66556,-20.49449 V 56.578942 l 27.6733,2.6e-5 v 47.512172 c 0,25.60373 -19.150662,47.51217 -45.33913,47.49325 -26.18819,-0.0191 -45.33839,-21.88952 -45.33839,-47.49325 z"
       style="fill:#000000;fill-opacity:1;stroke:none;stroke-width:0.26458332" />
    <path
       id="rect1435-3"
       d="M -190.60805,56.579021 V 29.561147 h 27.6733 v 27.017874 l 17.08679,-5.3e-5 v 27.017795 l -17.08679,2.6e-5 v 34.322441 c 0,3.6536 3.01254,6.66631 6.69634,6.66631 l 10.36928,-3e-5 0.0212,27.0178 h -24.91822 c -11.5914,0 -19.84164,-8.24945 -19.84164,-19.84179 l -0.005,-48.164704 -10.52539,-5.3e-5 V 56.578942 Z"
       style="fill:#000000;fill-opacity:1;stroke:none;stroke-width:0.26613498" />
    <path
       id="rect1539"
       d="m -223.29459,56.579021 22.55732,-5.3e-5 v 27.017795 l -8.02773,5.3e-5 c -3.65363,0 -6.66617,3.012572 -6.66617,6.66623 v 61.340314 l -27.6733,-3e-5 V 76.420813 c 0,-11.591528 8.25764,-19.830097 19.80988,-19.841792 z"
       style="fill:#000000;fill-opacity:1;stroke:none;stroke-width:0.26458332" />
    <path
       id="path5666-48-3-8-1"
       d="m -288.71812,56.579021 c -26.33345,-7.9e-5 -46.92941,21.323697 -46.92941,47.512079 0,26.18851 20.59596,47.51221 46.92941,47.51221 26.33345,0 46.92914,-21.3237 46.92914,-47.51221 0,-26.188382 -20.59569,-47.512158 -46.92914,-47.512079 z m 0,27.017795 c 12.36398,-5.3e-5 19.25584,8.130381 19.25584,20.494284 0,12.3639 -6.89186,20.49441 -19.25584,20.49441 -12.36398,0 -19.25585,-8.13051 -19.25585,-20.49441 0,-12.363903 6.89187,-20.494337 19.25585,-20.494284 z"
       clip-path="none"
       style="fill:#000000;fill-opacity:1;stroke:none;stroke-width:0.26703936" />
    <text
       id="text7520-0-4"
       y="181.52246"
       x="-363.36011"
       style="font-style:normal;font-variant:normal;font-weight:bold;font-stretch:normal;font-size:23.02903938px;line-height:1.25;font-family:sans-serif;-inkscape-font-specification:'sans-serif, Bold';font-variant-ligatures:normal;font-variant-caps:normal;font-variant-numeric:normal;font-feature-settings:normal;text-align:start;letter-spacing:5.75725985px;word-spacing:0px;writing-mode:lr-tb;text-anchor:start;fill:#ffffff;fill-opacity:1;stroke:none;stroke-width:0.28786299"
       xml:space="preserve"><tspan
         style="stroke-width:0.28786299"
         y="181.52246"
         x="-363.36011"
         id="tspan7518-1-5">webdesign</tspan></text>
    <path
       id="rect1435"
       d="M -374.27552,56.579021 V 29.561147 h 27.6733 v 27.017874 l 17.10796,-5.3e-5 v 27.017795 l -17.10796,2.6e-5 v 34.322441 c 0,3.6536 3.01254,6.66631 6.69634,6.66631 l 10.39045,-3e-5 0.0212,27.0178 h -30.11541 c -11.59139,0 -14.66559,-8.24945 -14.66559,-19.84179 l -0.005,-48.164704 -10.52539,-5.3e-5 V 56.578942 Z"
       style="fill:#000000;fill-opacity:1;stroke:none;stroke-width:0.26613498" />
    <path
       id="rect1363"
       d="m 81.317933,56.578968 c -26.333709,0 -46.739439,21.323776 -46.739439,47.512152 0,26.18846 20.40573,47.51221 46.739439,47.51221 19.445557,0 19.445557,-4.85804 19.445557,-4.85804 v 4.85783 l 27.6733,1.4e-4 V 56.578968 l -27.6733,-2.6e-5 v 4.858067 c 0,0 0,-4.858041 -19.445557,-4.858041 z m 0,27.017821 c 12.363717,0 19.445557,8.130435 19.445557,20.494331 0,12.3639 -7.08184,20.49442 -19.445557,20.49442 -12.363979,0 -19.066139,-8.13052 -19.066139,-20.49442 0,-12.363896 6.70216,-20.494331 19.066139,-20.494331 z"
       style="fill:#000000;fill-opacity:1;stroke:none;stroke-width:0.26458332" />
  </g>
</svg>
