<?xml version="1.0" encoding="UTF-8"?>
<!-- Created with Inkscape (http://www.inkscape.org/) -->
<svg width="72.815mm" height="25.797mm" version="1.1" viewBox="0 0 72.815 25.797" xmlns="http://www.w3.org/2000/svg" xmlns:cc="http://creativecommons.org/ns#" xmlns:dc="http://purl.org/dc/elements/1.1/" xmlns:rdf="http://www.w3.org/1999/02/22-rdf-syntax-ns#">
 <metadata>
  <rdf:RDF>
   <cc:Work rdf:about="">
    <dc:format>image/svg+xml</dc:format>
    <dc:type rdf:resource="http://purl.org/dc/dcmitype/StillImage"/>
    <dc:title/>
   </cc:Work>
  </rdf:RDF>
 </metadata>
 <g transform="translate(51.099 -350.2)">
  <rect x=".97651" y="436.19" width="93.685" height="23.911" fill-opacity="0"/>
  <rect x="-73.819" y="350.69" width="93.685" height="23.911" fill-opacity="0"/>
  <g transform="matrix(.03213 0 0 .03213 -34.165 151.05)">
   <g stroke-width="1.3474">
    <circle cx="-923.77" cy="6599.9" r="344.94" fill="#e32249"/>
    <path d="m-780.73 6446.3c-51.833-58.112-95.496-86.387-133.47-86.387-37.998 0-65.351 26.156-65.351 52.151 0 83.029 48.767 91.987 69.749 91.987 5.7563 0 11.308-0.5875 16.423-1.5092l18.568 204.48c0.77074 8.2949 6.3491 15.35 14.234 17.98l47.392 15.792-13.593 190.13c28.76-8.4135 55.989-20.406 81.105-35.572 19.786-67.286 38.262-151.62 38.262-232.09 0-85.616-26.733-164.7-73.322-216.96z" fill="#ffd464"/>
    <path d="m-780.75 6446.3c-51.828-58.112-95.496-86.382-133.47-86.382-3.2392 0-6.3653 0.2534-9.4321 0.6036 35.766 4.1932 76.508 32.339 124.17 85.778 46.584 52.265 73.322 131.34 73.322 216.95 0 85.465-20.837 175.3-41.959 244.43 7.6211-3.8644 15.124-7.9337 22.405-12.332 19.786-67.291 38.262-151.62 38.262-232.1 0.0215-85.611-26.717-164.69-73.306-216.95z" fill="#f2c95f"/>
   </g>
   <g stroke-width="1.3474">
    <path d="m-734.03 6852.8c14.822-58.533 26.609-125.25 26.609-189.5 0-85.611-26.739-164.69-73.322-216.95-17.695-19.84-34.408-36.111-50.297-49.068l-16.196 42.186c19.231-1.0457 53.563 47.015 31.719 77.591-37.432 4.0532-48.362 59.697-31.719 92.456 16.627 32.759 122.18 105.54 113.21 243.29z" fill="#2a6dc6"/>
    <path d="m-795.34 6430.6c-3.5357-3.6812-7.039-7.2384-10.494-10.623-0.33955-0.3504-0.70606-0.7114-1.0456-1.0618-8.2409-8.0092-16.277-15.194-24.092-21.575-0.0269-0.022-0.0485-0.043-0.0755-0.07l-4.6621 12.138c11.631 10.58 23.693 22.847 36.252 36.931 46.584 52.264 73.322 131.34 73.322 216.95 0 41.431-4.9155 83.876-12.359 124.5 4.1447 19.877 6.0042 41.469 4.4735 65.017 1.7517-6.9151 3.4602-13.96 5.0987-21.079 0.2102-0.9324 0.42039-1.8756 0.64138-2.8081 1.59-6.9582 3.1368-13.981 4.6028-21.085 0.0215-0.1294 0.0647-0.2533 0.0862-0.3719 1.4606-7.0875 2.8242-14.267 4.1501-21.5 0.24793-1.3582 0.48508-2.7434 0.73301-4.1125 1.2342-6.9258 2.3823-13.9 3.4494-20.923 0.0539-0.3073 0.10244-0.5982 0.14013-0.9108 1.0618-7.1523 2.0104-14.364 2.8835-21.575 0.19403-1.6439 0.38267-3.277 0.57131-4.9209 0.78691-6.9905 1.5145-14.008 2.1074-21.004 0.0323-0.2964 0.0701-0.5659 0.097-0.8731 0.57669-7.1577 1.0133-14.326 1.3582-21.484 0.0862-1.7408 0.15091-3.4871 0.22098-5.2442 0.28566-7.2223 0.48508-14.434 0.48508-21.602 0-85.611-26.739-164.69-73.322-216.95-4.0477-4.5381-8.0254-8.8284-11.976-12.995-0.91626-0.9486-1.7786-1.8486-2.6464-2.7649z" fill="#2566c1"/>
    <path d="m-831.05 6397.3c-30.657-24.982-58.15-37.33-83.164-37.33-37.992 0-65.351 26.156-65.351 52.151 0 0.8946 0.0378 1.7139 0.0539 2.5924 30.598-16.784 83.913-35.357 148.46-17.414z" fill="#2a6dc6"/>
    <path d="m-923.59 6360.5h-0.0432c20.605 2.42 42.881 12.833 67.151 31.401 8.2517 1.1858 16.73 2.889 25.434 5.309-11.356-9.2597-22.287-16.751-32.808-22.567-0.30182-0.1615-0.59288-0.3233-0.8947-0.485-3.153-1.7086-6.2683-3.2554-9.3512-4.6621-0.318-0.1455-0.63061-0.3072-0.95938-0.4474-6.4947-2.8943-12.822-5.061-18.999-6.5863-0.77613-0.1887-1.5253-0.345-2.3014-0.512-2.2853-0.512-4.5436-0.9055-6.7857-1.2235-0.81386-0.113-1.6439-0.2479-2.4416-0.3341-2.9051-0.3289-5.7724-0.5336-8.6236-0.5336-1.8325 0-3.6111 0.113-5.3898 0.2318-1.3366 0.1293-2.6679 0.2586-3.9884 0.4042z" fill="#2566c1"/>
   </g>
   <path d="m-1187.7 6821.9c9.9225 11.787 20.578 22.944 31.972 33.303 104.85-37.335 294.57-85.584 508.62-49.257 9.0386-12.111 17.242-24.874 24.647-38.138-245.11-46.487-457.94 13.205-565.24 54.092z" fill="#99602e" stroke-width="1.3474"/>
   <path d="m-908.3 6439.4c-4.8616 0-9.7447-2.0805-13.297-5.4599-3.3794-3.5788-5.4329-8.4781-5.4329-13.377 0-4.8939 2.0535-9.7717 5.4329-13.367 6.9366-6.9688 19.651-6.9688 26.582 0 3.3686 3.595 5.4383 8.4728 5.4383 13.367 0 4.8993-2.0697 9.7986-5.4383 13.377-3.5572 3.3794-8.4296 5.4599-13.286 5.4599z" fill="#f5f5f5" stroke-width="1.3474"/>
   <g transform="matrix(1.3474 0 0 1.3474 -1268.7 6255)" fill="#1f2c3d">
    <path d="m267.48 132.23c-2.412 0-4.82-1.02-6.584-2.7-1.672-1.772-2.688-4.196-2.688-6.62 0-2.416 1.016-4.84 2.688-6.612 3.428-3.448 9.72-3.448 13.148 0 1.664 1.772 2.688 4.2 2.688 6.612 0 2.424-1.024 4.848-2.688 6.62-1.748 1.68-4.152 2.7-6.564 2.7z"/>
    <path d="m324.81 105.6c-21.144 55.584-46.948 62.188-79.56 51.96-33.772-10.584-27.288-54.3-19.204-65.48 0.048-0.036 0.084-0.084 0.128-0.128-7.92 3.74-18.036 9.544-28.568 18.348-10.708 8.916-16.94 20.688-18.036 34.04-2.416 29.4 15.784 59.584 35.016 65.476 13.056-0.756 17.86-24.724 20.416-33.02 10.896 9.02 22.836 9.804 30.508 9.804 4.268 0 9.388-0.572 13.168-1.252 20.072-13.644 33.62-25.272 46.132-79.748z"/>
   </g>
  </g>
  <path d="m-51.099 350.2h0.84012v25.794h-0.84012z" fill="#292929"/>
  <g transform="scale(1.0279 .97286)" fill="#292929" stroke-width=".30882" style="font-feature-settings:normal;font-variant-caps:normal;font-variant-ligatures:normal;font-variant-numeric:normal" aria-label="Tortuga Webdesign">
   <path d="m-40.881 359.97h-6.1934v1.0724h2.5202v8.4455h1.1529v-8.4455h2.5202z" style="font-feature-settings:normal;font-variant-caps:normal;font-variant-ligatures:normal;font-variant-numeric:normal"/>
   <path d="m-37.695 369.62c1.8098 0 3.6195-1.2869 3.6195-3.6195s-1.8098-3.6195-3.6195-3.6195-3.6195 1.2869-3.6195 3.6195 1.8098 3.6195 3.6195 3.6195zm0-1.0322c-1.2869 0-2.4934-0.93839-2.4934-2.5873s1.2065-2.5873 2.4934-2.5873c1.2869 0 2.4934 0.93839 2.4934 2.5873s-1.2065 2.5873-2.4934 2.5873z" style="font-feature-settings:normal;font-variant-caps:normal;font-variant-ligatures:normal;font-variant-numeric:normal"/>
   <path d="m-29.472 362.38c-1.2869 0-1.984 0.85796-2.2387 1.8634v-1.7293h-1.1261v6.9709h1.1261v-3.4988c0-1.555 0.9518-2.5336 2.2521-2.5336 0.16087 0 0.26811 0.0134 0.38876 0.0402v-1.059c-0.10724-0.0402-0.2413-0.0536-0.40217-0.0536z" style="font-feature-settings:normal;font-variant-caps:normal;font-variant-ligatures:normal;font-variant-numeric:normal"/>
   <path d="m-24.726 363.44v-0.92498h-1.3808v-1.7829h-1.1261v1.7829h-0.93839v0.92498h0.93839v4.6249c0 1.0456 0.63006 1.5014 1.555 1.5014 0.32173 0 0.69709-0.0536 0.93839-0.2413v-0.89817c-0.2547 0.0938-0.46919 0.12065-0.63006 0.12065-0.52282 0-0.73731-0.26812-0.73731-0.69709v-4.4104z" style="font-feature-settings:normal;font-variant-caps:normal;font-variant-ligatures:normal;font-variant-numeric:normal"/>
   <path d="m-18.357 362.52v3.9412c0 1.4076-0.87136 2.1315-1.984 2.1315s-1.9438-0.7239-1.9438-2.1315v-3.9412h-1.1261v4.1021c0 2.0913 1.2601 3.0028 2.7213 3.0028 1.2065 0 1.9706-0.60325 2.3326-1.2735v1.1395h1.1261v-6.9709z" style="font-feature-settings:normal;font-variant-caps:normal;font-variant-ligatures:normal;font-variant-numeric:normal"/>
   <path d="m-9.9231 362.52v1.3137h-0.067028c-0.32173-0.73731-1.3003-1.4478-2.5873-1.4478-1.6757 0-3.4184 1.2333-3.4184 3.6195s1.7427 3.6195 3.4184 3.6195c1.2869 0 2.2655-0.71049 2.5873-1.4478h0.067028v0.93839c0 1.5818-1.1931 2.1985-2.5605 2.1985-0.88477 0-1.555-0.25471-1.8768-0.46919v0.95179c0.33514 0.2413 1.1127 0.4826 2.051 0.4826 1.6087 0 3.5123-0.71049 3.5123-3.1771v-6.5821zm-2.4666 6.0727c-1.2333 0-2.48-0.85795-2.48-2.5873s1.2467-2.5873 2.48-2.5873c1.2467 0 2.5068 0.87136 2.5068 2.5873s-1.2601 2.5873-2.5068 2.5873z" style="font-feature-settings:normal;font-variant-caps:normal;font-variant-ligatures:normal;font-variant-numeric:normal"/>
   <path d="m-4.1204 369.62c1.3003 0 2.2789-0.71049 2.6141-1.4478h0.040217v1.3137h1.1261v-6.9709h-1.1261v1.3137h-0.040217c-0.33514-0.73731-1.3137-1.4478-2.6141-1.4478-1.6891 0-3.4184 1.2333-3.4184 3.6195s1.7293 3.6195 3.4184 3.6195zm0.18768-1.0322c-1.2333 0-2.48-0.85795-2.48-2.5873s1.2467-2.5873 2.48-2.5873c1.2601 0 2.5068 0.87136 2.5068 2.5873s-1.2467 2.5873-2.5068 2.5873z" style="font-feature-settings:normal;font-variant-caps:normal;font-variant-ligatures:normal;font-variant-numeric:normal"/>
   <path d="m-44.246 383.7h0.92498l2.4666-7.5205 2.48 7.5205h0.92498l2.8956-9.518h-1.2199l-2.2119 7.4803-2.3996-7.4803h-0.92498l-2.3996 7.4803-2.2119-7.4803h-1.2199z" style="font-feature-settings:normal;font-variant-caps:normal;font-variant-ligatures:normal;font-variant-numeric:normal"/>
   <path d="m-31.14 376.59c-1.7561 0-3.472 1.2735-3.472 3.6195 0 2.3192 1.7025 3.6195 3.5793 3.6195 1.1261 0 2.1315-0.45579 2.7615-1.2333l-0.56303-0.57644c-0.50941 0.54963-1.2601 0.84455-2.0779 0.84455-1.3406 0-2.4532-0.77752-2.6275-2.2387h5.7376c0.28152-2.7615-1.5684-4.0351-3.338-4.0351zm0.01341 0.97861c1.1663 0 2.2521 0.76411 2.3326 2.1985h-4.7456c0.17427-1.4612 1.2601-2.1985 2.413-2.1985z" style="font-feature-settings:normal;font-variant-caps:normal;font-variant-ligatures:normal;font-variant-numeric:normal"/>
   <path d="m-22.746 376.59c-1.3003 0-2.2789 0.71049-2.6141 1.4478h-0.04022v-3.8608h-1.1261v9.518h1.1261v-1.3138h0.04022c0.33514 0.73731 1.3137 1.4478 2.6141 1.4478 1.7025 0 3.4184-1.2333 3.4184-3.6195s-1.7159-3.6195-3.4184-3.6195zm-0.18768 6.2068c-1.2467 0-2.4934-0.87136-2.4934-2.5873s1.2467-2.5873 2.4934-2.5873 2.48 0.85795 2.48 2.5873-1.2333 2.5873-2.48 2.5873z" style="font-feature-settings:normal;font-variant-caps:normal;font-variant-ligatures:normal;font-variant-numeric:normal"/>
   <path d="m-12.332 374.18v3.8608h-0.04022c-0.33514-0.73731-1.3137-1.4478-2.6141-1.4478-1.6891 0-3.4184 1.2333-3.4184 3.6195s1.7293 3.6195 3.4184 3.6195c1.3003 0 2.2789-0.71049 2.6141-1.4478h0.04022v1.3138h1.1261v-9.518zm-2.4666 8.6198c-1.2333 0-2.48-0.85795-2.48-2.5873s1.2467-2.5873 2.48-2.5873c1.2601 0 2.5068 0.87136 2.5068 2.5873s-1.2467 2.5873-2.5068 2.5873z" style="font-feature-settings:normal;font-variant-caps:normal;font-variant-ligatures:normal;font-variant-numeric:normal"/>
   <path d="m-6.4756 376.59c-1.7561 0-3.472 1.2735-3.472 3.6195 0 2.3192 1.7025 3.6195 3.5793 3.6195 1.1261 0 2.1315-0.45579 2.7615-1.2333l-0.56303-0.57644c-0.50941 0.54963-1.2601 0.84455-2.0779 0.84455-1.3406 0-2.4532-0.77752-2.6275-2.2387h5.7376c0.28152-2.7615-1.5685-4.0351-3.338-4.0351zm0.013406 0.97861c1.1663 0 2.2521 0.76411 2.3326 2.1985h-4.7456c0.17427-1.4612 1.2601-2.1985 2.413-2.1985z" style="font-feature-settings:normal;font-variant-caps:normal;font-variant-ligatures:normal;font-variant-numeric:normal"/>
   <path d="m-0.020777 383.83c1.2601 0 2.4264-0.64347 2.4264-2.0242 0-1.1529-0.80433-1.6355-1.9036-2.0644l-0.56303-0.2279c-0.7239-0.29492-1.0054-0.64347-1.0054-1.0858 0-0.58984 0.4826-0.91158 1.0859-0.91158 0.61666 0 1.0322 0.32174 1.2467 0.89818l0.89817-0.26812c-0.2413-0.93838-1.0724-1.555-2.1851-1.555-1.2065 0-2.1583 0.7239-2.1583 1.8232 0 0.79092 0.4826 1.4746 1.6355 1.9438l0.63006 0.2413c0.80433 0.33514 1.2065 0.63006 1.2065 1.2065 0 0.76412-0.65687 1.0858-1.3137 1.0858-0.77752 0-1.3272-0.46919-1.5148-1.2065l-0.93839 0.25471c0.21449 1.1931 1.1529 1.8902 2.4532 1.8902z" style="font-feature-settings:normal;font-variant-caps:normal;font-variant-ligatures:normal;font-variant-numeric:normal"/>
   <path d="m3.6622 375.23h1.1261v-1.0456h-1.1261zm0 8.4723h1.1261v-6.9709h-1.1261z" style="font-feature-settings:normal;font-variant-caps:normal;font-variant-ligatures:normal;font-variant-numeric:normal"/>
   <path d="m12.097 376.73v1.3137h-0.06703c-0.32173-0.73731-1.3003-1.4478-2.5873-1.4478-1.6757 0-3.4184 1.2333-3.4184 3.6195s1.7427 3.6195 3.4184 3.6195c1.2869 0 2.2655-0.71049 2.5873-1.4478h0.06703v0.93839c0 1.5819-1.1931 2.1985-2.5605 2.1985-0.88477 0-1.555-0.2547-1.8768-0.46919v0.95179c0.33514 0.2413 1.1127 0.4826 2.0511 0.4826 1.6087 0 3.5123-0.71049 3.5123-3.1771v-6.5821zm-2.4666 6.0727c-1.2333 0-2.48-0.85795-2.48-2.5873s1.2467-2.5873 2.48-2.5873c1.2467 0 2.5068 0.87136 2.5068 2.5873s-1.2601 2.5873-2.5068 2.5873z" style="font-feature-settings:normal;font-variant-caps:normal;font-variant-ligatures:normal;font-variant-numeric:normal"/>
   <path d="m18.406 376.59c-1.2065 0-1.9706 0.60325-2.3326 1.2735v-1.1395h-1.1261v6.9709h1.1261v-3.9412c0-1.4076 0.87136-2.1315 1.984-2.1315 1.1127 0 1.9438 0.7239 1.9438 2.1315v3.9412h1.1261v-4.1021c0-2.0913-1.2601-3.0028-2.7213-3.0028z" style="font-feature-settings:normal;font-variant-caps:normal;font-variant-ligatures:normal;font-variant-numeric:normal"/>
  </g>
  <g transform="matrix(.036469 0 0 .036469 28.573 146.81)">
   <g stroke-width="1.1207">
    <circle cx="-559.35" cy="8266.4" r="286.9" fill="#2a6dc6"/>
    <path d="m-440.38 8138.7c-43.112-48.334-79.428-71.852-111.01-71.852-31.604 0-54.355 21.755-54.355 43.376 0 69.059 40.561 76.509 58.013 76.509 4.7878 0 9.4051-0.4887 13.659-1.2552l15.444 170.07c0.6411 6.8992 5.2808 12.767 11.839 14.955l39.418 13.135-11.306 158.14c23.921-6.9978 46.568-16.972 67.458-29.587 16.457-55.964 31.824-126.11 31.824-193.04 0-71.211-22.235-136.98-60.985-180.45z" fill="#ffd464"/>
    <path d="m-440.4 8138.7c-43.107-48.334-79.428-71.847-111.01-71.847-2.6943 0-5.2943 0.2107-7.8451 0.5021 29.748 3.4877 63.634 26.897 103.28 71.345 38.746 43.471 60.985 109.24 60.985 180.45 0 71.085-17.331 145.81-34.899 203.3 6.3388-3.2142 12.579-6.5988 18.635-10.257 16.457-55.969 31.824-126.11 31.824-193.05 0.018-71.206-22.222-136.98-60.972-180.45z" fill="#f2c95f"/>
   </g>
   <g stroke-width="1.1207">
    <path d="m-401.54 8476.8c12.328-48.684 22.132-104.18 22.132-157.62 0-71.206-22.24-136.98-60.985-180.45-14.717-16.501-28.619-30.035-41.834-40.812l-13.471 35.088c15.995-0.8697 44.551 39.104 26.382 64.536-31.134 3.3711-40.225 49.652-26.382 76.899 13.83 27.247 101.62 87.784 94.158 202.36z" fill="#dc3848"/>
    <path d="m-452.53 8125.6c-2.9408-3.0618-5.8546-6.0205-8.7282-8.8357-0.2824-0.2914-0.5872-0.5918-0.8697-0.8832-6.8543-6.6615-13.538-12.637-20.038-17.945-0.022-0.018-0.04-0.036-0.063-0.058l-3.8777 10.095c9.6741 8.7999 19.707 19.003 30.152 30.717 38.746 43.471 60.985 109.24 60.985 180.45 0 34.46-4.0884 69.763-10.279 103.55 3.4473 16.533 4.9939 34.491 3.7207 54.077 1.457-5.7515 2.8781-11.611 4.2409-17.533 0.1748-0.7755 0.3496-1.56 0.5334-2.3355 1.3225-5.7874 2.6091-11.629 3.8284-17.537 0.018-0.1076 0.054-0.2107 0.072-0.3093 1.2149-5.895 2.3491-11.866 3.4518-17.882 0.2063-1.1297 0.4035-2.2818 0.6097-3.4204 1.0266-5.7605 1.9815-11.561 2.8691-17.403 0.045-0.2555 0.085-0.4976 0.1165-0.7576 0.8831-5.9488 1.6721-11.947 2.3984-17.945 0.1613-1.3673 0.3182-2.7256 0.4751-4.0928 0.6545-5.8143 1.2597-11.651 1.7529-17.47 0.027-0.2466 0.058-0.4707 0.081-0.7263 0.4796-5.9532 0.8427-11.916 1.1296-17.869 0.072-1.448 0.1256-2.9005 0.1838-4.3619 0.2376-6.007 0.4035-12.005 0.4035-17.967 0-71.206-22.24-136.98-60.985-180.45-3.3666-3.7746-6.675-7.343-9.9609-10.808-0.7621-0.789-1.4794-1.5377-2.2011-2.2998z" fill="#d52c38"/>
    <path d="m-482.24 8097.9c-25.499-20.778-48.366-31.048-69.171-31.048-31.6 0-54.355 21.755-54.355 43.376 0 0.7442 0.031 1.4256 0.045 2.1563 25.449-13.96 69.794-29.408 123.48-14.484z" fill="#dc3848"/>
    <path d="m-559.21 8067.3h-0.036c17.138 2.0128 35.666 10.674 55.852 26.117 6.8633 0.9862 13.915 2.4028 21.155 4.4156-9.4454-7.7016-18.537-13.933-27.287-18.77-0.251-0.1345-0.4931-0.269-0.7441-0.4035-2.6225-1.421-5.2136-2.7076-7.7778-3.8777-0.2645-0.121-0.5245-0.2555-0.798-0.372-5.4019-2.4074-10.665-4.2095-15.802-5.4781-0.6456-0.1569-1.2687-0.2869-1.9142-0.4259-1.9008-0.4259-3.7791-0.7531-5.644-1.0176-0.6769-0.094-1.3673-0.2062-2.0307-0.278-2.4163-0.2734-4.8012-0.4438-7.1726-0.4438-1.5242 0-3.0036 0.094-4.4829 0.1928-1.1118 0.1076-2.2191 0.2152-3.3174 0.3362z" fill="#d52c38"/>
   </g>
   <path d="m-778.88 8451.1c8.253 9.804 17.116 19.084 26.592 27.7 87.206-31.053 245-71.184 423.04-40.969 7.5178-10.073 14.341-20.688 20.5-31.721-203.87-38.665-380.89 10.983-470.13 44.99z" fill="#99602e" stroke-width="1.1207"/>
   <path d="m-546.49 8132.9c-4.0436 0-8.1051-1.7304-11.059-4.5412-2.8108-2.9766-4.5187-7.0515-4.5187-11.126 0-4.0704 1.7079-8.1274 4.5187-11.118 5.7695-5.7964 16.345-5.7964 22.11 0 2.8018 2.9901 4.5232 7.0471 4.5232 11.118 0 4.075-1.7214 8.1499-4.5232 11.126-2.9587 2.8108-7.0112 4.5412-11.05 4.5412z" fill="#f5f5f5" stroke-width="1.1207"/>
   <g transform="matrix(1.1207 0 0 1.1207 -846.26 7979.5)" fill="#1f2c3d">
    <path d="m267.48 132.23c-2.412 0-4.82-1.02-6.584-2.7-1.672-1.772-2.688-4.196-2.688-6.62 0-2.416 1.016-4.84 2.688-6.612 3.428-3.448 9.72-3.448 13.148 0 1.664 1.772 2.688 4.2 2.688 6.612 0 2.424-1.024 4.848-2.688 6.62-1.748 1.68-4.152 2.7-6.564 2.7z"/>
    <path d="m324.81 105.6c-21.144 55.584-46.948 62.188-79.56 51.96-33.772-10.584-27.288-54.3-19.204-65.48 0.048-0.036 0.084-0.084 0.128-0.128-7.92 3.74-18.036 9.544-28.568 18.348-10.708 8.916-16.94 20.688-18.036 34.04-2.416 29.4 15.784 59.584 35.016 65.476 13.056-0.756 17.86-24.724 20.416-33.02 10.896 9.02 22.836 9.804 30.508 9.804 4.268 0 9.388-0.572 13.168-1.252 20.072-13.644 33.62-25.272 46.132-79.748z"/>
   </g>
  </g>
  <g transform="matrix(.036469 0 0 .036469 -59.399 311.29)">
   <rect x="-365.84" y="-99.04" width="2568.9" height="655.66" fill-opacity="0"/>
   <g stroke-width="1.1207">
    <circle cx="-78.251" cy="228.79" r="286.9" fill="#ff0060"/>
    <path d="m40.72 101.04c-43.112-48.334-79.428-71.852-111.01-71.852-31.604 0-54.355 21.755-54.355 43.376 0 69.059 40.561 76.509 58.013 76.509 4.7877 0 9.4051-0.48863 13.659-1.2552l15.444 170.07c0.64105 6.8992 5.2808 12.767 11.839 14.955l39.418 13.135-11.306 158.14c23.921-6.9978 46.568-16.972 67.458-29.587 16.457-55.964 31.824-126.11 31.824-193.04 0-71.211-22.235-136.98-60.985-180.45z" fill="#ffd464"/>
    <path d="m40.707 101.05c-43.107-48.334-79.428-71.847-111.01-71.847-2.6942 0-5.2943 0.2107-7.845 0.50208 29.748 3.4877 63.635 26.897 103.28 71.345 38.746 43.471 60.985 109.24 60.985 180.45 0 71.085-17.331 145.81-34.899 203.3 6.3388-3.2142 12.579-6.5988 18.635-10.257 16.457-55.969 31.824-126.11 31.824-193.05 0.0179-71.206-22.222-136.98-60.972-180.45z" fill="#f2c95f"/>
    <path d="m79.564 439.12c12.328-48.684 22.132-104.18 22.132-157.62 0-71.206-22.24-136.98-60.985-180.45-14.717-16.501-28.619-30.035-41.834-40.812l-13.471 35.088c15.995-0.86968 44.551 39.104 26.382 64.536-31.134 3.3711-40.225 49.652-26.382 76.899 13.83 27.247 101.62 87.784 94.158 202.36z" fill="#2995cc"/>
    <path d="m28.572 87.959c-2.9408-3.0618-5.8546-6.0205-8.7282-8.8358-0.28242-0.29139-0.58726-0.59174-0.86968-0.88313-6.8543-6.6616-13.538-12.637-20.038-17.945-0.022414-0.01793-0.040346-0.03586-0.06276-0.05828l-3.8777 10.095c9.6741 8.7999 19.707 19.003 30.152 30.717 38.746 43.471 60.985 109.24 60.985 180.45 0 34.46-4.0884 69.763-10.279 103.55 3.4473 16.533 4.9939 34.491 3.7208 54.077 1.4569-5.7515 2.878-11.611 4.2408-17.533 0.17483-0.77554 0.34966-1.56 0.53346-2.3356 1.3224-5.7874 2.609-11.629 3.8284-17.537 0.01793-0.10759 0.05379-0.21069 0.07173-0.30932 1.2149-5.895 2.349-11.866 3.4518-17.882 0.20621-1.1297 0.40346-2.2818 0.60967-3.4204 1.0266-5.7605 1.9814-11.561 2.869-17.403 0.04483-0.25552 0.08517-0.4976 0.11655-0.75761 0.88313-5.9488 1.6721-11.947 2.3983-17.945 0.16138-1.3673 0.31828-2.7256 0.47519-4.0929 0.6545-5.8143 1.2597-11.651 1.7528-17.47 0.0269-0.24656 0.05828-0.47071 0.0807-0.72623 0.47966-5.9533 0.84278-11.916 1.1297-17.869 0.0717-1.448 0.12552-2.9004 0.1838-4.3618 0.23759-6.0071 0.40346-12.005 0.40346-17.967 0-71.206-22.24-136.98-60.985-180.45-3.3666-3.7746-6.675-7.343-9.961-10.808-0.76209-0.78899-1.4794-1.5376-2.2011-2.2997z" fill="#268cbf"/>
    <path d="m-1.1321 60.237c-25.499-20.778-48.366-31.048-69.171-31.048-31.6 0-54.355 21.755-54.355 43.376 0 0.74416 0.0314 1.4256 0.0448 2.1563 25.449-13.96 69.794-29.408 123.48-14.484z" fill="#2995cc"/>
    <path d="m-78.103 29.7c-9e-3 0.0045-0.0269 0.0045-0.03586 0.0045 17.138 2.0128 35.666 10.674 55.852 26.117 6.8633 0.98623 13.915 2.4028 21.155 4.4156-9.4454-7.7016-18.537-13.933-27.287-18.77-0.25104-0.13449-0.49312-0.26897-0.74416-0.40346-2.6225-1.4211-5.2136-2.7077-7.7778-3.8777-0.26449-0.12104-0.5245-0.25552-0.79795-0.37208-5.4019-2.4073-10.665-4.2094-15.802-5.4781-0.64554-0.1569-1.2687-0.2869-1.9142-0.42587-1.9007-0.42587-3.7791-0.75312-5.6439-1.0176-0.67692-0.09414-1.3673-0.20621-2.0307-0.27794-2.4163-0.27346-4.8012-0.44381-7.1726-0.44381-1.5242 0-3.0035 0.09414-4.4829 0.19276-1.1118 0.10759-2.219 0.21518-3.3173 0.33622z" fill="#268cbf"/>
    <path d="m-297.78 413.44c8.253 9.8041 17.116 19.084 26.592 27.7 87.206-31.053 245-71.184 423.04-40.969 7.5178-10.073 14.341-20.688 20.5-31.721-203.87-38.665-380.89 10.983-470.13 44.99z" fill="#99602e"/>
    <path d="m-65.385 95.275c-4.0436 0-8.1051-1.7304-11.059-4.5412-2.8108-2.9766-4.5187-7.0516-4.5187-11.127 0-4.0705 1.708-8.1275 4.5187-11.118 5.7695-5.7964 16.345-5.7964 22.11 0 2.8018 2.9901 4.5232 7.0471 4.5232 11.118 0 4.0749-1.7214 8.1499-4.5232 11.127-2.9587 2.8108-7.0112 4.5412-11.05 4.5412z" fill="#f5f5f5"/>
   </g>
   <g>
    <g transform="matrix(1.1207 0 0 1.1207 -365.16 -58.111)">
     <path d="m267.48 132.23c-2.412 0-4.82-1.02-6.584-2.7-1.672-1.772-2.688-4.196-2.688-6.62 0-2.416 1.016-4.84 2.688-6.612 3.428-3.448 9.72-3.448 13.148 0 1.664 1.772 2.688 4.2 2.688 6.612 0 2.424-1.024 4.848-2.688 6.62-1.748 1.68-4.152 2.7-6.564 2.7z"/>
     <path d="m324.81 105.6c-21.144 55.584-46.948 62.188-79.56 51.96-33.772-10.584-27.288-54.3-19.204-65.48 0.048-0.036 0.084-0.084 0.128-0.128-7.92 3.74-18.036 9.544-28.568 18.348-10.708 8.916-16.94 20.688-18.036 34.04-2.416 29.4 15.784 59.584 35.016 65.476 13.056-0.756 17.86-24.724 20.416-33.02 10.896 9.02 22.836 9.804 30.508 9.804 4.268 0 9.388-0.572 13.168-1.252 20.072-13.644 33.62-25.272 46.132-79.748z"/>
    </g>
    <rect x="257.17" y="-99.04" width="23.037" height="655.66" fill="#292929"/>
    <text transform="scale(1.0279 .97286)" x="310.00232" y="75.623993" fill="#292929" font-family="'URW Gothic'" font-size="338.71px" letter-spacing="0px" stroke-width="8.4681" word-spacing="0px" style="font-feature-settings:normal;font-variant-caps:normal;font-variant-ligatures:normal;font-variant-numeric:normal;line-height:1.25" xml:space="preserve"><tspan x="310.00232" y="75.623993" dy="69.842049" style="font-feature-settings:normal;font-variant-caps:normal;font-variant-ligatures:normal;font-variant-numeric:normal;line-height:0">Tortuga</tspan><tspan x="310.00232" y="499.01733" style="font-feature-settings:normal;font-variant-caps:normal;font-variant-ligatures:normal;font-variant-numeric:normal;line-height:0">Webdesign</tspan></text>
   </g>
  </g>
  <text transform="scale(1.0279 .97286)" x="25.234928" y="454.82944" fill="#292929" font-family="'Visby CF'" font-size="13.406px" font-weight="500" letter-spacing="0px" stroke-width=".30882" word-spacing="0px" style="font-feature-settings:normal;font-variant-caps:normal;font-variant-ligatures:normal;font-variant-numeric:normal;line-height:1.20000005" xml:space="preserve"><tspan x="25.234928" y="454.82944" dy="2.5470552" style="font-feature-settings:normal;font-variant-caps:normal;font-variant-ligatures:normal;font-variant-numeric:normal;line-height:0">Tortuga</tspan><tspan x="25.234928" y="470.91611" style="font-feature-settings:normal;font-variant-caps:normal;font-variant-ligatures:normal;font-variant-numeric:normal;line-height:0">Webdesign</tspan></text>
  <rect x="21.938" y="435.38" width=".84012" height="25.794" fill="#292929"/>
  <rect x="-60.333" y="245.72" width="93.685" height="23.911" fill-opacity="0"/>
  <g transform="matrix(.03213 0 0 .03213 -20.678 46.078)">
   <g stroke-width="1.3474">
    <circle cx="-923.77" cy="6599.9" r="344.94" fill="#e32249"/>
    <path d="m-780.73 6446.3c-51.833-58.112-95.496-86.387-133.47-86.387-37.998 0-65.351 26.156-65.351 52.151 0 83.029 48.767 91.987 69.749 91.987 5.7563 0 11.308-0.5875 16.423-1.5092l18.568 204.48c0.77074 8.2949 6.3491 15.35 14.234 17.98l47.392 15.792-13.593 190.13c28.76-8.4135 55.989-20.406 81.105-35.572 19.786-67.286 38.262-151.62 38.262-232.09 0-85.616-26.733-164.7-73.322-216.96z" fill="#ffd464"/>
    <path d="m-780.75 6446.3c-51.828-58.112-95.496-86.382-133.47-86.382-3.2392 0-6.3653 0.2534-9.4321 0.6036 35.766 4.1932 76.508 32.339 124.17 85.778 46.584 52.265 73.322 131.34 73.322 216.95 0 85.465-20.837 175.3-41.959 244.43 7.6211-3.8644 15.124-7.9337 22.405-12.332 19.786-67.291 38.262-151.62 38.262-232.1 0.0215-85.611-26.717-164.69-73.306-216.95z" fill="#f2c95f"/>
   </g>
   <g stroke-width="1.3474">
    <path d="m-734.03 6852.8c14.822-58.533 26.609-125.25 26.609-189.5 0-85.611-26.739-164.69-73.322-216.95-17.695-19.84-34.408-36.111-50.297-49.068l-16.196 42.186c19.231-1.0457 53.563 47.015 31.719 77.591-37.432 4.0532-48.362 59.697-31.719 92.456 16.627 32.759 122.18 105.54 113.21 243.29z" fill="#2a6dc6"/>
    <path d="m-795.34 6430.6c-3.5357-3.6812-7.039-7.2384-10.494-10.623-0.33955-0.3504-0.70606-0.7114-1.0456-1.0618-8.2409-8.0092-16.277-15.194-24.092-21.575-0.0269-0.022-0.0485-0.043-0.0755-0.07l-4.6621 12.138c11.631 10.58 23.693 22.847 36.252 36.931 46.584 52.264 73.322 131.34 73.322 216.95 0 41.431-4.9155 83.876-12.359 124.5 4.1447 19.877 6.0042 41.469 4.4735 65.017 1.7517-6.9151 3.4602-13.96 5.0987-21.079 0.2102-0.9324 0.42039-1.8756 0.64138-2.8081 1.59-6.9582 3.1368-13.981 4.6028-21.085 0.0215-0.1294 0.0647-0.2533 0.0862-0.3719 1.4606-7.0875 2.8242-14.267 4.1501-21.5 0.24793-1.3582 0.48508-2.7434 0.73301-4.1125 1.2342-6.9258 2.3823-13.9 3.4494-20.923 0.0539-0.3073 0.10244-0.5982 0.14013-0.9108 1.0618-7.1523 2.0104-14.364 2.8835-21.575 0.19403-1.6439 0.38267-3.277 0.57131-4.9209 0.78691-6.9905 1.5145-14.008 2.1074-21.004 0.0323-0.2964 0.0701-0.5659 0.097-0.8731 0.57669-7.1577 1.0133-14.326 1.3582-21.484 0.0862-1.7408 0.15091-3.4871 0.22098-5.2442 0.28566-7.2223 0.48508-14.434 0.48508-21.602 0-85.611-26.739-164.69-73.322-216.95-4.0477-4.5381-8.0254-8.8284-11.976-12.995-0.91626-0.9486-1.7786-1.8486-2.6464-2.7649z" fill="#2566c1"/>
    <path d="m-831.05 6397.3c-30.657-24.982-58.15-37.33-83.164-37.33-37.992 0-65.351 26.156-65.351 52.151 0 0.8946 0.0378 1.7139 0.0539 2.5924 30.598-16.784 83.913-35.357 148.46-17.414z" fill="#2a6dc6"/>
    <path d="m-923.59 6360.5h-0.0432c20.605 2.42 42.881 12.833 67.151 31.401 8.2517 1.1858 16.73 2.889 25.434 5.309-11.356-9.2597-22.287-16.751-32.808-22.567-0.30182-0.1615-0.59288-0.3233-0.8947-0.485-3.153-1.7086-6.2683-3.2554-9.3512-4.6621-0.318-0.1455-0.63061-0.3072-0.95938-0.4474-6.4947-2.8943-12.822-5.061-18.999-6.5863-0.77613-0.1887-1.5253-0.345-2.3014-0.512-2.2853-0.512-4.5436-0.9055-6.7857-1.2235-0.81386-0.113-1.6439-0.2479-2.4416-0.3341-2.9051-0.3289-5.7724-0.5336-8.6236-0.5336-1.8325 0-3.6111 0.113-5.3898 0.2318-1.3366 0.1293-2.6679 0.2586-3.9884 0.4042z" fill="#2566c1"/>
   </g>
   <path d="m-1187.7 6821.9c9.9225 11.787 20.578 22.944 31.972 33.303 104.85-37.335 294.57-85.584 508.62-49.257 9.0386-12.111 17.242-24.874 24.647-38.138-245.11-46.487-457.94 13.205-565.24 54.092z" fill="#99602e" stroke-width="1.3474"/>
   <path d="m-908.3 6439.4c-4.8616 0-9.7447-2.0805-13.297-5.4599-3.3794-3.5788-5.4329-8.4781-5.4329-13.377 0-4.8939 2.0535-9.7717 5.4329-13.367 6.9366-6.9688 19.651-6.9688 26.582 0 3.3686 3.595 5.4383 8.4728 5.4383 13.367 0 4.8993-2.0697 9.7986-5.4383 13.377-3.5572 3.3794-8.4296 5.4599-13.286 5.4599z" fill="#f5f5f5" stroke-width="1.3474"/>
   <g transform="matrix(1.3474 0 0 1.3474 -1268.7 6255)" fill="#1f2c3d">
    <path d="m267.48 132.23c-2.412 0-4.82-1.02-6.584-2.7-1.672-1.772-2.688-4.196-2.688-6.62 0-2.416 1.016-4.84 2.688-6.612 3.428-3.448 9.72-3.448 13.148 0 1.664 1.772 2.688 4.2 2.688 6.612 0 2.424-1.024 4.848-2.688 6.62-1.748 1.68-4.152 2.7-6.564 2.7z"/>
    <path d="m324.81 105.6c-21.144 55.584-46.948 62.188-79.56 51.96-33.772-10.584-27.288-54.3-19.204-65.48 0.048-0.036 0.084-0.084 0.128-0.128-7.92 3.74-18.036 9.544-28.568 18.348-10.708 8.916-16.94 20.688-18.036 34.04-2.416 29.4 15.784 59.584 35.016 65.476 13.056-0.756 17.86-24.724 20.416-33.02 10.896 9.02 22.836 9.804 30.508 9.804 4.268 0 9.388-0.572 13.168-1.252 20.072-13.644 33.62-25.272 46.132-79.748z"/>
   </g>
  </g>
  <rect x="-37.612" y="245.23" width=".84012" height="25.794" fill="#292929"/>
  <text transform="scale(1.0279 .97286)" x="-34.410267" y="259.04562" fill="#292929" font-family="'Visby CF'" font-size="13.406px" font-weight="500" letter-spacing="0px" stroke-width=".30882" word-spacing="0px" style="font-feature-settings:normal;font-variant-caps:normal;font-variant-ligatures:normal;font-variant-numeric:normal;line-height:1.25" xml:space="preserve"><tspan x="-34.410267" y="259.04562" dy="2.5470552" style="font-feature-settings:normal;font-variant-caps:normal;font-variant-ligatures:normal;font-variant-numeric:normal;line-height:0">Tortuga</tspan><tspan x="-34.410267" y="275.80258" style="font-feature-settings:normal;font-variant-caps:normal;font-variant-ligatures:normal;font-variant-numeric:normal;line-height:0">Webdesign</tspan></text>
 </g>
</svg>
