<svg width="1386.5mm" height="1065.4mm" version="1.1" viewBox="0 0 1386.5 1065.4" xmlns="http://www.w3.org/2000/svg" xmlns:osb="http://www.openswatchbook.org/uri/2009/osb" xmlns:xlink="http://www.w3.org/1999/xlink"><defs><linearGradient id="linearGradient2864" x1="-2898" x2="-4194.5" y1="-2412.1" y2="-3157.7" gradientTransform="translate(5175.1 4022.1)" gradientUnits="userSpaceOnUse"><stop stop-color="#085656" offset="0"/><stop stop-color="#033c3c" offset="1"/></linearGradient><linearGradient id="linearGradient3128" x1="-1241.1" x2="-702.48" y1="-2516" y2="-2901.3" gradientTransform="translate(5175.1 4022.1)" gradientUnits="userSpaceOnUse"><stop stop-color="#033c3c" offset="0"/><stop stop-color="#e0ac45" offset="1"/></linearGradient><linearGradient id="linearGradient3173" x1="-3619.7" x2="-3666.6" y1="-951.75" y2="-1205.1" gradientTransform="translate(5175.1 4022.1)" gradientUnits="userSpaceOnUse"><stop stop-color="#ef7577" offset="0"/><stop stop-color="#033c3c" offset="1"/></linearGradient><linearGradient id="linearGradient1447" x1="2850.7" x2="3411.2" y1="2136.1" y2="2544.2" gradientUnits="userSpaceOnUse"><stop stop-color="#085656" offset="0"/><stop stop-color="#033c3c" offset="1"/></linearGradient></defs><g transform="translate(1369.3 1064.2)"><path transform="matrix(.26458 0 0 .26458 -1369.3 -1064.2)" d="m3073.4 971.85-453.5-158.33 0.3672 1199.8 1275-7.439 750.51-491.53 91.507-679.3z" fill="url(#linearGradient3128)"/><path transform="matrix(.26458 0 0 .26458 -1369.3 -1064.2)" d="m2619.9 813.52-852.41 241.66-281.74 188.32-496.17-206.71-858.63 54.968 3.6054 701.82-82.626 219.7h2568.3z" fill="url(#linearGradient2864)"/><path transform="matrix(.26458 0 0 .26458 -1369.3 -1064.2)" d="m49.274 2008.9 47.803 980.57 924.21-53.619 581.66 217.46 722.88-241.29 294.79-385.15-0.3242-513.63z" fill="url(#linearGradient3173)"/><path transform="matrix(.26458 0 0 .26458 -1369.3 -1064.2)" d="m2620.3 2013.3 0.3242 513.63 667.61 272.36 607.09-793.43z" fill="url(#linearGradient1447)"/></g></svg>
