<svg width="813.31mm" height="813.31mm" version="1.1" viewBox="0 0 813.31 813.31" xmlns="http://www.w3.org/2000/svg">
 <rect x=".079375" y=".079375" width="813.15" height="813.15" fill="#fff" stroke="#00adea" stroke-width=".15875"/>
 <g transform="translate(534.84 297.88)">
  <g>
   <rect x="-374.28" y="161.66" width="363.93" height="26.315" ry="0"/>
   <path d="m-10.621 56.579c-26.333 0-46.928 21.324-46.947 47.529-0.0185 26.172 20.613 47.495 46.947 47.495 19.255 0 19.255-8.2256 19.255-8.2256v8.2241c0 8.6086-13.119 10.058-19.252 10.058v26.315c31.448-2e-5 46.969-20.997 47.035-36.332l-0.10954-95.063h-27.674v4.8581s0-4.8581-19.253-4.8581zm0 27.018c12.364 0 19.255 8.1304 19.255 20.494 0 12.364-6.8911 20.494-19.255 20.494-12.364 0-19.255-8.1305-19.255-20.494 0-12.364 6.8905-20.494 19.255-20.494z"/>
   <path d="m-146.54 56.579 27.673 7.9e-5v47.512c0 12.364 5.3016 20.494 17.666 20.494 12.364 0 17.666-8.1305 17.666-20.494v-47.512l27.673 2.6e-5v47.512c0 25.604-19.151 47.512-45.339 47.493-26.188-0.0191-45.338-21.89-45.338-47.493z"/>
   <path d="m-190.61 56.579v-27.018h27.673v27.018l17.087-5.3e-5v27.018l-17.087 2.6e-5v34.322c0 3.6536 3.0125 6.6663 6.6963 6.6663l10.369-3e-5 0.0212 27.018h-24.918c-11.591 0-19.842-8.2494-19.842-19.842l-5e-3 -48.165-10.525-5.3e-5v-27.018z"/>
   <path d="m-223.29 56.579 22.557-5.3e-5v27.018l-8.0277 5.3e-5c-3.6536 0-6.6662 3.0126-6.6662 6.6662v61.34l-27.673-3e-5v-75.183c0-11.592 8.2576-19.83 19.81-19.842z"/>
   <path d="m-288.72 56.579c-26.333-7.9e-5 -46.929 21.324-46.929 47.512 0 26.189 20.596 47.512 46.929 47.512s46.929-21.324 46.929-47.512c0-26.188-20.596-47.512-46.929-47.512zm0 27.018c12.364-5.3e-5 19.256 8.1304 19.256 20.494 0 12.364-6.8919 20.494-19.256 20.494s-19.256-8.1305-19.256-20.494c0-12.364 6.8919-20.494 19.256-20.494z"/>
  </g>
  <text x="-363.36011" y="181.52246" fill="#ffffff" font-family="sans-serif" font-size="23.029px" font-weight="bold" letter-spacing="5.7573px" stroke-width=".28786" word-spacing="0px" style="font-feature-settings:normal;font-variant-caps:normal;font-variant-ligatures:normal;font-variant-numeric:normal;line-height:1.25" xml:space="preserve"><tspan x="-363.36011" y="181.52246" stroke-width=".28786">webdesign</tspan></text>
  <path d="m-374.28 56.579v-27.018h27.673v27.018l17.108-5.3e-5v27.018l-17.108 2.6e-5v34.322c0 3.6536 3.0125 6.6663 6.6963 6.6663l10.39-3e-5 0.0212 27.018h-30.115c-11.591 0-14.666-8.2494-14.666-19.842l-5e-3 -48.165-10.525-5.3e-5v-27.018z"/>
  <path d="m81.318 56.579c-26.334 0-46.739 21.324-46.739 47.512 0 26.188 20.406 47.512 46.739 47.512 19.446 0 19.446-4.858 19.446-4.858v4.8578l27.673 1.4e-4v-95.024l-27.673-2.6e-5v4.8581s0-4.858-19.446-4.858zm0 27.018c12.364 0 19.446 8.1304 19.446 20.494 0 12.364-7.0818 20.494-19.446 20.494-12.364 0-19.066-8.1305-19.066-20.494 0-12.364 6.7022-20.494 19.066-20.494z"/>
 </g>
</svg>
