<?xml version="1.0" standalone="no"?>
<!DOCTYPE svg PUBLIC "-//W3C//DTD SVG 1.1//EN" "http://www.w3.org/Graphics/SVG/1.1/DTD/svg11.dtd">
<svg xmlns="http://www.w3.org/2000/svg"><metadata>This SVG WebFont was generated by YouWorkForThem.
Â© 2017 Connary Fagen</metadata><defs><font horiz-adv-x="1157" id="ywftsvg"><font-face ascent="1638" bbox="-389 -512 2263 1921" cap-height="1454" descent="-410" font-family="" font-stretch="normal" font-weight="100" panose-1="0 0 2 0 0 0 0 0 0 0" underline-position="0" underline-thickness="0" unicode-range="U+0020-FB01" units-per-em="2048" x-height="1065"/><missing-glyph d="M883 1638v-2150h-682v2150h682zM717 1495h-357v-72h142v-80h-144v-69h359v69h-144v80h144v72zM573 1217h-215v-224h359v74h-144v150zM502 1145v-78h-72v78h72zM717 936h-359v-72h144v-80h-144v-69h215v149h144v72zM717 807h-72v-143h-287v-72h359v215zM717 545h-215v-121 h71v49h72v-100h-215v172h-72v-244h359v244zM717 172h-359v-244h359v244zM645 100v-100h-215v100h215zM717 -121h-359v-72h152l-152 -100v-72h359v72h-219l149 100h70v72z" horiz-adv-x="1075"/><glyph d="M784 1065v-1065h-59v1012h-489v-1012h-58v1012h-108v53h108v172q0 137 67.5 195.5t166.5 58.5q80 0 139 -41v-51q-61 37 -141 37q-174 0 -174 -209v-162h548zM725 1454h59v-70h-59v70z" glyph-name="uniFB01" horiz-adv-x="923" unicode="fi"/><glyph d="M956 1436q-172 0 -172 -209v-162h314v-53h-314v-1012h-59v1012h-489v-1012h-58v1012h-108v53h108v168q0 137 68.5 197.5t165.5 60.5q80 0 139 -41v-51q-61 37 -141 37q-174 0 -174 -209v-162h489v168q0 137 68.5 197.5t164.5 60.5q84 0 140 -41v-51q-62 37 -142 37z" glyph-name="f_f.liga" horiz-adv-x="1208" unicode="ff"/><glyph d="M883 1638v-2150h-682v2150h682zM717 1495h-357v-72h142v-80h-144v-69h359v69h-144v80h144v72zM573 1217h-215v-224h359v74h-144v150zM502 1145v-78h-72v78h72zM717 936h-359v-72h144v-80h-144v-69h215v149h144v72zM717 807h-72v-143h-287v-72h359v215zM717 545h-215v-121 h71v49h72v-100h-215v172h-72v-244h359v244zM717 172h-359v-244h359v244zM645 100v-100h-215v100h215zM717 -121h-359v-72h152l-152 -100v-72h359v72h-219l149 100h70v72z" glyph-name=".notdef" horiz-adv-x="1075"/><glyph glyph-name="glyph1" horiz-adv-x="0"/><glyph glyph-name="glyph2" horiz-adv-x="681"/><glyph glyph-name="space" horiz-adv-x="458" unicode=" "/><glyph d="M141 348v1106h58v-1106h-58zM184 -20q-43 0 -43 43t43 43q20 0 31.5 -13.5t11.5 -30t-11.5 -29.5t-31.5 -13z" glyph-name="exclam" horiz-adv-x="366" unicode="!"/><glyph d="M86 1077v377h61v-377h-61zM242 1077v377h63v-377h-63z" glyph-name="quotedbl" horiz-adv-x="389" unicode="&quot;"/><glyph d="M1034 1010h-209l-41 -584h250v-57h-254l-26 -369h-60l27 369h-375l-27 -369h-59l27 369h-195v57h199l41 584h-240v55h244l26 369h60l-27 -369h375l27 369h59l-27 -369h205v-55zM725 426l41 584h-375l-41 -584h375z" glyph-name="numbersign" horiz-adv-x="1126" unicode="#"/><glyph d="M770 461q0 -133 -90 -206t-215 -81v-174h-64v176q-123 10 -205.5 84t-105.5 191l57 16q29 -117 108 -175.5t185 -58.5q111 0 191 57.5t80 170.5q0 92 -59.5 145t-196.5 113l-62 26q-246 106 -246 285q0 102 71 171t183 77v176h64v-176q94 -8 163.5 -61.5t98.5 -137.5 l-51 -22q-70 164 -244 164q-94 0 -159.5 -48.5t-65.5 -140.5q0 -141 203 -227l49 -23q170 -72 240.5 -138t70.5 -183z" glyph-name="dollar" horiz-adv-x="858" unicode="$"/><glyph d="M325.5 961q-104.5 0 -179 73.5t-74.5 178t74.5 178t179 73.5t179.5 -73.5t75 -178t-75 -178t-179.5 -73.5zM266 0l-47 35l946 1421l45 -35zM326 1020q84 0 140 53t56 139t-56 139.5t-140 53.5t-140.5 -53.5t-56.5 -139.5t56.5 -139t140.5 -53zM1103.5 -10 q-104.5 0 -179 73.5t-74.5 178t74.5 178.5t179 74t179.5 -74t75 -178.5t-75 -178t-179.5 -73.5zM1104 49q82 0 137 53.5t55 139.5t-55 139t-137 53t-137.5 -53t-55.5 -139t55.5 -139.5t137.5 -53.5z" glyph-name="percent" horiz-adv-x="1429" unicode="%"/><glyph d="M1157 43q43 0 88 23v-54q-39 -25 -96 -24q-139 0 -139 168v82q-57 -117 -171 -187.5t-257 -70.5q-201 0 -331 130t-130 334q0 195 125 319t309 134l-305 557h692v-55h-596l299 -555h-65q-164 0 -282 -108.5t-118 -289.5q0 -184 120 -296.5t290 -112.5q184 0 302 124 t118 259v399h209v-55h-158l6 -614q0 -107 90 -107z" glyph-name="ampersand" horiz-adv-x="1343" unicode="&amp;"/><glyph d="M86 1077v377h61v-377h-61z" glyph-name="quotesingle" horiz-adv-x="233" unicode="'"/><glyph d="M309 -266q-217 387 -217 921q0 508 217 871h51q-207 -375 -206 -871q0 -524 206 -921h-51z" glyph-name="parenleft" horiz-adv-x="425" unicode="("/><glyph d="M143 -266h-51q207 397 207 921q0 496 -207 871h51q217 -362 217 -871q0 -534 -217 -921z" glyph-name="parenright" horiz-adv-x="425" unicode=")"/><glyph d="M408 1210l-7 203h62l-4 -203h-51zM360 1135l-206 55l14 51l205 -63zM504 1135l-10 43l202 63l15 -51zM291 885l-45 33l127 167l37 -30zM573 885l-116 170l35 30l126 -167z" glyph-name="asterisk" horiz-adv-x="864" unicode="*"/><glyph d="M758 600v-45h-312v-311h-45v311h-309v45h309v309h45v-309h312z" glyph-name="plus" horiz-adv-x="849" unicode="+"/><glyph d="M66 -293l133 377h61l-135 -377h-59z" glyph-name="comma" horiz-adv-x="333" unicode=","/><glyph d="M92 559v45h635v-45h-635z" glyph-name="hyphen" horiz-adv-x="819" unicode="-"/><glyph d="M129 -20q-43 0 -43 43t43 43t43 -43t-43 -43z" glyph-name="period" horiz-adv-x="258" unicode="."/><glyph d="M131 0l588 1536h65l-587 -1536h-66z" glyph-name="slash" horiz-adv-x="872" unicode="/"/><glyph d="M844 -20q-299 0 -511 209.5t-212 537.5t212 538t511 210t511 -210t212 -538t-212 -537.5t-511 -209.5zM843.5 37q270.5 0 468 193.5t197.5 496.5t-197.5 496.5t-468 193.5t-469 -193.5t-198.5 -496.5t198.5 -496.5t469 -193.5z" glyph-name="zero" horiz-adv-x="1687" unicode="0"/><glyph d="M301 0v1393h-174v61h231v-1454h-57z" glyph-name="one" horiz-adv-x="526" unicode="1"/><glyph d="M100 0l482 580q16 20 72.5 86.5t73.5 88t56 76t52.5 88t27 82t13.5 97.5q0 143 -91.5 231t-253.5 88q-164 0 -266 -95t-102 -267v-33h-58v39q0 188 122 301t304 113q180 0 289 -106.5t109 -268.5q0 -53 -14.5 -108.5t-29 -92.5t-51 -90t-51 -72.5t-61.5 -73t-51 -59.5 l-461 -549h727v-55h-838z" glyph-name="two" horiz-adv-x="1056" unicode="2"/><glyph d="M559 -20q-168 0 -287.5 86t-160.5 221l49 22q41 -121 146.5 -196.5t256.5 -75.5q174 0 293 103.5t119 289.5q0 211 -147.5 315.5t-352.5 65.5l397 588h-675v55h780l-397 -580q180 6 317 -112.5t137 -327.5q0 -205 -137 -329.5t-338 -124.5z" glyph-name="three" horiz-adv-x="1142" unicode="3"/><glyph d="M973 479v-57h-154v-422h-59v422h-649v57l649 975h59v-975h154zM174 479h586v875z" glyph-name="four" horiz-adv-x="1071" unicode="4"/><glyph d="M555 -20q-164 0 -283.5 82.5t-171.5 207.5l50 29q45 -111 154.5 -186.5t254.5 -75.5q184 0 309 122t125 312.5t-120.5 313t-305.5 122.5q-238 0 -368 -188l-56 12l99 723h665v-55h-618l-86 -598q141 162 364 162q205 0 344.5 -137.5t139.5 -356.5q0 -213 -140.5 -351 t-355.5 -138z" glyph-name="five" horiz-adv-x="1159" unicode="5"/><glyph d="M563.5 -20q-194.5 0 -323.5 128t-129 328q0 47 7 93t24.5 92.5t31.5 79t42 76.5t40 63.5t42 60.5t34 47l358 506h68l-492 -694l10 10q131 102 285 102q197 0 328 -122.5t131 -319.5t-131 -323.5t-325.5 -126.5zM563 39q164 0 281 105.5t117 283.5q0 176 -117 280.5 t-281 104.5t-279.5 -104.5t-115.5 -280.5q0 -178 115.5 -283.5t279.5 -105.5z" glyph-name="six" horiz-adv-x="1128" unicode="6"/><glyph d="M252 0l530 1399h-721v55h801l-547 -1454h-63z" glyph-name="seven" horiz-adv-x="923" unicode="7"/><glyph d="M553 -20q-184 0 -313 117.5t-129 303.5q0 137 74.5 238.5t199.5 155.5q-193 113 -192 327q0 145 99 249t261 104q160 0 260 -103.5t100 -249.5q0 -215 -192 -327q125 -53 199.5 -154.5t74.5 -239.5q0 -186 -129 -303.5t-313 -117.5zM553 817q125 0 214 88t89 215 q0 121 -82 209t-221 88t-221 -88t-82 -209q0 -127 89 -215t214 -88zM553 39q158 0 269.5 98.5t111.5 261.5q0 162 -108.5 263.5t-272.5 101.5t-272.5 -101.5t-108.5 -263t111.5 -261t269.5 -99.5z" glyph-name="eight" horiz-adv-x="1105" unicode="8"/><glyph d="M565.5 1475q194.5 0 324.5 -128t130 -329q0 -55 -12.5 -112.5t-27.5 -98.5t-45 -94.5t-46.5 -78t-50 -72.5t-39.5 -56l-361 -506h-65l489 694l-8 -10q-135 -102 -285 -102q-197 0 -327.5 122.5t-130.5 319.5t130 324t324.5 127zM565 1415q-162 0 -279.5 -105.5 t-117.5 -283.5q0 -176 117.5 -280.5t279.5 -104.5q164 0 280 104.5t116 280.5q0 178 -116 283.5t-280 105.5z" glyph-name="nine" horiz-adv-x="1128" unicode="9"/><glyph d="M160 926q-43 0 -43 43t43 43t43 -43t-43 -43zM160 -20q-43 0 -43 43t43 43t43 -43t-43 -43z" glyph-name="colon" horiz-adv-x="290" unicode=":"/><glyph d="M231 926q-43 0 -43 43t43 43t43 -43t-43 -43zM66 -293l133 377h61l-135 -377h-59z" glyph-name="semicolon" horiz-adv-x="360" unicode=";"/><glyph d="M946 0l-854 465v55l854 465v-63l-792 -430l792 -426v-66z" glyph-name="less" horiz-adv-x="1017" unicode="&lt;"/><glyph d="M92 719v47h686v-47h-686zM92 397v45h686v-45h-686z" glyph-name="equal" horiz-adv-x="870" unicode="="/><glyph d="M72 0v66l792 426l-792 430v63l854 -465v-55z" glyph-name="greater" horiz-adv-x="1017" unicode=">"/><glyph d="M440 350v88q0 92 40 164t97.5 120t114 96t96 120t39.5 166q0 152 -95 232.5t-243 80.5q-152 0 -252 -88t-100 -252v-37h-61v37q0 180 113.5 289t299.5 109q182 0 290 -102.5t108 -268.5q0 -96 -40 -173t-96.5 -127t-112.5 -98.5t-96 -113t-40 -141.5v-101h-62zM471 -20 q-43 0 -43 43t43 43t43 -43t-43 -43z" glyph-name="question" horiz-adv-x="962" unicode="?"/><glyph d="M1198 78q-147 -98 -354 -98q-301 0 -512 205.5t-211 535.5q0 332 210 543t507 211q295 0 498.5 -213t203.5 -568q0 -199 -59.5 -299t-165.5 -100q-78 0 -133.5 61.5t-59.5 182.5q-39 -129 -131 -187.5t-196 -58.5q-147 0 -253 113.5t-106 316.5t104.5 307.5t254.5 104.5 q100 0 187 -51.5t122 -159.5l14 188h49v-500q0 -135 41 -198.5t107 -63.5q170 0 170 330q0 342 -186.5 540.5t-456.5 198.5q-274 0 -470 -193.5t-196 -504.5q0 -307 195.5 -496.5t480.5 -189.5q207 0 346 108v-65zM801 346q119 0 209 97.5t90 279.5t-88 269t-211 87 q-127 0 -218 -89t-91 -267t93 -277.5t216 -99.5z" glyph-name="at" horiz-adv-x="1660" unicode="@"/><glyph d="M1229 0l-170 418h-766l-170 -418h-64l594 1454h45l594 -1454h-63zM315 477h721l-360 887z" glyph-name="A" horiz-adv-x="1351" unicode="A"/><glyph d="M739 801q156 -31 237 -138.5t81 -259.5q0 -182 -121 -292.5t-363 -110.5h-432v1454h455q195 0 290 -96t95 -240q0 -106 -57.5 -192t-184.5 -125zM592 1397h-391v-572h381q162 0 252 82t90 215q0 127 -84 201t-248 74zM571 57q211 0 319.5 89.5t108.5 254.5 q0 172 -110.5 270.5t-317.5 98.5h-370v-713h370z" glyph-name="B" unicode="B"/><glyph d="M852 -20q-307 0 -519 210.5t-212 536.5t210 537t517 211q344 0 545 -252l-45 -39q-180 231 -496 231q-285 0 -478.5 -192.5t-193.5 -495.5q0 -301 193.5 -494.5t478.5 -193.5q315 0 496 231l45 -39q-201 -251 -541 -251z" glyph-name="C" horiz-adv-x="1492" unicode="C"/><glyph d="M141 0v1454h334q342 0 535.5 -197.5t193.5 -529.5t-193.5 -529.5t-535.5 -197.5h-334zM201 57h272q315 0 493.5 180.5t178.5 489.5t-178.5 489.5t-493.5 180.5h-272v-1340z" glyph-name="D" horiz-adv-x="1302" unicode="D"/><glyph d="M201 59h690v-59h-750v1454h731v-59h-671v-635h577v-60h-577v-641z" glyph-name="E" horiz-adv-x="999" unicode="E"/><glyph d="M885 1401h-684v-643h608v-51h-608v-707h-60v1454h744v-53z" glyph-name="F" horiz-adv-x="993" unicode="F"/><glyph d="M1520 694q4 -326 -191.5 -520t-484.5 -194q-301 0 -512 211.5t-211 535.5q0 326 210 537t517 211q344 0 545 -252l-45 -39q-180 231 -498 231q-285 0 -477.5 -192.5t-192.5 -495.5q0 -299 196.5 -493.5t475.5 -194.5q248 0 420 156.5t188 439.5h-485v59h545z" glyph-name="G" horiz-adv-x="1638" unicode="G"/><glyph d="M1057 1454h59v-1454h-59v678h-856v-678h-60v1454h60v-717h856v717z" glyph-name="H" horiz-adv-x="1257" unicode="H"/><glyph d="M141 0v1454h60v-1454h-60z" glyph-name="I" horiz-adv-x="339" unicode="I"/><glyph d="M395 -20q-106 0 -189 45t-126 122l39 37q96 -147 278 -147q152 0 235 94t83 262v1061h59v-1061q0 -203 -105.5 -308t-273.5 -105z" glyph-name="J" horiz-adv-x="913" unicode="J"/><glyph d="M1085 0l-624 737l-260 -291v-446h-60v1454h60v-928l825 928h82l-608 -676l663 -778h-78z" glyph-name="K" horiz-adv-x="1230" unicode="K"/><glyph d="M201 59h710v-59h-770v1454h60v-1395z" glyph-name="L" horiz-adv-x="1011" unicode="L"/><glyph d="M141 0v1454h70l663 -1372l662 1372h72v-1454h-60v1319h-10l-639 -1319h-51l-637 1319h-10v-1319h-60z" glyph-name="M" horiz-adv-x="1746" unicode="M"/><glyph d="M141 0v1454h64l977 -1348h10v1348h59v-1454h-63l-977 1348h-10v-1348h-60z" glyph-name="N" horiz-adv-x="1392" unicode="N"/><glyph d="M846 -20q-295 0 -510 210.5t-215 536.5t215 537t510 211t511 -210t216 -538t-216 -537.5t-511 -209.5zM846 39q270 0 468.5 192.5t198.5 495.5t-198.5 495.5t-468.5 192.5q-268 0 -467 -192.5t-199 -495.5t199 -495.5t467 -192.5z" glyph-name="O" horiz-adv-x="1693" unicode="O"/><glyph d="M567 1454q225 0 352.5 -127t127.5 -323q0 -201 -126 -327t-354 -126h-366v-551h-60v1454h426zM563 610q197 0 308.5 104.5t111.5 289.5q0 186 -110.5 288.5t-309.5 102.5h-362v-785h362z" glyph-name="P" horiz-adv-x="1146" unicode="P"/><glyph d="M1573 727q0 -182 -71.5 -332.5t-196.5 -253.5l120 -141h-75l-93 106q-184 -127 -411 -126q-295 0 -510 210.5t-215 536.5t215 537t510 211t511 -210t216 -538zM846 39q205 0 373 115l-355 413h76l326 -381q248 203 247 541q0 303 -198.5 495.5t-468.5 192.5 q-268 0 -467 -192.5t-199 -495.5t199 -495.5t467 -192.5z" glyph-name="Q" horiz-adv-x="1693" unicode="Q"/><glyph d="M1071 0h-74l-387 555q-16 -2 -47 -2h-362v-553h-60v1454h422q221 0 347 -127t126 -323q0 -170 -94 -290t-264 -151zM553 614q197 0 308.5 103.5t111.5 286.5q0 184 -111.5 287.5t-308.5 103.5h-352v-781h352z" glyph-name="R" horiz-adv-x="1169" unicode="R"/><glyph d="M551 -20q-178 0 -302 95t-159 253l53 22q31 -143 142.5 -225t267.5 -82t261.5 84t105.5 233q0 139 -88.5 217t-260.5 148l-100 39q-319 125 -319 371q0 152 107.5 246t275.5 94q162 0 264 -84t141 -213l-51 -21q-92 256 -354 256q-137 0 -228.5 -75.5t-91.5 -200.5 q0 -207 268 -312l99 -39q94 -39 156.5 -71.5t123 -81.5t89 -116.5t28.5 -154.5q0 -176 -122 -279t-306 -103z" glyph-name="S" horiz-adv-x="1067" unicode="S"/><glyph d="M997 1454v-59h-424v-1395h-59v1395h-424v59h907z" glyph-name="T" horiz-adv-x="1085" unicode="T"/><glyph d="M631 -20q-217 0 -353.5 137t-136.5 381v956h60v-954q0 -215 117.5 -337t312 -122t312.5 122t118 337v954h59v-956q0 -242 -137 -380t-352 -138z" glyph-name="U" horiz-adv-x="1261" unicode="U"/><glyph d="M664 0l-594 1454h63l553 -1362l553 1362h64l-594 -1454h-45z" glyph-name="V" horiz-adv-x="1372" unicode="V"/><glyph d="M508 0l-428 1454h61l398 -1335l428 1335h53l428 -1335l397 1335h64l-430 -1454h-54l-432 1339l-432 -1339h-53z" glyph-name="W" horiz-adv-x="1986" unicode="W"/><glyph d="M1210 0h-73l-498 702l-498 -702h-71l534 754l-495 700h73l459 -647l457 647h73l-495 -698z" glyph-name="X" horiz-adv-x="1280" unicode="X"/><glyph d="M588 0v678l-508 776h70l466 -719l467 719h72l-508 -776v-678h-59z" glyph-name="Y" horiz-adv-x="1234" unicode="Y"/><glyph d="M70 0l911 1395h-862v59h973l-912 -1395h899v-59h-1009z" glyph-name="Z" horiz-adv-x="1171" unicode="Z"/><glyph d="M92 -266v1792h252v-56h-192v-1681h192v-55h-252z" glyph-name="bracketleft" horiz-adv-x="436" unicode="["/><glyph d="M743 0h-65l-588 1536h66z" glyph-name="backslash" horiz-adv-x="872" unicode="\"/><glyph d="M344 -266h-252v55h193v1681h-193v56h252v-1792z" glyph-name="bracketright" horiz-adv-x="436" unicode="]"/><glyph d="M92 973l342 461h78l342 -461h-92l-287 389l-291 -389h-92z" glyph-name="asciicircum" horiz-adv-x="946" unicode="^"/><glyph d="M92 -57v57h1024v-57h-1024z" glyph-name="underscore" horiz-adv-x="1208" unicode="_"/><glyph d="M211 1202h-66l-125 314h66z" glyph-name="grave" horiz-adv-x="231" unicode="`"/><glyph d="M625 -20q-219 0 -377 148t-158 404t158 404.5t377 148.5q154 0 279.5 -77.5t185.5 -208.5h6v266h57v-1065h-57v266h-6q-59 -131 -185 -208.5t-280 -77.5zM622.5 37q190.5 0 333 130t142.5 365.5t-142.5 365.5t-333 130t-330.5 -129t-140 -366.5t140 -366.5t330.5 -129z " glyph-name="a" horiz-adv-x="1292" unicode="a"/><glyph d="M670 1085q217 0 375.5 -148.5t158.5 -404.5t-158.5 -404t-375.5 -148q-156 0 -281 77.5t-184 208.5h-6v-266h-58v1454h58v-655h6q59 131 184 208.5t281 77.5zM670 37q193 0 333 129t140 366.5t-140.5 366.5t-332.5 129q-190 0 -332.5 -130t-142.5 -365.5t142.5 -365.5 t332.5 -130z" glyph-name="b" horiz-adv-x="1292" unicode="b"/><glyph d="M629 -20q-215 0 -377 150.5t-162 399.5q0 254 161 404.5t378 150.5q143 0 266 -68.5t186 -193.5l-51 -22q-57 109 -164.5 168t-230.5 59q-193 0 -338 -133t-145 -365q0 -227 145 -360t338 -133q123 0 230.5 59.5t164.5 167.5l51 -22q-63 -125 -186 -193.5t-266 -68.5z " glyph-name="c" horiz-adv-x="1169" unicode="c"/><glyph d="M1096 1454h57v-1454h-57v266h-6q-59 -131 -185.5 -208.5t-279.5 -77.5q-219 0 -377 148t-158 404t158 404.5t377 148.5q154 0 279.5 -77.5t185.5 -208.5h6v655zM622.5 37q190.5 0 333 130t142.5 365.5t-142.5 365.5t-333 130t-330.5 -129t-140 -366.5t140 -366.5 t330.5 -129z" glyph-name="d" horiz-adv-x="1292" unicode="d"/><glyph d="M610 1085q102 0 195.5 -37.5t166 -107.5t110.5 -180.5t30 -245.5h-962q8 -221 146 -348t333 -127q115 0 212 44t154 122l41 -39q-74 -90 -183.5 -138t-229.5 -48q-219 0 -376 149.5t-157 405.5q0 254 153.5 402t366.5 148zM608 1026q-180 0 -313 -121t-145 -334h911 q-6 209 -137.5 332t-315.5 123z" glyph-name="e" horiz-adv-x="1202" unicode="e"/><glyph d="M410 1436q-174 0 -174 -209v-162h315v-53h-315v-1012h-58v1012h-108v53h108v168q0 137 68.5 197.5t165.5 60.5q80 0 139 -41v-51q-61 37 -141 37z" glyph-name="f" horiz-adv-x="661" unicode="f"/><glyph d="M1096 1065h57v-1028q0 -123 -44 -216t-120 -144.5t-163 -77t-187 -25.5q-109 0 -193 25.5t-120 54.5v61q121 -84 313 -84q88 0 164 20.5t144.5 65.5t108.5 130t40 204v215h-9q-59 -131 -185 -208.5t-281 -77.5q-215 0 -373 148t-158 404t158 404.5t373 148.5 q156 0 281.5 -77.5t184.5 -208.5h9v266zM621 37q190 0 333.5 130t143.5 365.5t-143.5 365.5t-333.5 130q-188 0 -328.5 -130t-140.5 -365.5t140.5 -365.5t328.5 -130z" glyph-name="g" horiz-adv-x="1292" unicode="g"/><glyph d="M588 1085q184 0 306 -116.5t122 -341.5v-627h-58v625q0 201 -105 302t-269 101q-166 0 -275.5 -101.5t-109.5 -301.5v-625h-58v1454h58v-596q43 94 141 160.5t248 66.5z" glyph-name="h" unicode="h"/><glyph d="M141 1384v70h58v-70h-58zM141 0v1065h58v-1065h-58z" glyph-name="i" horiz-adv-x="337" unicode="i"/><glyph d="M141 1384v70h60v-70h-60zM-184 -395v55h34q139 0 215 67.5t76 243.5v1094h60v-1092q0 -211 -96.5 -289.5t-264.5 -78.5h-24z" glyph-name="j" horiz-adv-x="339" unicode="j"/><glyph d="M887 0l-490 514l-198 -211v-303h-58v1454h58v-1075l639 686h77l-481 -512l535 -553h-82z" glyph-name="k" horiz-adv-x="1036" unicode="k"/><glyph d="M141 0v1454h58v-1454h-58z" glyph-name="l" horiz-adv-x="337" unicode="l"/><glyph d="M1284 1085q172 0 276.5 -112.5t104.5 -335.5v-637h-57v625q0 188 -82 295.5t-248 107.5q-164 0 -255 -109.5t-91 -293.5v-625h-58v625q0 188 -81.5 295.5t-247.5 107.5t-256 -109.5t-90 -293.5v-625h-58v1065h58v-195q39 90 125 152.5t223 62.5q135 0 230 -67.5 t132 -204.5q27 104 121 188t254 84z" glyph-name="m" horiz-adv-x="1806" unicode="m"/><glyph d="M588 1085q184 0 306 -116.5t122 -341.5v-627h-58v625q0 201 -105 302t-269 101q-166 0 -275.5 -101.5t-109.5 -301.5v-625h-58v1065h58v-207q43 94 141 160.5t248 66.5z" glyph-name="n" unicode="n"/><glyph d="M633 -20q-219 0 -381 150.5t-162 402t162 402t381 150.5q217 0 380 -150.5t163 -402t-163 -402t-380 -150.5zM633 37q195 0 338 133t143 362.5t-143.5 362.5t-337.5 133q-197 0 -339 -132t-142 -363.5t142 -363.5t339 -132z" glyph-name="o" horiz-adv-x="1265" unicode="o"/><glyph d="M670 1085q217 0 375.5 -148.5t158.5 -404.5t-158.5 -404t-375.5 -148q-156 0 -281 77.5t-184 208.5h-6v-655h-58v1454h58v-266h6q59 131 184 208.5t281 77.5zM670 37q193 0 333 129t140 366.5t-140.5 366.5t-332.5 129q-190 0 -332.5 -130t-142.5 -365.5t142.5 -365.5 t332.5 -130z" glyph-name="p" horiz-adv-x="1292" unicode="p"/><glyph d="M1096 1065h57v-1454h-57v655h-6q-59 -131 -185.5 -208.5t-279.5 -77.5q-219 0 -377 148t-158 404t158 404.5t377 148.5q154 0 279.5 -77.5t185.5 -208.5h6v266zM622.5 37q190.5 0 333 130t142.5 365.5t-142.5 365.5t-333 130t-330.5 -129t-140 -366.5t140 -366.5 t330.5 -129z" glyph-name="q" horiz-adv-x="1292" unicode="q"/><glyph d="M551 1085q35 0 49 -6v-51q-25 4 -47 4q-150 0 -252 -114.5t-102 -307.5v-610h-58v1065h58v-240q35 113 124 186.5t228 73.5z" glyph-name="r" horiz-adv-x="688" unicode="r"/><glyph d="M428 -20q-137 0 -230.5 75.5t-117.5 200.5l57 16q29 -117 108 -175t185 -58q111 0 190.5 57.5t79.5 169.5q0 92 -59 145.5t-197 112.5l-61 27q-246 106 -246 285q0 109 80 179t205 70q106 0 185 -54t110 -146l-51 -23q-70 164 -244 164q-94 0 -159.5 -48t-65.5 -140 q0 -141 202 -228l50 -22q170 -72 240.5 -138.5t70.5 -183.5q0 -141 -99.5 -213.5t-232.5 -72.5z" glyph-name="s" horiz-adv-x="847" unicode="s"/><glyph d="M479 1012h-200v-862q0 -106 100 -107q45 0 94 23v-54q-41 -25 -96 -24q-74 0 -116 35.5t-42 105.5v883h-129v53h129v272h60v-272h200v-53z" glyph-name="t" horiz-adv-x="579" unicode="t"/><glyph d="M958 1065h58v-1065h-58v207q-43 -94 -141 -160.5t-248 -66.5q-184 0 -306 116.5t-122 341.5v627h58v-625q0 -201 105.5 -302t268.5 -101q166 0 275.5 101.5t109.5 301.5v625z" glyph-name="u" unicode="u"/><glyph d="M528 0l-458 1065h63l420 -979l420 979h63l-458 -1065h-50z" glyph-name="v" horiz-adv-x="1105" unicode="v"/><glyph d="M1765 1065h64l-410 -1065h-57l-412 989l-413 -989h-58l-409 1065h63l377 -977l408 977h63l408 -977z" glyph-name="w" horiz-adv-x="1898" unicode="w"/><glyph d="M59 0l418 543l-405 522h73l365 -475l364 475h72l-403 -522l418 -543h-76l-375 496l-375 -496h-76z" glyph-name="x" horiz-adv-x="1017" unicode="x"/><glyph d="M973 1065h63l-458 -1065l-175 -389h-59l180 399l-454 1055h63l420 -979z" glyph-name="y" horiz-adv-x="1105" unicode="y"/><glyph d="M70 0l786 1010h-731v55h844l-789 -1008h770v-57h-880z" glyph-name="z" horiz-adv-x="1038" unicode="z"/><glyph d="M315 -266q-59 0 -95 41t-36 96v610l-92 146l92 149v613q0 55 36 96t95 41h72v-56h-72q-33 0 -52 -21.5t-19 -53.5v-629l-74 -139l74 -135v-627q0 -33 19.5 -54.5t51.5 -21.5h72v-55h-72z" glyph-name="braceleft" horiz-adv-x="479" unicode="{"/><glyph d="M172 -184v1638h55v-1638h-55z" glyph-name="bar" horiz-adv-x="399" unicode="|"/><glyph d="M164 -266h-72v55h72q33 0 52.5 21.5t19.5 54.5v627l75 135l-75 139v629q0 33 -19.5 54t-52.5 21h-72v56h72q59 0 95 -41t36 -96v-613l92 -149l-92 -146v-610q0 -55 -36 -96t-95 -41z" glyph-name="braceright" horiz-adv-x="479" unicode="}"/><glyph d="M506 483q-63 0 -135 73t-125 73q-47 0 -71.5 -31t-24.5 -76h-58q0 82 46 123t112 41q41 0 78 -22.5t58.5 -50t54 -50t69.5 -22.5q47 0 71.5 30.5t24.5 75.5h58q0 -82 -46 -123t-112 -41z" glyph-name="asciitilde" horiz-adv-x="755" unicode="~"/><glyph d="M184 1085q20 0 31.5 -13t11.5 -29.5t-11 -30t-32 -13.5q-43 0 -43 43t43 43zM141 719h58v-1108h-58v1108z" glyph-name="exclamdown" horiz-adv-x="270" unicode="¡"/><glyph d="M653 188q119 4 220.5 62.5t156.5 161.5l51 -21q-61 -119 -175.5 -185.5t-252.5 -72.5v-215h-57v215q-207 12 -356.5 158.5t-149.5 380.5q0 240 149.5 386t356.5 159v217h57v-217q137 -6 252 -73t176 -183l-51 -23q-55 102 -156.5 160.5t-220.5 62.5v-973zM152 672 q0 -211 131 -340t313 -142v969q-182 -12 -313 -143t-131 -344z" glyph-name="cent" horiz-adv-x="1169" unicode="¢"/><glyph d="M1022 1012h-55v28q0 188 -111 283.5t-264 95.5q-147 0 -254 -85t-107 -244q0 -68 19.5 -135.5t56.5 -155.5t51 -129h363v-52h-348q20 -76 20 -143q0 -207 -200 -418h811v-57h-893v57q225 213 225 428q0 68 -19 133h-194v52h178q-14 39 -52 125t-57.5 153.5t-19.5 138.5 q0 170 114.5 279t307.5 109q195 0 311.5 -118t116.5 -317v-28z" glyph-name="sterling" horiz-adv-x="1132" unicode="£"/><glyph d="M1032 975q0 -168 -106 -293l98 -98l-68 -68l-98 98q-125 -98 -285 -98q-162 0 -284 100l-101 -100l-67 68l98 98q-104 127 -104 293t104 293l-98 98l67 68l101 -101q123 100 284 101q160 0 285 -99l98 99l68 -68l-98 -98q106 -125 106 -293zM573 602q154 -2 264.5 105.5 t110.5 267.5t-110.5 264t-264.5 109q-154 2 -263 -105.5t-109 -267.5q0 -158 108 -263.5t264 -109.5z" glyph-name="currency" horiz-adv-x="1144" unicode="¤"/><glyph d="M647 678v-23h307v-59h-307v-86h307v-61h-307v-449h-59v449h-285v61h285v86h-285v59h285v23l-508 776h70l466 -719l467 719h72z" glyph-name="yen" horiz-adv-x="1234" unicode="¥"/><glyph d="M172 881v573h55v-573h-55zM172 -184v573h55v-573h-55z" glyph-name="brokenbar" horiz-adv-x="399" unicode="¦"/><glyph d="M678 334q111 -82 110 -221q0 -137 -107.5 -218t-272.5 -81q-115 0 -208.5 46t-109.5 89v201h43v-181q18 -33 97 -70.5t180 -37.5q137 0 233 65.5t96 188.5q0 61 -21.5 106t-68.5 77t-88 50.5t-112 42.5l-91 35q-262 96 -262 297q0 137 123 215q-123 86 -123 227 q0 119 93.5 195t238.5 76q106 0 188 -40t113 -85v-203h-45v182q-20 31 -89 65t-165 34q-129 0 -208 -59.5t-79 -162.5q0 -166 230 -254l88 -32q63 -23 99 -39.5t86 -45t77 -59t46 -78t19 -104.5q1 -141 -110 -221zM373 471l88 -33q113 -41 176 -78q102 72 102 197 q0 61 -21.5 106.5t-68.5 77t-88 50t-112 43.5l-91 34q-61 25 -98 45q-117 -63 -117 -188q1 -166 230 -254z" glyph-name="section" horiz-adv-x="876" unicode="§"/><glyph d="M0 1382v66h63v-66h-63zM365 1382v66h63v-66h-63z" glyph-name="dieresis" horiz-adv-x="428" unicode="¨"/><glyph d="M848 -14q-299 0 -513 205.5t-214 535.5t214 535.5t513 205.5t513 -205.5t214 -535.5t-214 -535.5t-513 -205.5zM848 51q270 0 464.5 185.5t194.5 490.5t-194.5 490.5t-464.5 185.5t-466 -185.5t-196 -490.5t196 -490.5t466 -185.5zM860 244q-197 0 -333 136t-136 347 t136.5 347t332.5 136q190 0 324 -129l-45 -47q-106 111 -277 111q-166 0 -285.5 -115t-119.5 -303t119.5 -303t285.5 -115q170 0 277 113l45 -49q-134 -129 -324 -129z" glyph-name="copyright" horiz-adv-x="1693" unicode="©"/><glyph d="M295 791q-90 0 -147.5 49t-57.5 139q0 160 227 190l224 25q-4 184 -189 184q-113 0 -209 -96l-37 41q86 117 250 117q123 0 184.5 -72t63.5 -225v-197q0 -84 33 -149h-70q-29 35 -28 108q-90 -114 -244 -114zM303 854q88 0 153.5 50t84.5 91v138l-226 -25 q-162 -20 -161 -127q0 -61 41.5 -94t107.5 -33z" glyph-name="ordfeminine" horiz-adv-x="778" unicode="ª"/><glyph d="M377 287l-295 293v55l295 291l31 -31l-277 -289l277 -289zM664 287l-295 293v55l295 291l30 -31l-276 -289l276 -289z" glyph-name="guillemotleft" horiz-adv-x="745" unicode="«"/><glyph d="M805 618v-258h-49v213h-664v45h713z" glyph-name="logicalnot" horiz-adv-x="897" unicode="¬"/><glyph d="M92 559v45h635v-45h-635z" glyph-name="uni00AD" horiz-adv-x="819" unicode="­"/><glyph d="M848 -14q-299 0 -513 205.5t-214 535.5q0 338 213 545t514 207q299 0 513 -207t214 -545q0 -330 -214 -535.5t-513 -205.5zM848 51q270 0 464.5 185.5t194.5 490.5q0 313 -194.5 499.5t-464.5 186.5q-174 0 -323.5 -79t-244 -238.5t-94.5 -368.5q0 -305 196 -490.5 t466 -185.5zM582 301v866h276q135 0 212 -74.5t77 -195.5q0 -111 -61.5 -177.5t-153.5 -78.5l258 -340h-86l-252 336h-205v-336h-65zM649 705h211q221 0 221 190q0 98 -56 153.5t-165 55.5h-211v-399z" glyph-name="registered" horiz-adv-x="1693" unicode="®"/><glyph d="M0 1380v54h731v-54h-731z" glyph-name="macron" horiz-adv-x="731" unicode="¯"/><glyph d="M405.5 879q-124.5 0 -209.5 87t-85 212t85 211t209.5 86t210.5 -86t86 -211t-86 -212t-210.5 -87zM405.5 936q100.5 0 170 68.5t69.5 173t-69.5 173t-170 68.5t-169 -68.5t-68.5 -173t68.5 -173t169 -68.5z" glyph-name="degree" horiz-adv-x="813" unicode="°"/><glyph d="M401 203v311h-309v47h309v307h45v-307h312v-47h-312v-311h-45zM80 49h688v-47h-688v47z" glyph-name="plusminus" horiz-adv-x="849" unicode="±"/><glyph d="M106 901v66l140 141q57 59 74.5 78.5t32 46.5t14.5 55q0 37 -29 63.5t-66 26.5q-39 0 -67.5 -26.5t-28.5 -75.5v-29h-76v29q0 72 50.5 119t121.5 47q70 0 121 -46t51 -108q0 -53 -29.5 -96t-109.5 -125l-96 -100h242v-66h-345z" glyph-name="uni00B2" horiz-adv-x="569" unicode="²"/><glyph d="M297 893q-82 0 -136.5 55.5t-49.5 130.5h77q4 -51 32 -86t77 -35q45 0 78 28t33 71q0 55 -38 75.5t-114 24.5v57q129 0 129 86q0 33 -25.5 54.5t-62.5 21.5q-45 0 -70.5 -28.5t-27.5 -81.5h-74q0 78 48 126t124 48q66 0 115 -42t49 -98q0 -66 -62 -108q86 -37 86 -135 q0 -70 -56 -117t-132 -47z" glyph-name="uni00B3" horiz-adv-x="593" unicode="³"/><glyph d="M20 1202l123 314h68l-125 -314h-66z" glyph-name="acute" horiz-adv-x="231" unicode="´"/><glyph d="M958 1065h58v-1065h-58v207q-43 -94 -141 -160.5t-248 -66.5q-121 0 -218 51t-152 153v-573h-58v1454h58v-625q0 -201 105.5 -302t268.5 -101q166 0 275.5 101.5t109.5 301.5v625z" glyph-name="uni00B5" unicode="µ"/><glyph d="M121 1004q0 197 127 323.5t352 126.5h426v-1454h-59v551h-367q-227 0 -353 126t-126 327zM1135 1454h59v-1454h-59v1454zM967 1395h-363q-199 0 -310.5 -103.5t-111.5 -287.5q0 -182 112 -288t310 -106h363v785z" glyph-name="paragraph" horiz-adv-x="1333" unicode="¶"/><glyph d="M149.5 512q-43.5 0 -43.5 43t43.5 43t43.5 -43t-43.5 -43z" glyph-name="periodcentered" horiz-adv-x="299" unicode="·"/><glyph d="M109 -94q70 4 120 -40t50 -120q0 -94 -73 -136t-177 -30v64q178 -20 178 102q0 113 -152 94l-35 39l84 121h72z" glyph-name="cedilla" horiz-adv-x="299" unicode="¸"/><glyph d="M199 901v453l-35 -23l-37 64l72 41h75v-535h-75z" glyph-name="uni00B9" horiz-adv-x="442" unicode="¹"/><glyph d="M401.5 788q-118.5 0 -215 90.5t-96.5 240t96.5 237.5t215 88t215 -88t96.5 -237.5t-96.5 -240t-215 -90.5zM401.5 850q98.5 0 174 70.5t75.5 197.5t-75.5 196.5t-174 69.5t-174 -69.5t-75.5 -196.5t75.5 -197.5t174 -70.5z" glyph-name="ordmasculine" horiz-adv-x="802" unicode="º"/><glyph d="M82 287l-31 30l277 289l-277 289l31 31l295 -291v-55zM369 287l-31 30l276 289l-276 289l31 31l295 -291v-55z" glyph-name="guillemotright" horiz-adv-x="745" unicode="»"/><glyph d="M129 901v453l-35 -23l-37 64l72 41h76v-535h-76zM51 0l893 1434h86l-880 -1434h-99zM983 0v156h-270l270 379h76v-316h55v-63h-55v-156h-76zM850 219h133v195z" glyph-name="onequarter" horiz-adv-x="1165" unicode="¼"/><glyph d="M129 901v453l-35 -23l-37 64l72 41h76v-535h-76zM51 0l893 1434h86l-880 -1434h-99zM719 0v66l139 141q57 59 74.5 78.5t32 46t14.5 55.5q0 37 -28.5 63.5t-65.5 26.5q-39 0 -68 -26.5t-29 -75.5v-29h-75v29q0 72 50 119t122 47q70 0 121 -46t51 -108q0 -53 -30 -96 t-109 -125l-97 -100h242v-66h-344z" glyph-name="onehalf" horiz-adv-x="1114" unicode="½"/><glyph d="M238 893q-82 0 -135.5 55.5t-51.5 130.5h78q4 -51 31.5 -86t77.5 -35q45 0 77.5 28t32.5 71q0 55 -38 75.5t-113 24.5v57q129 0 129 86q0 33 -26 54.5t-62 21.5q-94 0 -97 -110h-75q0 78 48 126t124 48q66 0 114.5 -42t48.5 -98q0 -66 -61 -108q86 -37 86 -135 q0 -70 -56 -117t-132 -47zM109 0l892 1434h86l-880 -1434h-98zM1020 0v156h-270l270 379h76v-316h55v-63h-55v-156h-76zM887 219h133v195z" glyph-name="threequarters" horiz-adv-x="1202" unicode="¾"/><glyph d="M492 1085q20 0 31.5 -13t11.5 -29.5t-11.5 -30t-31.5 -13.5q-43 0 -43 43t43 43zM522 715v-88q0 -92 -40 -164t-97 -120t-113.5 -96t-96.5 -120t-40 -166q0 -152 95.5 -232.5t240.5 -80.5q154 0 254 88t100 252v37h62v-37q0 -180 -114 -289t-300 -109 q-182 0 -289.5 102.5t-107.5 268.5q0 96 40 173t95 127t111.5 98.5t96.5 113t40 141.5v101h63z" glyph-name="questiondown" horiz-adv-x="962" unicode="¿"/><glyph d="M705 1571h-66l-125 313h66zM1229 0l-170 418h-766l-170 -418h-64l594 1454h45l594 -1454h-63zM315 477h721l-360 887z" glyph-name="Agrave" horiz-adv-x="1351" unicode="À"/><glyph d="M850 1884l-125 -313h-66l123 313h68zM1229 0l-170 418h-766l-170 -418h-64l594 1454h45l594 -1454h-63zM315 477h721l-360 887z" glyph-name="Aacute" horiz-adv-x="1351" unicode="Á"/><glyph d="M676 1821l-184 -219l-46 38l205 244h47l205 -244l-43 -38zM1229 0l-170 418h-766l-170 -418h-64l594 1454h45l594 -1454h-63zM315 477h721l-360 887z" glyph-name="Acircumflex" horiz-adv-x="1351" unicode="Â"/><glyph d="M547 1778q-47 0 -71.5 -32t-24.5 -77h-58q0 82 46 123t112 41q63 0 135 -72.5t125 -72.5q47 0 71.5 30.5t24.5 77.5h58q0 -84 -46.5 -125t-111.5 -41q-53 0 -95 37t-81 74t-84 37zM1229 0l-170 418h-766l-170 -418h-64l594 1454h45l594 -1454h-63zM315 477h721l-360 887z " glyph-name="Atilde" horiz-adv-x="1351" unicode="Ã"/><glyph d="M526 1817v-66h-63v66h63zM891 1817v-66h-64v66h64zM1229 0l-170 418h-766l-170 -418h-64l594 1454h45l594 -1454h-63zM315 477h721l-360 887z" glyph-name="Adieresis" horiz-adv-x="1351" unicode="Ä"/><glyph d="M676 1610q-63 0 -106.5 42t-43.5 103.5t43 103.5t107 42q61 0 104 -42t43 -103.5t-43 -103.5t-104 -42zM676 1847q-39 0 -66.5 -26.5t-27.5 -65.5t27.5 -66.5t66.5 -27.5t65.5 27.5t26.5 66.5t-26.5 65.5t-65.5 26.5zM1229 0l-170 418h-766l-170 -418h-64l594 1454h45 l594 -1454h-63zM315 477h721l-360 887z" glyph-name="Aring" horiz-adv-x="1351" unicode="Å"/><glyph d="M1114 59h692v-59h-751v434h-631l-293 -434h-72l981 1454h748v-59h-674v-635h580v-60h-580v-641zM461 489h594v883z" glyph-name="AE" horiz-adv-x="1914" unicode="Æ"/><glyph d="M852 39q315 0 496 231l45 -39q-188 -238 -500 -249l-53 -76q70 4 120 -40t50 -120q0 -94 -73 -136t-177 -30v64q178 -20 178 102q0 113 -152 94l-34 39l69 101q-299 12 -499.5 222t-200.5 525q0 326 210 537t517 211q344 0 545 -252l-45 -39q-180 231 -496 231 q-285 0 -478.5 -192.5t-193.5 -495.5q0 -301 193.5 -494.5t478.5 -193.5z" glyph-name="Ccedilla" horiz-adv-x="1492" unicode="Ç"/><glyph d="M575 1591h-65l-125 314h66zM201 59h690v-59h-750v1454h731v-59h-671v-635h577v-60h-577v-641z" glyph-name="Egrave" horiz-adv-x="999" unicode="È"/><glyph d="M723 1905l-125 -314h-66l123 314h68zM201 59h690v-59h-750v1454h731v-59h-671v-635h577v-60h-577v-641z" glyph-name="Eacute" horiz-adv-x="999" unicode="É"/><glyph d="M549 1841l-184 -219l-46 39l205 244h47l205 -244l-43 -39zM201 59h690v-59h-750v1454h731v-59h-671v-635h577v-60h-577v-641z" glyph-name="Ecircumflex" horiz-adv-x="999" unicode="Ê"/><glyph d="M397 1837v-65h-63v65h63zM762 1837v-65h-64v65h64zM201 59h690v-59h-750v1454h731v-59h-671v-635h577v-60h-577v-641z" glyph-name="Edieresis" horiz-adv-x="999" unicode="Ë"/><glyph d="M199 1591h-66l-125 314h66zM141 0v1454h60v-1454h-60z" glyph-name="Igrave" horiz-adv-x="339" unicode="Ì"/><glyph d="M154 1591l122 314h68l-125 -314h-65zM141 0v1454h60v-1454h-60z" glyph-name="Iacute" horiz-adv-x="339" unicode="Í"/><glyph d="M-14 1622l-45 39l204 244h48l204 -244l-43 -39l-184 219zM141 0v1454h60v-1454h-60z" glyph-name="Icircumflex" horiz-adv-x="339" unicode="Î"/><glyph d="M-43 1772v65h63v-65h-63zM322 1772v65h63v-65h-63zM141 0v1454h60v-1454h-60z" glyph-name="Idieresis" horiz-adv-x="339" unicode="Ï"/><glyph d="M461 1454q340 0 533.5 -197.5t193.5 -529.5t-193.5 -529.5t-533.5 -197.5h-336v698h-137v45h137v711h336zM457 57q317 0 494 180.5t177 489.5t-177 489.5t-494 180.5h-273v-654h439v-45h-439v-641h273z" glyph-name="Eth" horiz-adv-x="1288" unicode="Ð"/><glyph d="M827 1651q-53 0 -95 36.5t-81 73.5t-84 37q-47 0 -71.5 -31.5t-24.5 -76.5h-57q0 82 46 122.5t111 40.5q63 0 135 -72.5t125 -72.5q47 0 72 30.5t25 78.5h57q0 -84 -46 -125t-112 -41zM141 0v1454h64l977 -1348h10v1348h59v-1454h-63l-977 1348h-10v-1348h-60z" glyph-name="Ntilde" horiz-adv-x="1392" unicode="Ñ"/><glyph d="M877 1591h-66l-125 314h66zM846 -20q-295 0 -510 210.5t-215 536.5t215 537t510 211t511 -210t216 -538t-216 -537.5t-511 -209.5zM846 39q270 0 468.5 192.5t198.5 495.5t-198.5 495.5t-468.5 192.5q-268 0 -467 -192.5t-199 -495.5t199 -495.5t467 -192.5z" glyph-name="Ograve" horiz-adv-x="1693" unicode="Ò"/><glyph d="M831 1591l123 314h68l-125 -314h-66zM846 -20q-295 0 -510 210.5t-215 536.5t215 537t510 211t511 -210t216 -538t-216 -537.5t-511 -209.5zM846 39q270 0 468.5 192.5t198.5 495.5t-198.5 495.5t-468.5 192.5q-268 0 -467 -192.5t-199 -495.5t199 -495.5t467 -192.5z " glyph-name="Oacute" horiz-adv-x="1693" unicode="Ó"/><glyph d="M664 1622l-46 39l205 244h47l205 -244l-43 -39l-184 219zM846 -20q-295 0 -510 210.5t-215 536.5t215 537t510 211t511 -210t216 -538t-216 -537.5t-511 -209.5zM846 39q270 0 468.5 192.5t198.5 495.5t-198.5 495.5t-468.5 192.5q-268 0 -467 -192.5t-199 -495.5 t199 -495.5t467 -192.5z" glyph-name="Ocircumflex" horiz-adv-x="1693" unicode="Ô"/><glyph d="M979 1651q-53 0 -95 36.5t-81 73.5t-84 37q-47 0 -71.5 -31.5t-24.5 -76.5h-58q0 82 46 122.5t112 40.5q41 0 78 -22.5t58.5 -50t54 -50t69.5 -22.5q47 0 71.5 30.5t24.5 78.5h58q0 -84 -46 -125t-112 -41zM846 -20q-295 0 -510 210.5t-215 536.5t215 537t510 211 t511 -210t216 -538t-216 -537.5t-511 -209.5zM846 39q270 0 468.5 192.5t198.5 495.5t-198.5 495.5t-468.5 192.5q-268 0 -467 -192.5t-199 -495.5t199 -495.5t467 -192.5z" glyph-name="Otilde" horiz-adv-x="1693" unicode="Õ"/><glyph d="M635 1772v65h63v-65h-63zM999 1772v65h64v-65h-64zM846 -20q-295 0 -510 210.5t-215 536.5t215 537t510 211t511 -210t216 -538t-216 -537.5t-511 -209.5zM846 39q270 0 468.5 192.5t198.5 495.5t-198.5 495.5t-468.5 192.5q-268 0 -467 -192.5t-199 -495.5t199 -495.5 t467 -192.5z" glyph-name="Odieresis" horiz-adv-x="1693" unicode="Ö"/><glyph d="M598 367l-33 -33l-219 221l-221 -221l-33 33l221 221l-219 217l33 33l219 -217l217 217l33 -33l-217 -217z" glyph-name="multiply" horiz-adv-x="688" unicode="×"/><glyph d="M1200 1382q170 -94 271.5 -265t101.5 -390q0 -328 -216 -537.5t-511 -209.5q-150 0 -285 59l-67 -141h-68l80 168q-174 92 -279.5 265t-105.5 396q0 326 215 537t510 211q156 0 299 -64l55 115h68zM180 727q0 -205 96.5 -364.5t253.5 -243.5l590 1237q-131 59 -274 59 q-268 0 -467 -192.5t-199 -495.5zM846 39q270 0 468.5 192.5t198.5 495.5q0 203 -92 359.5t-247 242.5l-588 -1237q125 -53 260 -53z" glyph-name="Oslash" horiz-adv-x="1693" unicode="Ø"/><glyph d="M659 1591h-65l-125 314h66zM631 -20q-217 0 -353.5 137t-136.5 381v956h60v-954q0 -215 117.5 -337t312 -122t312.5 122t118 337v954h59v-956q0 -242 -137 -380t-352 -138z" glyph-name="Ugrave" horiz-adv-x="1261" unicode="Ù"/><glyph d="M614 1591l123 314h68l-125 -314h-66zM631 -20q-217 0 -353.5 137t-136.5 381v956h60v-954q0 -215 117.5 -337t312 -122t312.5 122t118 337v954h59v-956q0 -242 -137 -380t-352 -138z" glyph-name="Uacute" horiz-adv-x="1261" unicode="Ú"/><glyph d="M446 1622l-45 39l205 244h47l205 -244l-43 -39l-184 219zM631 -20q-217 0 -353.5 137t-136.5 381v956h60v-954q0 -215 117.5 -337t312 -122t312.5 122t118 337v954h59v-956q0 -242 -137 -380t-352 -138z" glyph-name="Ucircumflex" horiz-adv-x="1261" unicode="Û"/><glyph d="M418 1772v65h63v-65h-63zM782 1772v65h64v-65h-64zM631 -20q-217 0 -353.5 137t-136.5 381v956h60v-954q0 -215 117.5 -337t312 -122t312.5 122t118 337v954h59v-956q0 -242 -137 -380t-352 -138z" glyph-name="Udieresis" horiz-adv-x="1261" unicode="Ü"/><glyph d="M602 1591l123 314h68l-125 -314h-66zM588 0v678l-508 776h70l466 -719l467 719h72l-508 -776v-678h-59z" glyph-name="Yacute" horiz-adv-x="1234" unicode="Ý"/><glyph d="M621 1153q229 0 350 -109.5t121 -312.5t-121 -312.5t-350 -109.5h-420v-309h-60v1454h60v-301h420zM610 365q422 0 422 366.5t-422 366.5h-409v-733h409z" glyph-name="Thorn" horiz-adv-x="1189" unicode="Þ"/><glyph d="M141 0v1090q0 154 106.5 249t321.5 95q205 0 323 -91.5t118 -257.5q0 -229 -224 -299q156 -41 223.5 -133t67.5 -241q0 -201 -125 -306.5t-370 -105.5h-220v57h211q446 0 447 351q0 352 -463 352h-195v55h199q193 0 293 63.5t100 207t-102 218t-285 74.5 q-369 0 -368 -295v-1083h-58z" glyph-name="germandbls" horiz-adv-x="1177" unicode="ß"/><glyph d="M655 1202h-65l-125 314h65zM625 -20q-219 0 -377 148t-158 404t158 404.5t377 148.5q154 0 279.5 -77.5t185.5 -208.5h6v266h57v-1065h-57v266h-6q-59 -131 -185 -208.5t-280 -77.5zM622.5 37q190.5 0 333 130t142.5 365.5t-142.5 365.5t-333 130t-330.5 -129 t-140 -366.5t140 -366.5t330.5 -129z" glyph-name="agrave" horiz-adv-x="1292" unicode="à"/><glyph d="M610 1202l123 314h68l-125 -314h-66zM625 -20q-219 0 -377 148t-158 404t158 404.5t377 148.5q154 0 279.5 -77.5t185.5 -208.5h6v266h57v-1065h-57v266h-6q-59 -131 -185 -208.5t-280 -77.5zM622.5 37q190.5 0 333 130t142.5 365.5t-142.5 365.5t-333 130t-330.5 -129 t-140 -366.5t140 -366.5t330.5 -129z" glyph-name="aacute" horiz-adv-x="1292" unicode="á"/><glyph d="M442 1233l-45 39l205 244h47l205 -244l-43 -39l-184 219zM625 -20q-219 0 -377 148t-158 404t158 404.5t377 148.5q154 0 279.5 -77.5t185.5 -208.5h6v266h57v-1065h-57v266h-6q-59 -131 -185 -208.5t-280 -77.5zM622.5 37q190.5 0 333 130t142.5 365.5t-142.5 365.5 t-333 130t-330.5 -129t-140 -366.5t140 -366.5t330.5 -129z" glyph-name="acircumflex" horiz-adv-x="1292" unicode="â"/><glyph d="M758 1262q-53 0 -95 36.5t-81 73.5t-84 37q-47 0 -72 -31.5t-25 -77.5h-57q0 82 46 123t112 41q63 0 135 -72.5t125 -72.5q47 0 71.5 30.5t24.5 77.5h57q0 -84 -45.5 -124.5t-111.5 -40.5zM625 -20q-219 0 -377 148t-158 404t158 404.5t377 148.5q154 0 279.5 -77.5 t185.5 -208.5h6v266h57v-1065h-57v266h-6q-59 -131 -185 -208.5t-280 -77.5zM622.5 37q190.5 0 333 130t142.5 365.5t-142.5 365.5t-333 130t-330.5 -129t-140 -366.5t140 -366.5t330.5 -129z" glyph-name="atilde" horiz-adv-x="1292" unicode="ã"/><glyph d="M414 1382v66h63v-66h-63zM778 1382v66h64v-66h-64zM625 -20q-219 0 -377 148t-158 404t158 404.5t377 148.5q154 0 279.5 -77.5t185.5 -208.5h6v266h57v-1065h-57v266h-6q-59 -131 -185 -208.5t-280 -77.5zM622.5 37q190.5 0 333 130t142.5 365.5t-142.5 365.5t-333 130 t-330.5 -129t-140 -366.5t140 -366.5t330.5 -129z" glyph-name="adieresis" horiz-adv-x="1292" unicode="ä"/><glyph d="M629 1241q-63 0 -106.5 42t-43.5 103.5t43 103.5t107 42q61 0 104 -42t43 -103.5t-43 -103.5t-104 -42zM629 1292q39 0 65.5 28t26.5 66.5t-26.5 65.5t-65.5 27t-66.5 -27t-27.5 -65.5t27.5 -66.5t66.5 -28zM625 -20q-219 0 -377 148t-158 404t158 404.5t377 148.5 q154 0 279.5 -77.5t185.5 -208.5h6v266h57v-1065h-57v266h-6q-59 -131 -185 -208.5t-280 -77.5zM622.5 37q190.5 0 333 130t142.5 365.5t-142.5 365.5t-333 130t-330.5 -129t-140 -366.5t140 -366.5t330.5 -129z" glyph-name="aring" horiz-adv-x="1292" unicode="å"/><glyph d="M1618 1085q102 0 196.5 -37.5t166 -107.5t110.5 -180.5t31 -245.5h-965q8 -223 146.5 -349t334.5 -126q113 0 210.5 44t154.5 122l41 -39q-74 -90 -183.5 -138t-228.5 -48q-154 0 -283.5 76.5t-195.5 215.5v-272h-57v266h-6q-59 -131 -185.5 -208.5t-279.5 -77.5 q-219 0 -377 148t-158 404t158 404.5t377 148.5q154 0 279.5 -77.5t185.5 -208.5h6v266h57v-268q66 137 192 212.5t273 75.5zM622.5 37q190.5 0 333 130t142.5 365.5t-142.5 365.5t-333 130t-330.5 -129t-140 -366.5t140 -366.5t330.5 -129zM1618 1026q-180 0 -314.5 -121 t-146.5 -334h911q-4 209 -135 332t-315 123z" glyph-name="ae" horiz-adv-x="2211" unicode="æ"/><glyph d="M635 37q123 0 230.5 59.5t164.5 167.5l51 -22q-61 -119 -175.5 -187.5t-250.5 -74.5l-53 -74q70 4 120 -40t50 -120q0 -94 -72.5 -136t-177.5 -30v64q178 -20 178 102q0 113 -151 94l-35 39l72 103q-205 16 -350.5 163.5t-145.5 384.5q0 254 161 404.5t378 150.5 q143 0 266 -68.5t186 -193.5l-51 -22q-57 109 -164.5 168t-230.5 59q-193 0 -338 -133t-145 -365q0 -227 145 -360t338 -133z" glyph-name="ccedilla" horiz-adv-x="1169" unicode="ç"/><glyph d="M621 1202h-66l-125 314h66zM610 1085q102 0 195.5 -37.5t166 -107.5t110.5 -180.5t30 -245.5h-962q8 -221 146 -348t333 -127q115 0 212 44t154 122l41 -39q-74 -90 -183.5 -138t-229.5 -48q-219 0 -376 149.5t-157 405.5q0 254 153.5 402t366.5 148zM608 1026 q-180 0 -313 -121t-145 -334h911q-6 209 -137.5 332t-315.5 123z" glyph-name="egrave" horiz-adv-x="1202" unicode="è"/><glyph d="M766 1516l-125 -314h-66l123 314h68zM610 1085q102 0 195.5 -37.5t166 -107.5t110.5 -180.5t30 -245.5h-962q8 -221 146 -348t333 -127q115 0 212 44t154 122l41 -39q-74 -90 -183.5 -138t-229.5 -48q-219 0 -376 149.5t-157 405.5q0 254 153.5 402t366.5 148zM608 1026 q-180 0 -313 -121t-145 -334h911q-6 209 -137.5 332t-315.5 123z" glyph-name="eacute" horiz-adv-x="1202" unicode="é"/><glyph d="M592 1452l-184 -219l-46 39l205 244h47l205 -244l-43 -39zM610 1085q102 0 195.5 -37.5t166 -107.5t110.5 -180.5t30 -245.5h-962q8 -221 146 -348t333 -127q115 0 212 44t154 122l41 -39q-74 -90 -183.5 -138t-229.5 -48q-219 0 -376 149.5t-157 405.5q0 254 153.5 402 t366.5 148zM608 1026q-180 0 -313 -121t-145 -334h911q-6 209 -137.5 332t-315.5 123z" glyph-name="ecircumflex" horiz-adv-x="1202" unicode="ê"/><glyph d="M442 1448v-66h-63v66h63zM807 1448v-66h-64v66h64zM610 1085q102 0 195.5 -37.5t166 -107.5t110.5 -180.5t30 -245.5h-962q8 -221 146 -348t333 -127q115 0 212 44t154 122l41 -39q-74 -90 -183.5 -138t-229.5 -48q-219 0 -376 149.5t-157 405.5q0 254 153.5 402 t366.5 148zM608 1026q-180 0 -313 -121t-145 -334h911q-6 209 -137.5 332t-315.5 123z" glyph-name="edieresis" horiz-adv-x="1202" unicode="ë"/><glyph d="M199 1202h-66l-125 314h66zM141 0v1065h58v-1065h-58z" glyph-name="igrave" horiz-adv-x="337" unicode="ì"/><glyph d="M156 1202l123 314h67l-125 -314h-65zM141 0v1065h58v-1065h-58z" glyph-name="iacute" horiz-adv-x="337" unicode="í"/><glyph d="M-12 1233l-45 39l204 244h48l204 -244l-43 -39l-184 219zM141 0v1065h58v-1065h-58z" glyph-name="icircumflex" horiz-adv-x="337" unicode="î"/><glyph d="M-43 1382v66h63v-66h-63zM322 1382v66h63v-66h-63zM141 0v1065h58v-1065h-58z" glyph-name="idieresis" horiz-adv-x="337" unicode="ï"/><glyph d="M766 1208q147 -190 225 -348t78 -344q0 -250 -142.5 -393t-359.5 -143q-203 0 -340 144t-137 392q0 258 126 403.5t351 145.5q215 0 328 -121l-195 256l-221 -29v48l189 24l-146 191h68l141 -183l172 23v-47zM567 37q186 0 314.5 125t128.5 354q0 492 -443 492 q-201 0 -309 -122t-108 -370q0 -229 122.5 -354t294.5 -125z" glyph-name="eth" horiz-adv-x="1210" unicode="ð"/><glyph d="M465 1409q-47 0 -71.5 -31.5t-24.5 -77.5h-58q0 82 46 123t112 41q63 0 135 -72.5t125 -72.5q47 0 71.5 30.5t24.5 77.5h58q0 -84 -46 -124.5t-112 -40.5q-53 0 -95 36.5t-81 73.5t-84 37zM588 1085q184 0 306 -116.5t122 -341.5v-627h-58v625q0 201 -105 302t-269 101 q-166 0 -275.5 -101.5t-109.5 -301.5v-625h-58v1065h58v-207q43 94 141 160.5t248 66.5z" glyph-name="ntilde" unicode="ñ"/><glyph d="M662 1202h-66l-125 314h66zM633 -20q-219 0 -381 150.5t-162 402t162 402t381 150.5q217 0 380 -150.5t163 -402t-163 -402t-380 -150.5zM633 37q195 0 338 133t143 362.5t-143.5 362.5t-337.5 133q-197 0 -339 -132t-142 -363.5t142 -363.5t339 -132z" glyph-name="ograve" horiz-adv-x="1265" unicode="ò"/><glyph d="M616 1202l123 314h68l-125 -314h-66zM633 -20q-219 0 -381 150.5t-162 402t162 402t381 150.5q217 0 380 -150.5t163 -402t-163 -402t-380 -150.5zM633 37q195 0 338 133t143 362.5t-143.5 362.5t-337.5 133q-197 0 -339 -132t-142 -363.5t142 -363.5t339 -132z" glyph-name="oacute" horiz-adv-x="1265" unicode="ó"/><glyph d="M449 1233l-46 39l205 244h47l205 -244l-43 -39l-184 219zM633 -20q-219 0 -381 150.5t-162 402t162 402t381 150.5q217 0 380 -150.5t163 -402t-163 -402t-380 -150.5zM633 37q195 0 338 133t143 362.5t-143.5 362.5t-337.5 133q-197 0 -339 -132t-142 -363.5t142 -363.5 t339 -132z" glyph-name="ocircumflex" horiz-adv-x="1265" unicode="ô"/><glyph d="M764 1262q-63 0 -135 73.5t-125 73.5q-47 0 -71.5 -31.5t-24.5 -77.5h-58q0 82 46 123t112 41q41 0 78 -22.5t58.5 -50t54 -50t69.5 -22.5q47 0 71.5 30.5t24.5 77.5h58q0 -84 -46 -124.5t-112 -40.5zM633 -20q-219 0 -381 150.5t-162 402t162 402t381 150.5 q217 0 380 -150.5t163 -402t-163 -402t-380 -150.5zM633 37q195 0 338 133t143 362.5t-143.5 362.5t-337.5 133q-197 0 -339 -132t-142 -363.5t142 -363.5t339 -132z" glyph-name="otilde" horiz-adv-x="1265" unicode="õ"/><glyph d="M420 1382v66h63v-66h-63zM784 1382v66h64v-66h-64zM633 -20q-219 0 -381 150.5t-162 402t162 402t381 150.5q217 0 380 -150.5t163 -402t-163 -402t-380 -150.5zM633 37q195 0 338 133t143 362.5t-143.5 362.5t-337.5 133q-197 0 -339 -132t-142 -363.5t142 -363.5 t339 -132z" glyph-name="odieresis" horiz-adv-x="1265" unicode="ö"/><glyph d="M395 762q-43 0 -43 43t43 43q20 0 31.5 -13.5t11.5 -30t-11.5 -29.5t-31.5 -13zM92 559v45h635v-45h-635zM395 313q-43 0 -43 43q0 45 43 45q20 0 31.5 -14t11.5 -30.5t-11.5 -30t-31.5 -13.5z" glyph-name="divide" horiz-adv-x="819" unicode="÷"/><glyph d="M893 1022q127 -68 205 -194t78 -296q0 -252 -163 -402t-380 -150q-115 0 -219 43l-60 -125h-59l72 149q-125 68 -201 193t-76 292q0 252 162 402.5t381 150.5q111 0 211 -41l67 140h60zM152 532q0 -152 64.5 -263t174.5 -171l428 895q-92 35 -186 35q-197 0 -339 -132.5 t-142 -363.5zM633 37q195 0 338 133t143 362q0 154 -66.5 266.5t-179.5 172.5l-430 -895q91 -39 195 -39z" glyph-name="oslash" horiz-adv-x="1265" unicode="ø"/><glyph d="M623 1202h-66l-125 314h66zM958 1065h58v-1065h-58v207q-43 -94 -141 -160.5t-248 -66.5q-184 0 -306 116.5t-122 341.5v627h58v-625q0 -201 105.5 -302t268.5 -101q166 0 275.5 101.5t109.5 301.5v625z" glyph-name="ugrave" unicode="ù"/><glyph d="M770 1516l-125 -314h-65l122 314h68zM958 1065h58v-1065h-58v207q-43 -94 -141 -160.5t-248 -66.5q-184 0 -306 116.5t-122 341.5v627h58v-625q0 -201 105.5 -302t268.5 -101q166 0 275.5 101.5t109.5 301.5v625z" glyph-name="uacute" unicode="ú"/><glyph d="M596 1452l-184 -219l-45 39l204 244h47l205 -244l-43 -39zM958 1065h58v-1065h-58v207q-43 -94 -141 -160.5t-248 -66.5q-184 0 -306 116.5t-122 341.5v627h58v-625q0 -201 105.5 -302t268.5 -101q166 0 275.5 101.5t109.5 301.5v625z" glyph-name="ucircumflex" unicode="û"/><glyph d="M444 1448v-66h-63v66h63zM809 1448v-66h-64v66h64zM958 1065h58v-1065h-58v207q-43 -94 -141 -160.5t-248 -66.5q-184 0 -306 116.5t-122 341.5v627h58v-625q0 -201 105.5 -302t268.5 -101q166 0 275.5 101.5t109.5 301.5v625z" glyph-name="udieresis" unicode="ü"/><glyph d="M715 1516l-125 -314h-66l123 314h68zM973 1065h63l-458 -1065l-175 -389h-59l180 399l-454 1055h63l420 -979z" glyph-name="yacute" horiz-adv-x="1105" unicode="ý"/><glyph d="M670 1085q217 0 375.5 -148.5t158.5 -404.5t-158.5 -404t-375.5 -148q-156 0 -281 77.5t-184 208.5h-6v-655h-58v1843h58v-655h6q59 131 184 208.5t281 77.5zM670 37q193 0 333 129t140 366.5t-140.5 366.5t-332.5 129q-190 0 -332.5 -130t-142.5 -365.5t142.5 -365.5 t332.5 -130z" glyph-name="thorn" horiz-adv-x="1292" unicode="þ"/><glyph d="M391 1448v-66h-63v66h63zM756 1448v-66h-64v66h64zM973 1065h63l-458 -1065l-175 -389h-59l180 399l-454 1055h63l420 -979z" glyph-name="ydieresis" horiz-adv-x="1105" unicode="ÿ"/><glyph d="M1042 1802v-53h-731v53h731zM1229 0l-170 418h-766l-170 -418h-64l594 1454h45l594 -1454h-63zM315 477h721l-360 887z" glyph-name="Amacron" horiz-adv-x="1351" unicode="Ā"/><glyph d="M262 1380v54h731v-54h-731zM625 -20q-219 0 -377 148t-158 404t158 404.5t377 148.5q154 0 279.5 -77.5t185.5 -208.5h6v266h57v-1065h-57v266h-6q-59 -131 -185 -208.5t-280 -77.5zM622.5 37q190.5 0 333 130t142.5 365.5t-142.5 365.5t-333 130t-330.5 -129 t-140 -366.5t140 -366.5t330.5 -129z" glyph-name="amacron" horiz-adv-x="1292" unicode="ā"/><glyph d="M676 1622q-131 0 -199.5 78t-66.5 184h69q4 -82 51.5 -138t145.5 -56q100 0 146 56t48 138h72q2 -106 -66.5 -184t-199.5 -78zM1229 0l-170 418h-766l-170 -418h-64l594 1454h45l594 -1454h-63zM315 477h721l-360 887z" glyph-name="Abreve" horiz-adv-x="1351" unicode="Ă"/><glyph d="M627 1253q-131 0 -200 78t-67 185h70q4 -82 51 -138.5t146 -56.5q100 0 146 56.5t48 138.5h72q2 -106 -66.5 -184.5t-199.5 -78.5zM625 -20q-219 0 -377 148t-158 404t158 404.5t377 148.5q154 0 279.5 -77.5t185.5 -208.5h6v266h57v-1065h-57v266h-6 q-59 -131 -185 -208.5t-280 -77.5zM622.5 37q190.5 0 333 130t142.5 365.5t-142.5 365.5t-333 130t-330.5 -129t-140 -366.5t140 -366.5t330.5 -129z" glyph-name="abreve" horiz-adv-x="1292" unicode="ă"/><glyph d="M1042 -227.5q0 -71.5 49.5 -107.5t118.5 -19v-52q-74 -33 -155.5 9.5t-81.5 146.5q0 94 70.5 163t179.5 105l-164 400h-766l-170 -418h-64l594 1454h45l594 -1454q-131 -27 -190.5 -91.5t-59.5 -136zM315 477h721l-360 887z" glyph-name="Aogonek" horiz-adv-x="1351" unicode="Ą"/><glyph d="M1153 0q-131 -27 -190.5 -91.5t-59.5 -136t49 -107.5t119 -19v-52q-74 -33 -155.5 9.5t-81.5 146.5q0 96 72.5 166t185.5 104l4 -2v248h-6q-59 -131 -185.5 -208.5t-279.5 -77.5q-219 0 -377 148t-158 404t158 404.5t377 148.5q154 0 279.5 -77.5t185.5 -208.5h6v266h57 v-1065zM622.5 37q190.5 0 333 130t142.5 365.5t-142.5 365.5t-333 130t-330.5 -129t-140 -366.5t140 -366.5t330.5 -129z" glyph-name="aogonek" horiz-adv-x="1292" unicode="ą"/><glyph d="M776 1591l123 314h68l-125 -314h-66zM852 -20q-307 0 -519 210.5t-212 536.5t210 537t517 211q344 0 545 -252l-45 -39q-180 231 -496 231q-285 0 -478.5 -192.5t-193.5 -495.5q0 -301 193.5 -494.5t478.5 -193.5q315 0 496 231l45 -39q-201 -251 -541 -251z" glyph-name="Cacute" horiz-adv-x="1492" unicode="Ć"/><glyph d="M604 1202l123 314h68l-125 -314h-66zM629 -20q-215 0 -377 150.5t-162 399.5q0 254 161 404.5t378 150.5q143 0 266 -68.5t186 -193.5l-51 -22q-57 109 -164.5 168t-230.5 59q-193 0 -338 -133t-145 -365q0 -227 145 -360t338 -133q123 0 230.5 59.5t164.5 167.5l51 -22 q-63 -125 -186 -193.5t-266 -68.5z" glyph-name="cacute" horiz-adv-x="1169" unicode="ć"/><glyph d="M760 1772v65h57v-65h-57zM852 -20q-307 0 -519 210.5t-212 536.5t210 537t517 211q344 0 545 -252l-45 -39q-180 231 -496 231q-285 0 -478.5 -192.5t-193.5 -495.5q0 -301 193.5 -494.5t478.5 -193.5q315 0 496 231l45 -39q-201 -251 -541 -251z" glyph-name="Cdotaccent" horiz-adv-x="1492" unicode="Ċ"/><glyph d="M588 1382v66h57v-66h-57zM629 -20q-215 0 -377 150.5t-162 399.5q0 254 161 404.5t378 150.5q143 0 266 -68.5t186 -193.5l-51 -22q-57 109 -164.5 168t-230.5 59q-193 0 -338 -133t-145 -365q0 -227 145 -360t338 -133q123 0 230.5 59.5t164.5 167.5l51 -22 q-63 -125 -186 -193.5t-266 -68.5z" glyph-name="cdotaccent" horiz-adv-x="1169" unicode="ċ"/><glyph d="M612 1907l185 -219l184 219l43 -39l-205 -244h-47l-205 244zM852 -20q-307 0 -519 210.5t-212 536.5t210 537t517 211q344 0 545 -252l-45 -39q-180 231 -496 231q-285 0 -478.5 -192.5t-193.5 -495.5q0 -301 193.5 -494.5t478.5 -193.5q315 0 496 231l45 -39 q-201 -251 -541 -251z" glyph-name="Ccaron" horiz-adv-x="1492" unicode="Č"/><glyph d="M440 1518l185 -220l184 220l43 -39l-205 -244h-47l-205 244zM629 -20q-215 0 -377 150.5t-162 399.5q0 254 161 404.5t378 150.5q143 0 266 -68.5t186 -193.5l-51 -22q-57 109 -164.5 168t-230.5 59q-193 0 -338 -133t-145 -365q0 -227 145 -360t338 -133 q123 0 230.5 59.5t164.5 167.5l51 -22q-63 -125 -186 -193.5t-266 -68.5z" glyph-name="ccaron" horiz-adv-x="1169" unicode="č"/><glyph d="M487 1907l185 -219l184 219l43 -39l-205 -244h-47l-205 244zM141 0v1454h334q342 0 535.5 -197.5t193.5 -529.5t-193.5 -529.5t-535.5 -197.5h-334zM201 57h272q315 0 493.5 180.5t178.5 489.5t-178.5 489.5t-493.5 180.5h-272v-1340z" glyph-name="Dcaron" horiz-adv-x="1302" unicode="Ď"/><glyph d="M1329 1470h68l-125 -313h-66zM1096 1454h57v-1454h-57v266h-6q-59 -131 -185.5 -208.5t-279.5 -77.5q-219 0 -377 148t-158 404t158 404.5t377 148.5q154 0 279.5 -77.5t185.5 -208.5h6v655zM622.5 37q190.5 0 333 130t142.5 365.5t-142.5 365.5t-333 130t-330.5 -129 t-140 -366.5t140 -366.5t330.5 -129z" glyph-name="dcaron" horiz-adv-x="1226" unicode="ď"/><glyph d="M461 1454q340 0 533.5 -197.5t193.5 -529.5t-193.5 -529.5t-533.5 -197.5h-336v698h-137v45h137v711h336zM457 57q317 0 494 180.5t177 489.5t-177 489.5t-494 180.5h-273v-654h439v-45h-439v-641h273z" glyph-name="Dcroat" horiz-adv-x="1288" unicode="Đ"/><glyph d="M1223 1290v-51h-70v-1239h-57v266h-6q-59 -131 -185.5 -208.5t-279.5 -77.5q-219 0 -377 148t-158 404t158 404.5t377 148.5q154 0 279.5 -77.5t185.5 -208.5h6v440h-482v51h482v164h57v-164h70zM622.5 37q190.5 0 333 130t142.5 365.5t-142.5 365.5t-333 130 t-330.5 -129t-140 -366.5t140 -366.5t330.5 -129z" glyph-name="dcroat" horiz-adv-x="1259" unicode="đ"/><glyph d="M182 1823h731v-54h-731v54zM201 700v-641h690v-59h-750v1454h731v-59h-671v-635h577v-60h-577z" glyph-name="Emacron" horiz-adv-x="999" unicode="Ē"/><glyph d="M958 1434v-54h-731v54h731zM610 1085q102 0 195.5 -37.5t166 -107.5t110.5 -180.5t30 -245.5h-962q8 -221 146 -348t333 -127q115 0 212 44t154 122l41 -39q-74 -90 -183.5 -138t-229.5 -48q-219 0 -376 149.5t-157 405.5q0 254 153.5 402t366.5 148zM608 1026 q-180 0 -313 -121t-145 -334h911q-6 209 -137.5 332t-315.5 123z" glyph-name="emacron" horiz-adv-x="1202" unicode="ē"/><glyph d="M573 1837v-65h-57v65h57zM201 59h690v-59h-750v1454h731v-59h-671v-635h577v-60h-577v-641z" glyph-name="Edotaccent" horiz-adv-x="999" unicode="Ė"/><glyph d="M618 1448v-66h-57v66h57zM610 1085q102 0 195.5 -37.5t166 -107.5t110.5 -180.5t30 -245.5h-962q8 -221 146 -348t333 -127q115 0 212 44t154 122l41 -39q-74 -90 -183.5 -138t-229.5 -48q-219 0 -376 149.5t-157 405.5q0 254 153.5 402t366.5 148zM608 1026 q-180 0 -313 -121t-145 -334h911q-6 209 -137.5 332t-315.5 123z" glyph-name="edotaccent" horiz-adv-x="1202" unicode="ė"/><glyph d="M891 0q-131 -27 -190.5 -91.5t-59.5 -136t49 -107.5t119 -19v-52q-74 -33 -156 9.5t-82 146.5q0 160 203 250h-633v1454h731v-59h-671v-635h577v-60h-577v-641h690v-59z" glyph-name="Eogonek" horiz-adv-x="999" unicode="Ę"/><glyph d="M610 1085q102 0 195.5 -37.5t166 -107.5t110.5 -180.5t30 -245.5h-962q8 -221 146 -348t333 -127q115 0 212 44t154 122l41 -39q-115 -139 -307 -176q-106 -31 -156.5 -92.5t-50.5 -124.5q0 -72 49.5 -108t118.5 -19v-52q-74 -33 -155.5 9.5t-81.5 146.5q0 143 161 230 q-217 4 -370.5 152.5t-153.5 402t153.5 402t366.5 148.5zM608 1026q-180 0 -313 -121t-145 -334h911q-6 209 -137.5 332t-315.5 123z" glyph-name="eogonek" horiz-adv-x="1202" unicode="ę"/><glyph d="M575 1624h-47l-204 244l45 39l184 -219l184 219l43 -39zM201 59h690v-59h-750v1454h731v-59h-671v-635h577v-60h-577v-641z" glyph-name="Ecaron" horiz-adv-x="999" unicode="Ě"/><glyph d="M621 1235h-48l-204 244l45 39l184 -220l184 220l43 -39zM610 1085q102 0 195.5 -37.5t166 -107.5t110.5 -180.5t30 -245.5h-962q8 -221 146 -348t333 -127q115 0 212 44t154 122l41 -39q-74 -90 -183.5 -138t-229.5 -48q-219 0 -376 149.5t-157 405.5q0 254 153.5 402 t366.5 148zM608 1026q-180 0 -313 -121t-145 -334h911q-6 209 -137.5 332t-315.5 123z" glyph-name="ecaron" horiz-adv-x="1202" unicode="ě"/><glyph d="M858 1642q-131 0 -199.5 78t-66.5 185h70q4 -82 51 -138.5t145 -56.5q100 0 146.5 56.5t48.5 138.5h71q2 -106 -66.5 -184.5t-199.5 -78.5zM1520 694q4 -326 -191.5 -520t-484.5 -194q-301 0 -512 211.5t-211 535.5q0 326 210 537t517 211q344 0 545 -252l-45 -39 q-180 231 -498 231q-285 0 -477.5 -192.5t-192.5 -495.5q0 -299 196.5 -493.5t475.5 -194.5q248 0 420 156.5t188 439.5h-485v59h545z" glyph-name="Gbreve" horiz-adv-x="1638" unicode="Ğ"/><glyph d="M614 1253q-131 0 -198.5 78t-65.5 185h70q2 -82 48 -138.5t146 -56.5q98 0 145.5 56.5t51.5 138.5h70q2 -106 -67 -184.5t-200 -78.5zM1096 1065h57v-1028q0 -123 -44 -216t-120 -144.5t-163 -77t-187 -25.5q-109 0 -193 25.5t-120 54.5v61q121 -84 313 -84 q88 0 164 20.5t144.5 65.5t108.5 130t40 204v215h-9q-59 -131 -185 -208.5t-281 -77.5q-215 0 -373 148t-158 404t158 404.5t373 148.5q156 0 281.5 -77.5t184.5 -208.5h9v266zM621 37q190 0 333.5 130t143.5 365.5t-143.5 365.5t-333.5 130q-188 0 -328.5 -130 t-140.5 -365.5t140.5 -365.5t328.5 -130z" glyph-name="gbreve" horiz-adv-x="1292" unicode="ğ"/><glyph d="M883 1837v-65h-58v65h58zM1520 694q4 -326 -191.5 -520t-484.5 -194q-301 0 -512 211.5t-211 535.5q0 326 210 537t517 211q344 0 545 -252l-45 -39q-180 231 -498 231q-285 0 -477.5 -192.5t-192.5 -495.5q0 -299 196.5 -493.5t475.5 -194.5q248 0 420 156.5t188 439.5 h-485v59h545z" glyph-name="Gdotaccent" horiz-adv-x="1638" unicode="Ġ"/><glyph d="M641 1448v-66h-57v66h57zM1096 1065h57v-1028q0 -123 -44 -216t-120 -144.5t-163 -77t-187 -25.5q-109 0 -193 25.5t-120 54.5v61q121 -84 313 -84q88 0 164 20.5t144.5 65.5t108.5 130t40 204v215h-9q-59 -131 -185 -208.5t-281 -77.5q-215 0 -373 148t-158 404 t158 404.5t373 148.5q156 0 281.5 -77.5t184.5 -208.5h9v266zM621 37q190 0 333.5 130t143.5 365.5t-143.5 365.5t-333.5 130q-188 0 -328.5 -130t-140.5 -365.5t140.5 -365.5t328.5 -130z" glyph-name="gdotaccent" horiz-adv-x="1292" unicode="ġ"/><glyph d="M1520 694q4 -326 -191.5 -520t-484.5 -194q-301 0 -512 211.5t-211 535.5q0 326 210 537t517 211q344 0 545 -252l-45 -39q-180 231 -498 231q-285 0 -477.5 -192.5t-192.5 -495.5q0 -299 196.5 -493.5t475.5 -194.5q248 0 420 156.5t188 439.5h-485v59h545zM670 -449 l133 377h61l-135 -377h-59z" glyph-name="Gcommaaccent" horiz-adv-x="1638" unicode="Ģ"/><glyph d="M750 1667l-134 -377h-59l131 377h62zM1096 1065h57v-1028q0 -123 -44 -216t-120 -144.5t-163 -77t-187 -25.5q-109 0 -193 25.5t-120 54.5v61q121 -84 313 -84q88 0 164 20.5t144.5 65.5t108.5 130t40 204v215h-9q-59 -131 -185 -208.5t-281 -77.5q-215 0 -373 148 t-158 404t158 404.5t373 148.5q156 0 281.5 -77.5t184.5 -208.5h9v266zM621 37q190 0 333.5 130t143.5 365.5t-143.5 365.5t-333.5 130q-188 0 -328.5 -130t-140.5 -365.5t140.5 -365.5t328.5 -130z" glyph-name="gcommaaccent" horiz-adv-x="1292" unicode="ģ"/><glyph d="M1057 1454h59v-1454h-59v678h-856v-678h-60v1454h60v-383h856v383zM201 737h856v273h-856v-273z" glyph-name="Hbar" horiz-adv-x="1257" unicode="Ħ"/><glyph d="M610 1085q184 0 306 -116.5t122 -341.5v-627h-57v625q0 201 -105.5 302t-269.5 101q-166 0 -275.5 -101.5t-109.5 -301.5v-625h-57v1200h-164v51h164v203h57v-203h228v-51h-228v-342q43 94 141 160.5t248 66.5z" glyph-name="hbar" horiz-adv-x="1179" unicode="ħ"/><glyph d="M-195 1769v54h732v-54h-732zM141 0v1454h60v-1454h-60z" glyph-name="Imacron" horiz-adv-x="339" unicode="Ī"/><glyph d="M-195 1380v54h732v-54h-732zM141 0v1065h58v-1065h-58z" glyph-name="imacron" horiz-adv-x="337" unicode="ī"/><glyph d="M201 0q-131 -27 -190.5 -91.5t-59.5 -136t49 -107.5t119 -19v-52q-74 -33 -156 9.5t-82 146.5q0 96 73 166t185 104h2v1434h60v-1454z" glyph-name="Iogonek" horiz-adv-x="339" unicode="Į"/><glyph d="M197 1448v-66h-58v66h58zM199 0q-131 -27 -190.5 -91.5t-59.5 -136t49 -107.5t119 -19v-52q-74 -33 -156 9.5t-82 146.5q0 96 73 166t185 104l4 -2v1047h58v-1065z" glyph-name="iogonek" horiz-adv-x="337" unicode="į"/><glyph d="M139 1772v65h58v-65h-58zM141 0v1454h60v-1454h-60z" glyph-name="Idotaccent" horiz-adv-x="339" unicode="İ"/><glyph d="M141 0v1065h58v-1065h-58z" glyph-name="dotlessi" horiz-adv-x="337" unicode="ı"/><glyph d="M141 0v1454h60v-1454h-60zM735 -20q-106 0 -189 45t-126 122l39 37q96 -147 278 -147q152 0 235 94t83 262v1061h59v-1061q0 -203 -105.5 -308t-273.5 -105z" glyph-name="IJ" horiz-adv-x="1253" unicode="Ĳ"/><glyph d="M141 1384v70h58v-70h-58zM479 1384v70h60v-70h-60zM141 0v1065h58v-1065h-58zM154 -395v55h34q139 0 215 67.5t76 243.5v1094h60v-1092q0 -211 -96.5 -289.5t-264.5 -78.5h-24z" glyph-name="ij" horiz-adv-x="677" unicode="ĳ"/><glyph d="M500 778l663 -778h-78l-624 737l-260 -291v-446h-60v1454h60v-928l825 928h82zM485 -449l133 377h62l-135 -377h-60z" glyph-name="Kcommaaccent" horiz-adv-x="1230" unicode="Ķ"/><glyph d="M434 553l535 -553h-82l-490 514l-198 -211v-303h-58v1454h58v-1075l639 686h77zM369 -449l133 377h61l-135 -377h-59z" glyph-name="kcommaaccent" horiz-adv-x="1036" unicode="ķ"/><glyph d="M381 1880l-125 -313h-66l125 313h66zM201 59h710v-59h-770v1454h60v-1395z" glyph-name="Lacute" horiz-adv-x="974" unicode="Ĺ"/><glyph d="M152 1591l122 314h68l-125 -314h-65zM141 0v1454h58v-1454h-58z" glyph-name="lacute" horiz-adv-x="337" unicode="ĺ"/><glyph d="M201 59h710v-59h-770v1454h60v-1395zM365 -449l133 377h61l-135 -377h-59z" glyph-name="Lcommaaccent" horiz-adv-x="1011" unicode="Ļ"/><glyph d="M141 0v1454h58v-1454h-58zM2 -449l133 377h62l-136 -377h-59z" glyph-name="lcommaaccent" horiz-adv-x="337" unicode="ļ"/><glyph d="M201 59h710v-59h-770v1454h60v-1395zM655 1444l-135 -377h-59l133 377h61z" glyph-name="Lcaron" horiz-adv-x="1011" unicode="Ľ"/><glyph d="M287 1098l133 377h61l-135 -377h-59zM141 0v1454h58v-1454h-58z" glyph-name="lcaron" horiz-adv-x="399" unicode="ľ"/><glyph d="M201 59h710v-59h-770v1454h60v-1395zM580 690q-43 0 -43 43t43 43t43 -43t-43 -43z" glyph-name="Ldot" horiz-adv-x="1011" unicode="Ŀ"/><glyph d="M141 0v1454h58v-1454h-58zM408 686q-20 0 -31.5 13.5t-11.5 29.5t11 29.5t32 13.5q23 0 34 -13.5t11 -29.5t-11 -29.5t-34 -13.5z" glyph-name="ldot" horiz-adv-x="380" unicode="ŀ"/><glyph d="M315 59h711v-59h-770v543l-143 -152v98l143 152v813h59v-752l318 336h2v-98l-320 -336v-545z" glyph-name="Lslash" horiz-adv-x="1126" unicode="Ł"/><glyph d="M432 1059v-84l-211 -248v-727h-59v659l-211 -247v86l211 247v709h59v-639l209 244h2z" glyph-name="lslash" horiz-adv-x="382" unicode="ł"/><glyph d="M682 1591l123 314h67l-124 -314h-66zM141 0v1454h64l977 -1348h10v1348h59v-1454h-63l-977 1348h-10v-1348h-60z" glyph-name="Nacute" horiz-adv-x="1392" unicode="Ń"/><glyph d="M770 1516l-125 -314h-65l122 314h68zM588 1085q184 0 306 -116.5t122 -341.5v-627h-58v625q0 201 -105 302t-269 101q-166 0 -275.5 -101.5t-109.5 -301.5v-625h-58v1065h58v-207q43 94 141 160.5t248 66.5z" glyph-name="nacute" unicode="ń"/><glyph d="M141 0v1454h64l977 -1348h10v1348h59v-1454h-63l-977 1348h-10v-1348h-60zM532 -449l134 377h61l-135 -377h-60z" glyph-name="Ncommaaccent" horiz-adv-x="1392" unicode="Ņ"/><glyph d="M588 1085q184 0 306 -116.5t122 -341.5v-627h-58v625q0 201 -105 302t-269 101q-166 0 -275.5 -101.5t-109.5 -301.5v-625h-58v1065h58v-207q43 94 141 160.5t248 66.5zM430 -449l133 377h62l-136 -377h-59z" glyph-name="ncommaaccent" unicode="ņ"/><glyph d="M518 1907l184 -219l185 219l43 -39l-205 -244h-47l-205 244zM141 0v1454h64l977 -1348h10v1348h59v-1454h-63l-977 1348h-10v-1348h-60z" glyph-name="Ncaron" horiz-adv-x="1392" unicode="Ň"/><glyph d="M623 1235h-48l-204 244l45 39l184 -220l184 220l43 -39zM588 1085q184 0 306 -116.5t122 -341.5v-627h-58v625q0 201 -105 302t-269 101q-166 0 -275.5 -101.5t-109.5 -301.5v-625h-58v1065h58v-207q43 94 141 160.5t248 66.5z" glyph-name="ncaron" unicode="ň"/><glyph d="M1249 1434v-1358l-10 -17v-71q0 -203 -104.5 -308.5t-272.5 -105.5q-221 0 -317 168l41 37q96 -147 278 -148q152 0 234 94.5t82 262.5v45l-979 1284v-1317h-60v1434h43l996 -1309v924h12v385h57z" glyph-name="Eng" horiz-adv-x="1390" unicode="Ŋ"/><glyph d="M588 1085q184 0 306 -116.5t122 -341.5v-637q0 -223 -95.5 -304t-263.5 -81h-24v55h33q141 0 216.5 67.5t75.5 243.5v654q0 201 -105 302t-269 101q-166 0 -275.5 -101.5t-109.5 -301.5v-625h-58v1065h58v-207q43 94 141 160.5t248 66.5z" glyph-name="eng" unicode="ŋ"/><glyph d="M483 1769v54h731v-54h-731zM846 -20q-295 0 -510 210.5t-215 536.5t215 537t510 211t511 -210t216 -538t-216 -537.5t-511 -209.5zM846 39q270 0 468.5 192.5t198.5 495.5t-198.5 495.5t-468.5 192.5q-268 0 -467 -192.5t-199 -495.5t199 -495.5t467 -192.5z" glyph-name="Omacron" horiz-adv-x="1693" unicode="Ō"/><glyph d="M268 1380v54h731v-54h-731zM633 -20q-219 0 -381 150.5t-162 402t162 402t381 150.5q217 0 380 -150.5t163 -402t-163 -402t-380 -150.5zM633 37q195 0 338 133t143 362.5t-143.5 362.5t-337.5 133q-197 0 -339 -132t-142 -363.5t142 -363.5t339 -132z" glyph-name="omacron" horiz-adv-x="1265" unicode="ō"/><glyph d="M700 1591l123 314h68l-125 -314h-66zM897 1591l123 314h65l-124 -314h-64zM846 -20q-295 0 -510 210.5t-215 536.5t215 537t510 211t511 -210t216 -538t-216 -537.5t-511 -209.5zM846 39q270 0 468.5 192.5t198.5 495.5t-198.5 495.5t-468.5 192.5q-268 0 -467 -192.5 t-199 -495.5t199 -495.5t467 -192.5z" glyph-name="Ohungarumlaut" horiz-adv-x="1693" unicode="Ő"/><glyph d="M485 1202l123 314h68l-125 -314h-66zM682 1202l123 314h65l-125 -314h-63zM633 -20q-219 0 -381 150.5t-162 402t162 402t381 150.5q217 0 380 -150.5t163 -402t-163 -402t-380 -150.5zM633 37q195 0 338 133t143 362.5t-143.5 362.5t-337.5 133q-197 0 -339 -132 t-142 -363.5t142 -363.5t339 -132z" glyph-name="ohungarumlaut" horiz-adv-x="1265" unicode="ő"/><glyph d="M1573 59h690v-59h-750v422q-86 -203 -268 -322.5t-399 -119.5q-295 0 -510 210.5t-215 536.5t215 537t510 211q217 0 399 -120t268 -323v422h732v-59h-672v-635h579v-60h-579v-641zM846 39q270 0 468.5 192.5t198.5 495.5t-198.5 495.5t-468.5 192.5q-268 0 -467 -192.5 t-199 -495.5t199 -495.5t467 -192.5z" glyph-name="OE" horiz-adv-x="2373" unicode="Œ"/><glyph d="M2124 514h-948q-4 -57 -9 -84q31 -184 164 -287.5t307 -103.5q115 0 212.5 44t154.5 122l41 -39q-74 -90 -183.5 -138t-228.5 -48q-166 0 -303 88t-194 247q-61 -158 -200.5 -246.5t-303.5 -88.5q-219 0 -381 150.5t-162 402t162 402t381 150.5q162 0 301 -89t203 -244 q57 158 190 245.5t293 87.5q217 0 368.5 -153.5t135.5 -417.5zM633 37q172 0 308 105.5t165 293.5q-6 47 -6 99q0 51 6 96q-31 186 -167 291.5t-306 105.5q-197 0 -339 -132t-142 -363.5t142 -363.5t339 -132zM1620 1026q-168 0 -296 -102.5t-157 -286.5q6 -31 7 -66h897 q-4 209 -135.5 332t-315.5 123z" glyph-name="oe" horiz-adv-x="2213" unicode="œ"/><glyph d="M793 1905l-125 -314h-66l123 314h68zM1071 0h-74l-387 555q-16 -2 -47 -2h-362v-553h-60v1454h422q221 0 347 -127t126 -323q0 -170 -94 -290t-264 -151zM553 614q197 0 308.5 103.5t111.5 286.5q0 184 -111.5 287.5t-308.5 103.5h-352v-781h352z" glyph-name="Racute" horiz-adv-x="1169" unicode="Ŕ"/><glyph d="M539 1516l-125 -314h-66l123 314h68zM551 1085q35 0 49 -6v-51q-25 4 -47 4q-150 0 -252 -114.5t-102 -307.5v-610h-58v1065h58v-240q35 113 124 186.5t228 73.5z" glyph-name="racute" horiz-adv-x="688" unicode="ŕ"/><glyph d="M678 563l393 -563h-74l-387 555q-16 -2 -47 -2h-362v-553h-60v1454h422q221 0 347 -127t126 -323q0 -170 -94 -290t-264 -151zM553 614q197 0 308.5 103.5t111.5 286.5q0 184 -111.5 287.5t-308.5 103.5h-352v-781h352zM442 -449l133 377h62l-135 -377h-60z" glyph-name="Rcommaaccent" horiz-adv-x="1169" unicode="Ŗ"/><glyph d="M551 1085q35 0 49 -6v-51q-25 4 -47 4q-150 0 -252 -114.5t-102 -307.5v-610h-58v1065h58v-240q35 113 124 186.5t228 73.5zM6 -449l133 377h62l-135 -377h-60z" glyph-name="rcommaaccent" horiz-adv-x="688" unicode="ŗ"/><glyph d="M645 1624h-47l-205 244l45 39l185 -219l184 219l43 -39zM1071 0h-74l-387 555q-16 -2 -47 -2h-362v-553h-60v1454h422q221 0 347 -127t126 -323q0 -170 -94 -290t-264 -151zM553 614q197 0 308.5 103.5t111.5 286.5q0 184 -111.5 287.5t-308.5 103.5h-352v-781h352z" glyph-name="Rcaron" horiz-adv-x="1169" unicode="Ř"/><glyph d="M391 1235h-47l-205 244l45 39l185 -220l184 220l43 -39zM551 1085q35 0 49 -6v-51q-25 4 -47 4q-150 0 -252 -114.5t-102 -307.5v-610h-58v1065h58v-240q35 113 124 186.5t228 73.5z" glyph-name="rcaron" horiz-adv-x="688" unicode="ř"/><glyph d="M516 1591l123 314h68l-125 -314h-66zM551 -20q-178 0 -302 95t-159 253l53 22q31 -143 142.5 -225t267.5 -82t261.5 84t105.5 233q0 139 -88.5 217t-260.5 148l-100 39q-319 125 -319 371q0 152 107.5 246t275.5 94q162 0 264 -84t141 -213l-51 -21q-92 256 -354 256 q-137 0 -228.5 -75.5t-91.5 -200.5q0 -207 268 -312l99 -39q94 -39 156.5 -71.5t123 -81.5t89 -116.5t28.5 -154.5q0 -176 -122 -279t-306 -103z" glyph-name="Sacute" horiz-adv-x="1067" unicode="Ś"/><glyph d="M406 1202l122 314h68l-125 -314h-65zM428 -20q-137 0 -230.5 75.5t-117.5 200.5l57 16q29 -117 108 -175t185 -58q111 0 190.5 57.5t79.5 169.5q0 92 -59 145.5t-197 112.5l-61 27q-246 106 -246 285q0 109 80 179t205 70q106 0 185 -54t110 -146l-51 -23 q-70 164 -244 164q-94 0 -159.5 -48t-65.5 -140q0 -141 202 -228l50 -22q170 -72 240.5 -138.5t70.5 -183.5q0 -141 -99.5 -213.5t-232.5 -72.5z" glyph-name="sacute" horiz-adv-x="847" unicode="ś"/><glyph d="M979 362q0 -170 -112.5 -272t-288.5 -110l-54 -74q70 4 120 -40t50 -120q0 -94 -72.5 -136t-177.5 -30v64q178 -20 179 102q0 113 -152 94l-35 39l72 103q-162 12 -273.5 105t-144.5 241l53 22q31 -143 142.5 -225t267.5 -82t261.5 84t105.5 233q0 139 -88.5 217 t-260.5 148l-100 39q-319 125 -319 371q0 152 107.5 246t275.5 94q162 0 264 -84t141 -213l-51 -21q-92 256 -354 256q-137 0 -228.5 -75.5t-91.5 -200.5q0 -207 268 -312l99 -39q94 -39 156.5 -71.5t123 -81.5t89 -117t28.5 -154z" glyph-name="Scedilla" horiz-adv-x="1067" unicode="Ş"/><glyph d="M760 266q0 -139 -96.5 -210.5t-227.5 -75.5l-53 -76q70 4 120 -39t50 -119q0 -94 -72.5 -137t-177.5 -31v64q178 -16 178 104q0 53 -39 77.5t-112 14.5l-35 39l74 107q-115 14 -191 87.5t-98 184.5l57 16q29 -117 108 -175t185 -58q111 0 190.5 57.5t79.5 169.5 q0 92 -59 145.5t-197 112.5l-61 27q-246 106 -246 285q0 109 80 179t205 70q106 0 185 -54t110 -146l-51 -23q-70 164 -244 164q-94 0 -159.5 -48t-65.5 -140q0 -141 202 -228l50 -22q170 -72 240.5 -138.5t70.5 -183.5z" glyph-name="scedilla" horiz-adv-x="839" unicode="ş"/><glyph d="M352 1907l185 -219l184 219l43 -39l-205 -244h-47l-205 244zM551 -20q-178 0 -302 95t-159 253l53 22q31 -143 142.5 -225t267.5 -82t261.5 84t105.5 233q0 139 -88.5 217t-260.5 148l-100 39q-319 125 -319 371q0 152 107.5 246t275.5 94q162 0 264 -84t141 -213 l-51 -21q-92 256 -354 256q-137 0 -228.5 -75.5t-91.5 -200.5q0 -207 268 -312l99 -39q94 -39 156.5 -71.5t123 -81.5t89 -116.5t28.5 -154.5q0 -176 -122 -279t-306 -103z" glyph-name="Scaron" horiz-adv-x="1067" unicode="Š"/><glyph d="M242 1518l184 -220l184 220l43 -39l-204 -244h-48l-204 244zM428 -20q-137 0 -230.5 75.5t-117.5 200.5l57 16q29 -117 108 -175t185 -58q111 0 190.5 57.5t79.5 169.5q0 92 -59 145.5t-197 112.5l-61 27q-246 106 -246 285q0 109 80 179t205 70q106 0 185 -54t110 -146 l-51 -23q-70 164 -244 164q-94 0 -159.5 -48t-65.5 -140q0 -141 202 -228l50 -22q170 -72 240.5 -138.5t70.5 -183.5q0 -141 -99.5 -213.5t-232.5 -72.5z" glyph-name="scaron" horiz-adv-x="847" unicode="š"/><glyph d="M573 1395v-1395l-90 -98q72 4 123 -42t51 -122q0 -90 -82.5 -138.5t-195.5 -27.5l20 45q86 -12 140.5 26t54.5 95q0 63 -50 96t-112 4l-29 35l111 127v1395h-424v59h907v-59h-424z" glyph-name="Tcommaaccent" horiz-adv-x="1085" unicode="Ţ"/><glyph d="M332 -88q70 4 120 -40t50 -120q0 -94 -73 -136t-177 -30v64q178 -20 178 102q0 113 -151 94l-35 39l75 109q-100 27 -100 135v883h-129v53h129v272h60v-272h200v-53h-200v-862q0 -106 100 -107q45 0 94 23v-54q-33 -20 -86 -24z" glyph-name="tcommaaccent" horiz-adv-x="579" unicode="ţ"/><glyph d="M571 1624h-47l-205 244l46 39l184 -219l184 219l43 -39zM997 1454v-59h-424v-1395h-59v1395h-424v59h907z" glyph-name="Tcaron" horiz-adv-x="1085" unicode="Ť"/><glyph d="M549 1470l-125 -313h-66l123 313h68zM279 1337v-272h200v-53h-200v-862q0 -106 100 -107q45 0 94 23v-54q-41 -25 -96 -24q-74 0 -116 35.5t-42 105.5v883h-129v53h129v272h60z" glyph-name="tcaron" horiz-adv-x="550" unicode="ť"/><glyph d="M997 1395h-424v-308h345v-61h-345v-1026h-59v1026h-324v61h324v308h-424v59h907v-59z" glyph-name="Tbar" horiz-adv-x="1085" unicode="Ŧ"/><glyph d="M479 1012h-200v-142h200v-55h-200v-665q0 -106 100 -107q45 0 94 23v-54q-41 -25 -96 -24q-74 0 -116 35.5t-42 105.5v686h-129v55h129v142h-129v53h129v272h60v-272h200v-53z" glyph-name="tbar" horiz-adv-x="579" unicode="ŧ"/><glyph d="M762 1651q-53 0 -95 36.5t-81 73.5t-84 37q-47 0 -71.5 -31.5t-24.5 -76.5h-58q0 82 46 122.5t112 40.5q41 0 78 -22.5t58.5 -50t54 -50t69.5 -22.5q47 0 71.5 30.5t24.5 78.5h58q0 -84 -46 -125t-112 -41zM631 -20q-217 0 -353.5 137t-136.5 381v956h60v-954 q0 -215 117.5 -337t312 -122t312.5 122t118 337v954h59v-956q0 -242 -137 -380t-352 -138z" glyph-name="Utilde" horiz-adv-x="1261" unicode="Ũ"/><glyph d="M465 1409q-47 0 -71.5 -31.5t-24.5 -77.5h-58q0 82 46 123t112 41q63 0 135 -72.5t125 -72.5q47 0 71.5 30.5t24.5 77.5h58q0 -84 -46 -124.5t-112 -40.5q-53 0 -95 36.5t-81 73.5t-84 37zM958 1065h58v-1065h-58v207q-43 -94 -141 -160.5t-248 -66.5q-184 0 -306 116.5 t-122 341.5v627h58v-625q0 -201 105.5 -302t268.5 -101q166 0 275.5 101.5t109.5 301.5v625z" glyph-name="utilde" unicode="ũ"/><glyph d="M266 1769v54h731v-54h-731zM631 -20q-217 0 -353.5 137t-136.5 381v956h60v-954q0 -215 117.5 -337t312 -122t312.5 122t118 337v954h59v-956q0 -242 -137 -380t-352 -138z" glyph-name="Umacron" horiz-adv-x="1261" unicode="Ū"/><glyph d="M961 1434v-54h-732v54h732zM958 1065h58v-1065h-58v207q-43 -94 -141 -160.5t-248 -66.5q-184 0 -306 116.5t-122 341.5v627h58v-625q0 -201 105.5 -302t268.5 -101q166 0 275.5 101.5t109.5 301.5v625z" glyph-name="umacron" unicode="ū"/><glyph d="M631 1642q-131 0 -200 78t-66 185h69q4 -82 51 -138.5t146 -56.5q100 0 146 56.5t48 138.5h72q2 -106 -66.5 -184.5t-199.5 -78.5zM631 -20q-217 0 -353.5 137t-136.5 381v956h60v-954q0 -215 117.5 -337t312 -122t312.5 122t118 337v954h59v-956q0 -242 -137 -380 t-352 -138z" glyph-name="Ubreve" horiz-adv-x="1261" unicode="Ŭ"/><glyph d="M596 1253q-131 0 -199.5 78t-66.5 185h69q4 -82 51.5 -138.5t145.5 -56.5q100 0 146 56.5t49 138.5h71q2 -106 -66.5 -184.5t-199.5 -78.5zM958 1065h58v-1065h-58v207q-43 -94 -141 -160.5t-248 -66.5q-184 0 -306 116.5t-122 341.5v627h58v-625q0 -201 105.5 -302 t268.5 -101q166 0 275.5 101.5t109.5 301.5v625z" glyph-name="ubreve" unicode="ŭ"/><glyph d="M633 1630q-63 0 -106.5 42t-43.5 103.5t43 103.5t107 42q61 0 104 -42t43 -103.5t-43 -103.5t-104 -42zM633 1681q39 0 65.5 28t26.5 67t-26.5 65.5t-65.5 26.5t-66.5 -26.5t-27.5 -65.5t27.5 -67t66.5 -28zM631 -20q-217 0 -353.5 137t-136.5 381v956h60v-954 q0 -215 117.5 -337t312 -122t312.5 122t118 337v954h59v-956q0 -242 -137 -380t-352 -138z" glyph-name="Uring" horiz-adv-x="1261" unicode="Ů"/><glyph d="M596 1241q-63 0 -106.5 42t-43.5 103.5t43 103.5t107 42q61 0 104 -42t43 -103.5t-43 -103.5t-104 -42zM596 1479q-39 0 -66.5 -27t-27.5 -65.5t27.5 -66.5t66.5 -28t65.5 28t26.5 66.5t-26.5 65.5t-65.5 27zM958 1065h58v-1065h-58v207q-43 -94 -141 -160.5t-248 -66.5 q-184 0 -306 116.5t-122 341.5v627h58v-625q0 -201 105.5 -302t268.5 -101q166 0 275.5 101.5t109.5 301.5v625z" glyph-name="uring" unicode="ů"/><glyph d="M483 1591l123 314h68l-125 -314h-66zM680 1591l123 314h65l-125 -314h-63zM631 -20q-217 0 -353.5 137t-136.5 381v956h60v-954q0 -215 117.5 -337t312 -122t312.5 122t118 337v954h59v-956q0 -242 -137 -380t-352 -138z" glyph-name="Uhungarumlaut" horiz-adv-x="1261" unicode="Ű"/><glyph d="M639 1516l-125 -314h-65l122 314h68zM834 1516l-125 -314h-64l123 314h66zM958 1065h58v-1065h-58v207q-43 -94 -141 -160.5t-248 -66.5q-184 0 -306 116.5t-122 341.5v627h58v-625q0 -201 105.5 -302t268.5 -101q166 0 275.5 101.5t109.5 301.5v625z" glyph-name="uhungarumlaut" unicode="ű"/><glyph d="M1061 1454h59v-956q0 -209 -103.5 -342t-275.5 -166q-109 -31 -159 -92.5t-50 -124.5q0 -72 49.5 -108t118.5 -19v-52q-74 -33 -155.5 9.5t-81.5 146.5q0 143 162 230q-215 4 -349.5 140t-134.5 378v956h60v-954q0 -215 117.5 -337t312 -122t312.5 122t118 337v954z" glyph-name="Uogonek" horiz-adv-x="1261" unicode="Ų"/><glyph d="M780 -227.5q0 -71.5 49.5 -107.5t118.5 -19v-52q-74 -33 -155.5 9.5t-81.5 146.5q0 94 69.5 163t177.5 103v191q-43 -94 -141 -160.5t-248 -66.5q-184 0 -306 116.5t-122 341.5v627h58v-625q0 -201 105.5 -302t268.5 -101q166 0 275.5 101.5t109.5 301.5v625h58v-1061 l14 -4q-131 -27 -190.5 -91.5t-59.5 -136z" glyph-name="uogonek" unicode="ų"/><glyph d="M811 1622l-45 39l205 244h47l205 -244l-43 -39l-185 219zM508 0l-428 1454h61l398 -1335l428 1335h53l428 -1335l397 1335h64l-430 -1454h-54l-432 1339l-432 -1339h-53z" glyph-name="Wcircumflex" horiz-adv-x="1986" unicode="Ŵ"/><glyph d="M950 1452l-184 -219l-45 39l205 244h47l205 -244l-43 -39zM1765 1065h64l-410 -1065h-57l-412 989l-413 -989h-58l-409 1065h63l377 -977l408 977h63l408 -977z" glyph-name="wcircumflex" horiz-adv-x="1898" unicode="ŵ"/><glyph d="M434 1622l-45 39l205 244h47l205 -244l-43 -39l-185 219zM588 0v678l-508 776h70l466 -719l467 719h72l-508 -776v-678h-59z" glyph-name="Ycircumflex" horiz-adv-x="1234" unicode="Ŷ"/><glyph d="M541 1452l-185 -219l-45 39l205 244h47l205 -244l-43 -39zM973 1065h63l-458 -1065l-175 -389h-59l180 399l-454 1055h63l420 -979z" glyph-name="ycircumflex" horiz-adv-x="1105" unicode="ŷ"/><glyph d="M403 1772v65h64v-65h-64zM768 1772v65h63v-65h-63zM588 0v678l-508 776h70l466 -719l467 719h72l-508 -776v-678h-59z" glyph-name="Ydieresis" horiz-adv-x="1234" unicode="Ÿ"/><glyph d="M571 1591l123 314h68l-125 -314h-66zM70 0l911 1395h-862v59h973l-912 -1395h899v-59h-1009z" glyph-name="Zacute" horiz-adv-x="1171" unicode="Ź"/><glyph d="M512 1202l123 314h67l-124 -314h-66zM70 0l786 1010h-731v55h844l-789 -1008h770v-57h-880z" glyph-name="zacute" horiz-adv-x="1038" unicode="ź"/><glyph d="M557 1772v65h57v-65h-57zM70 0l911 1395h-862v59h973l-912 -1395h899v-59h-1009z" glyph-name="Zdotaccent" horiz-adv-x="1171" unicode="Ż"/><glyph d="M496 1382v66h57v-66h-57zM70 0l786 1010h-731v55h844l-789 -1008h770v-57h-880z" glyph-name="zdotaccent" horiz-adv-x="1038" unicode="ż"/><glyph d="M408 1907l184 -219l184 219l43 -39l-205 -244h-47l-205 244zM70 0l911 1395h-862v59h973l-912 -1395h899v-59h-1009z" glyph-name="Zcaron" horiz-adv-x="1171" unicode="Ž"/><glyph d="M348 1518l184 -220l185 220l43 -39l-205 -244h-47l-205 244zM70 0l786 1010h-731v55h844l-789 -1008h770v-57h-880z" glyph-name="zcaron" horiz-adv-x="1038" unicode="ž"/><glyph d="M774 1475q309 0 527.5 -212t218.5 -536t-211 -535.5t-512 -211.5q-291 0 -486.5 194.5t-191.5 519.5h1339v33q0 301 -198.5 493.5t-483.5 192.5q-328 0 -487 -227l-45 37q184 252 530 252zM788 41q254 0 442.5 165t221.5 429h-1274q16 -281 190 -437.5t420 -156.5z" glyph-name="uni018F" horiz-adv-x="1638" unicode="Ə"/><glyph d="M416 1436q-172 0 -172 -209v-162h315v-53h-315v-1174q0 -137 -67.5 -196.5t-166.5 -59.5q-76 0 -141 41v53q59 -37 143 -36q172 0 172 208v1164h-108v53h108v172q0 135 67.5 194.5t166.5 59.5q82 0 141 -41v-51q-65 37 -143 37z" glyph-name="florin" horiz-adv-x="667" unicode="ƒ"/><glyph d="M702 1604h-47l-204 243l45 39l184 -219l184 219l43 -39zM1229 0l-170 418h-766l-170 -418h-64l594 1454h45l594 -1454h-63zM315 477h721l-360 887z" glyph-name="uni01CD" horiz-adv-x="1351" unicode="Ǎ"/><glyph d="M449 1518l184 -220l184 220l43 -39l-205 -244h-47l-205 244zM625 -20q-219 0 -377 148t-158 404t158 404.5t377 148.5q154 0 279.5 -77.5t185.5 -208.5h6v266h57v-1065h-57v266h-6q-59 -131 -185 -208.5t-280 -77.5zM622.5 37q190.5 0 333 130t142.5 365.5t-142.5 365.5 t-333 130t-330.5 -129t-140 -366.5t140 -366.5t330.5 -129z" glyph-name="uni01CE" horiz-adv-x="1292" unicode="ǎ"/><glyph d="M-8 1907l184 -219l184 219l43 -39l-204 -244h-47l-205 244zM141 0v1454h60v-1454h-60z" glyph-name="uni01CF" horiz-adv-x="339" unicode="Ǐ"/><glyph d="M-8 1518l184 -220l184 220l43 -39l-204 -244h-47l-205 244zM141 0v1065h58v-1065h-58z" glyph-name="uni01D0" horiz-adv-x="337" unicode="ǐ"/><glyph d="M668 1907l184 -219l184 219l43 -39l-205 -244h-47l-204 244zM846 -20q-295 0 -510 210.5t-215 536.5t215 537t510 211t511 -210t216 -538t-216 -537.5t-511 -209.5zM846 39q270 0 468.5 192.5t198.5 495.5t-198.5 495.5t-468.5 192.5q-268 0 -467 -192.5t-199 -495.5 t199 -495.5t467 -192.5z" glyph-name="uni01D1" horiz-adv-x="1693" unicode="Ǒ"/><glyph d="M453 1518l184 -220l184 220l43 -39l-205 -244h-47l-204 244zM633 -20q-219 0 -381 150.5t-162 402t162 402t381 150.5q217 0 380 -150.5t163 -402t-163 -402t-380 -150.5zM633 37q195 0 338 133t143 362.5t-143.5 362.5t-337.5 133q-197 0 -339 -132t-142 -363.5 t142 -363.5t339 -132z" glyph-name="uni01D2" horiz-adv-x="1265" unicode="ǒ"/><glyph d="M451 1907l184 -219l184 219l43 -39l-205 -244h-47l-204 244zM631 -20q-217 0 -353.5 137t-136.5 381v956h60v-954q0 -215 117.5 -337t312 -122t312.5 122t118 337v954h59v-956q0 -242 -137 -380t-352 -138z" glyph-name="uni01D3" horiz-adv-x="1261" unicode="Ǔ"/><glyph d="M623 1235h-48l-204 244l45 39l184 -220l184 220l43 -39zM958 1065h58v-1065h-58v207q-43 -94 -141 -160.5t-248 -66.5q-184 0 -306 116.5t-122 341.5v627h58v-625q0 -201 105.5 -302t268.5 -101q166 0 275.5 101.5t109.5 301.5v625z" glyph-name="uni01D4" unicode="ǔ"/><glyph d="M924 -16q-98 -33 -143.5 -91.5t-45.5 -119.5q0 -72 50.5 -108t119.5 -19v-52q-74 -33 -156.5 9.5t-82.5 146.5q0 143 163 230q-289 6 -498.5 216t-209.5 531q0 326 215 537t510 211t511 -210t216 -538q0 -303 -189.5 -508.5t-459.5 -234.5zM180 727q0 -303 199 -495.5 t467 -192.5q270 0 468.5 192.5t198.5 495.5t-198.5 495.5t-468.5 192.5q-268 0 -467 -192.5t-199 -495.5z" glyph-name="uni01EA" horiz-adv-x="1693" unicode="Ǫ"/><glyph d="M551 -20q-178 0 -302 95t-159 253l53 22q31 -143 142.5 -225t267.5 -82t261.5 84t105.5 233q0 139 -88.5 217t-260.5 148l-100 39q-319 125 -319 371q0 152 107.5 246t275.5 94q162 0 264 -84t141 -213l-51 -21q-92 256 -354 256q-137 0 -228.5 -75.5t-91.5 -200.5 q0 -207 268 -312l99 -39q94 -39 156.5 -71.5t123 -81.5t89 -116.5t28.5 -154.5q0 -176 -122 -279t-306 -103zM383 -449l133 377h62l-136 -377h-59z" glyph-name="Scommaaccent" horiz-adv-x="1067" unicode="Ș"/><glyph d="M428 -20q-137 0 -230.5 75.5t-117.5 200.5l57 16q29 -117 108 -175t185 -58q111 0 190.5 57.5t79.5 169.5q0 92 -59 145.5t-197 112.5l-61 27q-246 106 -246 285q0 109 80 179t205 70q106 0 185 -54t110 -146l-51 -23q-70 164 -244 164q-94 0 -159.5 -48t-65.5 -140 q0 -141 202 -228l50 -22q170 -72 240.5 -138.5t70.5 -183.5q0 -141 -99.5 -213.5t-232.5 -72.5zM248 -449l133 377h61l-135 -377h-59z" glyph-name="scommaaccent" horiz-adv-x="847" unicode="ș"/><glyph d="M997 1454v-59h-424v-1395h-59v1395h-424v59h907zM377 -449l133 377h61l-135 -377h-59z" glyph-name="uni021A" horiz-adv-x="1085" unicode="Ț"/><glyph d="M479 1012h-200v-862q0 -106 100 -107q45 0 94 23v-54q-41 -25 -96 -24q-74 0 -116 35.5t-42 105.5v883h-129v53h129v272h60v-272h200v-53zM190 -442l134 376h61l-135 -376h-60z" glyph-name="uni021B" horiz-adv-x="579" unicode="ț"/><glyph d="M-184 -395v55h34q139 0 215 67.5t76 243.5v1094h60v-1092q0 -211 -96.5 -289.5t-264.5 -78.5h-24z" glyph-name="uni0237" horiz-adv-x="339" unicode="ȷ"/><glyph d="M580 1085q219 0 376.5 -149.5t157.5 -405.5q0 -254 -154.5 -402t-367.5 -148q-102 0 -195.5 37.5t-166 107.5t-110.5 180.5t-30 245.5h965q-8 221 -147.5 348t-334.5 127q-113 0 -211 -44t-155 -122l-39 39q74 90 183.5 138t228.5 48zM594 39q180 0 314 121t147 334h-912 q4 -209 135.5 -332t315.5 -123z" glyph-name="uni0259" horiz-adv-x="1202" unicode="ə"/><glyph d="M66 1233l-46 39l205 244h47l205 -244l-43 -39l-184 219z" glyph-name="circumflex" horiz-adv-x="497" unicode="ˆ"/><glyph d="M66 1518l184 -220l184 220l43 -39l-205 -244h-47l-205 244z" glyph-name="caron" horiz-adv-x="497" unicode="ˇ"/><glyph d="M287 1253q-131 0 -200 78t-67 185h70q4 -82 51 -138.5t146 -56.5q100 0 146 56.5t48 138.5h72q2 -106 -66.5 -184.5t-199.5 -78.5z" glyph-name="breve" horiz-adv-x="573" unicode="˘"/><glyph d="M20 1382v66h58v-66h-58z" glyph-name="dotaccent" horiz-adv-x="98" unicode="˙"/><glyph d="M170 1241q-63 0 -106.5 42t-43.5 103.5t43 103.5t107 42q61 0 104 -42t43 -103.5t-43 -103.5t-104 -42zM170 1292q39 0 65.5 28t26.5 66.5t-26.5 65.5t-65.5 27t-66.5 -27t-27.5 -65.5t27.5 -66.5t66.5 -28z" glyph-name="ring" horiz-adv-x="337" unicode="˚"/><glyph d="M238 -406q-74 -33 -156 9.5t-82 146.5q0 96 72.5 166t185.5 104l61 -20q-131 -27 -190 -91.5t-59 -136t49 -107.5t119 -19v-52z" glyph-name="ogonek" horiz-adv-x="319" unicode="˛"/><glyph d="M434 1262q-53 0 -95 36.5t-81 73.5t-84 37q-47 0 -71.5 -31.5t-24.5 -77.5h-58q0 82 46.5 123t111.5 41q63 0 135 -72.5t125 -72.5q47 0 72 30.5t25 77.5h57q0 -84 -46 -124.5t-112 -40.5z" glyph-name="tilde" horiz-adv-x="612" unicode="˜"/><glyph d="M20 1202l123 314h68l-125 -314h-66zM217 1202l123 314h66l-125 -314h-64z" glyph-name="hungarumlaut" horiz-adv-x="425" unicode="˝"/><glyph d="M-215 -449l133 377h62l-136 -377h-59z" glyph-name="uni0326" horiz-adv-x="0" unicode="̦"/><glyph d="M102 0l631 1434h35l631 -1434h-1297zM197 57h1108l-553 1258z" glyph-name="Delta" horiz-adv-x="1501" unicode="Δ"/><glyph d="M172 0v57h311v76q-362 242 -362 598q0 305 215 511t495 206q180 0 343 -90t265.5 -257t102.5 -370q0 -356 -364 -598v-76h313v-57h-377v152l98 73q270 203 271 506q0 281 -201 474.5t-451 193.5q-252 0 -453.5 -193.5t-201.5 -474.5q0 -303 273 -506l98 -73v-152h-375z " glyph-name="Omega" horiz-adv-x="1660" unicode="Ω"/><glyph d="M958 1065h58v-1065h-58v207q-43 -94 -141 -160.5t-248 -66.5q-121 0 -218 51t-152 153v-573h-58v1454h58v-625q0 -201 105.5 -302t268.5 -101q166 0 275.5 101.5t109.5 301.5v625z" glyph-name="mu" unicode="μ"/><glyph d="M1042 45q66 0 140 37v-57q-74 -37 -117 -37q-86 0 -127 46t-41 159v817h-530v-1010h-60v1010h-205v55h1057v-55h-203v-852q0 -68 19.5 -90.5t66.5 -22.5z" glyph-name="pi" horiz-adv-x="1273" unicode="π"/><glyph d="M362 1837v-65h-63v65h63zM727 1837v-65h-63v65h63zM201 59h690v-59h-750v1454h731v-59h-671v-635h577v-60h-577v-641z" glyph-name="afii10023" horiz-adv-x="999" unicode="Ё"/><glyph d="M715 1905l-125 -314h-66l123 314h68zM918 1454v-59h-717v-1395h-60v1454h777z" glyph-name="afii10052" horiz-adv-x="1017" unicode="Ѓ"/><glyph d="M852 39q315 0 496 231l45 -39q-201 -252 -541 -251q-307 0 -519 210.5t-212 536.5t210 537t517 211q344 0 545 -252l-45 -39q-180 231 -496 231q-279 0 -472.5 -187.5t-199.5 -482.5h451v-55h-451q14 -287 206 -469t466 -182z" glyph-name="afii10053" horiz-adv-x="1492" unicode="Є"/><glyph d="M141 0v1454h60v-1454h-60z" glyph-name="afii10055" horiz-adv-x="339" unicode="І"/><glyph d="M-43 1772v65h63v-65h-63zM322 1772v65h63v-65h-63zM141 0v1454h60v-1454h-60z" glyph-name="afii10056" horiz-adv-x="339" unicode="Ї"/><glyph d="M1229 0l-170 418h-766l-170 -418h-64l594 1454h45l594 -1454h-63zM315 477h721l-360 887z" glyph-name="afii10017" horiz-adv-x="1351" unicode="А"/><glyph d="M567 903q227 0 353.5 -126t126.5 -326q0 -197 -127 -324t-353 -127h-426v1454h779v-59h-719v-492h366zM563 59q199 0 309.5 102.5t110.5 289.5q0 184 -111.5 288.5t-308.5 104.5h-362v-785h362z" glyph-name="afii10018" horiz-adv-x="1146" unicode="Б"/><glyph d="M739 801q156 -31 237 -138.5t81 -259.5q0 -182 -121 -292.5t-363 -110.5h-432v1454h455q195 0 290 -96t95 -240q0 -106 -57.5 -192t-184.5 -125zM592 1397h-391v-572h381q162 0 252 82t90 215q0 127 -84 201t-248 74zM571 57q211 0 319.5 89.5t108.5 254.5 q0 172 -110.5 270.5t-317.5 98.5h-370v-713h370z" glyph-name="afii10019" unicode="В"/><glyph d="M918 1454v-59h-717v-1395h-60v1454h777z" glyph-name="afii10020" horiz-adv-x="1017" unicode="Г"/><glyph d="M1176 59h131v-200h-60v141h-1112v-141h-59v200h59q78 113 96.5 320t18.5 682v393h926v-1395zM190 59h926v1336h-807v-334q0 -330 -4 -475.5t-31 -297t-84 -229.5z" glyph-name="afii10021" horiz-adv-x="1382" unicode="Д"/><glyph d="M201 59h690v-59h-750v1454h731v-59h-671v-635h577v-60h-577v-641z" glyph-name="afii10022" horiz-adv-x="999" unicode="Е"/><glyph d="M1970 0l-624 737l-263 -293v-444h-59v446l-260 291l-625 -737h-78l664 778l-608 676h82l825 -928v928h59v-930l828 930h82l-609 -676l664 -778h-78z" glyph-name="afii10024" horiz-adv-x="2115" unicode="Ж"/><glyph d="M586 -20q-219 0 -354.5 126.5t-135.5 313.5h60q0 -164 120.5 -273.5t313.5 -109.5q180 0 301 96t121 260q0 174 -134.5 263t-340.5 94v53q186 8 295.5 101t109.5 224q0 125 -102.5 207t-259.5 82q-166 0 -271.5 -97t-105.5 -269h-60q0 193 121 308.5t318 115.5 q184 0 301.5 -99.5t117.5 -251.5q0 -113 -72.5 -206t-226.5 -136q172 -33 270.5 -132t98.5 -253q0 -184 -138 -300.5t-347 -116.5z" glyph-name="afii10025" horiz-adv-x="1167" unicode="З"/><glyph d="M1251 0h-59v1348h-10l-977 -1348h-64v1454h60v-1348h10l977 1348h63v-1454z" glyph-name="afii10026" horiz-adv-x="1392" unicode="И"/><glyph d="M772 1622q-131 0 -199.5 78t-66.5 184h69q4 -82 51.5 -138t145.5 -56q100 0 146.5 56t48.5 138h69q2 -106 -65.5 -184t-198.5 -78zM1251 0h-59v1348h-10l-977 -1348h-64v1454h60v-1348h10l977 1348h63v-1454z" glyph-name="afii10027" horiz-adv-x="1392" unicode="Й"/><glyph d="M1085 0l-624 737l-260 -291v-446h-60v1454h60v-928l825 928h82l-608 -676l663 -778h-78z" glyph-name="afii10028" horiz-adv-x="1230" unicode="К"/><glyph d="M174 -12q-74 0 -129 39v55q68 -37 123 -37q84 0 84 105v1304h1003v-1454h-59v1395h-885v-1278q0 -61 -41 -95t-96 -34z" glyph-name="afii10029" horiz-adv-x="1394" unicode="Л"/><glyph d="M141 0v1454h70l663 -1372l662 1372h72v-1454h-60v1319h-10l-639 -1319h-51l-637 1319h-10v-1319h-60z" glyph-name="afii10030" horiz-adv-x="1746" unicode="М"/><glyph d="M1057 1454h59v-1454h-59v678h-856v-678h-60v1454h60v-717h856v717z" glyph-name="afii10031" horiz-adv-x="1257" unicode="Н"/><glyph d="M846 -20q-295 0 -510 210.5t-215 536.5t215 537t510 211t511 -210t216 -538t-216 -537.5t-511 -209.5zM846 39q270 0 468.5 192.5t198.5 495.5t-198.5 495.5t-468.5 192.5q-268 0 -467 -192.5t-199 -495.5t199 -495.5t467 -192.5z" glyph-name="afii10032" horiz-adv-x="1693" unicode="О"/><glyph d="M1110 1454v-1454h-59v1395h-850v-1395h-60v1454h969z" glyph-name="afii10033" horiz-adv-x="1251" unicode="П"/><glyph d="M567 1454q225 0 352.5 -127t127.5 -323q0 -201 -126 -327t-354 -126h-366v-551h-60v1454h426zM563 610q197 0 308.5 104.5t111.5 289.5q0 186 -110.5 288.5t-309.5 102.5h-362v-785h362z" glyph-name="afii10034" horiz-adv-x="1146" unicode="Р"/><glyph d="M852 -20q-307 0 -519 210.5t-212 536.5t210 537t517 211q344 0 545 -252l-45 -39q-180 231 -496 231q-285 0 -478.5 -192.5t-193.5 -495.5q0 -301 193.5 -494.5t478.5 -193.5q315 0 496 231l45 -39q-201 -251 -541 -251z" glyph-name="afii10035" horiz-adv-x="1492" unicode="С"/><glyph d="M997 1454v-59h-424v-1395h-59v1395h-424v59h907z" glyph-name="afii10036" horiz-adv-x="1085" unicode="Т"/><glyph d="M1139 1454h65l-794 -1454h-66l264 483l-528 971h63l496 -913z" glyph-name="afii10037" horiz-adv-x="1265" unicode="У"/><glyph d="M915 1311q299 0 475.5 -163t176.5 -421t-176.5 -421t-475.5 -163h-55v-143h-59v143h-49q-301 0 -476.5 163t-175.5 421t175.5 421t476.5 163h49v143h59v-143h55zM752 201h49v1054h-49q-272 0 -432 -143t-160 -385t159 -384t433 -142zM915 201q270 0 431 143t161 383 t-160.5 384t-431.5 144h-55v-1054h55z" glyph-name="afii10038" horiz-adv-x="1665" unicode="Ф"/><glyph d="M1210 0h-73l-498 702l-498 -702h-71l534 754l-495 700h73l459 -647l457 647h73l-495 -698z" glyph-name="afii10039" horiz-adv-x="1280" unicode="Х"/><glyph d="M1110 59h39v-200h-55v141h-953v1454h60v-1395h850v1395h59v-1395z" glyph-name="afii10040" horiz-adv-x="1228" unicode="Ц"/><glyph d="M977 1454h59v-1454h-59v649q-29 -47 -72 -92t-140 -91t-214 -46q-188 0 -319.5 112.5t-131.5 327.5v594h60v-590q0 -174 102.5 -277.5t286.5 -103.5q186 0 307 105.5t121 275.5v590z" glyph-name="afii10041" horiz-adv-x="1177" unicode="Ч"/><glyph d="M141 0v1454h60v-1395h762v1395h59v-1395h764v1395h59v-1454h-1704z" glyph-name="afii10042" horiz-adv-x="1986" unicode="Ш"/><glyph d="M1845 59h39v-200h-55v141h-1688v1454h60v-1395h762v1395h59v-1395h764v1395h59v-1395z" glyph-name="afii10043" horiz-adv-x="1964" unicode="Щ"/><glyph d="M625 903q227 0 353 -126t126 -326q0 -197 -127 -324t-352 -127h-426v1395h-199v59h258v-551h367zM621 59q199 0 309 102.5t110 289.5q0 184 -111.5 288.5t-307.5 104.5h-363v-785h363z" glyph-name="afii10044" horiz-adv-x="1204" unicode="Ъ"/><glyph d="M567 903q227 0 353.5 -126t126.5 -326q0 -197 -127 -324t-353 -127h-426v1454h60v-551h366zM1280 1454h59v-1454h-59v1454zM563 59q199 0 309.5 102.5t110.5 289.5q0 184 -111.5 288.5t-308.5 104.5h-362v-785h362z" glyph-name="afii10045" horiz-adv-x="1480" unicode="Ы"/><glyph d="M567 903q227 0 353.5 -126t126.5 -326q0 -197 -127 -324t-353 -127h-426v1454h60v-551h366zM563 59q199 0 309.5 102.5t110.5 289.5q0 184 -111.5 288.5t-308.5 104.5h-362v-785h362z" glyph-name="afii10046" horiz-adv-x="1146" unicode="Ь"/><glyph d="M666 1475q307 0 518 -212t211 -536t-212 -535.5t-521 -211.5q-340 0 -541 251l45 39q180 -231 496 -231q274 0 465.5 182t205.5 469h-448v55h448q-6 295 -199.5 482.5t-471.5 187.5q-315 0 -496 -231l-45 39q201 252 545 252z" glyph-name="afii10047" horiz-adv-x="1492" unicode="Э"/><glyph d="M1206 1475q295 0 511 -211t216 -537t-216 -536.5t-511 -210.5q-287 0 -499.5 198.5t-227.5 511.5h-278v-690h-60v1454h60v-709h278q8 319 222 524.5t505 205.5zM1206.5 39q268.5 0 468 192.5t199.5 495.5t-199.5 495.5t-468 192.5t-468 -192.5t-199.5 -495.5 t199.5 -495.5t468 -192.5z" glyph-name="afii10048" horiz-adv-x="2050" unicode="Ю"/><glyph d="M606 1454h424v-1454h-59v553h-365q-31 0 -47 2l-387 -555h-72l394 563q-172 31 -266.5 149.5t-94.5 291.5q0 197 126 323.5t347 126.5zM616 614h355v781h-355q-197 0 -308 -103.5t-111 -287.5q0 -182 111 -286t308 -104z" glyph-name="afii10049" horiz-adv-x="1171" unicode="Я"/><glyph d="M625 -20q-219 0 -377 148t-158 404t158 404.5t377 148.5q154 0 279.5 -77.5t185.5 -208.5h6v266h57v-1065h-57v266h-6q-59 -131 -185 -208.5t-280 -77.5zM622.5 37q190.5 0 333 130t142.5 365.5t-142.5 365.5t-333 130t-330.5 -129t-140 -366.5t140 -366.5t330.5 -129z " glyph-name="afii10065" horiz-adv-x="1292" unicode="а"/><glyph d="M670 1085q217 0 375.5 -148.5t158.5 -404.5t-158.5 -404t-375.5 -148q-156 0 -281 77.5t-184 208.5h-6v-266h-58v1139q0 147 60.5 221t220.5 74h409q29 0 41.5 1t25.5 10t22 30h59q-10 -53 -41 -75t-104 -22h-406q-135 0 -182 -57t-47 -199v-323h6q59 131 184 208.5 t281 77.5zM670 37q193 0 333 129t140 366.5t-140.5 366.5t-332.5 129q-190 0 -332.5 -130t-142.5 -365.5t142.5 -365.5t332.5 -130z" glyph-name="afii10066" horiz-adv-x="1292" unicode="б"/><glyph d="M752 588q233 -57 233 -281q0 -137 -97 -222t-310 -85h-437v1065h457q158 0 240 -68.5t82 -179.5q0 -170 -168 -229zM588 1008h-389v-396h395q129 0 198.5 52.5t69.5 148.5q0 195 -274 195zM586 57q342 0 342 246q0 254 -342 254h-387v-500h387z" glyph-name="afii10067" horiz-adv-x="1085" unicode="в"/><glyph d="M846 1065v-55h-647v-1010h-58v1065h705z" glyph-name="afii10068" horiz-adv-x="927" unicode="г"/><glyph d="M1001 57h74v-207h-57v150h-885v-150h-57v207h53q59 86 73.5 252t14.5 551v205h784v-1008zM182 57h760v953h-668v-150q0 -385 -15.5 -551t-76.5 -252z" glyph-name="afii10069" horiz-adv-x="1150" unicode="д"/><glyph d="M610 1085q102 0 195.5 -37.5t166 -107.5t110.5 -180.5t30 -245.5h-962q8 -221 146 -348t333 -127q115 0 212 44t154 122l41 -39q-74 -90 -183.5 -138t-229.5 -48q-219 0 -376 149.5t-157 405.5q0 254 153.5 402t366.5 148zM608 1026q-180 0 -313 -121t-145 -334h911 q-6 209 -137.5 332t-315.5 123z" glyph-name="afii10070" horiz-adv-x="1202" unicode="е"/><glyph d="M1550 0l-516 541l-166 -164v-377h-57v377l-166 164l-516 -541h-70l549 575l-495 490h77l621 -616v616h57v-616l619 616h78l-494 -487l549 -578h-70z" glyph-name="afii10072" horiz-adv-x="1689" unicode="ж"/><glyph d="M500 -20q-180 0 -292 93t-112 238h60q0 -125 97 -200.5t251 -75.5q145 0 242.5 65.5t97.5 190.5t-100.5 185.5t-264.5 60.5v55q147 -2 225 61.5t78 157.5q0 98 -77.5 157.5t-204.5 59.5q-133 0 -217 -65.5t-84 -180.5h-60q0 135 99.5 218t259.5 83q156 0 250 -77.5 t94 -196.5q0 -184 -209 -240q127 -16 198.5 -93t71.5 -187q0 -135 -114.5 -222t-288.5 -87z" glyph-name="afii10073" horiz-adv-x="999" unicode="з"/><glyph d="M141 0v1065h58v-975l745 975h60v-1065h-60v975l-745 -975h-58z" glyph-name="afii10074" horiz-adv-x="1142" unicode="и"/><glyph d="M573.5 1253q-131.5 0 -200 78t-66.5 185h70q4 -82 51 -138.5t145 -56.5q100 0 146.5 56.5t48.5 138.5h72q2 -106 -66.5 -184.5t-200 -78.5zM141 0v1065h58v-975l745 975h60v-1065h-60v975l-745 -975h-58z" glyph-name="afii10075" horiz-adv-x="1142" unicode="й"/><glyph d="M881 0l-516 541l-166 -164v-377h-58v1065h58v-616l618 616h78l-494 -487l549 -578h-69z" glyph-name="afii10076" horiz-adv-x="1019" unicode="к"/><glyph d="M1071 1065v-1065h-59v1010h-703v-879q0 -70 -43 -106.5t-108 -36.5q-70 0 -113 37v55q51 -39 117 -39q88 0 88 119v905h821z" glyph-name="afii10077" horiz-adv-x="1210" unicode="л"/><glyph d="M141 0v1065h56l503 -1002l502 1002h58v-1065h-60v946l-473 -946h-53l-475 946v-946h-58z" glyph-name="afii10078" horiz-adv-x="1398" unicode="м"/><glyph d="M934 1065h57v-1065h-57v500h-735v-500h-58v1065h58v-508h735v508z" glyph-name="afii10079" horiz-adv-x="1130" unicode="н"/><glyph d="M633 -20q-219 0 -381 150.5t-162 402t162 402t381 150.5q217 0 380 -150.5t163 -402t-163 -402t-380 -150.5zM633 37q195 0 338 133t143 362.5t-143.5 362.5t-337.5 133q-197 0 -339 -132t-142 -363.5t142 -363.5t339 -132z" glyph-name="afii10080" horiz-adv-x="1265" unicode="о"/><glyph d="M965 1065v-1065h-58v1010h-708v-1010h-58v1065h824z" glyph-name="afii10081" horiz-adv-x="1103" unicode="п"/><glyph d="M670 1085q217 0 375.5 -148.5t158.5 -404.5t-158.5 -404t-375.5 -148q-156 0 -281 77.5t-184 208.5h-6v-655h-58v1454h58v-266h6q59 131 184 208.5t281 77.5zM670 37q193 0 333 129t140 366.5t-140.5 366.5t-332.5 129q-190 0 -332.5 -130t-142.5 -365.5t142.5 -365.5 t332.5 -130z" glyph-name="afii10082" horiz-adv-x="1292" unicode="р"/><glyph d="M629 -20q-215 0 -377 150.5t-162 399.5q0 254 161 404.5t378 150.5q143 0 266 -68.5t186 -193.5l-51 -22q-57 109 -164.5 168t-230.5 59q-193 0 -338 -133t-145 -365q0 -227 145 -360t338 -133q123 0 230.5 59.5t164.5 167.5l51 -22q-63 -125 -186 -193.5t-266 -68.5z " glyph-name="afii10083" horiz-adv-x="1169" unicode="с"/><glyph d="M807 1065v-55h-336v-1010h-57v1010h-338v55h731z" glyph-name="afii10084" horiz-adv-x="882" unicode="т"/><glyph d="M973 1065h63l-458 -1065l-175 -389h-59l180 399l-454 1055h63l420 -979z" glyph-name="afii10085" horiz-adv-x="1105" unicode="у"/><glyph d="M1083 -389v655h-6q-59 -131 -185 -208.5t-280 -77.5q-213 0 -367.5 148t-154.5 404t154.5 404.5t367.5 148.5q154 0 280 -77.5t185 -208.5h6v686h60v-686h6q59 131 185 208.5t282 77.5q211 0 366.5 -148.5t155.5 -404.5t-155.5 -404t-366.5 -148q-156 0 -282 77.5 t-185 208.5h-6v-655h-60zM610 37q190 0 331.5 130t141.5 365.5t-141 365.5t-332 130q-186 0 -322 -129t-136 -366.5t136 -366.5t322 -129zM1616 37q186 0 323.5 129t137.5 366.5t-137.5 366.5t-323.5 129q-190 0 -331.5 -130t-141.5 -365.5t141.5 -365.5t331.5 -130z" glyph-name="afii10086" horiz-adv-x="2226" unicode="ф"/><glyph d="M59 0l418 543l-405 522h73l365 -475l364 475h72l-403 -522l418 -543h-76l-375 496l-375 -496h-76z" glyph-name="afii10087" horiz-adv-x="1017" unicode="х"/><glyph d="M965 57h77v-198h-57v141h-844v1065h58v-1008h708v1008h58v-1008z" glyph-name="afii10088" horiz-adv-x="1122" unicode="ц"/><glyph d="M887 1065h57v-1065h-57v428q-43 -74 -138.5 -125t-220.5 -51q-160 0 -273.5 90t-113.5 285v438h58v-444q0 -145 89 -229.5t247 -84.5q160 0 256 85t96 229v444z" glyph-name="afii10089" horiz-adv-x="1085" unicode="ч"/><glyph d="M141 0v1065h58v-1008h542v1008h58v-1008h542v1008h60v-1065h-1260z" glyph-name="afii10090" horiz-adv-x="1540" unicode="ш"/><glyph d="M1401 57h78v-198h-60v141h-1278v1065h58v-1008h542v1008h58v-1008h542v1008h60v-1008z" glyph-name="afii10091" horiz-adv-x="1556" unicode="щ"/><glyph d="M616 614q180 0 274.5 -81.5t94.5 -225t-94 -225.5t-275 -82h-473v1010h-143v55h201v-451h415zM616 57q309 0 309.5 250t-309.5 250h-415v-500h415z" glyph-name="afii10092" horiz-adv-x="1075" unicode="ъ"/><glyph d="M612 614q180 0 275.5 -81.5t95.5 -225t-95 -225.5t-276 -82h-471v1065h58v-451h413zM1102 1065h59v-1065h-59v1065zM614 57q307 0 307.5 250t-307.5 250h-415v-500h415z" glyph-name="afii10093" horiz-adv-x="1300" unicode="ы"/><glyph d="M612 614q180 0 275.5 -81.5t95.5 -225t-95 -225.5t-276 -82h-471v1065h58v-451h413zM614 57q307 0 307.5 250t-307.5 250h-415v-500h415z" glyph-name="afii10094" horiz-adv-x="1071" unicode="ь"/><glyph d="M541 1085q217 0 378.5 -151.5t161.5 -403.5q0 -250 -161.5 -400t-378.5 -150q-143 0 -265 68.5t-186 193.5l49 22q59 -109 166 -168t230 -59q188 0 332.5 126t152.5 343h-391v53h391q-10 219 -153.5 344t-331.5 125q-123 0 -229.5 -59.5t-166.5 -167.5l-49 22 q63 125 185.5 193.5t265.5 68.5z" glyph-name="afii10095" horiz-adv-x="1169" unicode="э"/><glyph d="M1001 1085q219 0 381 -150.5t162 -402t-161.5 -402t-381.5 -150.5q-213 0 -373.5 143t-168.5 385h-260v-508h-58v1065h58v-506h260q10 242 169.5 384t372.5 142zM1001 37q197 0 339.5 132t142.5 363.5t-142.5 363.5t-339.5 132q-195 0 -338 -133t-143 -362.5t143 -362.5 t338 -133z" glyph-name="afii10096" horiz-adv-x="1624" unicode="ю"/><glyph d="M944 1065v-1065h-57v455h-330l-379 -455h-78l387 455h-28q-168 0 -255 84t-87 221t87 221t255 84h485zM459 510h428v500h-428q-150 0 -216.5 -71t-66.5 -179.5t65.5 -179t217.5 -70.5z" glyph-name="afii10097" horiz-adv-x="1085" unicode="я"/><glyph d="M461 1448v-66h-64v66h64zM825 1448v-66h-63v66h63zM610 1085q102 0 195.5 -37.5t166 -107.5t110.5 -180.5t30 -245.5h-962q8 -221 146 -348t333 -127q115 0 212 44t154 122l41 -39q-74 -90 -183.5 -138t-229.5 -48q-219 0 -376 149.5t-157 405.5q0 254 153.5 402 t366.5 148zM608 1026q-180 0 -313 -121t-145 -334h911q-6 209 -137.5 332t-315.5 123z" glyph-name="afii10071" horiz-adv-x="1202" unicode="ё"/><glyph d="M705 1516l-125 -314h-66l123 314h68zM846 1065v-55h-647v-1010h-58v1065h705z" glyph-name="afii10100" horiz-adv-x="927" unicode="ѓ"/><glyph d="M635 37q123 0 230.5 59.5t164.5 167.5l51 -22q-63 -125 -186 -193.5t-266 -68.5q-215 0 -377 150.5t-162 399.5q0 254 161 404.5t378 150.5q143 0 266 -68.5t186 -193.5l-51 -22q-57 109 -164.5 168t-230.5 59q-186 0 -329.5 -125t-153.5 -344h389v-53h-389 q8 -217 152.5 -343t330.5 -126z" glyph-name="afii10101" horiz-adv-x="1169" unicode="є"/><glyph d="M141 1384v70h58v-70h-58zM141 0v1065h58v-1065h-58z" glyph-name="afii10103" horiz-adv-x="337" unicode="і"/><glyph d="M-43 1382v66h63v-66h-63zM322 1382v66h63v-66h-63zM141 0v1065h58v-1065h-58z" glyph-name="afii10104" horiz-adv-x="337" unicode="ї"/><glyph d="M858 1550h60v-155h-717v-1395h-60v1454h717v96z" glyph-name="afii10050" horiz-adv-x="1017" unicode="Ґ"/><glyph d="M788 1159h58v-149h-647v-1010h-58v1065h647v94z" glyph-name="afii10098" horiz-adv-x="927" unicode="ґ"/><glyph d="M1022 1591h-66l-125 314h66zM508 0l-428 1454h61l398 -1335l428 1335h53l428 -1335l397 1335h64l-430 -1454h-54l-432 1339l-432 -1339h-53z" glyph-name="Wgrave" horiz-adv-x="1986" unicode="Ẁ"/><glyph d="M979 1202h-66l-125 314h66zM1765 1065h64l-410 -1065h-57l-412 989l-413 -989h-58l-409 1065h63l377 -977l408 977h63l408 -977z" glyph-name="wgrave" horiz-adv-x="1898" unicode="ẁ"/><glyph d="M979 1591l123 314h67l-125 -314h-65zM508 0l-428 1454h61l398 -1335l428 1335h53l428 -1335l397 1335h64l-430 -1454h-54l-432 1339l-432 -1339h-53z" glyph-name="Wacute" horiz-adv-x="1986" unicode="Ẃ"/><glyph d="M1124 1516l-125 -314h-65l123 314h67zM1765 1065h64l-410 -1065h-57l-412 989l-413 -989h-58l-409 1065h63l377 -977l408 977h63l408 -977z" glyph-name="wacute" horiz-adv-x="1898" unicode="ẃ"/><glyph d="M780 1772v65h64v-65h-64zM1145 1772v65h63v-65h-63zM508 0l-428 1454h61l398 -1335l428 1335h53l428 -1335l397 1335h64l-430 -1454h-54l-432 1339l-432 -1339h-53z" glyph-name="Wdieresis" horiz-adv-x="1986" unicode="Ẅ"/><glyph d="M801 1448v-66h-64v66h64zM1165 1448v-66h-63v66h63zM1765 1065h64l-410 -1065h-57l-412 989l-413 -989h-58l-409 1065h63l377 -977l408 977h63l408 -977z" glyph-name="wdieresis" horiz-adv-x="1898" unicode="ẅ"/><glyph d="M645 1591h-65l-125 314h65zM588 0v678l-508 776h70l466 -719l467 719h72l-508 -776v-678h-59z" glyph-name="Ygrave" horiz-adv-x="1234" unicode="Ỳ"/><glyph d="M569 1202h-65l-125 314h65zM973 1065h63l-458 -1065l-175 -389h-59l180 399l-454 1055h63l420 -979z" glyph-name="ygrave" horiz-adv-x="1105" unicode="ỳ"/><glyph d="M92 559v45h1045v-45h-1045z" glyph-name="endash" horiz-adv-x="1228" unicode="–"/><glyph d="M92 559v45h1168v-45h-1168z" glyph-name="emdash" horiz-adv-x="1351" unicode="—"/><glyph d="M260 1454l-133 -377h-61l135 377h59z" glyph-name="quoteleft" horiz-adv-x="323" unicode="‘"/><glyph d="M66 1077l133 377h61l-135 -377h-59z" glyph-name="quoteright" horiz-adv-x="323" unicode="’"/><glyph d="M66 -293l133 377h61l-135 -377h-59z" glyph-name="quotesinglbase" horiz-adv-x="333" unicode="‚"/><glyph d="M260 1454l-133 -377h-61l133 377h61zM451 1454l-134 -377h-61l135 377h60z" glyph-name="quotedblleft" horiz-adv-x="516" unicode="“"/><glyph d="M66 1077l133 377h61l-135 -377h-59zM256 1077l133 377h62l-136 -377h-59z" glyph-name="quotedblright" horiz-adv-x="516" unicode="”"/><glyph d="M66 -293l133 377h61l-135 -377h-59zM256 -293l133 377h62l-136 -377h-59z" glyph-name="quotedblbase" horiz-adv-x="526" unicode="„"/><glyph d="M475 1155v-51h-153l-11 -445h-35l-12 445h-153v51h153l-8 299h74l-6 -299h151z" glyph-name="dagger" horiz-adv-x="583" unicode="†"/><glyph d="M322 1155h153v-51h-156l-8 -318h-35l-10 318h-155v51h153l-8 299h74zM311 668l8 -318h156v-51h-153l8 -299h-74l8 299h-153v51h155l10 318h35z" glyph-name="daggerdbl" horiz-adv-x="583" unicode="‡"/><glyph d="M160 514q-43 0 -43 43t43 43t43 -43t-43 -43z" glyph-name="bullet" horiz-adv-x="290" unicode="•"/><glyph d="M129 -20q-43 0 -43 43t43 43t43 -43t-43 -43zM635 -20q-43 0 -43 43t43 43t43 -43t-43 -43zM1141 -20q-43 0 -43 43t43 43t43 -43t-43 -43z" glyph-name="ellipsis" horiz-adv-x="1269" unicode="…"/><glyph d="M325.5 961q-104.5 0 -179 73.5t-74.5 178t74.5 178t179 73.5t179.5 -73.5t75 -178t-75 -178t-179.5 -73.5zM266 0l-47 35l946 1421l45 -35zM326 1020q84 0 140 53t56 139t-56 139.5t-140 53.5t-140.5 -53.5t-56.5 -139.5t56.5 -139t140.5 -53zM1103.5 -10 q-104.5 0 -179 73.5t-74.5 178t74.5 178.5t179 74t179.5 -74t75 -178.5t-75 -178t-179.5 -73.5zM1722.5 -10q-104.5 0 -179.5 73.5t-75 178t75 178.5t179.5 74t179 -74t74.5 -178.5t-74.5 -178t-179 -73.5zM1104 49q82 0 137 53.5t55 139.5t-55 139t-137 53t-137.5 -53 t-55.5 -139t55.5 -139.5t137.5 -53.5zM1722 49q82 0 137.5 53.5t55.5 139.5t-55.5 139t-137.5 53t-137 -53t-55 -139t55 -139.5t137 -53.5z" glyph-name="perthousand" horiz-adv-x="2048" unicode="‰"/><glyph d="M377 287l-295 293v55l295 291l31 -31l-277 -289l277 -289z" glyph-name="guilsinglleft" horiz-adv-x="458" unicode="‹"/><glyph d="M82 287l-31 30l277 289l-277 289l31 31l295 -291v-55z" glyph-name="guilsinglright" horiz-adv-x="458" unicode="›"/><glyph d="M-389 0l893 1434h86l-881 -1434h-98z" glyph-name="fraction" horiz-adv-x="221" unicode="⁄"/><glyph d="M893 39q315 0 498 231l43 -39q-201 -252 -541 -251q-274 0 -477 172t-244 448h-141v59h133q-2 23 -2 68v21h-131v59h135q27 295 232.5 481.5t492.5 186.5q342 0 543 -252l-43 -39q-182 231 -498 231q-264 0 -452.5 -169t-215.5 -439h457v-59h-461v-21q0 -45 2 -68h459 v-59h-451q41 -252 226.5 -406.5t435.5 -154.5z" glyph-name="Euro" horiz-adv-x="1533" unicode="€"/><glyph d="M279 1085v316h-146v53h350v-53h-145v-316h-59zM549 1085v369h59l150 -295l151 295h60v-369h-60v256l-125 -256h-49l-127 256v-256h-59z" glyph-name="trademark" horiz-adv-x="1101" unicode="™"/><glyph d="M129 901v453l-35 -23l-37 64l72 41h76v-535h-76zM51 0l893 1434h86l-880 -1434h-99zM899 -4q-76 0 -131 46t-55 116q0 92 88 135q-61 39 -62 108q0 53 44 95.5t116 42.5q74 0 118 -41t44 -97q0 -70 -62 -108q88 -43 88 -135q0 -70 -55 -116t-133 -46zM899 322 q35 0 59.5 23.5t24.5 55.5q0 74 -84 74q-41 0 -62.5 -21.5t-21.5 -52t25.5 -55t58.5 -24.5zM899 59q49 0 80 27t31 72t-31 72.5t-80 27.5q-45 0 -78 -28.5t-33 -71.5q0 -41 33 -70t78 -29z" glyph-name="oneeighth" horiz-adv-x="1138" unicode="⅛"/><glyph d="M238 893q-82 0 -135.5 55.5t-51.5 130.5h78q4 -51 31.5 -86t77.5 -35q45 0 77.5 28t32.5 71q0 55 -38 75.5t-113 24.5v57q129 0 129 86q0 33 -26 54.5t-62 21.5q-94 0 -97 -110h-75q0 78 48 126t124 48q66 0 114.5 -42t48.5 -98q0 -66 -61 -108q86 -37 86 -135 q0 -70 -56 -117t-132 -47zM92 0l893 1434h86l-881 -1434h-98zM936 -4q-76 0 -131 46t-55 116q0 92 88 135q-61 39 -62 108q0 53 44 95.5t116 42.5q74 0 118 -41t44 -97q0 -70 -62 -108q88 -43 88 -135q0 -70 -55 -116t-133 -46zM936 322q35 0 59.5 23.5t24.5 55.5 q0 74 -84 74q-41 0 -62.5 -21.5t-21.5 -52t25.5 -55t58.5 -24.5zM936 59q49 0 80 27t31 72t-31 72.5t-80 27.5q-45 0 -78 -28.5t-33 -71.5q0 -41 33 -70t78 -29z" glyph-name="threeeighths" horiz-adv-x="1175" unicode="⅜"/><glyph d="M236 893q-68 0 -120.5 38t-64.5 89l68 39q4 -41 35.5 -71t81.5 -30q47 0 81.5 36t34.5 89q0 51 -33.5 87t-74.5 36q-72 0 -117 -59l-66 16l37 273h283v-66h-213l-16 -119q45 20 92 21q72 0 129 -54.5t57 -134t-57 -135t-137 -55.5zM92 0l893 1434h86l-881 -1434h-98z M940 -4q-76 0 -131 46t-55 116q0 92 88 135q-61 39 -62 108q0 53 44 95.5t116 42.5q74 0 118 -41t44 -97q0 -70 -62 -108q88 -43 88 -135q0 -70 -55 -116t-133 -46zM940 322q35 0 59.5 23.5t24.5 55.5q0 74 -84 74q-41 0 -62.5 -21.5t-21.5 -52t25.5 -55t58.5 -24.5zM940 59 q49 0 80 27t31 72t-31 72.5t-80 27.5q-45 0 -78 -28.5t-33 -71.5q0 -41 33 -70t78 -29z" glyph-name="fiveeighths" horiz-adv-x="1179" unicode="⅝"/><glyph d="M121 901l182 469h-248v66h355l-209 -535h-80zM51 0l893 1434h86l-880 -1434h-99zM899 -4q-76 0 -131 46t-55 116q0 92 88 135q-61 39 -62 108q0 53 44 95.5t116 42.5q74 0 118 -41t44 -97q0 -70 -62 -108q88 -43 88 -135q0 -70 -55 -116t-133 -46zM899 322 q35 0 59.5 23.5t24.5 55.5q0 74 -84 74q-41 0 -62.5 -21.5t-21.5 -52t25.5 -55t58.5 -24.5zM899 59q49 0 80 27t31 72t-31 72.5t-80 27.5q-45 0 -78 -28.5t-33 -71.5q0 -41 33 -70t78 -29z" glyph-name="seveneighths" horiz-adv-x="1138" unicode="⅞"/><glyph d="M565.5 -20q-194.5 0 -324.5 126.5t-130 323.5t131 319.5t327 122.5q150 0 285 -102l8 -10l-489 694h65l361 -506q6 -8 39.5 -56t50 -72.5t46.5 -78t45 -94.5t27.5 -98t12.5 -113q0 -201 -130 -328.5t-324.5 -127.5zM565 39q164 0 280 105.5t116 283.5q0 176 -116 280.5 t-280 104.5q-162 0 -279.5 -104.5t-117.5 -280.5q0 -178 117.5 -283.5t279.5 -105.5z" glyph-name="partialdiff" horiz-adv-x="1128" unicode="∂"/><glyph d="M92 -389v1823h1100v-1823h-49v1757h-1002v-1757h-49z" glyph-name="product" horiz-adv-x="1284" unicode="∏"/><glyph d="M92 -389l563 911l-563 912h1122v-70h-997l518 -842l-518 -841h997v-70h-1122z" glyph-name="summation" horiz-adv-x="1306" unicode="∑"/><glyph d="M92 559v45h686v-45h-686z" glyph-name="minus" horiz-adv-x="870" unicode="−"/><glyph d="M618 -389l-317 989h-209v51h252l299 -940l467 1723h55l-495 -1823h-52z" glyph-name="radical" horiz-adv-x="1257" unicode="√"/><glyph d="M1225 864q133 0 229 -95t96 -232q0 -141 -96 -237.5t-229 -96.5q-115 0 -207 70.5t-182 205.5q-186 -276 -387 -276q-135 0 -231.5 95t-96.5 239q0 139 96 233t232 94q201 0 387 -272q90 133 182 202.5t207 69.5zM453 268q170 0 344 269q-170 260 -344 260 q-113 0 -186.5 -75t-73.5 -185q0 -113 74.5 -191t185.5 -78zM1219 268q111 0 185.5 78t74.5 191q0 111 -75 185.5t-185 74.5q-174 0 -345 -260q175 -269 345 -269z" glyph-name="infinity" horiz-adv-x="1669" unicode="∞"/><glyph d="M-131 -389v55q111 0 161 50.5t50 189.5v1224q0 180 66.5 242t201.5 62v-56q-111 0 -160 -48t-49 -185v-1225q0 -182 -67.5 -245.5t-202.5 -63.5z" glyph-name="integral" horiz-adv-x="456" unicode="∫"/><glyph d="M506 621q-63 0 -135 73.5t-125 73.5q-47 0 -71.5 -31.5t-24.5 -77.5h-58q0 82 46 123t112 41q53 0 95 -36.5t81 -72.5t84 -36q47 0 71.5 30.5t24.5 75.5h58q0 -82 -46 -122.5t-112 -40.5zM506 297q-63 0 -135 72.5t-125 72.5q-47 0 -71.5 -30.5t-24.5 -75.5h-58 q0 82 46 123t112 41q53 0 95 -37t81 -74t84 -37q47 0 71.5 32t24.5 77h58q0 -82 -46 -123t-112 -41z" glyph-name="approxequal" horiz-adv-x="755" unicode="≈"/><glyph d="M778 719h-262l-106 -277h368v-45h-387l-153 -397h-52l154 397h-248v45h266l107 277h-373v47h391l150 383h51l-149 -383h243v-47z" glyph-name="notequal" horiz-adv-x="870" unicode="≠"/><glyph d="M795 322l-703 421v50l703 421v-57l-652 -389l652 -387v-59zM92 47h703v-47h-703v47z" glyph-name="lessequal" horiz-adv-x="894" unicode="≤"/><glyph d="M92 322v59l651 387l-651 389v57l703 -421v-50zM795 47v-47h-703v47h703z" glyph-name="greaterequal" horiz-adv-x="886" unicode="≥"/><glyph d="M473 1434l318 -717l-318 -717h-63l-318 717l318 717h63zM442 72l285 645l-285 645l-286 -645z" glyph-name="lozenge" horiz-adv-x="882" unicode="◊"/><glyph d="M113 0l120 1454h72l598 -1376l596 1376h72l121 -1454h-64l-104 1350l-594 -1350h-56l-587 1350l-111 -1350h-63z" glyph-name="M.aalt" horiz-adv-x="1804"/><glyph d="M137 1382v66h60v-66h-60zM152 0v1065h57v-1065h-57z" glyph-name="i.locl" horiz-adv-x="348"/><glyph d="M158 1362q-23 0 -38.5 15.5t-15.5 37.5q0 20 15.5 34.5t38 14.5t36 -13t13.5 -35.5t-14.5 -38t-34.5 -15.5zM127 0v1065h57v-1065h-57z" glyph-name="i.salt" horiz-adv-x="311"/><glyph d="M157.5 1362q-22.5 0 -38 15.5t-15.5 37.5q0 20 15.5 34.5t38 14.5t37 -14t14.5 -35q0 -23 -14.5 -38t-37 -15zM-199 -395v55h35q139 0 215 67.5t76 243.5v1094h59v-1092q0 -211 -95 -289.5t-263 -78.5h-27z" glyph-name="j.aalt" horiz-adv-x="313"/><glyph d="M985 1012h-201v-862q0 -106 99 -107q47 0 96 23v-54q-45 -25 -98 -24q-72 0 -114 35.5t-42 105.5v883h-489v-1012h-58v1012h-108v53h108v168q0 137 68.5 197.5t165.5 60.5q80 0 139 -41v-51q-61 37 -141 37q-174 0 -174 -209v-162h489v272h59v-272h201v-53z" glyph-name="f_t.dlig" horiz-adv-x="1083"/><glyph d="M1026 1012h-201v-862q0 -106 101 -107q45 0 94 23v-54q-41 -25 -96 -24q-156 0 -156 141v883h-59v-4h-369v4h-61v-862q0 -106 100 -107q45 0 94 23v-54q-41 -25 -96 -24q-74 0 -116 35.5t-42 105.5v883h-129v53h129v272h60v-272h489v272h57v-272h201v-53z" glyph-name="t_t.dlig" horiz-adv-x="1126"/><glyph d="M662 -20q-244 0 -392.5 201.5t-148.5 545.5t148.5 546t392.5 202q246 0 394 -202t148 -546t-148 -545.5t-394 -201.5zM661.5 39q210.5 0 346 179t135.5 509t-135.5 510t-346 180t-346 -180t-135.5 -510t135.5 -509t346 -179z" glyph-name="zero.salt" horiz-adv-x="1325"/><glyph d="M745 -20q-246 0 -394 201.5t-148 545.5t148.5 546t393.5 202q244 0 392.5 -202t148.5 -546t-148.5 -545.5t-392.5 -201.5zM745 39q211 0 346.5 179t135.5 509t-135.5 510t-346 180t-347 -180t-136.5 -510t135 -509t348 -179z" glyph-name="zero.tnum" horiz-adv-x="1433"/><glyph d="M707 0v1393h-175v61h232v-1454h-57z" glyph-name="one.tnum" horiz-adv-x="1433"/><glyph d="M289 0l483 580q12 14 72.5 84.5t75 90t54.5 76t52 88t25.5 81t13.5 98.5q0 143 -91 231t-253 88q-164 0 -265.5 -95t-101.5 -267v-33h-57v39q0 188 121 301t303 113t290.5 -106.5t108.5 -268.5q0 -53 -14 -108.5t-28.5 -92.5t-51.5 -90t-51 -72.5t-61.5 -73t-51.5 -59.5 l-461 -549h725v-55h-837z" glyph-name="two.tnum" horiz-adv-x="1433"/><glyph d="M719 -20q-168 0 -288 85t-163 222l51 22q41 -121 146.5 -196.5t257.5 -75.5q174 0 293 103.5t119 289.5q0 211 -147.5 315.5t-352.5 65.5l397 588h-676v55h781l-400 -580q182 6 319.5 -112.5t137.5 -327.5q0 -205 -137 -329.5t-338 -124.5z" glyph-name="three.tnum" horiz-adv-x="1433"/><glyph d="M1151 479v-57h-154v-422h-59v422h-649v57l649 975h59v-975h154zM352 479h586v875z" glyph-name="four.tnum" horiz-adv-x="1433"/><glyph d="M700 -20q-164 0 -283.5 82.5t-172.5 207.5l51 29q45 -111 154.5 -186.5t255.5 -75.5q184 0 309 122t125 312.5t-121 313t-305 122.5q-236 0 -371 -188l-55 12l100 723h666v-55h-619l-86 -598q141 162 363 162q205 0 345 -137.5t140 -356.5q0 -213 -140.5 -351 t-355.5 -138z" glyph-name="five.tnum" horiz-adv-x="1433"/><glyph d="M747.5 -20q-194.5 0 -324.5 128t-130 328q0 47 7 93t24.5 92.5t32 79t42 76.5t40 63.5t42 60.5t33.5 47l358 506h68l-489 -694l8 10q135 102 284 102q197 0 328 -122.5t131 -319.5t-130 -323.5t-324.5 -126.5zM748 39q162 0 279.5 105.5t117.5 283.5q0 176 -118 280.5 t-279 104.5q-164 0 -280 -104.5t-116 -280.5q0 -178 116 -283.5t280 -105.5z" glyph-name="six.tnum" horiz-adv-x="1433"/><glyph d="M498 0l530 1399h-721v55h801l-547 -1454h-63z" glyph-name="seven.tnum" horiz-adv-x="1433"/><glyph d="M743 -20q-184 0 -314 117.5t-130 303.5q0 137 75 238.5t201 155.5q-193 111 -192 327q0 145 99.5 249t260.5 104q160 0 259.5 -103.5t99.5 -249.5q0 -217 -193 -327q127 -53 202 -154.5t75 -239.5q0 -186 -130.5 -303.5t-312.5 -117.5zM743 817q125 0 214.5 88t89.5 215 q0 121 -83 209t-221 88q-139 0 -222 -88t-83 -209q0 -129 89 -216t216 -87zM743.5 39q157.5 0 268 98.5t110.5 261.5q0 162 -107.5 263.5t-271 101.5t-272.5 -101.5t-109 -263t112 -261t269.5 -99.5z" glyph-name="eight.tnum" horiz-adv-x="1433"/><glyph d="M729.5 1475q194.5 0 324.5 -128t130 -329q0 -55 -13.5 -112.5t-27 -97.5t-46 -96.5t-46 -77t-51 -73.5t-39.5 -55l-359 -506h-67l491 694l-10 -10q-131 -102 -285 -102q-197 0 -328 122.5t-131 319.5t131.5 324t326 127zM729 1415q-162 0 -279.5 -105.5t-117.5 -283.5 q0 -176 117.5 -280.5t279.5 -104.5q164 0 279.5 104.5t115.5 280.5q0 178 -115.5 283.5t-279.5 105.5z" glyph-name="nine.tnum" horiz-adv-x="1433"/><glyph d="M266 -4q-92 0 -153.5 71.5t-61.5 186.5v27q0 115 61.5 186.5t153.5 71.5q96 0 155.5 -72t59.5 -186v-27q0 -115 -59.5 -186.5t-155.5 -71.5zM266 59q63 0 101.5 51.5t38.5 143.5v27q0 92 -38 143t-102 51q-59 0 -99 -52t-40 -142v-27q0 -90 40 -142.5t99 -52.5z" glyph-name="zero.dnom" horiz-adv-x="532"/><glyph d="M123 0v453l-35 -23l-37 64l72 41h76v-535h-76z" glyph-name="one.dnom" horiz-adv-x="249"/><glyph d="M57 0v66l140 141q57 59 74.5 78.5t31.5 46t14 55.5q0 37 -28.5 63.5t-65.5 26.5q-39 0 -67.5 -26.5t-28.5 -75.5v-29h-76v29q0 72 50.5 119t121.5 47q70 0 121 -46t51 -108q0 -53 -29.5 -96t-109.5 -125l-96 -100h241v-66h-344z" glyph-name="two.dnom" horiz-adv-x="452"/><glyph d="M238 -8q-82 0 -135.5 55t-51.5 131h78q4 -51 31.5 -86t77.5 -35q45 0 77.5 28t32.5 71q0 55 -38 75.5t-113 24.5v57q129 0 129 86q0 33 -26 54.5t-62 21.5q-94 0 -97 -110h-75q0 78 48 126t124 48q66 0 114.5 -42t48.5 -98q0 -66 -61 -108q86 -37 86 -135q0 -70 -56 -117 t-132 -47z" glyph-name="three.dnom" horiz-adv-x="477"/><glyph d="M322 0v156h-271l271 379h75v-316h56v-63h-56v-156h-75zM188 219h134v195z" glyph-name="four.dnom" horiz-adv-x="503"/><glyph d="M236 -8q-68 0 -120.5 38t-64.5 89l68 39q4 -41 35.5 -71t81.5 -30q47 0 81.5 36t34.5 89q0 51 -33.5 87t-74.5 36q-72 0 -117 -59l-66 16l37 273h283v-66h-213l-16 -119q45 20 92 21q72 0 129 -54.5t57 -134.5t-57 -135t-137 -55z" glyph-name="five.dnom" horiz-adv-x="481"/><glyph d="M229.5 -8q-69.5 0 -124 51t-54.5 123q0 33 11.5 64.5t20.5 47t36.5 51.5t34.5 44l116 162h86l-139 -197h12q70 0 123.5 -51t53.5 -121q0 -72 -53.5 -123t-123 -51zM229 57q37 0 69 31t32 78t-31 76.5t-70 29.5q-45 0 -73.5 -28.5t-28.5 -77.5q0 -47 31.5 -78t70.5 -31z " glyph-name="six.dnom" horiz-adv-x="456"/><glyph d="M117 0l182 469h-248v66h355l-209 -535h-80z" glyph-name="seven.dnom" horiz-adv-x="456"/><glyph d="M238 -4q-76 0 -131.5 46t-55.5 116q0 92 88 135q-61 39 -61 108q0 53 44 95.5t116 42.5q74 0 117.5 -41t43.5 -97q0 -70 -61 -108q88 -43 88 -135q0 -70 -55 -116t-133 -46zM238 322q37 0 60.5 23.5t23.5 55.5q0 74 -84 74q-41 0 -62.5 -21.5t-21.5 -52t25.5 -55 t58.5 -24.5zM238 59q49 0 79.5 27t30.5 72t-30.5 72.5t-79.5 27.5q-45 0 -78 -28.5t-33 -71.5q0 -41 33 -70t78 -29z" glyph-name="eight.dnom" horiz-adv-x="477"/><glyph d="M100 0l140 195h-11q-72 0 -125 52t-53 122q0 72 54.5 122t124 50t124 -50.5t54.5 -121.5q0 -27 -5.5 -49.5t-18.5 -46t-21.5 -37t-30 -40t-29.5 -36.5l-115 -160h-88zM229 260q45 0 73 29.5t28 79.5q0 45 -32 75.5t-69 30.5q-39 0 -70.5 -30.5t-31.5 -75.5 q0 -47 31.5 -78t70.5 -31z" glyph-name="nine.dnom" horiz-adv-x="458"/><glyph d="M266 897q-92 0 -153.5 71.5t-61.5 186.5v27q0 115 61.5 186.5t153.5 71.5q96 0 155.5 -72t59.5 -186v-27q0 -115 -59.5 -186.5t-155.5 -71.5zM266 961q63 0 101.5 51t38.5 143v27q0 92 -38 143t-102 51q-59 0 -99 -52t-40 -142v-27q0 -90 40 -142t99 -52z" glyph-name="zero.numr" horiz-adv-x="532"/><glyph d="M123 901v453l-35 -23l-37 64l72 41h76v-535h-76z" glyph-name="one.numr" horiz-adv-x="249"/><glyph d="M57 901v66l140 141q57 59 74.5 78.5t31.5 46.5t14 55q0 37 -28.5 63.5t-65.5 26.5q-39 0 -67.5 -26.5t-28.5 -75.5v-29h-76v29q0 72 50.5 119t121.5 47q70 0 121 -46t51 -108q0 -53 -29.5 -96t-109.5 -125l-96 -100h241v-66h-344z" glyph-name="two.numr" horiz-adv-x="452"/><glyph d="M238 893q-82 0 -135.5 55.5t-51.5 130.5h78q4 -51 31.5 -86t77.5 -35q45 0 77.5 28t32.5 71q0 55 -38 75.5t-113 24.5v57q129 0 129 86q0 33 -26 54.5t-62 21.5q-94 0 -97 -110h-75q0 78 48 126t124 48q66 0 114.5 -42t48.5 -98q0 -66 -61 -108q86 -37 86 -135 q0 -70 -56 -117t-132 -47z" glyph-name="three.numr" horiz-adv-x="477"/><glyph d="M322 901v156h-271l271 379h75v-316h56v-63h-56v-156h-75zM188 1120h134v195z" glyph-name="four.numr" horiz-adv-x="503"/><glyph d="M236 893q-68 0 -120.5 38t-64.5 89l68 39q4 -41 35.5 -71t81.5 -30q47 0 81.5 36t34.5 89q0 51 -33.5 87t-74.5 36q-72 0 -117 -59l-66 16l37 273h283v-66h-213l-16 -119q45 20 92 21q72 0 129 -54.5t57 -134t-57 -135t-137 -55.5z" glyph-name="five.numr" horiz-adv-x="481"/><glyph d="M229.5 893q-69.5 0 -124 51t-54.5 123q0 33 11.5 64.5t20.5 47t36.5 51.5t34.5 44l116 162h86l-139 -197h12q70 0 123.5 -51t53.5 -121q0 -72 -53.5 -123t-123 -51zM229 958q37 0 69 31t32 78t-31 77t-70 30q-45 0 -73.5 -29t-28.5 -78q0 -47 31.5 -78t70.5 -31z" glyph-name="six.numr" horiz-adv-x="456"/><glyph d="M117 901l182 469h-248v66h355l-209 -535h-80z" glyph-name="seven.numr" horiz-adv-x="456"/><glyph d="M238 897q-76 0 -131.5 46t-55.5 116q0 92 88 135q-61 39 -61 109q0 53 44 95t116 42q74 0 117.5 -41t43.5 -96q0 -70 -61 -109q88 -43 88 -135q0 -70 -55 -116t-133 -46zM238 1223q37 0 60.5 23.5t23.5 56.5q0 74 -84 73q-41 0 -62.5 -21.5t-21.5 -52t25.5 -55 t58.5 -24.5zM238 961q49 0 79.5 26.5t30.5 71.5t-30.5 72.5t-79.5 27.5q-45 0 -78 -28.5t-33 -71.5q0 -41 33 -69.5t78 -28.5z" glyph-name="eight.numr" horiz-adv-x="477"/><glyph d="M100 901l140 195h-11q-72 0 -125 52t-53 122q0 72 54.5 122t124 50t124 -50.5t54.5 -121.5q0 -27 -5.5 -49.5t-18.5 -46t-21.5 -37t-30 -40t-29.5 -36.5l-115 -160h-88zM229 1161q45 0 73 30t28 79q0 45 -32 75.5t-69 30.5q-39 0 -70.5 -30.5t-31.5 -75.5q0 -47 31.5 -78 t70.5 -31z" glyph-name="nine.numr" horiz-adv-x="458"/></font>
</defs>
</svg>
