<svg width="519.58mm" height="512.73mm" version="1.1" viewBox="0 0 519.58 512.73" xmlns="http://www.w3.org/2000/svg" xmlns:xlink="http://www.w3.org/1999/xlink"><defs><linearGradient id="linearGradient863" x1="-110.07" x2="187.46" y1="-199.34" y2="-428.16" gradientUnits="userSpaceOnUse"><stop stop-color="#188282" offset="0"/><stop stop-color="#085656" offset="1"/></linearGradient><linearGradient id="linearGradient871" x1="154.52" x2="-57.222" y1="-199.18" y2="-157.12" gradientUnits="userSpaceOnUse"><stop stop-color="#085656" offset="0"/><stop stop-color="#f6cc79" offset="1"/></linearGradient><linearGradient id="linearGradient879" x1="110.6" x2="221.81" y1="-529.4" y2="-533.12" gradientUnits="userSpaceOnUse"><stop stop-color="#085656" offset="0"/><stop stop-color="#f6cc79" offset="1"/></linearGradient><linearGradient id="linearGradient891" x1="350.76" x2="250.09" y1="-400.89" y2="-273.23" gradientUnits="userSpaceOnUse"><stop stop-color="#f6cc79" offset="0"/><stop stop-color="#085656" offset="1"/></linearGradient></defs><g transform="translate(185.89 616.17)"><path d="m-57.106-543.24-97.316 133.17 452.03-82.66-22.464-93.174-159.71-30.254z" fill="url(#linearGradient879)"/><path d="m297.6-492.74 36.09 75.269-120.14 214.1-201.76-47.904 95.125-208.31z" fill="url(#linearGradient891)"/><path d="m-157.71-317.61 147.26 122.65 224.01-8.4021-10.66-181.37-154.84 35.004z" fill="url(#linearGradient871)"/><path d="m-154.42-410.08-3.2863 92.465 371.27 114.25 84.046-289.37-182.18-123.43z" fill="url(#linearGradient863)"/></g></svg>
