<svg width="752.17mm" height="426.38mm" version="1.1" viewBox="0 0 752.17 426.38" xmlns="http://www.w3.org/2000/svg" xmlns:xlink="http://www.w3.org/1999/xlink"><defs><linearGradient id="linearGradient841" x1="-12.339" x2="241.85" y1="-258.72" y2="-451.57" gradientUnits="userSpaceOnUse"><stop stop-color="#085656" offset="0"/><stop stop-color="#188282" offset="1"/></linearGradient><linearGradient id="linearGradient851" x1="336.17" x2="241.85" y1="-360.66" y2="-451.57" gradientUnits="userSpaceOnUse"><stop stop-color="#085656" offset="0"/><stop stop-color="#188282" offset="1"/></linearGradient><linearGradient id="linearGradient861" x1="241.85" x2="104.17" y1="-451.57" y2="-485.72" gradientUnits="userSpaceOnUse"><stop stop-color="#188282" offset="0"/><stop stop-color="#085656" offset="1"/></linearGradient><linearGradient id="linearGradient871" x1="-148.5" x2="-100.5" y1="-176.51" y2="-69.218" gradientUnits="userSpaceOnUse"><stop stop-color="#085656" offset="0"/><stop stop-color="#033c3c" offset="1"/></linearGradient><linearGradient id="linearGradient875" x1="-148.5" x2="-187.8" y1="-176.51" y2="-211.51" gradientUnits="userSpaceOnUse"><stop stop-color="#085656" offset="0"/><stop stop-color="#033c3c" offset="1"/></linearGradient><linearGradient id="linearGradient891" x1="253.86" x2="241.85" y1="-465.91" y2="-451.57" gradientTransform="translate(0,-2e-5)" gradientUnits="userSpaceOnUse"><stop stop-color="#085656" offset="0"/><stop stop-color="#188282" offset="1"/></linearGradient><linearGradient id="linearGradient901" x1="-148.5" x2="-199.46" y1="-176.51" y2="-131.53" gradientUnits="userSpaceOnUse"><stop stop-color="#085656" offset="0"/><stop stop-color="#033c3c" offset="1"/></linearGradient></defs><g transform="translate(270.15 511.21)"><path d="m202.82-511.21 2.3068 97.952 140.45 5.4374z" fill="url(#linearGradient891)"/><path d="m202.82-511.21-270.38 34.389 101.19 157.97 208.23-132.72z" fill="url(#linearGradient861)"/><path d="m482.02-150.3-136.44-257.52-103.72-43.753 2.9905 117.63z" fill="url(#linearGradient851)"/><path d="m-194.11-84.824-76.04-41.937 243.47-162.76z" fill="url(#linearGradient901)"/><path d="m-148.51-176.51 92.044-111.43-11.098-188.88-202.59 350.06z" fill="url(#linearGradient875)"/><path d="m482.02-150.3-676.13 65.477 45.605-91.684 162.92-129.85z" fill="url(#linearGradient871)"/><path d="m241.85-451.57 240.16 301.27-630.52-26.207 80.946-300.31z" fill="url(#linearGradient841)"/></g></svg>
