<svg width="20.926mm" height="20.926mm" version="1.1" viewBox="0 0 20.926 20.926" xmlns="http://www.w3.org/2000/svg">
 <g transform="translate(-18.547 -144.56)">
  <g transform="matrix(.036469 0 0 .036469 31.863 146.68)">
   <rect x="-1838.5" y="-1560.7" width="2996.3" height="1103.3" fill="#ffd42a"/>
   <rect x="-365.84" y="-99.04" width="2568.9" height="655.66" fill-opacity="0"/>
   <g stroke-width="1.1207">
    <circle cx="-78.251" cy="228.79" r="286.9" fill="#ff0060"/>
    <path d="m40.72 101.04c-43.112-48.334-79.428-71.852-111.01-71.852-31.604 0-54.355 21.755-54.355 43.376 0 69.059 40.561 76.509 58.013 76.509 4.7877 0 9.4051-0.48863 13.659-1.2552l15.444 170.07c0.64105 6.8992 5.2808 12.767 11.839 14.955l39.418 13.135-11.306 158.14c23.921-6.9978 46.568-16.972 67.458-29.587 16.457-55.964 31.824-126.11 31.824-193.04 0-71.211-22.235-136.98-60.985-180.45z" fill="#ffd464"/>
    <path d="m40.707 101.05c-43.107-48.334-79.428-71.847-111.01-71.847-2.6942 0-5.2943 0.2107-7.845 0.50208 29.748 3.4877 63.635 26.897 103.28 71.345 38.746 43.471 60.985 109.24 60.985 180.45 0 71.085-17.331 145.81-34.899 203.3 6.3388-3.2142 12.579-6.5988 18.635-10.257 16.457-55.969 31.824-126.11 31.824-193.05 0.0179-71.206-22.222-136.98-60.972-180.45z" fill="#f2c95f"/>
    <path d="m79.564 439.12c12.328-48.684 22.132-104.18 22.132-157.62 0-71.206-22.24-136.98-60.985-180.45-14.717-16.501-28.619-30.035-41.834-40.812l-13.471 35.088c15.995-0.86968 44.551 39.104 26.382 64.536-31.134 3.3711-40.225 49.652-26.382 76.899 13.83 27.247 101.62 87.784 94.158 202.36z" fill="#2995cc"/>
    <path d="m28.572 87.959c-2.9408-3.0618-5.8546-6.0205-8.7282-8.8358-0.28242-0.29139-0.58726-0.59174-0.86968-0.88313-6.8543-6.6616-13.538-12.637-20.038-17.945-0.022414-0.01793-0.040346-0.03586-0.06276-0.05828l-3.8777 10.095c9.6741 8.7999 19.707 19.003 30.152 30.717 38.746 43.471 60.985 109.24 60.985 180.45 0 34.46-4.0884 69.763-10.279 103.55 3.4473 16.533 4.9939 34.491 3.7208 54.077 1.4569-5.7515 2.878-11.611 4.2408-17.533 0.17483-0.77554 0.34966-1.56 0.53346-2.3356 1.3224-5.7874 2.609-11.629 3.8284-17.537 0.01793-0.10759 0.05379-0.21069 0.07173-0.30932 1.2149-5.895 2.349-11.866 3.4518-17.882 0.20621-1.1297 0.40346-2.2818 0.60967-3.4204 1.0266-5.7605 1.9814-11.561 2.869-17.403 0.04483-0.25552 0.08517-0.4976 0.11655-0.75761 0.88313-5.9488 1.6721-11.947 2.3983-17.945 0.16138-1.3673 0.31828-2.7256 0.47519-4.0929 0.6545-5.8143 1.2597-11.651 1.7528-17.47 0.0269-0.24656 0.05828-0.47071 0.0807-0.72623 0.47966-5.9533 0.84278-11.916 1.1297-17.869 0.0717-1.448 0.12552-2.9004 0.1838-4.3618 0.23759-6.0071 0.40346-12.005 0.40346-17.967 0-71.206-22.24-136.98-60.985-180.45-3.3666-3.7746-6.675-7.343-9.961-10.808-0.76209-0.78899-1.4794-1.5376-2.2011-2.2997z" fill="#268cbf"/>
    <path d="m-1.1321 60.237c-25.499-20.778-48.366-31.048-69.171-31.048-31.6 0-54.355 21.755-54.355 43.376 0 0.74416 0.0314 1.4256 0.0448 2.1563 25.449-13.96 69.794-29.408 123.48-14.484z" fill="#2995cc"/>
    <path d="m-78.103 29.7c-9e-3 0.0045-0.0269 0.0045-0.03586 0.0045 17.138 2.0128 35.666 10.674 55.852 26.117 6.8633 0.98623 13.915 2.4028 21.155 4.4156-9.4454-7.7016-18.537-13.933-27.287-18.77-0.25104-0.13449-0.49312-0.26897-0.74416-0.40346-2.6225-1.4211-5.2136-2.7077-7.7778-3.8777-0.26449-0.12104-0.5245-0.25552-0.79795-0.37208-5.4019-2.4073-10.665-4.2094-15.802-5.4781-0.64554-0.1569-1.2687-0.2869-1.9142-0.42587-1.9007-0.42587-3.7791-0.75312-5.6439-1.0176-0.67692-0.09414-1.3673-0.20621-2.0307-0.27794-2.4163-0.27346-4.8012-0.44381-7.1726-0.44381-1.5242 0-3.0035 0.09414-4.4829 0.19276-1.1118 0.10759-2.219 0.21518-3.3173 0.33622z" fill="#268cbf"/>
    <path d="m-297.78 413.44c8.253 9.8041 17.116 19.084 26.592 27.7 87.206-31.053 245-71.184 423.04-40.969 7.5178-10.073 14.341-20.688 20.5-31.721-203.87-38.665-380.89 10.983-470.13 44.99z" fill="#99602e"/>
    <path d="m-65.385 95.275c-4.0436 0-8.1051-1.7304-11.059-4.5412-2.8108-2.9766-4.5187-7.0516-4.5187-11.127 0-4.0705 1.708-8.1275 4.5187-11.118 5.7695-5.7964 16.345-5.7964 22.11 0 2.8018 2.9901 4.5232 7.0471 4.5232 11.118 0 4.0749-1.7214 8.1499-4.5232 11.127-2.9587 2.8108-7.0112 4.5412-11.05 4.5412z" fill="#f5f5f5"/>
   </g>
   <g>
    <g transform="matrix(1.1207 0 0 1.1207 -365.16 -58.111)">
     <path d="m267.48 132.23c-2.412 0-4.82-1.02-6.584-2.7-1.672-1.772-2.688-4.196-2.688-6.62 0-2.416 1.016-4.84 2.688-6.612 3.428-3.448 9.72-3.448 13.148 0 1.664 1.772 2.688 4.2 2.688 6.612 0 2.424-1.024 4.848-2.688 6.62-1.748 1.68-4.152 2.7-6.564 2.7z"/>
     <path d="m324.81 105.6c-21.144 55.584-46.948 62.188-79.56 51.96-33.772-10.584-27.288-54.3-19.204-65.48 0.048-0.036 0.084-0.084 0.128-0.128-7.92 3.74-18.036 9.544-28.568 18.348-10.708 8.916-16.94 20.688-18.036 34.04-2.416 29.4 15.784 59.584 35.016 65.476 13.056-0.756 17.86-24.724 20.416-33.02 10.896 9.02 22.836 9.804 30.508 9.804 4.268 0 9.388-0.572 13.168-1.252 20.072-13.644 33.62-25.272 46.132-79.748z"/>
    </g>
    <rect x="257.17" y="-99.04" width="23.037" height="655.66" fill="#292929"/>
    <text transform="scale(1.0279 .97286)" x="310.00232" y="75.623993" fill="#292929" font-family="'URW Gothic'" font-size="338.71px" letter-spacing="0px" stroke-width="8.4681" word-spacing="0px" style="font-feature-settings:normal;font-variant-caps:normal;font-variant-ligatures:normal;font-variant-numeric:normal;line-height:1.25" xml:space="preserve"><tspan x="310.00232" y="75.623993" dy="69.842049" style="font-feature-settings:normal;font-variant-caps:normal;font-variant-ligatures:normal;font-variant-numeric:normal;line-height:0">Tortuga</tspan><tspan x="310.00232" y="499.01733" style="font-feature-settings:normal;font-variant-caps:normal;font-variant-ligatures:normal;font-variant-numeric:normal;line-height:0">Webdesign</tspan></text>
   </g>
  </g>
 </g>
</svg>
